<svg xmlns="http://www.w3.org/2000/svg" width="339.252" height="508.1" viewBox="0 0 339.252 508.1">
  <g id="Group_123" data-name="Group 123" transform="translate(-330.792 -246)" opacity="0.55">
    <path id="Path_648" data-name="Path 648" d="M649.6,316.4c-20.9-25.4-49.2-45.2-81.9-56.9a202.676,202.676,0,0,0-134.6,0,186.853,186.853,0,0,0-81.9,56.9c-24.1,29.1-18.3,159.9-16,188.3a134.329,134.329,0,0,0,9,33.2c.1.1.1.3.2.4a116.51,116.51,0,0,0,18.2,30.2c2.9,27.5,3.5,69.4,6.1,97.3,10.1,17.7,15.2,26.8,30.4,43.1l6.5,6.5L423.2,733l3.8,3.8a14.849,14.849,0,0,1,1,1.2,10.591,10.591,0,0,1,1,1.2c1.5,1.7,3.9,4.6,7.6,9.1,1,1.2,2.1,2.5,3.1,3.8H561.3c1-1.3,2.1-2.5,3.1-3.8,3.7-4.4,6.1-7.3,7.6-9.1.3-.4.7-.8,1-1.2.7-.8,1-1.2,1-1.2l3.8-3.8c6.2-6.2,12-12.1,17.6-17.6l6.5-6.5c15.2-16.3,20.3-25.3,30.4-43.1,2.5-27.9,3.2-69.8,6.1-97.3a114.831,114.831,0,0,0,18.2-30.2c.1-.1.1-.2.2-.4a134.33,134.33,0,0,0,9-33.2C667.9,476.4,673.7,345.6,649.6,316.4ZM634.7,496c-5.6,4.2-38.8,8.6-50.7,7.6-30.4-2.5-45.8-7.4-48.8-8.3-5.4-11.6-6.9-14.5-6.9-14.5H472.5s-1.5,2.9-6.9,14.5c-3.1.9-18.4,5.8-48.8,8.3-11.9,1-45.1-3.4-50.7-7.6-5.1-15.2-7.6-32.9-7.6-32.9s3.2-8.6,5.4-17.4c17.4,17.7,116.8,21.8,133.9,22.3.5,0,.9.1,1.2.1h.2a7.25,7.25,0,0,0,2.4,0h.2a5.739,5.739,0,0,0,1.2-.1c17.2-.6,116.5-4.6,133.9-22.3,2.2,8.7,5.4,17.4,5.4,17.4S639.8,480.8,634.7,496Z" fill="#dd2e2e"/>
    <g id="Group_119" data-name="Group 119">
      <path id="Path_649" data-name="Path 649" d="M642.3,463.5s-2.5,17.7-7.6,32.9c-5.6,4.2-38.8,8.6-50.7,7.6-30.4-2.5-45.8-7.1-48.8-8.1-5.4-11.6-6.9-14.2-6.9-14.2H472.5s-1.5,2.6-6.9,14.2c-3.1.9-18.4,5.7-48.8,8.2-11.9,1-45.1-3.5-50.7-7.7-5.1-15.2-7.6-33-7.6-33s3.2-8.6,5.4-17.4c17.4,17.7,116.8,22,133.9,22.6.5,0,.9.3,1.2.3h.2a7.25,7.25,0,0,0,2.4,0h.2c.3,0,.7-.3,1.2-.3,17.2-.6,116.5-4.8,133.9-22.5A176.973,176.973,0,0,0,642.3,463.5Z" fill="#b8ffff" stroke="#000" stroke-miterlimit="10" stroke-width="2.314"/>
      <path id="Path_650" data-name="Path 650" d="M642,463.6s-2.5,17.6-7.6,32.7c-5.6,4.1-38.7,8.5-50.6,7.5-30.3-2.5-45.7-7.1-48.7-8-5.4-11.5-6.9-14.1-6.9-14.1H472.6s-1.5,2.6-6.9,14.1c-3.1.9-18.4,5.6-48.7,8.1-11.9,1-45-3.5-50.6-7.6-5.1-15.1-7.6-32.7-7.6-32.7s3.2-8.6,5.4-17.2c17.4,17.5,116.5,21.6,133.6,22.4.5,0,.9.3,1.2.3h.2a7.25,7.25,0,0,0,2.4,0h.2c.3,0,.7-.3,1.2-.3,17.1-.8,116.2-4.8,133.6-22.3A176.639,176.639,0,0,0,642,463.6Z" fill="#b9ffff"/>
      <path id="Path_651" data-name="Path 651" d="M641.6,463.7s-2.5,17.4-7.6,32.4c-5.6,4.1-38.6,8.5-50.4,7.5-30.3-2.5-45.5-7-48.6-7.9-5.4-11.4-6.9-14-6.9-14H472.6s-1.5,2.6-6.9,14c-3.1.9-18.3,5.6-48.6,8-11.9,1-44.9-3.4-50.4-7.5-5-14.9-7.6-32.4-7.6-32.4s3.2-8.5,5.4-17.1c17.3,17.3,116.2,21.4,133.3,22.2.5,0,.9.3,1.2.3h2.8c.3,0,.7-.3,1.2-.3,17.1-.8,115.9-4.7,133.3-22.1A158.011,158.011,0,0,0,641.6,463.7Z" fill="#baffff"/>
      <path id="Path_652" data-name="Path 652" d="M641.3,463.8s-2.5,17.3-7.5,32.1c-5.6,4.1-38.5,8.4-50.3,7.4-30.2-2.5-45.4-7-48.5-7.8-5.4-11.3-6.9-13.9-6.9-13.9H472.8s-1.5,2.5-6.9,13.9c-3,.9-18.3,5.5-48.5,8-11.8,1-44.7-3.4-50.3-7.5-5-14.8-7.5-32.1-7.5-32.1s3.2-8.4,5.4-16.9c17.3,17.2,115.9,21.2,132.9,22,.5,0,.9.3,1.2.3h2.8c.3,0,.7-.3,1.2-.3,17-.7,115.6-4.7,132.9-21.9A163.876,163.876,0,0,0,641.3,463.8Z" fill="#bff"/>
      <path id="Path_653" data-name="Path 653" d="M640.9,463.9s-2.5,17.1-7.5,31.8c-5.5,4-38.4,8.3-50.2,7.3-30.1-2.4-45.3-6.9-48.3-7.8-5.4-11.2-6.8-13.7-6.8-13.7H472.9s-1.5,2.5-6.8,13.7c-3,.9-18.2,5.5-48.3,7.9-11.8,1-44.6-3.4-50.2-7.4-5-14.7-7.5-31.8-7.5-31.8s3.2-8.3,5.4-16.8c17.3,17,115.6,21.1,132.6,21.8.5,0,.9.3,1.2.3h2.8c.3,0,.7-.3,1.2-.3,17-.7,115.3-4.6,132.6-21.7A122.411,122.411,0,0,0,640.9,463.9Z" fill="#bcffff"/>
      <path id="Path_654" data-name="Path 654" d="M640.5,464s-2.5,17-7.5,31.5c-5.5,4-38.3,8.2-50,7.3-30-2.4-45.2-6.8-48.2-7.7-5.4-11.1-6.8-13.6-6.8-13.6H473s-1.5,2.5-6.8,13.6c-3,.9-18.2,5.4-48.2,7.8-11.8,1-44.5-3.3-50-7.3-5-14.5-7.5-31.5-7.5-31.5a172.875,172.875,0,0,0,5.4-16.6c17.2,16.9,115.3,20.9,132.2,21.6.5,0,.9.3,1.2.3h2.8c.3,0,.7-.3,1.2-.3,17-.7,115-4.6,132.2-21.5A140.2,140.2,0,0,0,640.5,464Z" fill="#bdffff"/>
      <path id="Path_655" data-name="Path 655" d="M640.2,464.1s-2.5,16.8-7.5,31.2c-5.5,4-38.2,8.2-49.9,7.2-30-2.4-45.1-6.8-48.1-7.6-5.3-11-6.8-13.5-6.8-13.5H473s-1.5,2.5-6.8,13.5c-3,.9-18.1,5.3-48.1,7.7-11.7,1-44.4-3.3-49.9-7.3-5-14.4-7.5-31.2-7.5-31.2s3.2-8.2,5.4-16.4c17.2,16.7,115,20.7,131.9,21.4.4,0,.9.3,1.2.3h2.6c.3,0,.7-.3,1.2-.3,16.9-.7,114.7-4.5,131.9-21.3A148.082,148.082,0,0,0,640.2,464.1Z" fill="#beffff"/>
      <path id="Path_656" data-name="Path 656" d="M639.8,464.2a198.48,198.48,0,0,1-7.5,30.9c-5.5,3.9-38.1,8.1-49.8,7.1-29.9-2.4-45-6.7-48-7.6-5.3-10.9-6.8-13.4-6.8-13.4H473s-1.5,2.4-6.8,13.4c-3,.9-18.1,5.3-48,7.7-11.7,1-44.3-3.3-49.8-7.2a198.48,198.48,0,0,1-7.5-30.9s3.2-8.1,5.4-16.3c17.1,16.6,114.7,20.5,131.6,21.2.4,0,.9.3,1.2.3h2.6c.3,0,.7-.3,1.2-.3,16.9-.7,114.4-4.5,131.6-21.1A169.67,169.67,0,0,0,639.8,464.2Z" fill="#bfffff"/>
      <path id="Path_657" data-name="Path 657" d="M639.5,464.4a199.864,199.864,0,0,1-7.4,30.6c-5.5,3.9-38,8-49.7,7.1-29.8-2.4-44.8-6.6-47.8-7.5-5.3-10.8-6.8-13.2-6.8-13.2H473.2s-1.5,2.4-6.8,13.2c-3,.8-18.1,5.2-47.8,7.6-11.7.9-44.2-3.2-49.7-7.1-5-14.1-7.4-30.6-7.4-30.6a153.815,153.815,0,0,0,5.3-16.1c17.1,16.4,114.4,20.3,131.2,21,.4,0,.9.3,1.2.3h2.6c.3,0,.7-.3,1.2-.3,16.8-.7,114.1-4.5,131.2-20.9A150.533,150.533,0,0,0,639.5,464.4Z" fill="#c0ffff"/>
      <path id="Path_658" data-name="Path 658" d="M639.1,464.5a197.36,197.36,0,0,1-7.4,30.3c-5.5,3.8-37.9,7.9-49.5,7-29.7-2.3-44.7-6.6-47.7-7.4-5.3-10.7-6.8-13.1-6.8-13.1H473.2s-1.5,2.4-6.8,13.1c-3,.8-18,5.2-47.7,7.5-11.6.9-44.1-3.2-49.5-7.1-5-14-7.4-30.3-7.4-30.3s3.1-7.9,5.3-16c17,16.2,114.1,20.1,130.9,20.8.4,0,.9.3,1.2.3h2.6c.3,0,.7-.3,1.2-.3,16.8-.7,113.9-4.4,130.9-20.7A153.82,153.82,0,0,0,639.1,464.5Z" fill="#c1ffff"/>
      <path id="Path_659" data-name="Path 659" d="M638.8,464.6s-2.5,16.2-7.4,30c-5.5,3.8-37.8,7.9-49.4,6.9-29.6-2.3-44.6-6.5-47.6-7.3-5.3-10.6-6.7-13-6.7-13H473.4s-1.5,2.4-6.7,13c-3,.8-18,5.1-47.6,7.5-11.6.9-43.9-3.2-49.4-7a194.888,194.888,0,0,1-7.4-30s3.1-7.9,5.3-15.8c17,16.1,113.8,19.9,130.6,20.6.4,0,.9.3,1.2.3H502c.3,0,.7-.3,1.2-.3,16.7-.7,113.6-4.4,130.6-20.5A116.452,116.452,0,0,0,638.8,464.6Z" fill="#c2ffff"/>
      <path id="Path_660" data-name="Path 660" d="M638.4,464.7a189.6,189.6,0,0,1-7.4,29.7c-5.4,3.8-37.7,7.8-49.3,6.9-29.6-2.3-44.5-6.4-47.5-7.3-5.3-10.5-6.7-12.8-6.7-12.8H473.3s-1.5,2.4-6.7,12.8c-3,.8-17.9,5.1-47.5,7.4-11.6.9-43.8-3.1-49.3-6.9-4.9-13.7-7.4-29.8-7.4-29.8s3.1-7.8,5.3-15.7c17,15.9,113.5,19.7,130.2,20.4.4,0,.9.3,1.2.3h2.6c.3,0,.7-.3,1.2-.3,16.7-.7,113.3-4.3,130.2-20.3C635.3,457,638.4,464.7,638.4,464.7Z" fill="#c3ffff"/>
      <path id="Path_661" data-name="Path 661" d="M638,464.8a187.174,187.174,0,0,1-7.4,29.4c-5.4,3.7-37.6,7.7-49.2,6.8-29.5-2.3-44.4-6.4-47.4-7.2-5.3-10.4-6.7-12.7-6.7-12.7H473.2s-1.5,2.3-6.7,12.7c-3,.8-17.9,5-47.4,7.3-11.6.9-43.7-3.1-49.2-6.8a187.048,187.048,0,0,1-7.4-29.5s3.1-7.7,5.3-15.5c16.9,15.8,113.2,19.5,129.9,20.2.4,0,.9.3,1.2.3h2.6c.3,0,.7-.3,1.2-.3,16.7-.7,113-4.3,129.9-20.1C634.9,457.2,638,464.8,638,464.8Z" fill="#c4ffff"/>
      <path id="Path_662" data-name="Path 662" d="M637.7,464.9a182,182,0,0,1-7.4,29.1c-5.4,3.7-37.5,7.6-49,6.7-29.4-2.2-44.3-6.3-47.2-7.1-5.2-10.3-6.7-12.6-6.7-12.6H473.5s-1.4,2.3-6.7,12.6c-3,.8-17.8,5-47.2,7.2-11.5.9-43.6-3.1-49-6.8-4.9-13.4-7.4-29.2-7.4-29.2s3.1-7.6,5.3-15.4c16.9,15.6,112.9,19.3,129.5,20,.4,0,.9.3,1.2.3h2.6c.3,0,.7-.3,1.2-.3,16.6-.7,112.7-4.2,129.5-19.9A140.71,140.71,0,0,0,637.7,464.9Z" fill="#c5ffff"/>
      <path id="Path_663" data-name="Path 663" d="M637.3,465a173.772,173.772,0,0,1-7.3,28.8c-5.4,3.7-37.4,7.5-48.9,6.7-29.3-2.2-44.2-6.3-47.1-7.1-5.2-10.2-6.7-12.5-6.7-12.5H473.5s-1.4,2.3-6.7,12.5c-3,.8-17.8,4.9-47.1,7.2-11.5.9-43.5-3.1-48.9-6.7-4.9-13.3-7.3-28.9-7.3-28.9s3.1-7.6,5.3-15.2c16.8,15.5,112.6,19.1,129.2,19.8a8.113,8.113,0,0,1,1.1.3h2.6c.3,0,.7-.3,1.1-.3,16.6-.7,112.4-4.2,129.2-19.7A154.839,154.839,0,0,0,637.3,465Z" fill="#c6ffff"/>
      <path id="Path_664" data-name="Path 664" d="M637,465.1a171.381,171.381,0,0,1-7.3,28.6c-5.4,3.6-37.3,7.5-48.8,6.6-29.3-2.2-44-6.2-47-7-5.2-10.1-6.7-12.3-6.7-12.3H473.6s-1.4,2.3-6.7,12.3c-3,.8-17.7,4.9-47,7.1-11.5.9-43.4-3-48.8-6.6a171.377,171.377,0,0,1-7.3-28.6,150.222,150.222,0,0,0,5.2-15.1c16.8,15.3,112.3,18.9,128.9,19.6a8.113,8.113,0,0,1,1.1.3h2.6c.3,0,.7-.3,1.1-.3,16.5-.7,112.1-4.2,128.9-19.5C633.9,457.8,637,465.1,637,465.1Z" fill="#c7ffff"/>
      <path id="Path_665" data-name="Path 665" d="M636.6,465.2a169.073,169.073,0,0,1-7.3,28.3c-5.4,3.6-37.2,7.4-48.6,6.5-29.2-2.2-43.9-6.1-46.9-6.9-5.2-10-6.6-12.2-6.6-12.2H473.7s-1.4,2.2-6.6,12.2c-2.9.8-17.7,4.8-46.9,7-11.4.9-43.3-3-48.6-6.6-4.9-13-7.3-28.3-7.3-28.3a146.855,146.855,0,0,0,5.2-14.9c16.7,15.2,112,18.7,128.5,19.4a8.113,8.113,0,0,1,1.1.3h2.6c.3,0,.7-.3,1.1-.3,16.5-.7,111.8-4.1,128.5-19.3A144.056,144.056,0,0,0,636.6,465.2Z" fill="#c8ffff"/>
      <path id="Path_666" data-name="Path 666" d="M636.3,465.3a164.313,164.313,0,0,1-7.3,28c-5.4,3.5-37.1,7.3-48.5,6.5-29.1-2.2-43.8-6.1-46.7-6.8-5.2-9.9-6.6-12.1-6.6-12.1H473.8s-1.4,2.2-6.6,12.1c-2.9.8-17.6,4.8-46.7,6.9-11.4.9-43.2-3-48.5-6.5a164.31,164.31,0,0,1-7.3-28,143.533,143.533,0,0,0,5.2-14.7c16.7,15,111.8,18.5,128.2,19.2.4,0,.8.3,1.1.3h2.6c.3,0,.7-.3,1.1-.3,16.4-.7,111.5-4.1,128.2-19.1A140.25,140.25,0,0,0,636.3,465.3Z" fill="#c9ffff"/>
      <path id="Path_667" data-name="Path 667" d="M635.9,465.5a162.057,162.057,0,0,1-7.3,27.7c-5.3,3.5-37,7.2-48.4,6.4-29-2.1-43.7-6-46.6-6.8-5.2-9.8-6.6-12-6.6-12H473.8s-1.4,2.2-6.6,12c-2.9.8-17.6,4.7-46.6,6.9-11.4.9-43-2.9-48.4-6.4a173.458,173.458,0,0,1-7.3-27.7,147.221,147.221,0,0,0,5.2-14.6c16.6,14.8,111.5,18.3,127.9,19,.4,0,.8.3,1.1.3h2.6c.3,0,.7-.3,1.1-.3,16.4-.6,111.2-4,127.9-18.9A143.894,143.894,0,0,0,635.9,465.5Z" fill="#caffff"/>
      <path id="Path_668" data-name="Path 668" d="M635.5,465.6a165.284,165.284,0,0,1-7.2,27.4c-5.3,3.5-36.9,7.2-48.3,6.3-29-2.1-43.6-5.9-46.5-6.7-5.2-9.7-6.6-11.8-6.6-11.8H473.8s-1.4,2.2-6.6,11.8c-2.9.8-17.5,4.7-46.5,6.8-11.3.8-42.9-2.9-48.3-6.4a162.717,162.717,0,0,1-7.2-27.4,143.922,143.922,0,0,0,5.2-14.4C387,465.9,481.6,469.3,497.9,470c.4,0,.8.3,1.1.3h2.6c.3,0,.7-.3,1.1-.3,16.4-.6,110.9-4,127.5-18.7C632.5,458.5,635.5,465.6,635.5,465.6Z" fill="#cbffff"/>
      <path id="Path_669" data-name="Path 669" d="M635.2,465.7a160.452,160.452,0,0,1-7.2,27.1c-5.3,3.4-36.8,7.1-48.1,6.3-28.9-2.1-43.5-5.9-46.4-6.6-5.1-9.6-6.6-11.7-6.6-11.7H474s-1.4,2.1-6.6,11.7c-2.9.8-17.5,4.6-46.4,6.7-11.3.8-42.8-2.9-48.1-6.3a160.452,160.452,0,0,1-7.2-27.1,137.034,137.034,0,0,0,5.2-14.3c16.6,14.5,110.9,17.9,127.2,18.6.4,0,.8.3,1.1.3h2.6c.3,0,.7-.3,1.1-.3,16.3-.6,110.6-3.9,127.2-18.5A121.4,121.4,0,0,0,635.2,465.7Z" fill="#cff"/>
      <path id="Path_670" data-name="Path 670" d="M634.8,465.8a158.218,158.218,0,0,1-7.2,26.8c-5.3,3.4-36.7,7-48,6.2-28.8-2.1-43.3-5.8-46.2-6.6-5.1-9.5-6.6-11.6-6.6-11.6H474s-1.4,2.1-6.6,11.6c-2.9.7-17.4,4.6-46.2,6.7-11.3.8-42.7-2.8-48-6.2a158.218,158.218,0,0,1-7.2-26.8s3-7,5.2-14.1c16.5,14.4,110.6,17.8,126.8,18.4.4,0,.8.3,1.1.3h2.6c.3,0,.7-.3,1.1-.3,16.3-.6,110.3-3.9,126.8-18.3C631.8,458.9,634.8,465.8,634.8,465.8Z" fill="#cdffff"/>
      <path id="Path_671" data-name="Path 671" d="M634.5,465.9a153.5,153.5,0,0,1-7.2,26.5c-5.3,3.4-36.6,6.9-47.9,6.1-28.7-2-43.2-5.7-46.1-6.5-5.1-9.4-6.5-11.5-6.5-11.5H474.1s-1.4,2.1-6.5,11.5c-2.9.7-17.4,4.5-46.1,6.6-11.3.8-42.6-2.8-47.9-6.2a153.5,153.5,0,0,1-7.2-26.5,139.626,139.626,0,0,0,5.1-14C388,466.1,481.8,469.5,498,470.1c.4,0,.8.3,1.1.3h2.6a6.151,6.151,0,0,0,1.1-.3c16.2-.6,110-3.9,126.5-18.1A121.444,121.444,0,0,0,634.5,465.9Z" fill="#ceffff"/>
      <path id="Path_672" data-name="Path 672" d="M634.1,466a151.322,151.322,0,0,1-7.2,26.2c-5.3,3.3-36.5,6.9-47.7,6-28.6-2-43.1-5.7-46-6.4-5.1-9.3-6.5-11.3-6.5-11.3H474.2s-1.4,2.1-6.5,11.3c-2.9.7-17.4,4.5-46,6.5-11.2.8-42.5-2.8-47.7-6.1a151.322,151.322,0,0,1-7.2-26.2s3-6.9,5.1-13.8c16.4,14.1,110,17.4,126.2,18,.4,0,.8.3,1.1.3h2.6a6.151,6.151,0,0,0,1.1-.3c16.2-.6,109.7-3.8,126.2-17.9A117.205,117.205,0,0,0,634.1,466Z" fill="#cfffff"/>
      <path id="Path_673" data-name="Path 673" d="M633.7,466.1a151.833,151.833,0,0,1-7.1,25.9c-5.3,3.3-36.4,6.8-47.6,6-28.6-2-43-5.6-45.9-6.3-5.1-9.1-6.5-11.2-6.5-11.2H474.2s-1.4,2.1-6.5,11.2c-2.9.7-17.3,4.4-45.9,6.4-11.2.8-42.4-2.7-47.6-6a144.164,144.164,0,0,1-7.1-25.9,140.18,140.18,0,0,0,5.1-13.7c16.4,13.9,109.7,17.2,125.8,17.8.4,0,.8.3,1.1.3h2.6a6.151,6.151,0,0,0,1.1-.3c16.1-.6,109.4-3.8,125.8-17.7A126.081,126.081,0,0,0,633.7,466.1Z" fill="#d0ffff"/>
      <path id="Path_674" data-name="Path 674" d="M633.4,466.2a149.645,149.645,0,0,1-7.1,25.6c-5.2,3.3-36.3,6.7-47.5,5.9-28.5-2-42.9-5.6-45.8-6.3-5.1-9-6.5-11.1-6.5-11.1H474.3s-1.4,2-6.5,11.1c-2.9.7-17.3,4.4-45.8,6.4-11.2.8-42.2-2.7-47.5-6a149.64,149.64,0,0,1-7.1-25.6,136.806,136.806,0,0,0,5.1-13.5c16.3,13.7,109.4,17,125.5,17.6.4,0,.8.2,1.1.2h2.6a6.151,6.151,0,0,0,1.1-.3c16.1-.6,109.2-3.7,125.5-17.5A126.083,126.083,0,0,0,633.4,466.2Z" fill="#d1ffff"/>
      <path id="Path_675" data-name="Path 675" d="M633,466.3a147.489,147.489,0,0,1-7.1,25.3c-5.2,3.2-36.2,6.6-47.4,5.8-28.4-1.9-42.8-5.5-45.6-6.2-5.1-8.9-6.5-10.9-6.5-10.9H474.3s-1.4,2-6.5,10.9c-2.9.7-17.2,4.3-45.6,6.3-11.1.8-42.1-2.7-47.4-5.9a147.348,147.348,0,0,1-7.1-25.4,129.6,129.6,0,0,0,5.1-13.4c16.3,13.6,109.1,16.8,125.2,17.4.4,0,.8.2,1.1.2h2.6a6.151,6.151,0,0,0,1.1-.3c16.1-.6,108.9-3.7,125.2-17.3A106.672,106.672,0,0,0,633,466.3Z" fill="#d2ffff"/>
      <path id="Path_676" data-name="Path 676" d="M632.7,466.4a142.825,142.825,0,0,1-7.1,25c-5.2,3.2-36.1,6.5-47.2,5.8-28.3-1.9-42.7-5.4-45.5-6.1-5.1-8.8-6.4-10.8-6.4-10.8h-52s-1.4,2-6.4,10.8c-2.9.7-17.2,4.3-45.5,6.2-11.1.8-42-2.6-47.2-5.8a145.21,145.21,0,0,1-7.1-25.1,137.775,137.775,0,0,0,5.1-13.2c16.2,13.4,108.8,16.6,124.8,17.2.4,0,.8.2,1.1.2h2.6a6.151,6.151,0,0,0,1.1-.3c16-.6,108.6-3.6,124.8-17.1A97.2,97.2,0,0,0,632.7,466.4Z" fill="#d3ffff"/>
      <path id="Path_677" data-name="Path 677" d="M632.3,466.6a140.724,140.724,0,0,1-7.1,24.7c-5.2,3.1-36,6.5-47.1,5.7-28.3-1.9-42.5-5.4-45.4-6.1-5-8.7-6.4-10.7-6.4-10.7H474.5s-1.4,2-6.4,10.7c-2.8.7-17.1,4.2-45.4,6.1-11.1.8-41.9-2.6-47.1-5.8a140.587,140.587,0,0,1-7.1-24.8,134.468,134.468,0,0,0,5.1-13c16.2,13.3,108.5,16.4,124.5,17,.4,0,.8.2,1.1.2h2.6c.3,0,.7-.2,1.1-.2,16-.6,108.3-3.6,124.5-16.9A99.088,99.088,0,0,0,632.3,466.6Z" fill="#d4ffff"/>
      <path id="Path_678" data-name="Path 678" d="M632,466.7a131.539,131.539,0,0,1-7,24.4c-5.2,3.1-35.9,6.4-47,5.6-28.2-1.9-42.4-5.3-45.3-6-5-8.6-6.4-10.6-6.4-10.6H474.6s-1.4,1.9-6.4,10.6c-2.8.7-17.1,4.2-45.3,6.1-11,.8-41.8-2.6-47-5.7a133.722,133.722,0,0,1-7-24.5,126.983,126.983,0,0,0,5.1-12.9c16.2,13.1,108.2,16.2,124.1,16.8.4,0,.8.2,1.1.2h2.6c.3,0,.7-.2,1.1-.2,15.9-.6,108-3.6,124.1-16.7A105.687,105.687,0,0,0,632,466.7Z" fill="#d5ffff"/>
      <path id="Path_679" data-name="Path 679" d="M631.6,466.8a131.685,131.685,0,0,1-7,24.2c-5.2,3.1-35.8,6.3-46.8,5.6-28.1-1.9-42.3-5.2-45.1-5.9-5-8.5-6.4-10.4-6.4-10.4H474.8s-1.4,1.9-6.4,10.4c-2.8.7-17,4.1-45.1,6-11,.7-41.7-2.6-46.8-5.6a129.442,129.442,0,0,1-7-24.2,111.191,111.191,0,0,0,5-12.7c16.1,13,107.9,16,123.8,16.6.4,0,.8.2,1.1.2H502c.3,0,.7-.2,1.1-.2,15.9-.6,107.7-3.5,123.8-16.5A82.474,82.474,0,0,0,631.6,466.8Z" fill="#d6ffff"/>
      <path id="Path_680" data-name="Path 680" d="M631.2,466.9a129.68,129.68,0,0,1-7,23.9c-5.2,3-35.7,6.2-46.7,5.5-28-1.8-42.2-5.2-45-5.8-5-8.4-6.4-10.3-6.4-10.3H474.7s-1.4,1.9-6.4,10.3c-2.8.7-17,4.1-45,5.9-11,.7-41.6-2.5-46.7-5.6a127.425,127.425,0,0,1-7-23.9,114.373,114.373,0,0,0,5-12.6c16.1,12.8,107.6,15.8,123.5,16.4.4,0,.8.2,1.1.2h2.6c.3,0,.7-.2,1.1-.2,15.8-.6,107.4-3.5,123.5-16.3A98.978,98.978,0,0,0,631.2,466.9Z" fill="#d7ffff"/>
      <path id="Path_681" data-name="Path 681" d="M630.9,467a125.44,125.44,0,0,1-7,23.6c-5.1,3-35.6,6.2-46.6,5.4-28-1.8-42.1-5.1-44.9-5.8-5-8.3-6.4-10.2-6.4-10.2H474.7s-1.4,1.9-6.4,10.2c-2.8.7-16.9,4-44.9,5.9-10.9.7-41.4-2.5-46.6-5.5a125.44,125.44,0,0,1-7-23.6,111.539,111.539,0,0,0,5-12.4c16,12.6,107.3,15.6,123.1,16.2.4,0,.8.2,1.1.2h2.6c.3,0,.7-.2,1.1-.2,15.8-.5,107.1-3.4,123.1-16.1A117.623,117.623,0,0,0,630.9,467Z" fill="#d8ffff"/>
      <path id="Path_682" data-name="Path 682" d="M630.5,467.1a123.488,123.488,0,0,1-7,23.3c-5.1,3-35.5,6.1-46.5,5.4-27.9-1.8-42-5-44.8-5.7-5-8.2-6.3-10.1-6.3-10.1H474.8s-1.4,1.8-6.3,10.1c-2.8.6-16.9,4-44.8,5.8-10.9.7-41.3-2.5-46.5-5.4a130.1,130.1,0,0,1-7-23.3,105.611,105.611,0,0,0,5-12.3c16,12.5,107,15.4,122.8,16,.4,0,.8.2,1.1.2h2.6c.3,0,.7-.2,1.1-.2,15.7-.5,106.8-3.4,122.8-15.9A112.774,112.774,0,0,0,630.5,467.1Z" fill="#d9ffff"/>
      <path id="Path_683" data-name="Path 683" d="M630.2,467.2a119.365,119.365,0,0,1-7,23c-5.1,2.9-35.4,6-46.3,5.3-27.8-1.8-41.8-5-44.6-5.6-5-8.1-6.3-9.9-6.3-9.9H475s-1.4,1.8-6.3,9.9c-2.8.6-16.8,3.9-44.6,5.7-10.9.7-41.2-2.4-46.3-5.3a128.1,128.1,0,0,1-7-23,127.063,127.063,0,0,0,5-12.1c15.9,12.3,106.7,15.2,122.4,15.8.4,0,.8.2,1.1.2h2.6c.3,0,.7-.2,1.1-.2,15.7-.5,106.5-3.4,122.4-15.7A82.873,82.873,0,0,0,630.2,467.2Z" fill="#daffff"/>
      <path id="Path_684" data-name="Path 684" d="M629.8,467.3a121.539,121.539,0,0,1-6.9,22.7c-5.1,2.9-35.4,5.9-46.2,5.2-27.7-1.7-41.7-4.9-44.5-5.6-4.9-8-6.3-9.8-6.3-9.8H475s-1.4,1.8-6.3,9.8c-2.8.6-16.8,3.9-44.5,5.6-10.9.7-41.1-2.4-46.2-5.3a121.54,121.54,0,0,1-6.9-22.7,119.213,119.213,0,0,0,5-12c15.9,12.2,106.4,15,122.1,15.6.4,0,.8.2,1.1.2h2.6c.3,0,.7-.2,1.1-.2,15.7-.5,106.2-3.3,122.1-15.5A81.527,81.527,0,0,0,629.8,467.3Z" fill="#dbffff"/>
      <path id="Path_685" data-name="Path 685" d="M629.5,467.4a117.348,117.348,0,0,1-6.9,22.4c-5.1,2.8-35.3,5.9-46.1,5.2-27.6-1.7-41.6-4.9-44.4-5.5-4.9-7.9-6.3-9.7-6.3-9.7H475.1s-1.4,1.8-6.3,9.7c-2.8.6-16.8,3.8-44.4,5.6-10.8.7-41-2.4-46.1-5.2a117.349,117.349,0,0,1-6.9-22.4s2.9-5.9,5-11.8c15.9,12,106.2,14.8,121.8,15.4.4,0,.8.2,1.1.2h2.6c.3,0,.7-.2,1.1-.2,15.6-.5,105.9-3.3,121.8-15.3A70.819,70.819,0,0,0,629.5,467.4Z" fill="#dbffff"/>
      <path id="Path_686" data-name="Path 686" d="M629.1,467.6a115.451,115.451,0,0,1-6.9,22.1c-5.1,2.8-35.2,5.8-46,5.1-27.6-1.7-41.5-4.8-44.3-5.4-4.9-7.8-6.3-9.6-6.3-9.6H475s-1.4,1.8-6.3,9.6c-2.8.6-16.7,3.8-44.3,5.5-10.8.7-40.9-2.3-46-5.1a115.452,115.452,0,0,1-6.9-22.1,106.905,106.905,0,0,0,4.9-11.7c15.8,11.9,105.9,14.6,121.4,15.2.4,0,.8.2,1.1.2h2.6c.3,0,.7-.2,1.1-.2,15.6-.5,105.6-3.2,121.4-15.1C626.2,461.9,629.1,467.6,629.1,467.6Z" fill="#dcffff"/>
      <path id="Path_687" data-name="Path 687" d="M628.7,467.7a113.588,113.588,0,0,1-6.9,21.8c-5.1,2.8-35.1,5.7-45.8,5-27.5-1.7-41.4-4.7-44.2-5.3-4.9-7.7-6.3-9.4-6.3-9.4H475.1s-1.4,1.7-6.3,9.4c-2.8.6-16.7,3.7-44.2,5.4-10.8.7-40.8-2.3-45.8-5.1a113.589,113.589,0,0,1-6.9-21.8,104.043,104.043,0,0,0,4.9-11.5c15.8,11.7,105.6,14.5,121.1,15,.4,0,.8.2,1.1.2h2.6c.3,0,.7-.2,1.1-.2,15.5-.5,105.3-3.2,121.1-14.9A97.924,97.924,0,0,0,628.7,467.7Z" fill="#dff"/>
      <path id="Path_688" data-name="Path 688" d="M628.4,467.8a109.539,109.539,0,0,1-6.9,21.5c-5,2.7-35,5.6-45.7,5-27.4-1.7-41.3-4.7-44-5.3-4.9-7.6-6.2-9.3-6.2-9.3H475.3s-1.3,1.7-6.2,9.3c-2.8.6-16.6,3.7-44,5.3-10.7.7-40.6-2.3-45.7-5a109.54,109.54,0,0,1-6.9-21.5,101.229,101.229,0,0,0,4.9-11.3c15.7,11.5,105.3,14.3,120.8,14.8.4,0,.8.2,1.1.2h2.6c.3,0,.7-.2,1.1-.2,15.5-.5,105-3.1,120.8-14.7A76.713,76.713,0,0,0,628.4,467.8Z" fill="#deffff"/>
      <path id="Path_689" data-name="Path 689" d="M628,467.9a111.584,111.584,0,0,1-6.8,21.2c-5,2.7-34.9,5.6-45.6,4.9-27.3-1.6-41.2-4.6-43.9-5.2-4.9-7.5-6.2-9.2-6.2-9.2H475.4s-1.3,1.7-6.2,9.2c-2.8.6-16.6,3.6-43.9,5.3-10.7.7-40.5-2.2-45.6-4.9a103.879,103.879,0,0,1-6.8-21.2,104.932,104.932,0,0,0,4.9-11.2c15.7,11.4,105,14.1,120.4,14.6.4,0,.8.2,1.1.2h2.4c.3,0,.7-.2,1.1-.2,15.4-.5,104.7-3.1,120.4-14.5A91.108,91.108,0,0,0,628,467.9Z" fill="#dfffff"/>
      <path id="Path_690" data-name="Path 690" d="M627.7,468a107.468,107.468,0,0,1-6.8,20.9c-5,2.7-34.8,5.5-45.4,4.8-27.3-1.6-41-4.5-43.8-5.1-4.9-7.4-6.2-9-6.2-9h-50s-1.3,1.7-6.2,9c-2.7.6-16.5,3.6-43.8,5.2-10.7.6-40.4-2.2-45.4-4.9a109.59,109.59,0,0,1-6.8-21,102.146,102.146,0,0,0,4.9-11c15.6,11.2,104.7,13.9,120.1,14.4.4,0,.8.2,1.1.2h2.4c.3,0,.7-.2,1.1-.2,15.4-.5,104.5-3.1,120.1-14.3A75.834,75.834,0,0,0,627.7,468Z" fill="#e0ffff"/>
      <path id="Path_691" data-name="Path 691" d="M627.3,468.1a105.664,105.664,0,0,1-6.8,20.6c-5,2.6-34.7,5.4-45.3,4.8-27.2-1.6-40.9-4.5-43.7-5a106.484,106.484,0,0,0-6.2-8.9H475.5s-1.3,1.6-6.2,8.9c-2.7.6-16.5,3.5-43.7,5.1-10.6.6-40.3-2.2-45.3-4.8a105.517,105.517,0,0,1-6.8-20.7,95.757,95.757,0,0,0,4.9-10.9c15.6,11.1,104.4,13.7,119.7,14.2.4,0,.8.2,1.1.2h2.4c.3,0,.7-.2,1.1-.2,15.4-.5,104.2-3,119.7-14.1A89.894,89.894,0,0,0,627.3,468.1Z" fill="#e1ffff"/>
      <path id="Path_692" data-name="Path 692" d="M626.9,468.2a101.677,101.677,0,0,1-6.8,20.3c-5,2.6-34.6,5.3-45.2,4.7-27.1-1.6-40.8-4.4-43.5-5-4.8-7.2-6.2-8.8-6.2-8.8H475.5s-1.3,1.6-6.2,8.8c-2.7.6-16.4,3.5-43.5,5.1-10.6.6-40.2-2.2-45.2-4.7a103.732,103.732,0,0,1-6.8-20.4,93.1,93.1,0,0,0,4.9-10.7c15.5,10.9,104.1,13.5,119.4,14,.4,0,.8.2,1.1.2h2.4c.3,0,.7-.2,1.1-.2,15.3-.5,103.9-3,119.4-13.9A96.1,96.1,0,0,0,626.9,468.2Z" fill="#e2ffff"/>
      <path id="Path_693" data-name="Path 693" d="M626.6,468.3a101.985,101.985,0,0,1-6.8,20.1c-5,2.5-34.5,5.2-45.1,4.6-27-1.5-40.7-4.3-43.4-4.9-4.8-7.1-6.2-8.7-6.2-8.7H475.5s-1.3,1.6-6.2,8.7c-2.7.6-16.4,3.4-43.4,5-10.6.6-40.1-2.1-45.1-4.7a101.984,101.984,0,0,1-6.8-20.1,86.236,86.236,0,0,0,4.8-10.6c15.5,10.8,103.8,13.3,119.1,13.8.4,0,.8.2,1.1.2h2.4c.3,0,.7-.2,1.1-.2,15.3-.5,103.6-2.9,119.1-13.7A91.321,91.321,0,0,0,626.6,468.3Z" fill="#e3ffff"/>
      <path id="Path_694" data-name="Path 694" d="M626.2,468.4a96.463,96.463,0,0,1-6.7,19.8c-5,2.5-34.4,5.2-44.9,4.6-27-1.5-40.6-4.3-43.3-4.8-4.8-7-6.1-8.5-6.1-8.5H475.8s-1.3,1.6-6.1,8.5c-2.7.5-16.3,3.4-43.3,4.9-10.6.6-40-2.1-44.9-4.6a94.446,94.446,0,0,1-6.7-19.8,83.871,83.871,0,0,0,4.8-10.4c15.5,10.6,103.5,13.1,118.7,13.6.4,0,.8.2,1.1.2h2.4c.3,0,.7-.2,1.1-.2,15.2-.5,103.3-2.9,118.7-13.5A72.777,72.777,0,0,0,626.2,468.4Z" fill="#e4ffff"/>
      <path id="Path_695" data-name="Path 695" d="M625.9,468.5a92.762,92.762,0,0,1-6.7,19.5c-5,2.5-34.3,5.1-44.8,4.5-26.9-1.5-40.5-4.2-43.2-4.8-4.8-6.9-6.1-8.4-6.1-8.4H475.8s-1.3,1.5-6.1,8.4c-2.7.5-16.3,3.3-43.2,4.8-10.5.6-39.9-2.1-44.8-4.5a92.762,92.762,0,0,1-6.7-19.5,97.184,97.184,0,0,0,4.8-10.3c15.4,10.4,103.2,12.9,118.4,13.4.4,0,.8.2,1.1.2h2.4c.3,0,.6-.2,1.1-.2,15.2-.5,103-2.8,118.4-13.3A67.4,67.4,0,0,0,625.9,468.5Z" fill="#e5ffff"/>
      <path id="Path_696" data-name="Path 696" d="M625.5,468.7a91.114,91.114,0,0,1-6.7,19.2c-4.9,2.4-34.2,5-44.7,4.4-26.8-1.5-40.3-4.2-43-4.7-4.8-6.8-6.1-8.3-6.1-8.3H475.9s-1.3,1.5-6.1,8.3c-2.7.5-16.2,3.3-43,4.8-10.5.6-39.7-2-44.7-4.5a89.161,89.161,0,0,1-6.7-19.2,94.373,94.373,0,0,0,4.8-10.1c15.4,10.3,102.9,12.7,118.1,13.2a8.662,8.662,0,0,1,1,.2h2.4c.3,0,.6-.2,1-.2,15.1-.4,102.7-2.8,118.1-13.1A86.934,86.934,0,0,0,625.5,468.7Z" fill="#e6ffff"/>
      <path id="Path_697" data-name="Path 697" d="M625.2,468.8a87.533,87.533,0,0,1-6.7,18.9c-4.9,2.4-34.1,4.9-44.5,4.4-26.7-1.5-40.2-4.1-42.9-4.6-4.8-6.7-6.1-8.2-6.1-8.2H476s-1.3,1.5-6.1,8.2c-2.7.5-16.2,3.2-42.9,4.7-10.5.6-39.6-2-44.5-4.4a87.534,87.534,0,0,1-6.7-18.9,87.792,87.792,0,0,0,4.8-10c15.3,10.1,102.6,12.5,117.7,13a8.662,8.662,0,0,1,1,.2h2.4c.3,0,.6-.2,1-.2,15.1-.4,102.4-2.8,117.7-12.9A77.053,77.053,0,0,0,625.2,468.8Z" fill="#e7ffff"/>
      <path id="Path_698" data-name="Path 698" d="M624.8,468.9a85.942,85.942,0,0,1-6.7,18.6c-4.9,2.4-34,4.9-44.4,4.3-26.7-1.4-40.1-4-42.8-4.5-4.8-6.6-6.1-8-6.1-8H476s-1.3,1.5-6.1,8c-2.7.5-16.1,3.2-42.8,4.6-10.4.6-39.5-2-44.4-4.3A92.593,92.593,0,0,1,376,469a96.033,96.033,0,0,0,4.8-9.8c15.3,10,102.3,12.3,117.4,12.7a8.662,8.662,0,0,1,1,.2h2.4c.3,0,.6-.2,1-.2,15.1-.4,102.1-2.7,117.4-12.7A88.931,88.931,0,0,0,624.8,468.9Z" fill="#e8ffff"/>
      <path id="Path_699" data-name="Path 699" d="M624.4,469a85.331,85.331,0,0,1-6.6,18.3c-4.9,2.3-33.9,4.8-44.3,4.2-26.6-1.4-40-4-42.7-4.5-4.7-6.5-6-7.9-6-7.9H476.1s-1.3,1.4-6,7.9c-2.7.5-16.1,3.1-42.7,4.5-10.4.6-39.4-1.9-44.3-4.3a85.33,85.33,0,0,1-6.6-18.3,93.314,93.314,0,0,0,4.8-9.6c15.2,9.8,102,12.1,117,12.5a8.662,8.662,0,0,1,1,.2h2.4c.3,0,.6-.2,1-.2,15-.4,101.8-2.7,117-12.5A71.123,71.123,0,0,0,624.4,469Z" fill="#e9ffff"/>
      <path id="Path_700" data-name="Path 700" d="M624.1,469.1a83.75,83.75,0,0,1-6.6,18c-4.9,2.3-33.8,4.7-44.2,4.2-26.5-1.4-39.9-3.9-42.6-4.4-4.7-6.4-6-7.8-6-7.8H476.1s-1.3,1.4-6,7.8c-2.7.5-16.1,3.1-42.6,4.5-10.4.6-39.3-1.9-44.2-4.2a83.749,83.749,0,0,1-6.6-18,76.449,76.449,0,0,0,4.7-9.5c15.2,9.7,101.7,11.9,116.7,12.3a8.662,8.662,0,0,1,1,.2h2.4c.3,0,.6-.2,1-.2,15-.4,101.5-2.6,116.7-12.3A90.762,90.762,0,0,0,624.1,469.1Z" fill="#eaffff"/>
      <path id="Path_701" data-name="Path 701" d="M623.7,469.2a82.208,82.208,0,0,1-6.6,17.7c-4.9,2.2-33.7,4.6-44,4.1-26.4-1.4-39.8-3.8-42.4-4.3-4.7-6.3-6-7.7-6-7.7H476.3s-1.3,1.4-6,7.7c-2.7.5-16,3-42.4,4.4-10.3.5-39.2-1.9-44-4.1a82.207,82.207,0,0,1-6.6-17.7A74.153,74.153,0,0,0,382,460c15.1,9.5,101.4,11.7,116.4,12.1a8.662,8.662,0,0,1,1,.2h2.4c.3,0,.6-.2,1-.2,14.9-.4,101.2-2.6,116.4-12.1A56.512,56.512,0,0,0,623.7,469.2Z" fill="#ebffff"/>
      <path id="Path_702" data-name="Path 702" d="M623.4,469.3a78.728,78.728,0,0,1-6.6,17.4c-4.9,2.2-33.6,4.6-43.9,4-26.3-1.3-39.7-3.8-42.3-4.3-4.7-6.1-6-7.5-6-7.5H476.3s-1.3,1.4-6,7.5c-2.7.5-16,3-42.3,4.3-10.3.5-39.1-1.8-43.9-4.1a78.727,78.727,0,0,1-6.6-17.4,77.365,77.365,0,0,0,4.7-9.2c15.1,9.3,101.1,11.5,116,11.9a8.662,8.662,0,0,1,1,.2h2.4c.3,0,.6-.2,1-.2,14.9-.4,100.9-2.5,116-11.9A74.279,74.279,0,0,0,623.4,469.3Z" fill="#ecffff"/>
      <path id="Path_703" data-name="Path 703" d="M623,469.4a77.244,77.244,0,0,1-6.6,17.1c-4.8,2.2-33.5,4.5-43.8,4-26.3-1.3-39.5-3.7-42.2-4.2-4.7-6-6-7.4-6-7.4H476.2s-1.3,1.4-6,7.4c-2.6.5-15.9,2.9-42.2,4.3-10.3.5-38.9-1.8-43.8-4a77.243,77.243,0,0,1-6.6-17.1,75.108,75.108,0,0,0,4.7-9c15.1,9.2,100.9,11.3,115.7,11.7a8.662,8.662,0,0,1,1,.2h2.4c.3,0,.6-.2,1-.2,14.8-.4,100.6-2.5,115.7-11.7A90.2,90.2,0,0,0,623,469.4Z" fill="#edffff"/>
      <path id="Path_704" data-name="Path 704" d="M622.6,469.5a76.5,76.5,0,0,1-6.5,16.8c-4.8,2.1-33.4,4.4-43.7,3.9-26.2-1.3-39.4-3.7-42.1-4.1-4.7-5.9-6-7.3-6-7.3h-48s-1.3,1.3-6,7.3c-2.6.5-15.9,2.9-42.1,4.2-10.3.5-38.8-1.8-43.7-3.9a72.8,72.8,0,0,1-6.5-16.8,69.719,69.719,0,0,0,4.7-8.9c15,9,100.6,11.2,115.4,11.5a8.662,8.662,0,0,1,1,.2h2.4c.3,0,.6-.2,1-.2,14.8-.4,100.3-2.5,115.4-11.5A80.616,80.616,0,0,0,622.6,469.5Z" fill="#eff"/>
      <path id="Path_705" data-name="Path 705" d="M622.3,469.6a75.032,75.032,0,0,1-6.5,16.5c-4.8,2.1-33.3,4.3-43.5,3.8-26.1-1.3-39.3-3.6-41.9-4-4.7-5.8-5.9-7.1-5.9-7.1H476.6s-1.3,1.3-5.9,7.1c-2.6.5-15.8,2.8-41.9,4.1-10.2.5-38.7-1.7-43.5-3.8a69.558,69.558,0,0,1-6.5-16.6,67.582,67.582,0,0,0,4.7-8.7c15,8.9,100.3,11,115,11.3a8.662,8.662,0,0,1,1,.2h2.4c.3,0,.6-.2,1-.2,14.8-.4,100-2.4,115-11.3A45.7,45.7,0,0,0,622.3,469.6Z" fill="#efffff"/>
      <path id="Path_706" data-name="Path 706" d="M621.9,469.8a73.605,73.605,0,0,1-6.5,16.2c-4.8,2.1-33.2,4.2-43.4,3.7-26-1.2-39.2-3.5-41.8-4-4.6-5.7-5.9-7-5.9-7H476.6s-1.3,1.3-5.9,7c-2.6.4-15.8,2.8-41.8,4-10.2.5-38.6-1.7-43.4-3.8a73.411,73.411,0,0,1-6.5-16.3,70.758,70.758,0,0,0,4.7-8.6c14.9,8.7,100,10.8,114.7,11.1a8.662,8.662,0,0,1,1,.2h2.4c.3,0,.6-.2,1-.2,14.7-.4,99.8-2.4,114.7-11.1A51.953,51.953,0,0,0,621.9,469.8Z" fill="azure"/>
      <path id="Path_707" data-name="Path 707" d="M621.6,469.9a72,72,0,0,1-6.5,16c-4.8,2-33.1,4.2-43.3,3.7-26-1.2-39.1-3.5-41.7-3.9-4.6-5.6-5.9-6.9-5.9-6.9H476.6s-1.3,1.3-5.9,6.9c-2.6.4-15.7,2.7-41.7,4-10.2.5-38.5-1.7-43.3-3.7a72,72,0,0,1-6.5-16,87.96,87.96,0,0,0,4.7-8.4c14.9,8.6,99.7,10.6,114.3,10.9a8.662,8.662,0,0,1,1,.2h2.4a4.4,4.4,0,0,0,1-.2c14.7-.4,99.5-2.3,114.3-10.9A63.473,63.473,0,0,0,621.6,469.9Z" fill="#f1ffff"/>
      <path id="Path_708" data-name="Path 708" d="M621.2,470a70.642,70.642,0,0,1-6.5,15.7c-4.8,2-33,4.1-43.1,3.6-25.9-1.2-39-3.4-41.6-3.8-4.6-5.5-5.9-6.8-5.9-6.8H476.6a87.947,87.947,0,0,0-5.9,6.8c-2.6.4-15.7,2.7-41.6,3.9-10.1.5-38.4-1.7-43.1-3.6a68.678,68.678,0,0,1-6.5-15.7,69.748,69.748,0,0,0,4.6-8.3c14.8,8.4,99.4,10.4,114,10.7a8.662,8.662,0,0,1,1,.2h2.4a4.4,4.4,0,0,0,1-.2c14.6-.4,99.2-2.3,114-10.7A72.927,72.927,0,0,0,621.2,470Z" fill="#f2ffff"/>
      <path id="Path_709" data-name="Path 709" d="M620.9,470.1a67.332,67.332,0,0,1-6.5,15.4c-4.8,2-32.9,4-43,3.5-25.8-1.2-38.8-3.3-41.4-3.8-4.6-5.4-5.9-6.6-5.9-6.6H476.8s-1.3,1.2-5.9,6.6c-2.6.4-15.6,2.6-41.4,3.8-10.1.5-38.3-1.6-43-3.6A67.332,67.332,0,0,1,380,470a67.524,67.524,0,0,0,4.6-8.1c14.8,8.2,99.1,10.2,113.7,10.5.4,0,.8.1,1,.1h2.4a4.4,4.4,0,0,0,1-.2c14.6-.4,98.9-2.2,113.7-10.5A46.551,46.551,0,0,0,620.9,470.1Z" fill="#f3ffff"/>
      <path id="Path_710" data-name="Path 710" d="M620.5,470.2a63.267,63.267,0,0,1-6.4,15.1c-4.7,1.9-32.8,3.9-42.9,3.5-25.7-1.2-38.7-3.3-41.3-3.7-4.6-5.3-5.9-6.5-5.9-6.5H476.8s-1.3,1.2-5.9,6.5c-2.6.4-15.6,2.6-41.3,3.7-10.1.5-38.1-1.6-42.9-3.5a63.269,63.269,0,0,1-6.4-15.1,65.363,65.363,0,0,0,4.6-7.9c14.8,8.1,98.8,10,113.3,10.3.4,0,.8.1,1,.1h2.4a4.4,4.4,0,0,0,1-.2c14.5-.4,98.6-2.2,113.3-10.3A62.094,62.094,0,0,0,620.5,470.2Z" fill="#f4ffff"/>
      <path id="Path_711" data-name="Path 711" d="M620.1,470.3a60.269,60.269,0,0,1-6.4,14.8C609,487,581,489,571,488.5c-25.7-1.1-38.6-3.2-41.2-3.6-4.6-5.2-5.8-6.4-5.8-6.4H477s-1.3,1.2-5.8,6.4c-2.6.4-15.5,2.5-41.2,3.7-10,.5-38-1.6-42.8-3.4a60.271,60.271,0,0,1-6.4-14.8,69.236,69.236,0,0,0,4.6-7.8c14.7,7.9,98.5,9.8,113,10.1.4,0,.7.1,1,.1h2.2c.3,0,.6-.1,1-.1,14.5-.3,98.3-2.2,113-10.1A55.9,55.9,0,0,0,620.1,470.3Z" fill="#f5ffff"/>
      <path id="Path_712" data-name="Path 712" d="M619.8,470.4a59.025,59.025,0,0,1-6.4,14.5c-4.7,1.8-32.6,3.8-42.6,3.3-25.6-1.1-38.5-3.1-41.1-3.5-4.6-5.1-5.8-6.3-5.8-6.3H477a73.822,73.822,0,0,0-5.8,6.3c-2.6.4-15.5,2.5-41.1,3.6-10,.4-37.9-1.5-42.6-3.4a59.027,59.027,0,0,1-6.4-14.5,67.129,67.129,0,0,0,4.6-7.6c14.7,7.8,98.2,9.6,112.7,9.9.4,0,.7.1,1,.1h2.2c.3,0,.6-.1,1-.1,14.5-.3,98-2.1,112.7-9.9A51.634,51.634,0,0,0,619.8,470.4Z" fill="#f6ffff"/>
      <path id="Path_713" data-name="Path 713" d="M619.4,470.5a57.823,57.823,0,0,1-6.4,14.2c-4.7,1.8-32.5,3.7-42.5,3.3-25.5-1.1-38.4-3.1-41-3.5a82.288,82.288,0,0,0-5.8-6.1H477a82.288,82.288,0,0,0-5.8,6.1c-2.6.4-15.4,2.4-41,3.5-10,.4-37.8-1.5-42.5-3.3a57.825,57.825,0,0,1-6.4-14.2,61.226,61.226,0,0,0,4.6-7.5c14.6,7.6,97.9,9.4,112.3,9.7.4,0,.7.1,1,.1h2.2c.3,0,.6-.1,1-.1,14.4-.3,97.7-2.1,112.3-9.7A60,60,0,0,0,619.4,470.5Z" fill="#f7ffff"/>
      <path id="Path_714" data-name="Path 714" d="M619.1,470.6a54.967,54.967,0,0,1-6.4,13.9c-4.7,1.8-32.4,3.6-42.4,3.2-25.4-1.1-38.3-3-40.8-3.4-4.5-4.9-5.8-6-5.8-6H477.1s-1.3,1.1-5.8,6c-2.6.4-15.4,2.4-40.8,3.5-10,.4-37.7-1.5-42.4-3.2a59.411,59.411,0,0,1-6.4-13.9,59.249,59.249,0,0,0,4.6-7.3c14.6,7.5,97.6,9.2,112,9.5.4,0,.7.1,1,.1h2.2c.3,0,.6-.1,1-.1,14.4-.3,97.4-2,112-9.5A54.122,54.122,0,0,0,619.1,470.6Z" fill="#f8ffff"/>
      <path id="Path_715" data-name="Path 715" d="M618.7,470.8a55.656,55.656,0,0,1-6.3,13.6c-4.7,1.7-32.3,3.6-42.2,3.1a404.361,404.361,0,0,1-40.7-3.3c-4.5-4.8-5.8-5.9-5.8-5.9H477.2s-1.2,1.1-5.8,5.9c-2.6.4-15.4,2.3-40.7,3.4-9.9.4-37.6-1.4-42.2-3.2a55.656,55.656,0,0,1-6.3-13.6,55.174,55.174,0,0,0,4.5-7.2c14.5,7.3,97.3,9,111.6,9.3.4,0,.7.1,1,.1h2.2c.3,0,.6-.1,1-.1,14.3-.3,97.1-2,111.6-9.3A54.114,54.114,0,0,0,618.7,470.8Z" fill="#f9ffff"/>
      <path id="Path_716" data-name="Path 716" d="M618.4,470.9a52.786,52.786,0,0,1-6.3,13.3c-4.7,1.7-32.2,3.5-42.1,3.1-25.3-1-38-2.9-40.6-3.3-4.5-4.7-5.7-5.8-5.7-5.8H477.4s-1.2,1.1-5.7,5.8c-2.5.4-15.3,2.3-40.6,3.3-9.9.4-37.5-1.4-42.1-3.1a52.786,52.786,0,0,1-6.3-13.3,53.469,53.469,0,0,0,4.5-7c14.5,7.1,97,8.8,111.3,9.1.4,0,.7.1,1,.1h2.2c.3,0,.6-.1,1-.1,14.3-.3,96.8-1.9,111.3-9.1A47.3,47.3,0,0,0,618.4,470.9Z" fill="#faffff"/>
      <path id="Path_717" data-name="Path 717" d="M618,471a51.675,51.675,0,0,1-6.3,13c-4.6,1.7-32.1,3.4-42,3-25.2-1-37.9-2.8-40.5-3.2-4.5-4.6-5.7-5.6-5.7-5.6H477.3s-1.2,1-5.7,5.6c-2.5.4-15.3,2.2-40.5,3.2-9.9.4-37.4-1.4-42-3a51.675,51.675,0,0,1-6.3-13,48.944,48.944,0,0,0,4.5-6.9c14.4,7,96.7,8.6,111,8.9.4,0,.7.1,1,.1h2.2c.3,0,.6-.1,1-.1,14.2-.3,96.5-1.9,111-8.9A48.944,48.944,0,0,0,618,471Z" fill="#fbffff"/>
      <path id="Path_718" data-name="Path 718" d="M617.6,471.1a48.935,48.935,0,0,1-6.3,12.7c-4.6,1.6-32,3.3-41.9,2.9-25.1-1-37.8-2.8-40.3-3.1-4.5-4.5-5.7-5.5-5.7-5.5H477.3s-1.2,1-5.7,5.5c-2.5.4-15.2,2.2-40.3,3.2-9.8.4-37.2-1.3-41.9-3a50.611,50.611,0,0,1-6.3-12.7,47.346,47.346,0,0,0,4.5-6.7c14.4,6.8,96.4,8.4,110.6,8.7.4,0,.7.1,1,.1h2.2c.3,0,.6-.1,1-.1,14.2-.3,96.2-1.9,110.6-8.7A69.418,69.418,0,0,0,617.6,471.1Z" fill="#fcffff"/>
      <path id="Path_719" data-name="Path 719" d="M617.3,471.2a47.887,47.887,0,0,1-6.3,12.4c-4.6,1.6-31.9,3.3-41.7,2.9-25-1-37.7-2.7-40.2-3-4.5-4.4-5.7-5.4-5.7-5.4H477.5s-1.2,1-5.7,5.4c-2.5.3-15.2,2.1-40.2,3.1-9.8.4-37.1-1.3-41.7-2.9a47.888,47.888,0,0,1-6.3-12.4,50.239,50.239,0,0,0,4.5-6.6c14.4,6.7,96.1,8.2,110.3,8.5.4,0,.7.1,1,.1h2.2c.3,0,.6-.1,1-.1,14.1-.3,95.9-1.8,110.3-8.5A40.8,40.8,0,0,0,617.3,471.2Z" fill="#fdffff"/>
      <path id="Path_720" data-name="Path 720" d="M616.9,471.3a48.493,48.493,0,0,1-6.2,12.1c-4.6,1.5-31.8,3.2-41.6,2.8-25-.9-37.6-2.6-40.1-3-4.5-4.3-5.7-5.2-5.7-5.2H477.5s-1.2,1-5.7,5.2c-2.5.3-15.1,2.1-40.1,3-9.8.4-37-1.3-41.6-2.8a44.63,44.63,0,0,1-6.2-12.2,62.317,62.317,0,0,0,4.5-6.4c14.3,6.5,95.8,8,110,8.3.4,0,.7.1,1,.1h2.2c.2,0,.6-.1,1-.1,14.1-.3,95.6-1.8,110-8.3A38.479,38.479,0,0,0,616.9,471.3Z" fill="#feffff"/>
      <path id="Path_721" data-name="Path 721" d="M616.6,471.4a45.76,45.76,0,0,1-6.2,11.8c-4.6,1.5-31.7,3.1-41.5,2.7-24.9-.9-37.5-2.6-40-2.9a64.172,64.172,0,0,0-5.7-5.1H477.6s-1.2.9-5.7,5.1c-2.5.3-15.1,2-40,2.9-9.7.4-36.9-1.3-41.5-2.8a47.24,47.24,0,0,1-6.2-11.9,60.436,60.436,0,0,0,4.5-6.2c14.3,6.4,95.6,7.9,109.6,8.1.4,0,.7.1,1,.1h2.2c.2,0,.6-.1,1-.1,14.1-.2,95.3-1.7,109.6-8.1A36.7,36.7,0,0,0,616.6,471.4Z" fill="#fff"/>
    </g>
    <path id="Path_722" data-name="Path 722" d="M657.6,332.8c-.2.8-.5,1.7-.7,2.8-12.4,51.5,0,147.5,0,147.5,1.1,10.3,5.2,20.3,8.8,20.6C667.8,477.2,672,377.7,657.6,332.8Z" opacity="0.2"/>
    <path id="Path_723" data-name="Path 723" d="M342.4,330.3c.2.8.5,1.7.7,2.8,12.4,51.5,0,147.5,0,147.5-1.1,10.3-5.2,20.3-8.8,20.6C332.2,474.7,328,375.1,342.4,330.3Z" opacity="0.2"/>
    <path id="Path_724" data-name="Path 724" d="M356,560.2s38.2,39.2,41.5,97.1c2.3,40.2-1,44.2,5,48.7,16,12.2,120.8-27.5,125.4-47.3S414.7,569.2,384.1,556.9,352.4,542.1,356,560.2Z" opacity="0.1"/>
    <path id="Path_725" data-name="Path 725" d="M643.1,560.2s-38.2,39.2-41.5,97.1c-2.3,40.2,1,44.2-5,48.7-16,12.2-120.8-27.5-125.4-47.3S584.4,569.2,615,556.9C645.7,544.6,646.7,542.1,643.1,560.2Z" opacity="0.1"/>
    <path id="Path_726" data-name="Path 726" d="M664.3,504.8a158.406,158.406,0,0,1-9,33.2c-.1.1-.1.3-.2.4-5.7,14.1-12.5,24-18.2,30.2a36.8,36.8,0,0,1-5.2,4.8c-19.9,15.3-38.9,54.5-36.4,97.6l-22.8,20.3s-17.7-22.8-17.7-27.9c3.8-20.3,20.9-45.6,42.4-69.1s36.1-57.7,41.2-72.9c0,0,5.4-24.1,2.5-58.3,0,0-3.2-8.6-5.4-17.4.1-.2.3-.3.4-.4-2.1-21.4-.2-45.3,2.4-65.2.2-1.5.4-2.9.6-4.3,1.1-7.8,2.2-14.8,3.2-20.7,1.1-6.5,3.3-19.1,3.7-21.6,0-.1.1-.2.1-.4V333s-1.8,51.9,2.7,112.3C651.2,480.2,659.2,482,664.3,504.8Z" fill="#db6833" stroke="#171717" stroke-linecap="round" stroke-linejoin="round" stroke-miterlimit="10" stroke-width="4"/>
    <path id="Path_727" data-name="Path 727" d="M598.2,678.4l-25.3,22.8-20.3-27.9s-7.6,25.3-10.1,43.1l30.4,20.3,27.9-27.9Z" fill="#db6833" stroke="#171717" stroke-linecap="round" stroke-linejoin="round" stroke-miterlimit="10" stroke-width="4"/>
    <path id="Path_728" data-name="Path 728" d="M641.1,463.1s-2.5,17.7-7.6,32.9c-5.6,4.2-38.8,8.6-50.7,7.6-30.4-2.5-45.8-7.4-48.8-8.3-5.4-11.6-6.9-14.5-6.9-14.5H472.5s-1.5,2.9-6.9,14.5c-3.1.9-18.4,5.8-48.8,8.3-11.9,1-45.1-3.4-50.7-7.6-5.1-15.2-7.6-32.9-7.6-32.9-2.9,34.2,2.5,58.3,2.5,58.3,5.1,15.2,19.6,49.4,41.2,72.9s38.6,48.8,42.4,69.1H555c3.8-20.3,20.9-45.6,42.4-69.1,21.5-23.4,36.1-57.7,41.2-72.9C638.6,521.3,644,497.3,641.1,463.1Z" fill="#e7a24e" stroke="#171717" stroke-linecap="round" stroke-linejoin="round" stroke-miterlimit="10" stroke-width="2.314"/>
    <path id="Path_729" data-name="Path 729" d="M500.4,663.3l54.6-.8c3.8-20.3,20.9-45.2,42.4-68.7,21.5-23.4,36.1-57.5,41.2-72.7,0,0,5.4-24,2.5-58.2,0,0-2.5,17.8-7.6,33-2,1.5-17.1,4.8-24.2,6.1-.6,7.3-4.4,26.7-8.6,36.3-15.2,34.4-26.9,32.5-58.1,89.3C532.9,645.3,529.1,662.8,500.4,663.3Z" fill="#e38f3e"/>
    <path id="Path_730" data-name="Path 730" d="M335.2,504.8a158.408,158.408,0,0,0,9,33.2c.1.1.1.3.2.4,5.7,14.1,12.5,24,18.2,30.2a36.805,36.805,0,0,0,5.2,4.8c19.9,15.3,38.9,54.5,36.4,97.6L427,691.3s17.7-22.8,17.7-27.9c-3.8-20.3-20.9-45.6-42.4-69.1-21.5-23.4-36.1-57.7-41.2-72.9,0,0-5.4-24.1-2.5-58.3,0,0,3.2-8.6,5.4-17.4-.1-.2-.3-.3-.4-.4,2.1-21.4.2-45.3-2.4-65.2-.2-1.5-.4-2.9-.6-4.3-1.1-7.8-2.2-14.8-3.2-20.7-1.1-6.5-3.3-19.1-3.7-21.6,0-.1-.1-.2-.1-.4V333s1.8,51.9-2.7,112.3C348.3,480.2,340.3,482,335.2,504.8Z" fill="#dc8640" stroke="#171717" stroke-linecap="round" stroke-linejoin="round" stroke-miterlimit="10" stroke-width="4"/>
    <path id="Path_731" data-name="Path 731" d="M353.2,401.9c2.4,19.4,4.1,42.4,2.1,63,.1.1.3.2.4.4-2.2,8.7,1.9,56.5,1.9,56.5,5.1,15.2,1.9,28.3,32.3,71.4,17.3,24.5,40.9,65.4,45.7,86.1,4.5-6.4,9-13.5,9-16-3.8-20.3-20.9-45.6-42.4-69.1s-36.1-57.7-41.2-72.9c0,0-5.4-24.1-2.5-58.3,0,0,3.2-8.6,5.4-17.4-.1-.2-.3-.3-.4-.4,2.1-21.4.2-45.3-2.4-65.2-.2-1.5-.4-2.9-.6-4.3-1.1-7.8-2.2-14.8-3.2-20.7-1.1-6.5-3.3-19.1-3.7-21.6,0-.1-.1-.2-.1-.4v-.1S354.6,362,353.2,401.9Z" fill="#d87a3a"/>
    <path id="Path_732" data-name="Path 732" d="M401.6,678.4l25.3,22.8,20.3-27.9s7.6,25.3,10.1,43.1l-30.4,20.3L399,708.8Z" fill="#dc9740" stroke="#171717" stroke-linecap="round" stroke-linejoin="round" stroke-miterlimit="10" stroke-width="4"/>
    <path id="Path_733" data-name="Path 733" d="M500.4,673.4H447.2s7.6,25.3,10.1,43.1h25.3l5.1-10.1h25.4l5.1,10.1h25.3c2.5-17.7,10.1-43.1,10.1-43.1Z" fill="#e7a24e" stroke="#171717" stroke-linecap="round" stroke-linejoin="round" stroke-miterlimit="10" stroke-width="2.314"/>
    <path id="Path_734" data-name="Path 734" d="M543.5,716.5H518.2l-5.1-10.1H487.7l-5.1,10.1H457.3l-30.4,20.3s2.9,3.4,12.7,15.2H561.2c9.8-11.8,12.7-15.2,12.7-15.2Z" fill="#b1171c" stroke="#171717" stroke-linecap="round" stroke-linejoin="round" stroke-miterlimit="10" stroke-width="2.314"/>
    <path id="Path_735" data-name="Path 735" d="M531.7,709.6H513l-3.8-7.5H490.4l-3.8,7.5H467.8l-10.6,1.9s2.4,12.3,6.8,40.5h75c4.8-35.5,3.4-35.5,3.4-35.5Z" fill="#fff" opacity="0.4"/>
    <path id="Path_736" data-name="Path 736" d="M542.5,716.5l-10.7-6.9h-8.2c-1.2,9.8-1.7,35.7-7.9,42.3h23.5C543.9,716.5,542.5,716.5,542.5,716.5Z" fill="#c71a1f"/>
    <path id="Path_737" data-name="Path 737" d="M500.4,673.4H447.2s7.6,25.3,10.1,43.1h25.3l5.1-10.1h25.4l5.1,10.1h25.3c2.5-17.7,10.1-43.1,10.1-43.1Z" fill="#e7a24e" stroke="#171717" stroke-linecap="round" stroke-linejoin="round" stroke-miterlimit="10" stroke-width="4"/>
    <path id="Path_738" data-name="Path 738" d="M521.7,715.7h21.7c2.5-17.7,10.1-43.1,10.1-43.1H530.1C526.7,687.8,530.4,706.3,521.7,715.7Z" fill="#e38f3e"/>
    <path id="Path_739" data-name="Path 739" d="M552.5,318.5l-9.4,36a404.039,404.039,0,0,1-41.5,2.6h-2.5a404.04,404.04,0,0,1-41.5-2.6l-9-34.9a132.12,132.12,0,0,1,103.9-1.1Z" fill="#b1171c" stroke="#171717" stroke-linecap="round" stroke-linejoin="round" stroke-miterlimit="10" stroke-width="4"/>
    <path id="Path_740" data-name="Path 740" d="M538.1,321.7l-3,38.3s-19.3,9.7-34.6,9.7l-5.9,2.5c-15.3,0-28.3-18.2-28.3-18.2l-8.1-31.5a99.135,99.135,0,0,1,41.1-8.6A103.289,103.289,0,0,1,538.1,321.7Z" fill="#fff" opacity="0.4"/>
    <path id="Path_741" data-name="Path 741" d="M647.3,333.1h0c0,.2-.1.3-.1.4l-.6,3.6c-2,11.8-4.4,24.9-6.4,38.7-.2,1.4-.4,2.9-.6,4.4-2.9,21.3-4.7,43.9-2.4,65.2-.1.1-.3.2-.4.4-5,5.1-16.8,9-31.4,12.1-36.3,7.6-90.2,9.8-102.5,10.2-.5,0-.9.1-1.2.1h-.2a7.25,7.25,0,0,1-2.4,0h-.2a5.739,5.739,0,0,1-1.2-.1c-11.8-.4-62.5-2.5-98.7-9.5-16.4-3.2-29.8-7.3-35.2-12.9-.1-.2-.3-.3-.4-.4,2.4-21.3.6-43.9-2.4-65.2-.2-1.5-.4-2.9-.6-4.4-2-13.8-4.4-26.9-6.4-38.7l-.6-3.6c0-.1-.1-.2-.1-.4v-.1A191.792,191.792,0,0,1,404.9,305a199.427,199.427,0,0,1,37.3-9.2l6.1,23.8,9,35.1a407.571,407.571,0,0,0,41.5,3h2.5a377.207,377.207,0,0,0,41.5-3l9.4-36.4,5.8-22.5a199.423,199.423,0,0,1,37.3,9.2A194.235,194.235,0,0,1,647.3,333.1Z" fill="#e7a24e" stroke="#171717" stroke-linecap="round" stroke-linejoin="round" stroke-miterlimit="10" stroke-width="4"/>
    <path id="Path_742" data-name="Path 742" d="M641.1,463.1s-2.5,17.7-7.6,32.9c-5.6,4.2-38.8,8.6-50.7,7.6-30.4-2.5-45.8-7.4-48.8-8.3-5.4-11.6-6.9-14.5-6.9-14.5H472.5s-1.5,2.9-6.9,14.5c-3.1.9-18.4,5.8-48.8,8.3-11.9,1-45.1-3.4-50.7-7.6-5.1-15.2-7.6-32.9-7.6-32.9-2.9,34.2,2.5,58.3,2.5,58.3,5.1,15.2,19.6,49.4,41.2,72.9s38.6,48.8,42.4,69.1H555c3.8-20.3,20.9-45.6,42.4-69.1,21.5-23.4,36.1-57.7,41.2-72.9C638.6,521.3,644,497.3,641.1,463.1Z" fill="none" stroke="#171717" stroke-linecap="round" stroke-linejoin="round" stroke-miterlimit="10" stroke-width="4"/>
    <g id="Group_122" data-name="Group 122" opacity="0.1">
      <g id="Group_121" data-name="Group 121">
        <g id="Group_120" data-name="Group 120">
          <path id="Path_743" data-name="Path 743" d="M507.2,263.6c43,0,83.1,10.1,117.1,27.6a188.6,188.6,0,0,0-56.5-31.7,202.676,202.676,0,0,0-134.6,0,186.853,186.853,0,0,0-81.9,56.9c-.2.2-.3.4-.5.6C390.9,284,446.2,263.6,507.2,263.6Z"/>
        </g>
      </g>
    </g>
    <path id="Path_744" data-name="Path 744" d="M452.2,627.6l2.9,7.2" fill="none" stroke="#fff" stroke-linecap="round" stroke-linejoin="round" stroke-miterlimit="10" stroke-width="4.628" opacity="0.6"/>
    <path id="Path_745" data-name="Path 745" d="M443.9,612.2" fill="none" stroke="#fff" stroke-linecap="round" stroke-linejoin="round" stroke-miterlimit="10" stroke-width="4.628"/>
    <path id="Path_746" data-name="Path 746" d="M384.1,525s5.9,23.1,36.6,56.3c7.6,8.2,20.5,25.7,25.4,35.3" fill="none" stroke="#fff" stroke-linecap="round" stroke-linejoin="round" stroke-miterlimit="10" stroke-width="4.628" opacity="0.6"/>
    <path id="Path_747" data-name="Path 747" d="M372.7,358.4c4.2,16.8,10.1,43.4,8.8,59.1" fill="none" stroke="#fff" stroke-linecap="round" stroke-linejoin="round" stroke-miterlimit="10" stroke-width="4.628" opacity="0.5"/>
    <path id="Path_748" data-name="Path 748" d="M368.6,343.2s.2,1.2,1.5,6" fill="none" stroke="#fff" stroke-linecap="round" stroke-linejoin="round" stroke-miterlimit="10" stroke-width="4.628" opacity="0.5"/>
    <path id="Path_749" data-name="Path 749" d="M562.2,331.1" fill="none" stroke="#fff" stroke-linecap="round" stroke-linejoin="round" stroke-miterlimit="10" stroke-width="4.628" opacity="0.5"/>
    <line id="Line_1" data-name="Line 1" x1="1.6" y2="6.8" transform="translate(557 345.7)" opacity="0.5" stroke="#fff" stroke-linecap="round" stroke-linejoin="round" stroke-miterlimit="10" stroke-width="4.628" fill="none"/>
    <line id="Line_2" data-name="Line 2" x1="5.4" y2="21.6" transform="translate(562.2 314)" opacity="0.5" stroke="#fff" stroke-linecap="round" stroke-linejoin="round" stroke-miterlimit="10" stroke-width="4.628" fill="none"/>
    <path id="Path_750" data-name="Path 750" d="M543.5,716.5H518.2l-5.1-10.1H487.7l-5.1,10.1H457.3l-30.4,20.3s2.9,3.4,12.7,15.2H561.2c9.8-11.8,12.7-15.2,12.7-15.2Z" fill="none" stroke="#171717" stroke-linecap="round" stroke-linejoin="round" stroke-miterlimit="10" stroke-width="4"/>
    <path id="Path_751" data-name="Path 751" d="M640.2,375.7c2-13.8,4.4-26.9,6.4-38.7l.6-3.6c0-.1.1-.2.1-.4v-.1c-7.4-5.6-27.1-14.5-35.3-19,22,11.2-5.1,76-2.4,111.9.9,11.9,2.2,21.7,3.6,30.1,11-2.8,19.6-6.2,23.7-10.3.1-.2.3-.3.4-.4-2.4-21.3-.6-43.9,2.4-65.2C639.8,378.6,640,377.2,640.2,375.7Z" fill="#e38f3e"/>
    <path id="Path_752" data-name="Path 752" d="M467.4,702.1c.2,1.8.3,1.2.4,3" fill="none" stroke="#fff" stroke-linecap="round" stroke-linejoin="round" stroke-miterlimit="10" stroke-width="4.628" opacity="0.6"/>
    <path id="Path_753" data-name="Path 753" d="M464.8,686s.6,2.6,1.3,7.6" fill="none" stroke="#fff" stroke-linecap="round" stroke-linejoin="round" stroke-miterlimit="10" stroke-width="4.628" opacity="0.6"/>
    <path id="Path_754" data-name="Path 754" d="M446,724l11.3-7.5c-2.5-17.7-10.1-43.1-10.1-43.1l-8.7,12C441.3,692.4,445.2,705.5,446,724Z" fill="#d87a3a"/>
    <path id="Path_755" data-name="Path 755" d="M474.4,727l1.6,14h9.2" fill="none" stroke="#000" stroke-linecap="round" stroke-linejoin="round" stroke-miterlimit="10" stroke-width="4.628" opacity="0.1"/>
    <line id="Line_3" data-name="Line 3" x2="2.6" transform="translate(492.8 741)" opacity="0.1" stroke="#000" stroke-linecap="round" stroke-linejoin="round" stroke-miterlimit="10" stroke-width="4.628" fill="none"/>
    <path id="Path_756" data-name="Path 756" d="M435.5,501.5l30.1-6.3,6.9-15.2h44.3s-2.5,2.1-10.4,3c-12,1.3-31,.8-31,.8s-3.4,7-6.7,15C458.4,500.6,435.5,501.5,435.5,501.5Z" opacity="0.2"/>
    <path id="Path_757" data-name="Path 757" d="M649.6,316.4c-20.9-25.4-49.2-45.2-81.9-56.9a202.676,202.676,0,0,0-134.6,0,186.853,186.853,0,0,0-81.9,56.9c-24.1,29.1-18.3,159.9-16,188.3a134.329,134.329,0,0,0,9,33.2c.1.1.1.3.2.4a116.51,116.51,0,0,0,18.2,30.2c2.9,27.5,3.5,69.4,6.1,97.3,10.1,17.7,15.2,26.8,30.4,43.1l6.5,6.5L423.2,733l3.8,3.8a14.849,14.849,0,0,1,1,1.2,10.591,10.591,0,0,1,1,1.2c1.5,1.7,3.9,4.6,7.6,9.1,1,1.2,2.1,2.5,3.1,3.8H561.3c1-1.3,2.1-2.5,3.1-3.8,3.7-4.4,6.1-7.3,7.6-9.1.3-.4.7-.8,1-1.2.7-.8,1-1.2,1-1.2l3.8-3.8c6.2-6.2,12-12.1,17.6-17.6l6.5-6.5c15.2-16.3,20.3-25.3,30.4-43.1,2.5-27.9,3.2-69.8,6.1-97.3a114.831,114.831,0,0,0,18.2-30.2c.1-.1.1-.2.2-.4a134.33,134.33,0,0,0,9-33.2C667.9,476.4,673.7,345.6,649.6,316.4ZM634.7,496c-5.6,4.2-38.8,8.6-50.7,7.6-30.4-2.5-45.8-7.4-48.8-8.3-5.4-11.6-6.9-14.5-6.9-14.5H472.5s-1.5,2.9-6.9,14.5c-3.1.9-18.4,5.8-48.8,8.3-11.9,1-45.1-3.4-50.7-7.6-5.1-15.2-7.6-32.9-7.6-32.9s3.2-8.6,5.4-17.4c17.4,17.7,116.8,21.8,133.9,22.3.5,0,.9.1,1.2.1h.2a7.25,7.25,0,0,0,2.4,0h.2a5.739,5.739,0,0,0,1.2-.1c17.2-.6,116.5-4.6,133.9-22.3,2.2,8.7,5.4,17.4,5.4,17.4S639.8,480.8,634.7,496Z" fill="none" stroke="#171717" stroke-linecap="round" stroke-linejoin="round" stroke-miterlimit="10" stroke-width="4"/>
  </g>
</svg>
