<?xml version="1.0" encoding="utf-8"?>
<!-- Generator: Adobe Illustrator 23.0.6, SVG Export Plug-In . SVG Version: 6.00 Build 0)  -->
<svg version="1.0" id="Layer_2" xmlns="http://www.w3.org/2000/svg" xmlns:xlink="http://www.w3.org/1999/xlink" x="0px" y="0px"
	 viewBox="0 0 800 780.17" enable-background="new 0 0 800 780.17" xml:space="preserve">
<g>
	<path fill="none" d="M352.133,280.22c0.093,0.066,0.151,0.17,0.156,0.284c0.057,0.511,0.128,1.008,0.199,1.505
		c0.029,0.154-0.018,0.313-0.128,0.426l-2.173,2.613c-0.139,0.128-0.168,0.336-0.071,0.497c0.27,0.568,0.525,1.136,0.767,1.718
		c0.042,0.164,0.202,0.269,0.369,0.241h3.366c0.162-0.01,0.318,0.065,0.412,0.199c0.303,0.379,0.615,0.753,0.937,1.122
		c0.097,0.108,0.134,0.257,0.099,0.398c-0.17,1.15-0.312,2.286-0.469,3.437c-0.046,0.183,0.043,0.373,0.213,0.454
		c0.521,0.322,1.027,0.658,1.52,1.008c0.129,0.116,0.325,0.116,0.454,0l2.84-1.86c0.133-0.073,0.293-0.073,0.426,0
		c0.454,0.156,0.895,0.298,1.349,0.412c0.171,0.038,0.31,0.162,0.369,0.327c0.483,1.051,0.952,2.088,1.42,3.138
		c0.041,0.15,0.186,0.247,0.341,0.227h1.889c0.163,0.029,0.321-0.069,0.369-0.227c0.469-1.051,0.951-2.116,1.42-3.167
		c0.054-0.144,0.177-0.251,0.327-0.284c0.454-0.128,0.909-0.27,1.349-0.412c0.141-0.078,0.313-0.078,0.454,0l2.84,1.875
		c0.118,0.103,0.294,0.103,0.412,0c0.511-0.355,1.022-0.696,1.548-1.023c0.164-0.086,0.247-0.275,0.199-0.454
		c-0.156-1.15-0.312-2.315-0.469-3.465c-0.022-0.123,0.015-0.249,0.099-0.341c0.327-0.383,0.653-0.767,0.98-1.165
		c0.085-0.118,0.225-0.183,0.369-0.17h3.266c0.173,0.021,0.336-0.088,0.383-0.256c0.237-0.578,0.488-1.15,0.753-1.718
		c0.112-0.136,0.112-0.332,0-0.469l-2.187-2.641c-0.106-0.114-0.149-0.274-0.114-0.426c0.085-0.454,0.199-0.937,0.199-1.42
		c0.01-0.164,0.1-0.313,0.241-0.398l2.84-1.917h0.043c0.023-0.11-0.015-0.224-0.1-0.298c-0.095-0.663-0.185-1.321-0.27-1.974
		c-0.011-0.142-0.116-0.259-0.256-0.284c-0.909-0.27-1.789-0.596-2.698-0.824c-0.555-0.088-1.006-0.494-1.15-1.037
		c-0.086-0.267-0.2-0.524-0.341-0.767c-0.078-0.146-0.078-0.322,0-0.469c0.511-1.037,0.952-2.088,1.42-3.124
		c0.104-0.172,0.068-0.395-0.085-0.525c-0.398-0.469-0.795-0.937-1.179-1.42c-0.086-0.14-0.262-0.195-0.412-0.128l-3.252,0.966
		c-0.115,0.063-0.254,0.063-0.369,0l-1.278-0.852c-0.106-0.064-0.175-0.175-0.185-0.298c-0.156-1.164-0.341-2.315-0.497-3.465
		c-0.002-0.185-0.132-0.344-0.312-0.383c-0.659-0.169-1.308-0.373-1.946-0.611c-0.126,0.073-0.236,0.17-0.327,0.284
		c-0.696,0.824-1.392,1.661-2.116,2.471c-0.101,0.131-0.26,0.206-0.426,0.199h-1.25c-0.163,0.01-0.322-0.058-0.426-0.185
		c-0.611-0.724-1.207-1.434-1.832-2.144c-0.161-0.242-0.362-0.453-0.597-0.625c-0.648,0.142-1.288,0.317-1.917,0.525
		c-0.251,0.052-0.433,0.27-0.44,0.525c-0.142,1.065-0.298,2.116-0.454,3.181c-0.024,0.242-0.161,0.458-0.369,0.582
		c-0.298,0.199-0.611,0.369-0.895,0.596c-0.191,0.156-0.45,0.199-0.682,0.114l-2.997-0.895c-0.199-0.057-0.383-0.114-0.54,0.071
		l-1.236,1.42c-0.126,0.184-0.126,0.427,0,0.611l1.321,3.025c0.075,0.162,0.075,0.349,0,0.511c-0.142,0.341-0.312,0.668-0.44,1.008
		c-0.109,0.319-0.379,0.557-0.71,0.625c-0.951,0.256-1.889,0.596-2.84,0.866c-0.261,0.059-0.448,0.287-0.454,0.554
		c-0.085,0.611-0.128,1.221-0.213,1.832v0.256c0.047-0.007,0.095-0.007,0.142,0L352.133,280.22z"/>
	<path fill="none" d="M452.383,272.835c0.338-0.25,0.643-0.541,0.909-0.866c0.225-0.266,0.411-0.563,0.554-0.88v9.018h-2.073v1.179
		h5.496v-1.179h-2.002v-12.028h-1.42c-0.007,0.525-0.138,1.041-0.383,1.505c-0.495,0.984-1.271,1.8-2.23,2.343
		c-0.391,0.237-0.836,0.369-1.292,0.383v1.449c0.445-0.002,0.884-0.094,1.292-0.27C451.641,273.319,452.028,273.099,452.383,272.835
		z"/>
	<path fill="none" d="M452.383,297.715c0.338-0.25,0.643-0.541,0.909-0.866c0.225-0.266,0.411-0.563,0.554-0.88v9.018h-2.073v1.179
		h5.496v-1.179h-2.002v-12.028h-1.42c-0.007,0.525-0.138,1.041-0.383,1.505c-0.495,0.984-1.271,1.8-2.23,2.343
		c-0.391,0.237-0.836,0.369-1.292,0.383v1.449c0.445-0.002,0.884-0.094,1.292-0.27C451.641,298.199,452.028,297.98,452.383,297.715z
		"/>
	<path fill="none" d="M450.721,354.065c0.379,0.62,0.9,1.141,1.52,1.52c1.428,0.765,3.145,0.765,4.573,0
		c0.621-0.377,1.142-0.898,1.52-1.52c0.4-0.672,0.683-1.406,0.838-2.173l0.014,0.014c0.354-1.691,0.354-3.436,0-5.127
		c-0.157-0.772-0.445-1.512-0.852-2.187c-0.383-0.622-0.909-1.143-1.534-1.52c-1.413-0.765-3.117-0.765-4.53,0
		c-0.622,0.376-1.144,0.897-1.52,1.52c-0.403,0.677-0.691,1.416-0.852,2.187c-0.184,0.84-0.274,1.697-0.27,2.556
		c-0.004,0.859,0.082,1.715,0.256,2.556C450.034,352.66,450.318,353.395,450.721,354.065z M454.527,354.974
		c-1.187,0-2.265-0.694-2.755-1.775l5.969-6.494c-0.002-0.008-0.003-0.016-0.005-0.025l0.014,0.014l-0.01,0.01
		c0.215,0.851,0.324,1.725,0.322,2.603c0.076,1.441-0.243,2.875-0.923,4.147C456.621,354.409,455.614,354.995,454.527,354.974z
		 M454.527,343.67c0.577-0.014,1.144,0.155,1.619,0.483c0.497,0.367,0.897,0.849,1.165,1.406l-6.007,6.533
		c-0.234-0.9-0.348-1.826-0.341-2.755c-0.073-1.44,0.246-2.873,0.923-4.147C452.412,344.228,453.432,343.642,454.527,343.67z"/>
	<path fill="none" d="M441.405,272.863c0.338-0.25,0.643-0.541,0.909-0.866c0.225-0.266,0.411-0.563,0.554-0.88v9.018h-2.073v1.179
		h5.553v-1.179h-2.059v-12.028h-1.42c-0.007,0.525-0.138,1.041-0.383,1.505c-0.495,0.984-1.271,1.8-2.23,2.343
		c-0.391,0.237-0.836,0.369-1.292,0.383l0,1.449c0.445-0.002,0.884-0.094,1.292-0.27
		C440.663,273.347,441.05,273.128,441.405,272.863z"/>
	<path fill="none" d="M450.721,329.185c0.379,0.62,0.9,1.141,1.52,1.52c1.428,0.765,3.145,0.765,4.573,0
		c0.621-0.377,1.142-0.898,1.52-1.52c0.4-0.672,0.683-1.406,0.838-2.173l0.014,0.014c0.354-1.691,0.354-3.436,0-5.127
		c-0.157-0.772-0.445-1.512-0.852-2.187c-0.383-0.622-0.909-1.143-1.534-1.52c-1.413-0.765-3.117-0.765-4.53,0
		c-0.622,0.376-1.144,0.897-1.52,1.52c-0.403,0.677-0.691,1.416-0.852,2.187c-0.184,0.84-0.274,1.697-0.27,2.556
		c-0.004,0.859,0.082,1.715,0.256,2.556C450.034,327.78,450.318,328.515,450.721,329.185z M457.737,321.8l0.014,0.014l-0.01,0.01
		c0.215,0.851,0.324,1.725,0.322,2.603c0.076,1.441-0.243,2.875-0.923,4.147c-0.519,0.954-1.527,1.54-2.613,1.52
		c-1.187,0-2.265-0.694-2.755-1.775l5.969-6.494C457.739,321.817,457.739,321.809,457.737,321.8z M451.886,320.309
		c0.526-0.961,1.546-1.548,2.642-1.52c0.577-0.014,1.144,0.155,1.619,0.483c0.497,0.367,0.897,0.849,1.165,1.406l-6.007,6.532
		c-0.234-0.899-0.348-1.826-0.341-2.755C450.89,323.016,451.209,321.583,451.886,320.309z"/>
	<path fill="none" d="M268.151,509.248c-4.733,0-8.571,3.837-8.571,8.57v6.461c0,4.733,3.837,8.57,8.571,8.57
		c4.734,0,8.571-3.837,8.571-8.57v-6.461C276.722,513.085,272.885,509.248,268.151,509.248z"/>
	<path fill="none" d="M442.868,317.853c-0.007,0.525-0.138,1.041-0.383,1.505c-0.495,0.985-1.271,1.8-2.23,2.343
		c-0.391,0.237-0.836,0.369-1.292,0.383v1.42c0.445-0.002,0.884-0.094,1.292-0.27c0.409-0.17,0.795-0.389,1.15-0.653
		c0.338-0.25,0.643-0.541,0.909-0.866c0.225-0.266,0.411-0.563,0.554-0.88v9.018h-2.073v1.179h5.496l0.057-1.15h-2.059v-12.028
		H442.868z"/>
	<path fill="none" d="M505.696,304.305c0.379,0.62,0.9,1.141,1.52,1.52c1.428,0.765,3.145,0.765,4.573,0
		c0.621-0.377,1.142-0.898,1.52-1.52c0.4-0.672,0.683-1.406,0.838-2.173c0.354-1.691,0.354-3.436,0-5.127
		c-0.156-0.772-0.445-1.512-0.852-2.187c-0.383-0.622-0.909-1.143-1.534-1.52c-1.413-0.765-3.117-0.765-4.53,0
		c-0.622,0.376-1.144,0.897-1.52,1.52c-0.403,0.677-0.691,1.416-0.852,2.187h-0.071c-0.156,0.847-0.218,1.709-0.185,2.57
		c-0.004,0.859,0.082,1.715,0.256,2.556C505.009,302.9,505.292,303.635,505.696,304.305z M512.626,296.934
		c0.219,0.859,0.329,1.741,0.327,2.627c0.076,1.44-0.243,2.874-0.923,4.147c-0.519,0.954-1.527,1.54-2.613,1.52
		c-1.194-0.005-2.273-0.711-2.755-1.804L512.626,296.934z M506.775,295.415c0.526-0.961,1.546-1.548,2.642-1.52
		c0.577-0.014,1.144,0.155,1.619,0.483c0.499,0.371,0.899,0.858,1.165,1.42l-6.007,6.518c-0.233-0.9-0.348-1.826-0.341-2.755
		C505.78,298.121,506.099,296.688,506.775,295.415z"/>
	<path fill="none" d="M494.647,279.481c0.379,0.62,0.899,1.141,1.52,1.52c1.428,0.765,3.145,0.765,4.573,0
		c0.621-0.377,1.142-0.898,1.52-1.52c0.4-0.672,0.683-1.406,0.838-2.173c0.354-1.691,0.354-3.436,0-5.127
		c-0.157-0.772-0.445-1.512-0.852-2.187c-0.383-0.622-0.909-1.143-1.534-1.52c-1.413-0.765-3.117-0.765-4.53,0
		c-0.622,0.376-1.144,0.897-1.52,1.52c-0.403,0.677-0.691,1.416-0.852,2.187c-0.18,0.845-0.266,1.707-0.256,2.57
		c-0.004,0.859,0.082,1.715,0.256,2.556C493.96,278.076,494.243,278.811,494.647,279.481z M501.663,272.054
		c0.219,0.858,0.329,1.741,0.327,2.627c0.076,1.441-0.243,2.875-0.923,4.147c-0.519,0.954-1.527,1.54-2.613,1.52
		c-1.218,0.034-2.337-0.665-2.84-1.775L501.663,272.054z M495.798,270.535c0.526-0.961,1.546-1.548,2.641-1.52
		c0.577-0.014,1.144,0.155,1.619,0.483c0.499,0.371,0.899,0.859,1.165,1.42l-6.007,6.518c-0.233-0.9-0.348-1.826-0.341-2.755
		C494.802,273.241,495.121,271.808,495.798,270.535z"/>
	<path fill="none" d="M300.908,457.833c0.164-0.259,0.248-0.56,0.241-0.866c0.024-0.839-0.637-1.538-1.476-1.562
		c-0.029-0.001-0.058-0.001-0.087,0l-9.785,0.043v8.975C292.955,462.817,300.07,459.196,300.908,457.833z"/>
	<path fill="none" d="M506.207,273.474c0.409-0.17,0.795-0.389,1.15-0.653c0.338-0.25,0.643-0.541,0.909-0.866
		c0.225-0.266,0.411-0.563,0.554-0.88v9.018h-2.073v1.179h5.496v-1.179h-2.059v-12.028h-1.42c-0.007,0.525-0.138,1.041-0.383,1.505
		c-0.495,0.984-1.271,1.8-2.23,2.343c-0.391,0.237-0.836,0.369-1.292,0.383l0.057,1.449
		C505.359,273.742,505.799,273.65,506.207,273.474z"/>
	<path fill="none" d="M517.143,273.474c0.409-0.17,0.795-0.389,1.15-0.653c0.338-0.25,0.643-0.541,0.909-0.866
		c0.225-0.266,0.411-0.563,0.554-0.88v9.018h-2.073v1.179h5.496v-1.179h-2.059v-12.028h-1.42c-0.007,0.525-0.138,1.041-0.383,1.505
		c-0.495,0.984-1.271,1.8-2.23,2.343c-0.391,0.237-0.836,0.369-1.292,0.383l0.057,1.449
		C516.295,273.742,516.734,273.65,517.143,273.474z"/>
	<path fill="none" d="M366.917,461.667c-0.284-0.824-0.525-1.69-0.966-2.968l-3.238,9.344l5.524-2.499
		c-0.483-1.321-0.795-2.144-0.923-2.599C367.187,462.491,367.031,462.121,366.917,461.667z"/>
	<path fill="none" d="M494.647,304.362c0.379,0.62,0.899,1.141,1.52,1.52c1.428,0.765,3.145,0.765,4.573,0
		c0.621-0.377,1.142-0.898,1.52-1.52c0.4-0.672,0.683-1.406,0.838-2.173c0.354-1.691,0.354-3.436,0-5.127
		c-0.157-0.772-0.445-1.512-0.852-2.187c-0.383-0.622-0.909-1.143-1.534-1.519c-1.413-0.765-3.117-0.765-4.53,0
		c-0.622,0.376-1.144,0.897-1.52,1.519c-0.403,0.677-0.691,1.416-0.852,2.187v-0.057c-0.184,0.863-0.27,1.745-0.256,2.627
		c-0.004,0.859,0.082,1.715,0.256,2.556C493.96,302.956,494.243,303.692,494.647,304.362z M501.663,296.934
		c0.219,0.859,0.329,1.741,0.327,2.627c0.076,1.44-0.243,2.874-0.923,4.147c-0.519,0.954-1.527,1.54-2.613,1.52
		c-1.225,0.029-2.346-0.683-2.84-1.804L501.663,296.934z M495.798,295.415c0.526-0.961,1.546-1.548,2.641-1.52
		c0.577-0.014,1.144,0.155,1.619,0.483c0.499,0.371,0.899,0.858,1.165,1.42l-6.007,6.518c-0.233-0.9-0.348-1.826-0.341-2.755
		C494.802,298.121,495.121,296.688,495.798,295.415z"/>
	<path fill="none" d="M516.631,304.305c0.379,0.62,0.899,1.141,1.52,1.52c1.428,0.765,3.145,0.765,4.573,0
		c0.621-0.377,1.142-0.898,1.52-1.52c0.4-0.672,0.683-1.406,0.838-2.173c0.354-1.691,0.354-3.436,0-5.127
		c-0.157-0.772-0.445-1.512-0.852-2.187c-0.383-0.622-0.909-1.143-1.534-1.52c-1.413-0.765-3.117-0.765-4.53,0
		c-0.622,0.376-1.144,0.897-1.52,1.52c-0.403,0.677-0.691,1.416-0.852,2.187h-0.028c-0.17,0.846-0.247,1.708-0.227,2.57
		c-0.004,0.859,0.082,1.715,0.256,2.556C515.944,302.9,516.228,303.635,516.631,304.305z M523.604,296.934
		c0.219,0.859,0.329,1.741,0.327,2.627c0.076,1.44-0.243,2.874-0.923,4.147c-0.519,0.954-1.527,1.54-2.613,1.52
		c-1.194-0.005-2.273-0.711-2.755-1.804L523.604,296.934z M517.753,295.415c0.526-0.961,1.546-1.548,2.641-1.52
		c0.577-0.014,1.144,0.155,1.619,0.483c0.499,0.371,0.899,0.858,1.165,1.42l-6.007,6.518c-0.234-0.9-0.348-1.826-0.341-2.755
		C516.758,298.121,517.077,296.688,517.753,295.415z"/>
	<path fill="none" d="M472.691,279.439c0.379,0.62,0.9,1.141,1.52,1.52c1.428,0.765,3.145,0.765,4.573,0
		c0.621-0.377,1.142-0.898,1.52-1.52c0.4-0.672,0.683-1.406,0.838-2.173c0.354-1.691,0.354-3.436,0-5.127
		c-0.157-0.772-0.445-1.512-0.852-2.187c-0.383-0.622-0.909-1.143-1.534-1.52c-1.413-0.765-3.117-0.765-4.53,0
		c-0.622,0.376-1.144,0.897-1.52,1.52c-0.403,0.677-0.691,1.416-0.852,2.187l0,0.043c-0.177,0.831-0.262,1.678-0.256,2.528
		c-0.004,0.859,0.082,1.715,0.256,2.556C472.004,278.033,472.288,278.769,472.691,279.439z M479.693,272.054
		c0.219,0.858,0.329,1.741,0.327,2.627c0.076,1.441-0.243,2.875-0.923,4.147c-0.519,0.954-1.527,1.54-2.613,1.52
		c-1.196,0.003-2.281-0.698-2.769-1.789L479.693,272.054z M473.842,270.535c0.526-0.961,1.546-1.548,2.642-1.52
		c0.577-0.014,1.144,0.155,1.619,0.483c0.499,0.371,0.899,0.859,1.165,1.42l-6.007,6.518c-0.233-0.9-0.348-1.826-0.341-2.755
		C472.846,273.241,473.165,271.808,473.842,270.535z"/>
	<path fill="none" d="M484.223,273.531c0.409-0.17,0.795-0.389,1.15-0.653c0.338-0.25,0.643-0.541,0.909-0.866
		c0.225-0.266,0.411-0.563,0.554-0.88v9.018h-2.073v1.179h5.496v-1.179H488.2V268.12h-1.42c-0.007,0.525-0.138,1.041-0.383,1.505
		c-0.495,0.984-1.271,1.8-2.23,2.343c-0.391,0.237-0.836,0.369-1.292,0.383l0.057,1.449
		C483.375,273.799,483.815,273.707,484.223,273.531z"/>
	<path fill="none" d="M466.244,292.986h-1.42c-0.007,0.525-0.138,1.041-0.383,1.505c-0.495,0.984-1.271,1.8-2.23,2.343
		c-0.391,0.237-0.836,0.369-1.292,0.383v1.42c0.445-0.002,0.884-0.094,1.292-0.27c0.409-0.17,0.795-0.389,1.15-0.653
		c0.338-0.25,0.643-0.541,0.909-0.866c0.225-0.266,0.411-0.563,0.554-0.88v9.018h-2.073v1.179h5.496l0.057-1.15h-2.059V292.986z"/>
	<path fill="none" d="M439.743,304.305c0.379,0.62,0.899,1.141,1.52,1.52c1.428,0.765,3.145,0.765,4.573,0
		c0.621-0.377,1.142-0.898,1.52-1.52c0.4-0.672,0.683-1.406,0.838-2.173l0.014,0.014c0.354-1.691,0.354-3.436,0-5.127
		c-0.157-0.772-0.445-1.512-0.852-2.187c-0.383-0.622-0.909-1.143-1.534-1.519c-1.413-0.765-3.117-0.765-4.53,0
		c-0.622,0.376-1.144,0.897-1.52,1.519c-0.403,0.677-0.691,1.416-0.852,2.187c-0.184,0.84-0.274,1.697-0.27,2.556
		c-0.004,0.859,0.082,1.715,0.256,2.556C439.056,302.899,439.34,303.635,439.743,304.305z M446.759,296.906l0.014,0.028
		l-0.007,0.008c0.213,0.847,0.322,1.717,0.32,2.591c0.076,1.441-0.243,2.874-0.923,4.147c-0.519,0.954-1.527,1.54-2.613,1.52
		c-1.187,0-2.265-0.694-2.755-1.775l5.972-6.482C446.763,296.93,446.762,296.918,446.759,296.906z M440.908,295.429
		c0.526-0.961,1.546-1.548,2.641-1.52c0.577-0.014,1.144,0.156,1.619,0.483c0.497,0.367,0.897,0.849,1.165,1.406l-6.007,6.532
		c-0.234-0.899-0.348-1.826-0.341-2.755C439.912,298.135,440.231,296.702,440.908,295.429z"/>
	<path fill="none" d="M438.962,348.385c0.445-0.002,0.884-0.094,1.292-0.27c0.409-0.17,0.795-0.389,1.15-0.653
		c0.338-0.25,0.643-0.541,0.909-0.866c0.225-0.266,0.411-0.563,0.554-0.88v9.018h-2.073v1.179h5.496l0.057-1.15h-2.059v-12.028
		h-1.42c-0.007,0.525-0.138,1.041-0.383,1.505c-0.495,0.985-1.271,1.8-2.23,2.343c-0.391,0.237-0.836,0.369-1.292,0.383V348.385z"/>
	<path fill="none" d="M444.288,367.613h-1.42c-0.007,0.525-0.138,1.041-0.383,1.505c-0.495,0.984-1.271,1.8-2.23,2.343
		c-0.391,0.237-0.836,0.369-1.292,0.383v1.42c0.445-0.002,0.884-0.094,1.292-0.27c0.409-0.17,0.795-0.389,1.15-0.653
		c0.338-0.25,0.643-0.541,0.909-0.866c0.225-0.266,0.411-0.563,0.554-0.88v9.018h-2.073v1.179h5.496l0.057-1.15h-2.059V367.613z"/>
	<path fill="none" d="M461.699,279.439c0.379,0.62,0.899,1.141,1.52,1.52c1.428,0.765,3.145,0.765,4.573,0
		c0.621-0.377,1.142-0.898,1.52-1.52c0.4-0.672,0.683-1.406,0.838-2.173l0.014,0.014c0.354-1.691,0.354-3.436,0-5.127
		c-0.157-0.772-0.445-1.512-0.852-2.187c-0.383-0.622-0.909-1.143-1.534-1.52c-1.413-0.765-3.117-0.765-4.53,0
		c-0.622,0.376-1.144,0.897-1.52,1.52c-0.403,0.677-0.691,1.416-0.852,2.187c-0.184,0.84-0.274,1.697-0.27,2.556
		c-0.004,0.859,0.082,1.715,0.256,2.556C461.012,278.033,461.296,278.769,461.699,279.439z M468.715,272.04l0.014,0.014l-0.01,0.01
		c0.215,0.851,0.324,1.725,0.322,2.603c0.076,1.441-0.243,2.875-0.923,4.147c-0.519,0.954-1.527,1.54-2.613,1.52
		c-1.187,0-2.265-0.694-2.755-1.775l5.969-6.494C468.717,272.056,468.717,272.048,468.715,272.04z M462.864,270.563
		c0.526-0.961,1.546-1.548,2.641-1.52c0.577-0.014,1.144,0.155,1.619,0.483c0.497,0.367,0.897,0.849,1.165,1.406l-6.007,6.533
		c-0.233-0.9-0.348-1.826-0.341-2.755C461.868,273.269,462.187,271.836,462.864,270.563z"/>
	<path fill="none" d="M444.288,392.494h-1.42c-0.007,0.525-0.138,1.041-0.383,1.505c-0.495,0.984-1.271,1.8-2.23,2.343
		c-0.391,0.237-0.836,0.369-1.292,0.383v1.42c0.445-0.002,0.884-0.094,1.292-0.27c0.409-0.17,0.795-0.389,1.15-0.653
		c0.338-0.25,0.643-0.541,0.909-0.866c0.225-0.266,0.411-0.563,0.554-0.88v9.018h-2.073v1.179h5.496l0.057-1.15h-2.059V392.494z"/>
	<path fill="none" d="M429.333,298.397c0.409-0.17,0.795-0.389,1.15-0.653c0.338-0.25,0.643-0.541,0.909-0.866
		c0.225-0.266,0.411-0.563,0.554-0.88v9.018h-2.073v1.179h5.496v-1.179h-2.059v-12.028h-1.42c-0.007,0.525-0.139,1.041-0.383,1.505
		c-0.495,0.984-1.271,1.8-2.23,2.343c-0.391,0.237-0.836,0.369-1.292,0.383l0.057,1.449
		C428.486,298.665,428.925,298.573,429.333,298.397z"/>
	<path fill="none" d="M196.347,509.248c-4.733,0-8.571,3.837-8.571,8.57v6.461c0,4.733,3.837,8.57,8.571,8.57
		c4.734,0,8.571-3.837,8.571-8.57v-6.461C204.918,513.085,201.081,509.248,196.347,509.248z"/>
	<path fill="none" d="M436.378,394.382c-0.383-0.622-0.909-1.143-1.534-1.52c-1.413-0.765-3.117-0.765-4.53,0
		c-0.622,0.376-1.144,0.897-1.52,1.52c-0.403,0.677-0.691,1.416-0.852,2.187c-0.184,0.84-0.274,1.697-0.27,2.556
		c-0.004,0.859,0.082,1.715,0.256,2.556c0.151,0.768,0.434,1.503,0.838,2.173c0.379,0.62,0.9,1.141,1.52,1.52
		c1.428,0.765,3.145,0.765,4.573,0c0.621-0.377,1.142-0.898,1.52-1.52c0.4-0.672,0.683-1.406,0.838-2.173l0.014,0.014
		c0.354-1.691,0.354-3.436,0-5.127C437.073,395.797,436.785,395.057,436.378,394.382z M429.348,401.838
		c-0.233-0.9-0.348-1.826-0.341-2.755c-0.073-1.44,0.246-2.873,0.923-4.147c0.526-0.961,1.546-1.548,2.642-1.52
		c0.577-0.014,1.144,0.156,1.619,0.483c0.497,0.367,0.897,0.849,1.165,1.406L429.348,401.838z M435.185,403.201
		c-0.519,0.954-1.527,1.54-2.613,1.52c-1.187,0-2.265-0.694-2.755-1.775l5.969-6.494c-0.002-0.008-0.003-0.016-0.005-0.025
		l0.014,0.014l-0.01,0.01c0.215,0.851,0.324,1.725,0.322,2.603C436.184,400.495,435.865,401.929,435.185,403.201z"/>
	<path fill="none" d="M545.574,522.292h-5.113l-4.871,2.812v6.959h9.43c0.911,0.011,1.783-0.366,2.4-1.037l0.398-0.497
		c0.414-0.556,0.625-1.238,0.596-1.931c0-0.454,0-0.781,0-1.235c0-0.454,0-0.781,0-1.15
		C548.415,523.243,546.995,522.292,545.574,522.292z"/>
	<path fill="none" d="M197.59,455.447l-7.314,0v21.998h7.314c4.123-0.085,7.416-3.46,7.399-7.583v-6.831
		C205.006,458.907,201.713,455.532,197.59,455.447z"/>
	<path fill="none" d="M346.729,509.29c-4.733,0-8.571,3.837-8.571,8.57v6.461c0,4.733,3.837,8.57,8.571,8.57
		c4.734,0,8.571-3.837,8.571-8.57v-6.461C355.3,513.128,351.463,509.29,346.729,509.29z"/>
	<path fill="none" d="M436.378,369.502c-0.383-0.622-0.909-1.143-1.534-1.52c-1.413-0.765-3.117-0.765-4.53,0
		c-0.622,0.376-1.144,0.897-1.52,1.52c-0.403,0.677-0.691,1.416-0.852,2.187c-0.184,0.84-0.274,1.697-0.27,2.556
		c-0.004,0.859,0.082,1.715,0.256,2.556c0.151,0.768,0.434,1.503,0.838,2.173c0.379,0.62,0.9,1.141,1.52,1.52
		c1.428,0.765,3.145,0.765,4.573,0c0.621-0.377,1.142-0.898,1.52-1.52c0.4-0.672,0.683-1.406,0.838-2.173l0.014,0.014
		c0.354-1.691,0.354-3.436,0-5.127C437.073,370.916,436.785,370.177,436.378,369.502z M429.348,376.972
		c-0.233-0.9-0.348-1.826-0.341-2.755c-0.073-1.44,0.246-2.873,0.923-4.147c0.526-0.961,1.546-1.548,2.642-1.52
		c0.577-0.014,1.144,0.155,1.619,0.483c0.497,0.367,0.897,0.849,1.165,1.406L429.348,376.972z M435.185,378.349
		c-0.519,0.954-1.527,1.54-2.613,1.52c-1.187,0-2.265-0.694-2.755-1.775l5.969-6.494c-0.002-0.008-0.003-0.016-0.005-0.025
		l0.014,0.014l-0.01,0.01c0.215,0.851,0.324,1.725,0.322,2.603C436.184,375.643,435.865,377.077,435.185,378.349z"/>
	<path fill="none" d="M97.965,516.327c-0.284-0.824-0.525-1.69-0.966-2.968l-3.295,9.358l5.581-2.514
		c-0.483-1.321-0.795-2.144-0.923-2.599C98.235,517.151,98.079,516.782,97.965,516.327z"/>
	<path fill="none" d="M483.499,461.667c-0.284-0.824-0.525-1.69-0.966-2.968l-3.238,9.344l5.524-2.499
		c-0.483-1.321-0.795-2.144-0.923-2.599C483.769,462.491,483.612,462.121,483.499,461.667z"/>
	<path fill="none" d="M433.31,417.402h-1.42c-0.007,0.525-0.138,1.041-0.383,1.505c-0.495,0.985-1.271,1.8-2.23,2.343
		c-0.391,0.237-0.836,0.369-1.292,0.383v1.42c0.445-0.002,0.884-0.094,1.292-0.27c0.409-0.17,0.795-0.389,1.15-0.653
		c0.338-0.25,0.643-0.541,0.909-0.866c0.225-0.266,0.411-0.563,0.554-0.88v9.018h-2.073v1.179h5.496l0.057-1.15h-2.059V417.402z"/>
	<path fill="none" d="M545.816,512.706c0.177-0.326,0.26-0.695,0.242-1.065c0.055-0.782-0.535-1.461-1.317-1.516
		c-0.034-0.002-0.069-0.004-0.103-0.003h-9.118l0.071,9.046C538.672,517.52,545.063,513.941,545.816,512.706z"/>
	<path fill="none" d="M506.612,509.248c-4.734,0-8.571,3.837-8.571,8.57v6.461c0,4.733,3.837,8.57,8.571,8.57
		c4.733,0,8.571-3.837,8.571-8.57v-6.461C515.183,513.085,511.346,509.248,506.612,509.248z"/>
	<path fill="none" d="M418.356,373.038c0.409-0.17,0.795-0.389,1.15-0.653c0.338-0.25,0.643-0.541,0.909-0.866
		c0.225-0.266,0.411-0.563,0.554-0.88v9.018h-2.073v1.179h5.496v-1.179h-2.059v-12.028h-1.42c-0.007,0.525-0.138,1.041-0.383,1.505
		c-0.495,0.984-1.271,1.8-2.23,2.343c-0.391,0.237-0.836,0.369-1.292,0.383l0.057,1.449
		C417.508,373.306,417.947,373.214,418.356,373.038z"/>
	<path fill="none" d="M428.765,354.094c0.379,0.62,0.9,1.141,1.52,1.52c1.428,0.765,3.145,0.765,4.573,0
		c0.621-0.377,1.142-0.898,1.52-1.52c0.4-0.672,0.683-1.406,0.838-2.173l0.014,0.014c0.354-1.691,0.354-3.436,0-5.127
		c-0.157-0.772-0.445-1.512-0.852-2.187c-0.383-0.622-0.909-1.143-1.534-1.52c-1.413-0.765-3.117-0.765-4.53,0
		c-0.622,0.376-1.144,0.897-1.52,1.52c-0.403,0.677-0.691,1.416-0.852,2.187c-0.184,0.84-0.274,1.697-0.27,2.556
		c-0.004,0.859,0.082,1.715,0.256,2.556C428.078,352.689,428.362,353.424,428.765,354.094z M435.781,346.681l0.014,0.014l-0.01,0.01
		c0.215,0.851,0.324,1.725,0.322,2.603c0.076,1.441-0.243,2.875-0.923,4.147c-0.519,0.954-1.527,1.54-2.613,1.52
		c-1.187,0-2.265-0.694-2.755-1.775l5.969-6.494C435.784,346.697,435.783,346.689,435.781,346.681z M429.93,345.19
		c0.526-0.961,1.546-1.548,2.642-1.52c0.577-0.014,1.144,0.155,1.619,0.483c0.497,0.367,0.897,0.849,1.165,1.406l-6.007,6.533
		c-0.233-0.9-0.348-1.826-0.341-2.755C428.934,347.896,429.253,346.463,429.93,345.19z"/>
	<path fill="none" d="M659.337,478.147c4.734,0,8.571-3.837,8.571-8.57v-6.461c0-4.733-3.837-8.57-8.571-8.57
		c-4.733,0-8.571,3.837-8.571,8.57v6.461C650.766,474.31,654.604,478.147,659.337,478.147z"/>
	<path fill="none" d="M428.765,329.213c0.379,0.62,0.9,1.141,1.52,1.52c1.428,0.765,3.145,0.765,4.573,0
		c0.621-0.377,1.142-0.898,1.52-1.52c0.4-0.672,0.683-1.406,0.838-2.173l0.014,0.014c0.354-1.691,0.354-3.436,0-5.127
		c-0.157-0.772-0.445-1.512-0.852-2.187c-0.383-0.622-0.909-1.143-1.534-1.52c-1.413-0.765-3.117-0.765-4.53,0
		c-0.622,0.376-1.144,0.897-1.52,1.52c-0.403,0.677-0.691,1.416-0.852,2.187c-0.184,0.84-0.274,1.697-0.27,2.556
		c-0.004,0.859,0.082,1.715,0.256,2.556C428.078,327.808,428.362,328.543,428.765,329.213z M435.781,321.8l0.014,0.014l-0.01,0.01
		c0.215,0.851,0.324,1.725,0.322,2.603c0.076,1.441-0.243,2.875-0.923,4.147c-0.519,0.954-1.527,1.54-2.613,1.52
		c-1.187,0-2.265-0.694-2.755-1.775l5.969-6.494C435.784,321.817,435.783,321.809,435.781,321.8z M429.93,320.309
		c0.526-0.961,1.546-1.548,2.642-1.52c0.577-0.014,1.144,0.155,1.619,0.483c0.497,0.367,0.897,0.849,1.165,1.406l-6.007,6.532
		c-0.233-0.899-0.348-1.826-0.341-2.755C428.934,323.016,429.253,321.583,429.93,320.309z"/>
	<path fill="none" d="M268.797,469.577v-6.461c0-4.733-3.837-8.57-8.571-8.57c-4.734,0-8.571,3.837-8.571,8.57v6.461
		c0,4.733,3.837,8.57,8.571,8.57C264.96,478.147,268.797,474.31,268.797,469.577z"/>
	<path fill="none" d="M574.106,469.577v-6.461c0-4.733-3.837-8.57-8.571-8.57c-4.733,0-8.571,3.837-8.571,8.57v6.461
		c0,4.733,3.837,8.57,8.571,8.57C570.268,478.147,574.106,474.31,574.106,469.577z"/>
	<path fill="none" d="M425.4,394.382c-0.383-0.622-0.909-1.143-1.534-1.52c-1.413-0.765-3.117-0.765-4.53,0
		c-0.622,0.376-1.144,0.897-1.52,1.52c-0.403,0.677-0.691,1.416-0.852,2.187c-0.184,0.84-0.274,1.697-0.27,2.556
		c-0.004,0.859,0.082,1.715,0.256,2.556c0.151,0.768,0.434,1.503,0.838,2.173c0.379,0.62,0.9,1.141,1.52,1.52
		c1.428,0.765,3.145,0.765,4.573,0c0.621-0.377,1.142-0.898,1.52-1.52c0.4-0.672,0.683-1.406,0.838-2.173l0.014,0.014
		c0.354-1.691,0.354-3.436,0-5.127C426.095,395.797,425.807,395.057,425.4,394.382z M418.341,401.838
		c-0.233-0.9-0.348-1.826-0.341-2.755c-0.073-1.44,0.246-2.873,0.923-4.147c0.526-0.961,1.546-1.548,2.642-1.52
		c0.577-0.014,1.144,0.156,1.619,0.483c0.497,0.367,0.897,0.849,1.165,1.406L418.341,401.838z M424.207,403.201
		c-0.519,0.954-1.527,1.54-2.613,1.52c-1.187,0-2.265-0.694-2.755-1.775l5.969-6.494c-0.002-0.008-0.003-0.016-0.005-0.025
		l0.014,0.014l-0.01,0.01c0.215,0.851,0.324,1.725,0.322,2.603C425.206,400.495,424.887,401.929,424.207,403.201z"/>
	<path fill="none" d="M137.275,296.324c10.086-0.109,18.18-8.362,18.093-18.447c0.006-3.211-0.827-6.368-2.414-9.16
		c-3.181-5.693-9.186-9.227-15.707-9.245c-9.129,0.671-16.387,7.93-17.059,17.058c-0.748,10.169,6.89,19.018,17.059,19.765
		L137.275,296.324z M128.174,277.578c0.078-4.971,4.129-8.96,9.101-8.961c5.064,0.047,9.135,4.181,9.103,9.245
		c-0.078,5.027-4.217,9.038-9.244,8.96C132.108,286.744,128.096,282.605,128.174,277.578z"/>
	<path fill="none" d="M577.294,509.248c-4.734,0-8.571,3.837-8.571,8.57v6.461c0,4.733,3.837,8.57,8.571,8.57
		c4.733,0,8.571-3.837,8.571-8.57v-6.461C585.865,513.085,582.027,509.248,577.294,509.248z"/>
	<path fill="none" d="M475.107,510.064c-0.029-0.001-0.058-0.001-0.087,0l-9.785,0.043v8.975c3.153-1.605,10.268-5.226,11.106-6.589
		c0.164-0.258,0.249-0.56,0.241-0.866C476.606,510.788,475.946,510.088,475.107,510.064z"/>
	<path fill="#FF8E06" d="M91.915,472.076c-0.074-0.594-0.596-1.029-1.193-0.994H88.01c-1.244,0-1.277,0.741-1.278,1.54
		c-0.035,1.113,0.059,2.226,0.284,3.317c0.189,0.961,0.571,1.874,1.122,2.684c1.762,2.901,4.914,4.668,8.308,4.658h3.039
		c2.618,0.152,5.198-0.684,7.229-2.343c2.041-2.249,3.157-5.186,3.124-8.222c0.113-2.331-0.955-4.562-2.84-5.936
		c-0.88-0.597-1.835-1.075-2.84-1.42c-0.994-0.369-2.712-0.824-5.113-1.52l-4.601-1.321c-0.657-0.197-1.249-0.565-1.718-1.065
		c-0.709-0.814-0.951-1.935-0.639-2.968c0.435-2.074,2.242-3.574,4.36-3.621h3.068c2.556,0,3.962,1.307,4.076,4.814
		c0.007,0.71,0.569,1.291,1.278,1.321h2.641c1.278,0,1.278-0.781,1.278-1.605c0.23-2.799-0.813-5.554-2.84-7.498
		c-1.817-1.522-4.106-2.365-6.476-2.386h-3.039c-4.652,0.031-8.635,3.342-9.515,7.91c-0.209,0.931-0.29,1.887-0.241,2.84v0.582
		c0,5.482,5.51,7.129,10.623,8.322c2.883,0.682,5.311,1.108,6.433,2.102c0.52,0.679,0.736,1.542,0.596,2.386
		c-0.008,0.276-0.037,0.552-0.085,0.824c-0.513,2.211-2.566,3.714-4.829,3.536h-3.039c-2.062-0.039-3.826-1.492-4.261-3.508
		c-0.085-0.525-0.085-0.895-0.085-1.108C92.077,472.954,92.038,472.505,91.915,472.076z"/>
	<path fill="#FF8E06" d="M86.732,472.687c0-0.022,0.001-0.043,0.001-0.065c0-0.007-0.001-0.014-0.001-0.021V472.687z"/>
	<path fill="#FF8E06" d="M141.55,449.98h-2.641c-1.236,0-1.321,0.781-1.321,1.605v20.833c0.016,2.794-2.233,5.075-5.027,5.098
		h-3.082c-2.477-0.039-4.466-2.053-4.474-4.53V451.57c0-0.824-0.043-1.605-1.278-1.605h-2.684c-0.096-0.01-0.193-0.009-0.288,0.005
		c-0.637,0.09-1.08,0.679-0.99,1.316v21.657c0,0.019-0.001,0.039-0.001,0.058c-0.047,5.411,4.303,9.836,9.715,9.883h3.082
		c5.723-0.078,10.319-4.743,10.31-10.466V451.3c0.016-0.112,0.016-0.225,0-0.337C142.778,450.327,142.187,449.886,141.55,449.98z"/>
	<path fill="#FF8E06" d="M174.626,449.98h-21.303c-1.278,0-1.278,0.781-1.278,1.605v2.102c0,1.321,0.185,1.605,1.605,1.605h7.754
		v26.031c0,0.824,0.043,1.605,1.278,1.605h2.755c1.278,0,1.278-0.781,1.278-1.605v-26.031h7.669c1.406,0,1.562-0.284,1.562-1.605
		v-2.102C175.947,450.761,175.862,449.98,174.626,449.98z"/>
	<path fill="#FF8E06" d="M197.647,449.965h-11.305c-0.747-0.002-1.368,0.575-1.42,1.321l0.085,30.319
		c-0.003,0.044-0.004,0.088-0.002,0.132c0.025,0.682,0.598,1.214,1.28,1.189h11.361c7.106-0.124,12.782-5.958,12.711-13.065v-6.831
		C210.429,455.923,204.753,450.09,197.647,449.965z M204.989,469.861c0.016,4.123-3.276,7.498-7.399,7.583h-7.314v-21.998l7.314,0
		c4.123,0.085,7.416,3.46,7.399,7.583V469.861z"/>
	<path fill="#1C4863" d="M146.379,277.862c0.032-5.063-4.04-9.198-9.103-9.245c-4.972,0.001-9.023,3.99-9.101,8.961
		c-0.078,5.027,3.933,9.165,8.96,9.244C142.162,286.9,146.3,282.889,146.379,277.862z"/>
	<path fill="#1C4863" d="M164.855,380.266l33.942-19.768l-40.248-65.51h0.483l7.91-17.041l0.04-0.085h74.633v-9.146l-70.374-0.011
		l7.518-16.405h-51.581l-9.331,5.851l-11.063,19.555l-0.156,8.677L164.855,380.266z M120.188,276.53
		c0.671-9.128,7.93-16.387,17.059-17.058c6.521,0.018,12.526,3.552,15.707,9.245c1.588,2.791,2.42,5.948,2.414,9.16
		c0.087,10.086-8.007,18.338-18.093,18.447l-0.028-0.028C127.078,295.548,119.441,286.698,120.188,276.53z"/>
	<polygon fill="#1C4863" points="172.915,286.766 169.384,294.776 230.21,294.776 237.975,286.766 	"/>
	<polygon fill="#1C4863" points="184.623,260.21 238.072,260.21 230.306,252.201 188.154,252.201 	"/>
	<path fill="#1C4863" d="M217.132,389.739l-13.208-21.522l-6.804,3.888l13.437,21.894c3.619,5.83,3.836,13.152,0.568,19.186
		c-3.087,6.008-9.279,9.781-16.034,9.77H87.873l8.999,8.009h98.219c9.62,0.025,18.443-5.339,22.85-13.889
		C222.598,408.478,222.289,398.045,217.132,389.739z"/>
	<path fill="#1C4863" d="M168.843,388.205l0.131,0.213H96.632l-8.999,8.009h86.254c1.855-0.01,3.556-1.034,4.431-2.67
		c0.895-1.678,0.835-3.703-0.156-5.325l-2.496-4.068l-6.721,3.84H168.843z"/>
	<path fill="#1C4863" d="M199.933,406.198c2.505-4.633,2.337-10.252-0.44-14.727l-9.42-15.34l-6.808,3.891l9.653,15.724
		c1.24,1.998,1.315,4.506,0.199,6.575c-1.057,2.061-3.18,3.356-5.496,3.351H84.857v8.052h102.764
		C192.813,413.728,197.569,410.82,199.933,406.198z"/>
	<path fill="#1C4863" d="M286.592,306.151v81.003c0,0.005,0,0.01,0,0.015c-0.047,3.968,3.133,7.223,7.101,7.27h49.599l-4.029-8.308
		h-44.618v-79.981H286.592z"/>
	<path fill="#1C4863" d="M269.664,306.151v87.976c-0.142,10.039,7.869,18.298,17.908,18.461h64.521l-4.029-8.308h-60.492
		c-5.524-0.086-9.935-4.63-9.856-10.154v-87.976H269.664z"/>
	<path fill="#1C4863" d="M280.67,421.251c-10.964-0.179-19.714-9.201-19.556-20.166v-94.934h-8.052v94.934
		c0,15.621,12.384,28.402,27.608,28.402h79.618l-3.994-8.237H280.67z"/>
	<polygon fill="#1C4863" points="532.069,326.742 488.398,326.742 473.785,326.742 472.207,335.732 525.11,335.732 541.21,424.62 
		547.747,414.761 	"/>
	<polygon fill="#1C4863" points="517.952,345.119 470.56,345.119 468.982,354.108 510.709,354.108 524.555,430.513 533.119,428.842 
			"/>
	<polygon fill="#1C4863" points="506.037,423.312 516.197,430.442 503.736,361.663 467.656,361.663 466.079,370.652 
		496.493,370.652 	"/>
	<polygon fill="#1C4863" points="702.205,408.186 699.251,392.991 653.223,361.393 678.602,361.393 686.129,358.184 696.766,347.22 
		699.876,339.467 699.876,306.463 657.328,306.463 657.328,317.54 614.708,317.54 614.708,387.637 675.662,429.487 690.418,426.448 
			"/>
	<path fill="#1C4863" d="M601.941,288.073c-2.755,0.047-4.953,2.314-4.914,5.07v83.786l0.192,48.67l7.907-8.149l-0.16-40.521
		v-80.605h96.117v-8.251H601.941z"/>
	<path fill="#1C4863" d="M594.935,270.648c-8.477,0.15-15.228,7.144-15.078,15.621v108.78l0.126,33.074h7.996l-0.127-33.145V286.213
		c-0.055-3.984,3.117-7.264,7.101-7.342h106.129v-4.062l-1.669-4.161h-104.46C594.948,270.648,594.941,270.648,594.935,270.648z"/>
	<path fill="#1C4863" d="M571.067,425.621l-0.185-48.351v-93.301c-0.166-12.414,9.727-22.63,22.14-22.864H692.2l-4.864-5.013
		l-7.527-3.209h-86.787c-16.63,0-30.164,13.945-30.164,31.086v93.301l0.153,40.049L571.067,425.621z"/>
	<path fill="#1C4863" d="M266.298,255.311l-10.694,11.063l-3.139,7.825v22.125h96.572v88.373l21.473,44.279l7.598-3.238
		l10.736-11.063l3.139-7.825V274.198l-3.181-7.825l-10.736-11.063l-7.598-3.238h-96.572L266.298,255.311z M348.994,277.947
		c0.085-0.611,0.128-1.221,0.213-1.832c0.007-0.267,0.194-0.495,0.454-0.554c0.952-0.27,1.889-0.611,2.84-0.866
		c0.331-0.068,0.601-0.305,0.71-0.625c0.128-0.341,0.298-0.667,0.44-1.008c0.075-0.162,0.075-0.349,0-0.511l-1.321-3.025
		c-0.126-0.184-0.126-0.427,0-0.611l1.236-1.42c0.156-0.185,0.341-0.128,0.54-0.071l2.997,0.895
		c0.231,0.086,0.491,0.042,0.682-0.114c0.284-0.227,0.596-0.398,0.895-0.596c0.208-0.125,0.345-0.341,0.369-0.582
		c0.156-1.065,0.312-2.116,0.454-3.181c0.008-0.256,0.19-0.473,0.44-0.525c0.63-0.208,1.27-0.384,1.917-0.525
		c0.234,0.172,0.436,0.383,0.597,0.625c0.625,0.71,1.221,1.42,1.832,2.144c0.104,0.126,0.263,0.195,0.426,0.185h1.25
		c0.166,0.007,0.325-0.067,0.426-0.199c0.724-0.809,1.42-1.647,2.116-2.471c0.09-0.114,0.201-0.211,0.327-0.284
		c0.637,0.238,1.287,0.442,1.946,0.611c0.181,0.04,0.31,0.199,0.312,0.383c0.156,1.15,0.341,2.301,0.497,3.465
		c0.01,0.123,0.079,0.234,0.185,0.298l1.278,0.852c0.115,0.063,0.254,0.063,0.369,0l3.252-0.966c0.15-0.067,0.326-0.012,0.412,0.128
		c0.383,0.483,0.781,0.951,1.179,1.42c0.153,0.131,0.189,0.353,0.085,0.525c-0.469,1.037-0.909,2.088-1.42,3.124
		c-0.078,0.146-0.078,0.322,0,0.469c0.141,0.243,0.255,0.5,0.341,0.767c0.145,0.543,0.596,0.949,1.15,1.037
		c0.909,0.227,1.789,0.554,2.698,0.824c0.14,0.025,0.245,0.142,0.256,0.284c0.085,0.653,0.175,1.311,0.27,1.974
		c0.084,0.074,0.122,0.188,0.1,0.298h-0.043l-2.84,1.917c-0.141,0.084-0.232,0.233-0.241,0.398c0,0.483-0.114,0.966-0.199,1.42
		c-0.036,0.152,0.007,0.312,0.114,0.426l2.187,2.641c0.112,0.136,0.112,0.332,0,0.469c-0.265,0.568-0.516,1.141-0.753,1.718
		c-0.048,0.168-0.21,0.276-0.383,0.256h-3.266c-0.145-0.012-0.285,0.053-0.369,0.17c-0.327,0.398-0.653,0.781-0.98,1.165
		c-0.085,0.092-0.122,0.218-0.099,0.341c0.156,1.15,0.312,2.315,0.469,3.465c0.048,0.179-0.035,0.368-0.199,0.454
		c-0.525,0.327-1.037,0.668-1.548,1.023c-0.118,0.103-0.294,0.103-0.412,0l-2.84-1.875c-0.141-0.078-0.313-0.078-0.454,0
		c-0.44,0.142-0.895,0.284-1.349,0.412c-0.15,0.033-0.273,0.14-0.327,0.284c-0.469,1.051-0.952,2.116-1.42,3.167
		c-0.048,0.158-0.206,0.256-0.369,0.227h-1.889c-0.154,0.02-0.3-0.077-0.341-0.227c-0.469-1.051-0.937-2.087-1.42-3.138
		c-0.059-0.165-0.198-0.288-0.369-0.327c-0.454-0.114-0.895-0.256-1.349-0.412c-0.133-0.073-0.294-0.073-0.426,0l-2.84,1.86
		c-0.129,0.116-0.325,0.116-0.454,0c-0.492-0.35-0.999-0.686-1.52-1.008c-0.17-0.082-0.259-0.272-0.213-0.454
		c0.156-1.15,0.298-2.286,0.469-3.437c0.034-0.141-0.003-0.289-0.099-0.398c-0.322-0.369-0.634-0.743-0.937-1.122
		c-0.093-0.133-0.249-0.209-0.412-0.199h-3.366c-0.167,0.027-0.327-0.077-0.369-0.241c-0.241-0.582-0.497-1.15-0.767-1.718
		c-0.097-0.162-0.068-0.369,0.071-0.497l2.173-2.613c0.109-0.113,0.157-0.272,0.128-0.426c-0.071-0.497-0.142-0.994-0.199-1.505
		c-0.005-0.114-0.063-0.219-0.156-0.284l-2.997-2.017c-0.047-0.007-0.095-0.007-0.142,0V277.947z"/>
	<path fill="#1C4863" d="M434.191,369.033c-0.475-0.327-1.042-0.496-1.619-0.483c-1.096-0.028-2.115,0.558-2.642,1.52
		c-0.677,1.273-0.996,2.706-0.923,4.147c-0.007,0.929,0.107,1.855,0.341,2.755l6.007-6.533
		C435.087,369.883,434.687,369.4,434.191,369.033z"/>
	<path fill="#1C4863" d="M435.781,371.575c0.002,0.008,0.003,0.016,0.005,0.025l0.01-0.01L435.781,371.575z"/>
	<path fill="#1C4863" d="M429.816,378.094c0.491,1.081,1.568,1.775,2.755,1.775c1.086,0.021,2.094-0.565,2.613-1.52
		c0.68-1.272,0.999-2.706,0.923-4.147c0.002-0.878-0.107-1.752-0.322-2.603L429.816,378.094z"/>
	<path fill="#1C4863" d="M435.781,396.427c0.002,0.008,0.003,0.016,0.005,0.025l0.01-0.01L435.781,396.427z"/>
	<path fill="#1C4863" d="M429.816,402.946c0.491,1.081,1.568,1.775,2.755,1.775c1.086,0.021,2.094-0.565,2.613-1.52
		c0.68-1.272,0.999-2.706,0.923-4.147c0.002-0.878-0.107-1.752-0.322-2.603L429.816,402.946z"/>
	<path fill="#1C4863" d="M509.488,255.467l-2.002-0.753c0.53,0.489,1.225,0.758,1.946,0.753H509.488z"/>
	<path fill="#1C4863" d="M412.235,393.899c-0.475-0.327-1.042-0.496-1.619-0.483c-0.198-0.018-0.398-0.018-0.596,0l-1.193,6.788
		l4.573-4.97C413.122,394.704,412.723,394.246,412.235,393.899z"/>
	<path fill="#1C4863" d="M434.191,393.899c-0.475-0.327-1.042-0.496-1.619-0.483c-1.096-0.028-2.115,0.558-2.642,1.52
		c-0.677,1.273-0.996,2.706-0.923,4.147c-0.007,0.929,0.107,1.855,0.341,2.755l6.007-6.533
		C435.087,394.749,434.687,394.266,434.191,393.899z"/>
	<path fill="#1C4863" d="M435.355,320.679c-0.268-0.556-0.668-1.039-1.165-1.406c-0.475-0.327-1.042-0.496-1.619-0.483
		c-1.096-0.028-2.115,0.558-2.642,1.52c-0.677,1.273-0.996,2.706-0.923,4.147c-0.007,0.929,0.107,1.856,0.341,2.755L435.355,320.679
		z"/>
	<path fill="#1C4863" d="M435.355,345.559c-0.268-0.556-0.668-1.039-1.165-1.406c-0.475-0.327-1.042-0.496-1.619-0.483
		c-1.096-0.028-2.115,0.558-2.642,1.52c-0.677,1.273-0.996,2.706-0.923,4.147c-0.007,0.929,0.107,1.855,0.341,2.755L435.355,345.559
		z"/>
	<path fill="#1C4863" d="M409.749,420.654l0.17,0.241v-0.554C409.869,420.449,409.812,420.554,409.749,420.654z"/>
	<path fill="#1C4863" d="M432.572,330.094c1.086,0.021,2.094-0.565,2.613-1.52c0.68-1.272,0.999-2.706,0.923-4.147
		c0.002-0.878-0.107-1.752-0.322-2.603l-5.969,6.494C430.307,329.4,431.384,330.094,432.572,330.094z"/>
	<path fill="#1C4863" d="M435.781,321.8c0.002,0.008,0.003,0.016,0.005,0.025l0.01-0.01L435.781,321.8z"/>
	<path fill="#1C4863" d="M432.572,354.974c1.086,0.021,2.094-0.565,2.613-1.52c0.68-1.272,0.999-2.706,0.923-4.147
		c0.002-0.878-0.107-1.752-0.322-2.603l-5.969,6.494C430.307,354.28,431.384,354.974,432.572,354.974z"/>
	<path fill="#1C4863" d="M435.781,346.681c0.002,0.008,0.003,0.016,0.005,0.025l0.01-0.01L435.781,346.681z"/>
	<path fill="#1C4863" d="M410.616,404.735c1.086,0.021,2.094-0.565,2.613-1.52c0.68-1.272,0.999-2.706,0.923-4.147
		c0.002-0.886-0.108-1.769-0.327-2.627l-5.368,5.837l-0.213,1.236C408.782,404.29,409.671,404.747,410.616,404.735z"/>
	<path fill="#1C4863" d="M452.042,402.676l-0.27,0.284c0,0.099,0.114,0.156,0.17,0.241L452.042,402.676z"/>
	<path fill="#1C4863" d="M529.796,319.202h2.741v-0.199c-0.334-0.137-0.69-0.209-1.051-0.213
		C530.895,318.756,530.306,318.899,529.796,319.202z"/>
	<path fill="#1C4863" d="M498.453,280.347c1.086,0.021,2.094-0.565,2.613-1.52c0.68-1.272,0.999-2.706,0.923-4.147
		c0.002-0.886-0.108-1.769-0.327-2.627l-6.05,6.518C496.116,279.682,497.235,280.382,498.453,280.347z"/>
	<path fill="#1C4863" d="M501.223,270.918c-0.266-0.562-0.666-1.049-1.165-1.42c-0.475-0.327-1.042-0.496-1.619-0.483
		c-1.096-0.028-2.115,0.558-2.641,1.52c-0.677,1.273-0.996,2.706-0.923,4.147c-0.007,0.929,0.107,1.855,0.341,2.755L501.223,270.918
		z"/>
	<path fill="#1C4863" d="M487.461,255.467c1.086,0.021,2.094-0.565,2.613-1.519c0.193-0.332,0.351-0.685,0.469-1.051h-5.127
		l-0.724,0.781C485.18,254.769,486.265,255.47,487.461,255.467z"/>
	<path fill="#1C4863" d="M498.453,305.228c1.086,0.021,2.094-0.565,2.613-1.52c0.68-1.272,0.999-2.706,0.923-4.147
		c0.002-0.886-0.108-1.769-0.327-2.627l-6.05,6.49C496.107,304.545,497.229,305.257,498.453,305.228z"/>
	<path fill="#1C4863" d="M512.2,295.798c-0.266-0.562-0.666-1.049-1.165-1.42c-0.475-0.327-1.042-0.496-1.619-0.483
		c-1.096-0.028-2.115,0.558-2.642,1.52c-0.677,1.273-0.996,2.706-0.923,4.147c-0.007,0.929,0.107,1.855,0.341,2.755L512.2,295.798z"
		/>
	<path fill="#1C4863" d="M509.417,305.228c1.086,0.021,2.094-0.565,2.613-1.52c0.68-1.272,0.999-2.706,0.923-4.147
		c0.002-0.886-0.108-1.769-0.327-2.627l-5.965,6.49C507.144,304.516,508.223,305.223,509.417,305.228z"/>
	<path fill="#1C4863" d="M423.184,393.899c-0.475-0.327-1.042-0.496-1.619-0.483c-1.096-0.028-2.115,0.558-2.642,1.52
		c-0.677,1.273-0.996,2.706-0.923,4.147c-0.007,0.929,0.107,1.855,0.341,2.755l6.007-6.533
		C424.081,394.749,423.681,394.266,423.184,393.899z"/>
	<path fill="#1C4863" d="M424.803,396.427c0.002,0.008,0.003,0.016,0.005,0.025l0.01-0.01L424.803,396.427z"/>
	<path fill="#1C4863" d="M418.838,402.946c0.49,1.081,1.568,1.775,2.755,1.775c1.086,0.021,2.094-0.565,2.613-1.52
		c0.68-1.272,0.999-2.706,0.923-4.147c0.002-0.878-0.107-1.752-0.322-2.603L418.838,402.946z"/>
	<path fill="#1C4863" d="M501.223,295.798c-0.266-0.562-0.666-1.049-1.165-1.42c-0.475-0.327-1.042-0.496-1.619-0.483
		c-1.096-0.028-2.115,0.558-2.641,1.52c-0.677,1.273-0.996,2.706-0.923,4.147c-0.007,0.929,0.107,1.855,0.341,2.755L501.223,295.798
		z"/>
	<path fill="#1C4863" d="M447.086,424.119c0,0.014,0.014-0.085,0.014-0.17c0.002-0.886-0.108-1.769-0.327-2.627l-5.979,6.504
		c0.113,0.194,0.241,0.38,0.383,0.554L447.086,424.119z"/>
	<path fill="#1C4863" d="M445.168,418.78c-0.475-0.327-1.042-0.496-1.619-0.483c-1.096-0.028-2.115,0.558-2.641,1.52
		c-0.677,1.273-0.996,2.706-0.923,4.147c-0.007,0.929,0.107,1.855,0.341,2.755l6.007-6.532
		C446.065,419.629,445.665,419.147,445.168,418.78z"/>
	<path fill="#1C4863" d="M475.177,296.835c-0.043,0.128-0.17,0.227-0.284,0.327h0.838v-1.207
		C475.588,296.272,475.401,296.569,475.177,296.835z"/>
	<path fill="#1C4863" d="M468.715,272.04c0.002,0.008,0.003,0.016,0.005,0.025l0.01-0.01L468.715,272.04z"/>
	<path fill="#1C4863" d="M465.505,280.333c1.086,0.021,2.094-0.565,2.613-1.52c0.68-1.272,0.999-2.706,0.923-4.147
		c0.002-0.878-0.107-1.752-0.322-2.603l-5.969,6.494C463.241,279.639,464.318,280.333,465.505,280.333z"/>
	<path fill="#1C4863" d="M468.289,270.932c-0.268-0.556-0.668-1.039-1.165-1.406c-0.475-0.327-1.042-0.496-1.619-0.483
		c-1.096-0.028-2.115,0.558-2.641,1.52c-0.677,1.273-0.996,2.706-0.923,4.147c-0.007,0.929,0.107,1.855,0.341,2.755L468.289,270.932
		z"/>
	<path fill="#1C4863" d="M424.207,328.589c0.68-1.272,0.999-2.706,0.923-4.147c0.002-0.886-0.108-1.769-0.327-2.627l-2.741,2.982
		l-0.923,5.24c0.147,0.01,0.294,0.01,0.44,0C422.656,330.077,423.666,329.52,424.207,328.589z"/>
	<path fill="#1C4863" d="M479.267,270.918c-0.266-0.562-0.666-1.049-1.165-1.42c-0.475-0.327-1.042-0.496-1.619-0.483
		c-1.096-0.028-2.115,0.558-2.642,1.52c-0.677,1.273-0.996,2.706-0.923,4.147c-0.007,0.929,0.107,1.855,0.341,2.755L479.267,270.918
		z"/>
	<path fill="#1C4863" d="M476.483,255.467c1.086,0.021,2.094-0.565,2.613-1.519c0.193-0.332,0.351-0.685,0.469-1.051h-5.127
		l-0.724,0.781C474.202,254.769,475.288,255.47,476.483,255.467z"/>
	<path fill="#1C4863" d="M465.505,255.467c1.086,0.021,2.094-0.565,2.613-1.519c0.193-0.332,0.351-0.685,0.469-1.051h-5.127
		l-0.724,0.781C463.224,254.769,464.31,255.47,465.505,255.467z"/>
	<path fill="#1C4863" d="M490.017,303.708h0.057c0.68-1.272,0.999-2.706,0.923-4.147c0.002-0.886-0.108-1.769-0.327-2.627
		l-4.999,5.396l0.469,2.599C487.552,305.618,489.255,305.081,490.017,303.708z"/>
	<path fill="#1C4863" d="M489.08,294.392c-0.475-0.327-1.042-0.496-1.619-0.483c-1.096-0.028-2.115,0.558-2.641,1.52
		c-0.314,0.543-0.54,1.133-0.667,1.747h0.653l0.696,3.806l4.758-5.169C489.989,295.249,489.584,294.761,489.08,294.392z"/>
	<path fill="#1C4863" d="M453.633,393.559c-0.74,0.214-1.366,0.708-1.747,1.377c-0.677,1.273-0.996,2.706-0.923,4.147
		c-0.007,0.929,0.107,1.856,0.341,2.755l1.079-1.179L453.633,393.559z"/>
	<path fill="#1C4863" d="M496.863,319.202h3.011c-0.427-0.265-0.918-0.407-1.42-0.412
		C497.895,318.776,497.344,318.918,496.863,319.202z"/>
	<path fill="#1C4863" d="M454.527,330.094c1.086,0.021,2.094-0.565,2.613-1.52c0.68-1.272,0.999-2.706,0.923-4.147
		c0.002-0.878-0.107-1.752-0.322-2.603l-5.969,6.494C452.263,329.4,453.34,330.094,454.527,330.094z"/>
	<path fill="#1C4863" d="M457.737,321.8c0.002,0.008,0.003,0.016,0.005,0.025l0.01-0.01L457.737,321.8z"/>
	<path fill="#1C4863" d="M439.772,428.706c-0.404-0.67-0.687-1.405-0.838-2.173c-0.173-0.841-0.259-1.698-0.256-2.556
		c-0.004-0.859,0.086-1.717,0.27-2.556c0.161-0.771,0.449-1.51,0.852-2.187c0.376-0.622,0.897-1.144,1.52-1.52
		c1.413-0.765,3.117-0.765,4.53,0c0.625,0.377,1.151,0.898,1.534,1.52c0.407,0.675,0.696,1.415,0.852,2.187
		c0.122,0.599,0.198,1.207,0.227,1.818l3.124-18.376c-0.36-0.301-0.671-0.655-0.923-1.051c-0.404-0.67-0.687-1.405-0.838-2.173
		c-0.174-0.841-0.259-1.698-0.256-2.556c-0.004-0.859,0.086-1.717,0.27-2.556c0.161-0.771,0.449-1.51,0.852-2.187
		c0.376-0.622,0.897-1.144,1.52-1.52c0.489-0.275,1.031-0.445,1.591-0.497l2.017-11.517h-4.104v-1.179h2.073v-9.018
		c-0.143,0.318-0.329,0.614-0.554,0.88c-0.266,0.325-0.571,0.616-0.909,0.866c-0.355,0.264-0.741,0.484-1.15,0.653
		c-0.408,0.176-0.848,0.268-1.292,0.27v-1.42c0.457-0.015,0.902-0.147,1.292-0.383c0.959-0.543,1.735-1.359,2.23-2.343
		c0.245-0.464,0.376-0.98,0.383-1.505h1.42v12.028h0.88l2.84-16.147l2.599-15.209c-0.217,0.022-0.436,0.022-0.653,0v-1.42
		c0.324-0.013,0.643-0.09,0.937-0.227l2.755-15.621h-1.86v-1.179h2.073v-9.018c-0.143,0.318-0.329,0.614-0.554,0.88
		c-0.266,0.325-0.571,0.616-0.909,0.866c-0.355,0.264-0.741,0.484-1.15,0.653c-0.408,0.176-0.848,0.268-1.292,0.27v-1.42
		c0.457-0.015,0.902-0.147,1.292-0.383c0.952-0.555,1.719-1.38,2.201-2.372c0.245-0.464,0.376-0.98,0.383-1.505h1.42v4.26
		l0.497-2.84l3.863-22.04h1.42c0.439-0.034,0.864-0.176,1.236-0.412c0.959-0.543,1.735-1.359,2.23-2.343
		c0.245-0.464,0.376-0.98,0.383-1.505h1.42v4.26h5.681c0,0,0-0.099,0-0.156c0.161-0.771,0.449-1.51,0.852-2.187
		c0.376-0.622,0.897-1.144,1.52-1.52c1.413-0.765,3.117-0.765,4.53,0c0.625,0.377,1.151,0.898,1.534,1.52
		c0.407,0.675,0.696,1.414,0.852,2.187c0.354,1.691,0.354,3.436,0,5.127c-0.154,0.766-0.438,1.501-0.838,2.173
		c-0.377,0.621-0.899,1.142-1.52,1.52c-0.694,0.4-1.486,0.597-2.286,0.568c-0.339-0.004-0.677-0.042-1.008-0.114l2.343,12.923h6.249
		c0.316-0.409,0.7-0.76,1.136-1.037c1.413-0.765,3.117-0.765,4.53,0c0.435,0.278,0.819,0.629,1.136,1.037h6.462
		c0.214-0.443,0.325-0.928,0.327-1.42h1.42v1.42h9.274c0.213-0.443,0.325-0.928,0.327-1.42h1.42v1.42h6.902
		c0.316-0.409,0.7-0.76,1.136-1.037c0.685-0.395,1.467-0.592,2.258-0.568c0.277,0.01,0.552,0.044,0.824,0.099l-2.088-11.546h-1.42
		v-1.179h1.278l-1.25-6.93c-0.178,0.115-0.363,0.219-0.554,0.312c-0.408,0.176-0.848,0.268-1.292,0.27v-1.42
		c0.457-0.015,0.902-0.147,1.292-0.383l0.298-0.199l-4.644-25.562l-3.692-6.476l-9.359-8.009c-0.413,0.105-0.838,0.158-1.264,0.156
		c-0.8,0.029-1.593-0.168-2.286-0.568c-0.719-0.384-1.322-0.952-1.747-1.647c-0.122-0.211-0.231-0.429-0.327-0.653l-2.67-0.994
		h-3.508v2.315h2.059v1.179h-5.496v-1.179h2.073v-2.315h-5.808c-0.153,0.577-0.382,1.131-0.682,1.647
		c-0.377,0.621-0.899,1.142-1.52,1.52c-1.428,0.765-3.145,0.765-4.573,0c-0.62-0.379-1.141-0.9-1.52-1.52
		c-0.302-0.515-0.531-1.07-0.682-1.647H480.9c-0.153,0.577-0.382,1.131-0.682,1.647c-0.377,0.621-0.899,1.142-1.52,1.52
		c-1.428,0.765-3.145,0.765-4.573,0c-0.62-0.379-1.141-0.9-1.52-1.52c-0.302-0.515-0.531-1.07-0.682-1.647h-1.874
		c-0.153,0.577-0.382,1.131-0.682,1.647c-0.377,0.621-0.899,1.142-1.52,1.52c-1.428,0.765-3.145,0.765-4.573,0
		c-0.62-0.379-1.141-0.9-1.52-1.52c-0.302-0.515-0.531-1.07-0.682-1.647h-5.808v2.315h2.002v1.179h-5.496v-1.179h2.073v-2.315
		h-1.221l-5.681,2.102c-0.319,0.414-0.709,0.77-1.15,1.051c-0.402,0.243-0.845,0.412-1.307,0.497l-9.345,8.052l-1.86,3.309
		c0.543,0.054,1.07,0.218,1.548,0.483c0.625,0.377,1.151,0.898,1.534,1.519c0.407,0.675,0.696,1.415,0.852,2.187
		c0.354,1.691,0.354,3.436,0,5.127c-0.154,0.766-0.438,1.501-0.838,2.173c-0.377,0.621-0.899,1.142-1.52,1.519
		c-1.428,0.765-3.145,0.765-4.573,0c-0.159-0.109-0.31-0.227-0.454-0.355l-6.561,37.349c0.201,0.064,0.395,0.145,0.582,0.241
		c0.625,0.377,1.151,0.898,1.534,1.52c0.407,0.675,0.696,1.414,0.852,2.187c0.354,1.691,0.354,3.436,0,5.127
		c-0.154,0.767-0.438,1.501-0.838,2.173c-0.377,0.621-0.899,1.142-1.52,1.52c-0.694,0.4-1.486,0.597-2.286,0.568
		c-0.214-0.01-0.428-0.034-0.639-0.071l-2.698,15.38c0.959-0.543,1.735-1.359,2.23-2.343c0.245-0.464,0.376-0.98,0.383-1.505h1.42
		v12.028h2.059v1.221h-5.496v-1.179h2.073v-9.018c-0.143,0.318-0.329,0.614-0.554,0.88c-0.266,0.325-0.571,0.616-0.909,0.866
		c-0.355,0.264-0.742,0.484-1.15,0.653l-0.341,0.099l-5.51,31.399h0.909v1.179h-1.108l-2.017,11.489c0.128,0,0.256,0,0.383,0
		c0.791-0.024,1.573,0.173,2.258,0.568c0.625,0.377,1.151,0.898,1.534,1.52c0.407,0.675,0.696,1.414,0.852,2.187
		c0.354,1.691,0.354,3.436,0,5.127c-0.154,0.766-0.438,1.501-0.838,2.173c-0.377,0.621-0.899,1.142-1.52,1.52
		c-1.428,0.765-3.145,0.765-4.573,0c-0.128-0.085-0.227-0.185-0.355-0.27l-1.846,10.168l2.84,4.26
		c0.181-0.242,0.343-0.499,0.483-0.767c0.245-0.464,0.376-0.98,0.383-1.505h1.42v5.581l3.536,5.254l6.078,1.136v-8.975
		c-0.143,0.318-0.329,0.614-0.554,0.88c-0.266,0.325-0.571,0.616-0.909,0.866c-0.355,0.264-0.741,0.484-1.15,0.653
		c-0.408,0.176-0.848,0.268-1.292,0.27v-1.42c0.457-0.015,0.902-0.147,1.292-0.383c0.959-0.543,1.735-1.359,2.23-2.343
		c0.245-0.464,0.376-0.98,0.383-1.505h1.42v12.028h2.059v0.596l11.617,2.173l4.161-2.968
		C440.008,429.017,439.885,428.865,439.772,428.706z M517.086,271.912c0.959-0.543,1.735-1.359,2.23-2.343
		c0.245-0.464,0.376-0.98,0.383-1.505h1.42v12.028h2.059v1.179h-5.496v-1.179h2.073v-9.018c-0.143,0.318-0.329,0.614-0.554,0.88
		c-0.266,0.325-0.571,0.616-0.909,0.866c-0.355,0.264-0.742,0.484-1.15,0.653c-0.408,0.176-0.848,0.268-1.292,0.27l-0.057-1.449
		C516.25,272.281,516.695,272.149,517.086,271.912z M515.765,297.005h0.028c0.161-0.771,0.449-1.51,0.852-2.187
		c0.376-0.622,0.897-1.144,1.52-1.52c1.413-0.765,3.117-0.765,4.53,0c0.625,0.377,1.151,0.898,1.534,1.52
		c0.407,0.675,0.696,1.415,0.852,2.187c0.354,1.691,0.354,3.436,0,5.127c-0.154,0.766-0.438,1.501-0.838,2.173
		c-0.377,0.621-0.898,1.142-1.52,1.52c-1.428,0.765-3.145,0.765-4.573,0c-0.62-0.379-1.141-0.9-1.52-1.52
		c-0.404-0.67-0.687-1.405-0.838-2.173c-0.173-0.841-0.259-1.698-0.256-2.556C515.518,298.713,515.595,297.851,515.765,297.005z
		 M506.151,271.912c0.959-0.543,1.735-1.359,2.23-2.343c0.245-0.464,0.376-0.98,0.383-1.505h1.42v12.028h2.059v1.179h-5.496v-1.179
		h2.073v-9.018c-0.143,0.318-0.329,0.614-0.554,0.88c-0.266,0.325-0.571,0.616-0.909,0.866c-0.355,0.264-0.742,0.484-1.15,0.653
		c-0.408,0.176-0.848,0.268-1.292,0.27l-0.057-1.449C505.315,272.281,505.76,272.149,506.151,271.912z M504.787,297.005h0.071
		c0.161-0.771,0.449-1.51,0.852-2.187c0.376-0.622,0.897-1.144,1.52-1.52c1.413-0.765,3.117-0.765,4.53,0
		c0.625,0.377,1.151,0.898,1.534,1.52c0.407,0.675,0.696,1.415,0.852,2.187c0.354,1.691,0.354,3.436,0,5.127
		c-0.154,0.766-0.438,1.501-0.838,2.173c-0.377,0.621-0.899,1.142-1.52,1.52c-1.428,0.765-3.145,0.765-4.573,0
		c-0.62-0.379-1.141-0.9-1.52-1.52c-0.404-0.67-0.687-1.405-0.838-2.173c-0.173-0.841-0.259-1.698-0.256-2.556
		C504.569,298.715,504.631,297.853,504.787,297.005z M493.809,272.182c0.161-0.771,0.449-1.51,0.852-2.187
		c0.376-0.622,0.897-1.144,1.52-1.52c1.413-0.765,3.117-0.765,4.53,0c0.625,0.377,1.151,0.898,1.534,1.52
		c0.407,0.675,0.696,1.414,0.852,2.187c0.354,1.691,0.354,3.436,0,5.127c-0.154,0.766-0.438,1.501-0.838,2.173
		c-0.377,0.621-0.899,1.142-1.52,1.52c-1.428,0.765-3.145,0.765-4.573,0c-0.62-0.379-1.141-0.9-1.52-1.52
		c-0.404-0.67-0.687-1.405-0.838-2.173c-0.173-0.841-0.259-1.698-0.256-2.556C493.544,273.889,493.629,273.027,493.809,272.182z
		 M493.809,297.005v0.057c0.161-0.771,0.449-1.51,0.852-2.187c0.376-0.622,0.897-1.144,1.52-1.519c1.413-0.765,3.117-0.765,4.53,0
		c0.625,0.377,1.151,0.898,1.534,1.519c0.407,0.675,0.696,1.415,0.852,2.187c0.354,1.691,0.354,3.436,0,5.127
		c-0.154,0.766-0.438,1.501-0.838,2.173c-0.377,0.621-0.899,1.142-1.52,1.52c-1.428,0.765-3.145,0.765-4.573,0
		c-0.62-0.379-1.141-0.9-1.52-1.52c-0.404-0.67-0.687-1.405-0.838-2.173c-0.173-0.841-0.259-1.698-0.256-2.556
		C493.539,298.75,493.625,297.869,493.809,297.005z M484.166,271.969c0.959-0.543,1.735-1.359,2.23-2.343
		c0.245-0.464,0.376-0.98,0.383-1.505h1.42v12.028h2.059v1.179h-5.496v-1.179h2.073v-9.018c-0.143,0.318-0.329,0.614-0.554,0.88
		c-0.266,0.325-0.571,0.616-0.909,0.866c-0.355,0.264-0.742,0.484-1.15,0.653c-0.408,0.176-0.848,0.268-1.292,0.27l-0.057-1.449
		C483.331,272.338,483.776,272.206,484.166,271.969z M471.853,272.182l0-0.043c0.161-0.771,0.449-1.51,0.852-2.187
		c0.376-0.622,0.897-1.144,1.52-1.52c1.413-0.765,3.117-0.765,4.53,0c0.625,0.377,1.151,0.898,1.534,1.52
		c0.407,0.675,0.696,1.415,0.852,2.187c0.354,1.691,0.354,3.436,0,5.127c-0.154,0.766-0.438,1.501-0.838,2.173
		c-0.377,0.621-0.899,1.142-1.52,1.52c-1.428,0.765-3.145,0.765-4.573,0c-0.62-0.379-1.141-0.9-1.52-1.52
		c-0.404-0.67-0.687-1.405-0.838-2.173c-0.174-0.841-0.259-1.698-0.256-2.556C471.591,273.86,471.677,273.013,471.853,272.182z
		 M446.29,405.672h-5.496v-1.179h2.073v-9.018c-0.143,0.318-0.329,0.614-0.554,0.88c-0.266,0.325-0.571,0.616-0.909,0.866
		c-0.355,0.264-0.742,0.484-1.15,0.653c-0.408,0.176-0.848,0.268-1.292,0.27v-1.42c0.457-0.015,0.902-0.147,1.292-0.383
		c0.959-0.543,1.735-1.359,2.23-2.343c0.245-0.465,0.376-0.98,0.383-1.505h1.42v12.028h2.059L446.29,405.672z M446.347,379.642
		l-0.057,1.15h-5.496v-1.179h2.073v-9.018c-0.143,0.318-0.329,0.614-0.554,0.88c-0.266,0.325-0.571,0.616-0.909,0.866
		c-0.355,0.264-0.742,0.484-1.15,0.653c-0.408,0.176-0.848,0.268-1.292,0.27v-1.42c0.457-0.015,0.902-0.147,1.292-0.383
		c0.959-0.543,1.735-1.359,2.23-2.343c0.245-0.464,0.376-0.98,0.383-1.505h1.42v12.028H446.347z M446.347,329.881l-0.057,1.15
		h-5.496v-1.179h2.073v-9.018c-0.143,0.318-0.329,0.614-0.554,0.88c-0.266,0.325-0.571,0.616-0.909,0.866
		c-0.355,0.264-0.742,0.484-1.15,0.653c-0.408,0.176-0.848,0.268-1.292,0.27v-1.42c0.457-0.015,0.902-0.147,1.292-0.383
		c0.959-0.543,1.735-1.359,2.23-2.343c0.245-0.464,0.376-0.98,0.383-1.505h1.42v12.028H446.347z M440.255,346.581
		c0.959-0.543,1.735-1.359,2.23-2.343c0.245-0.464,0.376-0.98,0.383-1.505h1.42v12.028h2.059l-0.057,1.15h-5.496v-1.179h2.073
		v-9.018c-0.143,0.318-0.329,0.614-0.554,0.88c-0.266,0.325-0.571,0.616-0.909,0.866c-0.355,0.264-0.742,0.484-1.15,0.653
		c-0.408,0.176-0.848,0.268-1.292,0.27v-1.42C439.419,346.95,439.864,346.818,440.255,346.581z M468.246,306.165h-5.496v-1.179
		h2.073v-9.018c-0.143,0.318-0.329,0.614-0.554,0.88c-0.266,0.325-0.571,0.616-0.909,0.866c-0.355,0.264-0.742,0.484-1.15,0.653
		c-0.408,0.176-0.848,0.268-1.292,0.27v-1.42c0.457-0.015,0.902-0.147,1.292-0.383c0.959-0.543,1.735-1.359,2.23-2.343
		c0.245-0.465,0.376-0.98,0.383-1.505h1.42v12.028h2.059L468.246,306.165z M460.875,272.153c0.161-0.771,0.449-1.51,0.852-2.187
		c0.376-0.622,0.897-1.144,1.52-1.52c1.413-0.765,3.117-0.765,4.53,0c0.625,0.377,1.151,0.898,1.534,1.52
		c0.407,0.675,0.696,1.414,0.852,2.187c0.354,1.691,0.354,3.436,0,5.127l-0.014-0.014c-0.154,0.766-0.438,1.501-0.838,2.173
		c-0.377,0.621-0.899,1.142-1.52,1.52c-1.428,0.765-3.145,0.765-4.573,0c-0.62-0.379-1.141-0.9-1.52-1.52
		c-0.404-0.67-0.687-1.405-0.838-2.173c-0.173-0.841-0.259-1.698-0.256-2.556C460.601,273.85,460.692,272.993,460.875,272.153z
		 M449.94,272.31c0.457-0.014,0.902-0.147,1.292-0.383c0.959-0.543,1.735-1.359,2.23-2.343c0.245-0.464,0.376-0.98,0.383-1.505h1.42
		v12.028h2.002v1.179h-5.496v-1.179h2.073v-9.018c-0.143,0.318-0.329,0.614-0.554,0.88c-0.266,0.325-0.571,0.616-0.909,0.866
		c-0.355,0.264-0.741,0.484-1.15,0.653c-0.408,0.176-0.848,0.268-1.292,0.27V272.31z M449.94,297.19
		c0.457-0.015,0.902-0.147,1.292-0.383c0.959-0.543,1.735-1.359,2.23-2.343c0.245-0.464,0.376-0.98,0.383-1.505h1.42v12.028h2.002
		v1.179h-5.496v-1.179h2.073v-9.018c-0.143,0.318-0.329,0.614-0.554,0.88c-0.266,0.325-0.571,0.616-0.909,0.866
		c-0.355,0.264-0.741,0.484-1.15,0.653c-0.408,0.176-0.848,0.268-1.292,0.27V297.19z M449.898,321.9
		c0.161-0.771,0.449-1.51,0.852-2.187c0.376-0.622,0.897-1.144,1.52-1.52c1.413-0.765,3.117-0.765,4.53,0
		c0.625,0.377,1.151,0.898,1.534,1.52c0.407,0.675,0.696,1.415,0.852,2.187c0.354,1.691,0.354,3.436,0,5.127l-0.014-0.014
		c-0.154,0.766-0.438,1.501-0.838,2.173c-0.377,0.621-0.899,1.142-1.52,1.52c-1.428,0.765-3.145,0.765-4.573,0
		c-0.62-0.379-1.141-0.9-1.52-1.52c-0.404-0.67-0.687-1.405-0.838-2.173c-0.174-0.841-0.259-1.698-0.256-2.556
		C449.623,323.597,449.714,322.739,449.898,321.9z M449.898,346.78c0.161-0.771,0.449-1.51,0.852-2.187
		c0.376-0.622,0.897-1.144,1.52-1.52c1.413-0.765,3.117-0.765,4.53,0c0.625,0.377,1.151,0.898,1.534,1.52
		c0.407,0.675,0.696,1.415,0.852,2.187c0.354,1.691,0.354,3.436,0,5.127l-0.014-0.014c-0.154,0.766-0.438,1.501-0.838,2.173
		c-0.377,0.621-0.899,1.142-1.52,1.52c-1.428,0.765-3.145,0.765-4.573,0c-0.62-0.379-1.141-0.899-1.52-1.52
		c-0.404-0.67-0.687-1.405-0.838-2.173c-0.174-0.841-0.259-1.698-0.256-2.556C449.623,348.477,449.714,347.62,449.898,346.78z
		 M438.962,272.338c0.457-0.015,0.902-0.147,1.292-0.383c0.959-0.543,1.735-1.359,2.23-2.343c0.245-0.464,0.376-0.98,0.383-1.505
		h1.42v12.028h2.059v1.179h-5.553v-1.179h2.073v-9.018c-0.143,0.318-0.329,0.614-0.554,0.88c-0.266,0.325-0.571,0.616-0.909,0.866
		c-0.355,0.264-0.742,0.484-1.15,0.653c-0.408,0.176-0.848,0.268-1.292,0.27L438.962,272.338z M438.92,297.02
		c0.161-0.771,0.449-1.51,0.852-2.187c0.376-0.622,0.897-1.144,1.52-1.519c1.413-0.765,3.117-0.765,4.53,0
		c0.625,0.377,1.151,0.898,1.534,1.519c0.407,0.675,0.696,1.415,0.852,2.187c0.354,1.691,0.354,3.436,0,5.127l-0.014-0.014
		c-0.154,0.766-0.438,1.501-0.838,2.173c-0.377,0.621-0.899,1.142-1.52,1.52c-1.428,0.765-3.145,0.765-4.573,0
		c-0.62-0.379-1.141-0.9-1.52-1.52c-0.404-0.67-0.687-1.405-0.838-2.173c-0.173-0.841-0.259-1.698-0.256-2.556
		C438.645,298.716,438.736,297.859,438.92,297.02z M429.277,296.835c0.959-0.543,1.735-1.359,2.23-2.343
		c0.245-0.464,0.376-0.98,0.383-1.505h1.42v12.028h2.059v1.179h-5.496v-1.179h2.073v-9.018c-0.143,0.318-0.329,0.614-0.554,0.88
		c-0.266,0.325-0.571,0.616-0.909,0.866c-0.355,0.264-0.741,0.484-1.15,0.653c-0.408,0.176-0.848,0.268-1.292,0.27l-0.057-1.449
		C428.441,297.204,428.886,297.072,429.277,296.835z M427.942,321.928c0.161-0.771,0.449-1.51,0.852-2.187
		c0.376-0.622,0.897-1.144,1.52-1.52c1.413-0.765,3.117-0.765,4.53,0c0.625,0.377,1.151,0.898,1.534,1.52
		c0.407,0.675,0.696,1.415,0.852,2.187c0.354,1.691,0.354,3.436,0,5.127l-0.014-0.014c-0.154,0.766-0.438,1.501-0.838,2.173
		c-0.377,0.621-0.899,1.142-1.52,1.52c-1.428,0.765-3.145,0.765-4.573,0c-0.62-0.379-1.141-0.899-1.52-1.52
		c-0.404-0.67-0.687-1.405-0.838-2.173c-0.173-0.841-0.259-1.698-0.256-2.556C427.668,323.625,427.758,322.768,427.942,321.928z
		 M427.942,346.809c0.161-0.771,0.449-1.51,0.852-2.187c0.376-0.622,0.897-1.144,1.52-1.52c1.413-0.765,3.117-0.765,4.53,0
		c0.625,0.377,1.151,0.898,1.534,1.52c0.407,0.675,0.696,1.414,0.852,2.187c0.354,1.691,0.354,3.436,0,5.127l-0.014-0.014
		c-0.154,0.766-0.438,1.501-0.838,2.173c-0.377,0.621-0.899,1.142-1.52,1.52c-1.428,0.765-3.145,0.765-4.573,0
		c-0.62-0.379-1.141-0.9-1.52-1.52c-0.404-0.67-0.687-1.405-0.838-2.173c-0.173-0.841-0.259-1.698-0.256-2.556
		C427.668,348.505,427.758,347.648,427.942,346.809z M418.299,371.476c0.959-0.543,1.735-1.359,2.23-2.343
		c0.245-0.464,0.376-0.98,0.383-1.505h1.42v12.028h2.059v1.179h-5.496v-1.179h2.073v-9.018c-0.143,0.318-0.329,0.614-0.554,0.88
		c-0.266,0.325-0.571,0.616-0.909,0.866c-0.355,0.264-0.742,0.484-1.15,0.653c-0.408,0.176-0.848,0.268-1.292,0.27l-0.057-1.449
		C417.463,371.845,417.908,371.713,418.299,371.476z M426.252,401.696l-0.014-0.014c-0.154,0.766-0.438,1.501-0.838,2.173
		c-0.377,0.621-0.899,1.142-1.52,1.52c-1.428,0.765-3.145,0.765-4.573,0c-0.62-0.379-1.141-0.9-1.52-1.52
		c-0.404-0.67-0.687-1.405-0.838-2.173c-0.174-0.841-0.259-1.698-0.256-2.556c-0.004-0.859,0.086-1.717,0.27-2.556
		c0.161-0.771,0.449-1.51,0.852-2.187c0.376-0.622,0.897-1.144,1.52-1.52c1.413-0.765,3.117-0.765,4.53,0
		c0.625,0.377,1.151,0.898,1.534,1.52c0.407,0.675,0.696,1.415,0.852,2.187C426.606,398.26,426.606,400.005,426.252,401.696z
		 M435.312,430.581h-5.496v-1.179h2.073v-9.018c-0.143,0.318-0.329,0.614-0.554,0.88c-0.266,0.325-0.571,0.616-0.909,0.866
		c-0.355,0.264-0.742,0.484-1.15,0.653c-0.408,0.176-0.848,0.268-1.292,0.27v-1.42c0.457-0.014,0.902-0.147,1.292-0.383
		c0.959-0.543,1.735-1.359,2.23-2.343c0.245-0.464,0.376-0.98,0.383-1.505h1.42v12.028h2.059L435.312,430.581z M437.23,401.696
		l-0.014-0.014c-0.154,0.766-0.438,1.501-0.838,2.173c-0.377,0.621-0.899,1.142-1.52,1.52c-1.428,0.765-3.145,0.765-4.573,0
		c-0.62-0.379-1.141-0.9-1.52-1.52c-0.404-0.67-0.687-1.405-0.838-2.173c-0.173-0.841-0.259-1.698-0.256-2.556
		c-0.004-0.859,0.086-1.717,0.27-2.556c0.161-0.771,0.449-1.51,0.852-2.187c0.376-0.622,0.897-1.144,1.52-1.52
		c1.413-0.765,3.117-0.765,4.53,0c0.625,0.377,1.151,0.898,1.534,1.52c0.407,0.675,0.696,1.415,0.852,2.187
		C437.584,398.26,437.584,400.005,437.23,401.696z M437.23,376.815l-0.014-0.014c-0.154,0.766-0.438,1.501-0.838,2.173
		c-0.377,0.621-0.899,1.142-1.52,1.52c-1.428,0.765-3.145,0.765-4.573,0c-0.62-0.379-1.141-0.9-1.52-1.52
		c-0.404-0.67-0.687-1.405-0.838-2.173c-0.173-0.841-0.259-1.698-0.256-2.556c-0.004-0.859,0.086-1.717,0.27-2.556
		c0.161-0.771,0.449-1.51,0.852-2.187c0.376-0.622,0.897-1.144,1.52-1.52c1.413-0.765,3.117-0.765,4.53,0
		c0.625,0.377,1.151,0.898,1.534,1.52c0.407,0.675,0.696,1.414,0.852,2.187C437.584,373.379,437.584,375.125,437.23,376.815z"/>
	<path fill="#1C4863" d="M476.483,280.347c1.086,0.021,2.094-0.565,2.613-1.52c0.68-1.272,0.999-2.706,0.923-4.147
		c0.002-0.886-0.108-1.769-0.327-2.627l-5.979,6.504C474.202,279.649,475.288,280.351,476.483,280.347z"/>
	<path fill="#1C4863" d="M446.333,295.798c-0.268-0.556-0.668-1.039-1.165-1.406c-0.475-0.327-1.042-0.496-1.619-0.483
		c-1.096-0.028-2.115,0.558-2.641,1.52c-0.677,1.273-0.996,2.706-0.923,4.147c-0.007,0.929,0.107,1.856,0.341,2.755L446.333,295.798
		z"/>
	<path fill="#1C4863" d="M446.759,296.906c0.003,0.012,0.004,0.024,0.007,0.036l0.007-0.008L446.759,296.906z"/>
	<path fill="#1C4863" d="M443.549,305.199c1.086,0.021,2.094-0.565,2.613-1.52c0.68-1.272,0.999-2.706,0.923-4.147
		c0.002-0.874-0.107-1.744-0.32-2.591l-5.972,6.482C441.285,304.505,442.362,305.2,443.549,305.199z"/>
	<path fill="#1C4863" d="M423.213,319.244l-0.156-0.071l-0.625,3.593l1.946-2.102C424.111,320.103,423.711,319.615,423.213,319.244z
		"/>
	<path fill="#1C4863" d="M523.178,295.798c-0.266-0.562-0.666-1.049-1.165-1.42c-0.475-0.327-1.042-0.496-1.619-0.483
		c-1.096-0.028-2.115,0.558-2.641,1.52c-0.677,1.273-0.996,2.706-0.923,4.147c-0.007,0.929,0.107,1.855,0.341,2.755L523.178,295.798
		z"/>
	<path fill="#1C4863" d="M434.191,269.526c-0.453-0.306-0.987-0.47-1.534-0.469l-1.165,2.059l-0.866,4.956l4.729-5.141
		C435.087,270.376,434.687,269.893,434.191,269.526z"/>
	<path fill="#1C4863" d="M450.963,349.336c-0.007,0.929,0.107,1.855,0.341,2.755l6.007-6.533c-0.268-0.556-0.668-1.039-1.165-1.406
		c-0.475-0.327-1.042-0.496-1.619-0.483c-1.096-0.028-2.115,0.558-2.642,1.52C451.209,346.463,450.89,347.896,450.963,349.336z"/>
	<path fill="#1C4863" d="M457.311,320.679c-0.268-0.556-0.668-1.039-1.165-1.406c-0.475-0.327-1.042-0.496-1.619-0.483
		c-1.096-0.028-2.115,0.558-2.642,1.52c-0.677,1.273-0.996,2.706-0.923,4.147c-0.007,0.929,0.107,1.856,0.341,2.755L457.311,320.679
		z"/>
	<path fill="#1C4863" d="M457.14,353.455c0.68-1.272,0.999-2.706,0.923-4.147c0.002-0.878-0.107-1.752-0.322-2.603l-5.969,6.494
		c0.49,1.081,1.568,1.775,2.755,1.775C455.614,354.995,456.621,354.409,457.14,353.455z"/>
	<path fill="#1C4863" d="M457.737,346.681c0.002,0.008,0.003,0.016,0.005,0.025l0.01-0.01L457.737,346.681z"/>
	<path fill="#1C4863" d="M520.395,305.228c1.086,0.021,2.094-0.565,2.613-1.52c0.68-1.272,0.999-2.706,0.923-4.147
		c0.002-0.886-0.108-1.769-0.327-2.627l-5.965,6.49C518.122,304.516,519.201,305.223,520.395,305.228z"/>
	<path fill="#1C4863" d="M432.572,280.347c1.086,0.021,2.094-0.565,2.613-1.52c0.68-1.272,0.999-2.706,0.923-4.147
		c0.002-0.886-0.108-1.769-0.327-2.627l-5.496,6.007l-0.17,0.937C430.639,279.849,431.572,280.361,432.572,280.347z"/>
	<path fill="#FF8E06" d="M658.892,483.099c7.714,0.246,14.167-5.808,14.412-13.522v-6.461c-0.235-7.368-6.154-13.287-13.522-13.522
		c-7.714-0.246-14.167,5.808-14.413,13.522v6.461C645.605,476.945,651.523,482.864,658.892,483.099z M650.766,463.116
		c0-4.733,3.837-8.57,8.571-8.57c4.734,0,8.571,3.837,8.571,8.57v6.461c0,4.733-3.837,8.57-8.571,8.57
		c-4.733,0-8.571-3.837-8.571-8.57V463.116z"/>
	<path fill="#FF8E06" d="M703.043,455.447c1.434,0,1.591-0.185,1.591-1.605v-2.272c0-0.824-0.085-1.605-1.321-1.605h-18.547
		c-0.716,0.016-1.286,0.605-1.278,1.321l0.085,30.319c0,0,0,0.001,0,0.001c-0.023,0.705,0.53,1.296,1.236,1.319h2.713
		c1.321,0,1.321-0.824,1.321-1.647v-12.611h13.35c0.096,0.01,0.193,0.009,0.288-0.005c0.637-0.09,1.08-0.679,0.99-1.316v-2.84
		c0.014-0.095,0.015-0.192,0.005-0.288c-0.069-0.639-0.643-1.102-1.283-1.033h-13.35v-7.74H703.043z"/>
	<path fill="#FF8E06" d="M274.194,469.577v-6.461c-0.235-7.368-6.153-13.286-13.522-13.521c-7.714-0.246-14.167,5.808-14.413,13.521
		v6.461c0.235,7.368,6.154,13.286,13.522,13.521C267.495,483.344,273.948,477.291,274.194,469.577z M251.656,469.577v-6.461
		c0-4.733,3.837-8.57,8.571-8.57c4.733,0,8.571,3.837,8.571,8.57v6.461c0,4.733-3.837,8.57-8.571,8.57
		C255.493,478.147,251.656,474.31,251.656,469.577z"/>
	<path fill="#FF8E06" d="M303.634,481.889c0.199,0.54,0.44,1.037,1.278,1.037h3.039c1.079,0,1.676-0.582,1.236-1.69
		c-1.392-3.678-2.712-7.342-3.991-10.963c-0.809-2.315-1.605-4.459-2.443-6.76c2.286-1.605,3.92-3.422,3.92-6.547
		c-0.048-3.754-3.01-6.821-6.76-7.001l-14.216-0.014c-0.709,0.048-1.273,0.612-1.321,1.321l0.085,30.319c0,0,0,0.001,0,0.001
		c-0.023,0.705,0.53,1.296,1.236,1.319h2.84c1.278,0,1.278-0.781,1.278-1.605V470.6c2.869-1.562,5.311-2.982,8.067-4.402
		L303.634,481.889z M289.802,464.422v-8.975l9.785-0.043c0.029-0.001,0.058-0.001,0.087,0c0.839,0.024,1.5,0.723,1.476,1.562
		c0.006,0.306-0.078,0.607-0.241,0.866C300.07,459.196,292.955,462.817,289.802,464.422z"/>
	<path fill="#FF8E06" d="M341.382,478.439c1.05-1.351,1.836-2.888,2.315-4.53c0.212-0.936,0.359-1.884,0.44-2.84
		c0.156-1.15,0.156-1.86,0.156-2.144c0-0.54,0-1.164,0-1.69c0-0.526,0-0.895,0-1.52c0-0.866-0.398-1.321-1.236-1.321h-10.623
		c-0.096-0.01-0.193-0.009-0.288,0.005c-0.637,0.09-1.08,0.679-0.99,1.316v2.556c0.045,0.694,0.586,1.253,1.278,1.321h6.874
		c0,0.043-0.085,0.568-0.199,1.605c-0.082,0.82-0.283,1.624-0.597,2.386c-1.359,2.8-4.247,4.528-7.356,4.402
		c-2.092,0.006-4.097-0.84-5.553-2.343c-1.599-1.647-2.438-3.886-2.315-6.178v-6.674c-0.047-4.399,3.469-8.01,7.868-8.08
		c3.019,0,5.755,1.775,6.987,4.53c0.189,0.477,0.652,0.787,1.165,0.781h2.84c1.079,0,1.591-0.781,1.236-1.647
		c-2.23-5.354-6.703-8.975-12.313-9.074c-7.308,0.124-13.145,6.126-13.066,13.434v6.675c-0.008,0.175-0.013,0.351-0.014,0.526
		c-0.055,7.278,5.802,13.222,13.08,13.277C335.097,483.477,338.981,481.679,341.382,478.439z"/>
	<path fill="#FF8E06" d="M375.111,482.926h2.84c0.087,0.005,0.173,0.001,0.259-0.013c0.635-0.103,1.066-0.701,0.963-1.336
		c0.016-0.165,0.016-0.332,0-0.497l-10.225-30.064c-0.27-0.525-0.44-1.065-1.236-1.065h-3.522c-0.795,0-0.994,0.44-1.278,1.065
		c-1.037,2.585-10.183,30.39-10.183,30.561c0.008,0.726,0.595,1.313,1.321,1.321h2.755c0.966,0,1.037-0.412,1.321-1.065l2.201-6.348
		l9.828-4.488l3.678,10.864C374.117,482.472,374.274,482.926,375.111,482.926z M362.713,468.043l3.238-9.344
		c0.44,1.278,0.682,2.144,0.966,2.968c0.114,0.454,0.27,0.824,0.398,1.278c0.128,0.454,0.44,1.278,0.923,2.599L362.713,468.043z"/>
	<path fill="#FF8E06" d="M388.021,451.286l0.085,30.319c-0.001,0.015-0.002,0.031-0.002,0.046c-0.022,0.682,0.513,1.253,1.195,1.275
		h2.755c0.709-0.048,1.273-0.612,1.321-1.321v-20.521c4.914,7.498,9.061,13.846,13.861,21.216c0.22,0.409,0.658,0.653,1.122,0.625
		h2.712c0.709-0.048,1.273-0.612,1.321-1.321v-30.319c-0.048-0.708-0.612-1.273-1.321-1.321h-2.713
		c-0.709,0.048-1.273,0.612-1.321,1.321v20.634l-13.705-21.302c-0.195-0.416-0.621-0.674-1.079-0.653h-2.954
		C388.583,449.981,388.013,450.57,388.021,451.286z"/>
	<path fill="#FF8E06" d="M427.175,449.965h-2.713c-0.716,0.016-1.286,0.605-1.278,1.321l0.043,30.319
		c-0.001,0.015-0.002,0.031-0.002,0.046c-0.022,0.682,0.513,1.253,1.195,1.275h2.712c0.709-0.048,1.273-0.612,1.321-1.321
		l0.043-30.319C428.448,450.578,427.883,450.013,427.175,449.965z"/>
	<path fill="#FF8E06" d="M461.912,481.364v-2.272c0-1.434-0.142-1.647-1.562-1.647h-15.139l15.863-22.58
		c0.224-0.248,0.337-0.576,0.312-0.909V451.3c0.008-0.716-0.562-1.305-1.278-1.321h-20.166c-1.42,0-1.42,0.781-1.42,1.605v2.301
		c0,1.434,0.185,1.647,1.605,1.647h14.202l-16.346,22.949c-0.231,0.296-0.356,0.661-0.355,1.037v1.761
		c0,0.824,0.085,1.647,1.321,1.647l21.643,0.085C461.827,483.011,461.912,482.188,461.912,481.364z"/>
	<path fill="#FF8E06" d="M494.747,482.912c0.635-0.102,1.067-0.7,0.965-1.335c0.016-0.165,0.016-0.332,0-0.497l-10.225-30.064
		c-0.27-0.525-0.44-1.065-1.236-1.065h-3.465c-0.795,0-0.994,0.44-1.278,1.065c-1.051,2.585-10.197,30.39-10.197,30.561
		c0.008,0.726,0.595,1.313,1.321,1.321h2.755c0.966,0,1.037-0.412,1.321-1.065l2.201-6.348l9.828-4.488l3.678,10.864
		c0.284,0.611,0.44,1.065,1.278,1.065h2.84C494.605,482.928,494.677,482.923,494.747,482.912z M479.295,468.043l3.238-9.344
		c0.44,1.278,0.682,2.144,0.966,2.968c0.114,0.454,0.27,0.824,0.398,1.278c0.128,0.454,0.44,1.278,0.923,2.599L479.295,468.043z"/>
	<path fill="#FF8E06" d="M525.607,449.98h-21.303c-1.278,0-1.278,0.781-1.278,1.605v2.102c0,1.321,0.185,1.605,1.605,1.605h7.754
		v26.031c0,0.824,0.043,1.605,1.278,1.605h2.755c1.278,0,1.278-0.781,1.278-1.605v-26.031h7.669c1.406,0,1.562-0.284,1.562-1.605
		v-2.102C526.928,450.761,526.842,449.98,525.607,449.98z"/>
	<path fill="#FF8E06" d="M540.036,449.965h-2.712c-0.716,0.016-1.286,0.605-1.278,1.321l0.085,30.319
		c-0.001,0.015-0.002,0.031-0.002,0.046c-0.022,0.682,0.513,1.253,1.195,1.275h2.712c0.709-0.048,1.273-0.612,1.321-1.321v-30.319
		C541.308,450.578,540.744,450.013,540.036,449.965z"/>
	<path fill="#FF8E06" d="M579.502,469.577v-6.461c-0.235-7.368-6.154-13.287-13.522-13.522c-7.714-0.246-14.167,5.808-14.412,13.522
		v6.461c0.235,7.368,6.154,13.287,13.522,13.522C572.804,483.345,579.257,477.291,579.502,469.577z M556.964,469.577v-6.461
		c0-4.733,3.837-8.57,8.571-8.57c4.734,0,8.571,3.837,8.571,8.57v6.461c0,4.733-3.837,8.57-8.571,8.57
		C560.802,478.147,556.964,474.31,556.964,469.577z"/>
	<path fill="#FF8E06" d="M610.079,482.926h2.713c0.709-0.048,1.273-0.612,1.321-1.321l0-30.319
		c-0.048-0.708-0.612-1.273-1.321-1.321h-2.713c-0.709,0.048-1.273,0.612-1.321,1.321v20.634l-13.705-21.302
		c-0.195-0.416-0.621-0.674-1.079-0.653h-2.954c-0.716,0.016-1.286,0.605-1.278,1.321l0.085,30.319
		c-0.001,0.015-0.002,0.031-0.002,0.046c-0.022,0.682,0.513,1.253,1.195,1.275h2.755c0.709-0.048,1.273-0.612,1.321-1.321v-20.521
		c4.914,7.498,9.061,13.846,13.861,21.216C609.177,482.71,609.615,482.954,610.079,482.926z"/>
	<path fill="#FF8E06" d="M98.76,504.696h-3.522c-0.795,0-0.994,0.44-1.278,1.065c-1.051,2.585-10.197,30.39-10.197,30.561
		c0.038,0.709,0.625,1.265,1.335,1.264h2.798c0.966,0,1.037-0.412,1.321-1.065l2.201-6.348l9.828-4.488l3.636,10.835
		c0.284,0.611,0.44,1.065,1.278,1.065H109c0.054,0.003,0.108,0.002,0.162-0.003c0.641-0.056,1.115-0.62,1.059-1.261
		c0.016-0.165,0.016-0.332,0-0.497l-10.225-30.064C99.726,505.236,99.556,504.696,98.76,504.696z M93.705,522.718l3.295-9.358
		c0.44,1.278,0.682,2.144,0.966,2.968c0.114,0.454,0.27,0.824,0.398,1.278c0.128,0.454,0.44,1.278,0.923,2.599L93.705,522.718z"/>
	<path fill="#FF8E06" d="M140.371,504.625h-2.641c-1.236,0-1.321,0.781-1.321,1.605v20.89c0,2.789-2.253,5.054-5.042,5.07h-3.082
		c-2.477-0.039-4.466-2.053-4.473-4.53V506.23c0-0.824-0.043-1.605-1.278-1.605h-2.684c-0.096-0.01-0.193-0.009-0.288,0.005
		c-0.637,0.09-1.08,0.679-0.99,1.316v21.699c0,0.019-0.001,0.039-0.001,0.058c-0.046,5.412,4.303,9.836,9.715,9.883h3.082
		c5.723-0.078,10.319-4.743,10.31-10.466l0.014-21.174c0.016-0.112,0.016-0.225,0-0.337
		C141.599,504.973,141.008,504.532,140.371,504.625z"/>
	<path fill="#FF8E06" d="M172.908,504.625h-21.303c-1.278,0-1.278,0.781-1.278,1.605v2.102c0,1.321,0.185,1.605,1.605,1.605h7.811
		v26.031c0,0.824,0.043,1.605,1.278,1.605h2.755c1.278,0,1.278-0.781,1.278-1.605v-26.031h7.612c1.406,0,1.562-0.284,1.562-1.605
		v-2.102C174.228,505.406,174.143,504.625,172.908,504.625z"/>
	<path fill="#FF8E06" d="M196.793,504.339c-7.714-0.246-14.167,5.808-14.413,13.521v6.419c0.235,7.368,6.154,13.286,13.522,13.521
		c7.714,0.246,14.167-5.808,14.413-13.521v-6.419C210.08,510.493,204.161,504.574,196.793,504.339z M204.918,524.28
		c0,4.733-3.837,8.57-8.571,8.57c-4.733,0-8.571-3.837-8.571-8.57v-6.461c0-4.733,3.837-8.57,8.571-8.57
		c4.734,0,8.571,3.837,8.571,8.57V524.28z"/>
	<path fill="#FF8E06" d="M243.178,504.625h-2.713c-0.709,0.048-1.273,0.612-1.321,1.321v20.634l-13.705-21.302
		c-0.195-0.416-0.621-0.674-1.079-0.653h-2.982c-0.716,0.016-1.286,0.605-1.278,1.321v30.376c-0.002,0.034-0.003,0.068-0.003,0.103
		c0.01,0.682,0.57,1.228,1.253,1.218h2.755c0.709-0.048,1.273-0.612,1.321-1.321v-20.521c4.914,7.498,9.061,13.846,13.861,21.216
		c0.22,0.409,0.658,0.653,1.122,0.625h2.713c0.709-0.048,1.273-0.612,1.321-1.321l0.057-30.376
		C244.45,505.238,243.886,504.673,243.178,504.625z"/>
	<path fill="#FF8E06" d="M268.597,504.339c-7.714-0.246-14.167,5.808-14.413,13.521v6.419c0.235,7.368,6.154,13.286,13.522,13.521
		c7.714,0.246,14.167-5.808,14.413-13.521v-6.419C281.884,510.493,275.965,504.574,268.597,504.339z M276.722,524.28
		c0,4.733-3.837,8.57-8.571,8.57c-4.733,0-8.571-3.837-8.571-8.57v-6.461c0-4.733,3.837-8.57,8.571-8.57
		c4.734,0,8.571,3.837,8.571,8.57V524.28z"/>
	<path fill="#FF8E06" d="M320.833,504.625l-1.562,0c-0.591-0.055-1.172,0.178-1.562,0.625l-10.225,13.306L297.3,505.378
		c-0.368-0.551-1.021-0.839-1.676-0.738h-1.42c-0.682,0-2.315,0-2.315,1.69l0.085,30.149c0,1.108,0.568,1.108,1.321,1.108h2.358
		c1.406,0,1.605-0.227,1.605-1.647v-21.628l8.194,10.509c0.44,0.525,0.525,0.653,1.278,0.653h1.463c0.596,0,0.838,0,1.193-0.625
		v0.085c2.869-3.522,5.51-7.001,8.265-10.622v21.557c0,1.434,0.185,1.647,1.605,1.647h2.357c0.781,0,1.42,0,1.42-1.193v-29.964
		C323.034,504.54,321.585,504.625,320.833,504.625z"/>
	<path fill="#FF8E06" d="M347.174,504.339c-7.714-0.246-14.167,5.808-14.413,13.522v6.419c0.235,7.368,6.154,13.287,13.522,13.522
		c7.714,0.246,14.167-5.808,14.413-13.522v-6.419C360.462,510.492,354.543,504.574,347.174,504.339z M355.3,524.322
		c0,4.733-3.837,8.57-8.571,8.57c-4.733,0-8.571-3.837-8.571-8.57v-6.461c0-4.733,3.837-8.57,8.571-8.57
		c4.734,0,8.571,3.837,8.571,8.57V524.322z"/>
	<path fill="#FF8E06" d="M393.531,505.609c-0.093-0.636-0.684-1.077-1.321-0.984h-2.642c-1.236,0-1.321,0.781-1.321,1.605v20.89
		c0,2.783-2.244,5.046-5.027,5.07h-3.082c-2.477-0.039-4.466-2.053-4.474-4.53V506.23c0-0.824-0.043-1.605-1.278-1.605h-2.67
		c-0.096-0.01-0.193-0.009-0.288,0.005c-0.637,0.09-1.08,0.679-0.99,1.316v21.699c0,0.019-0.001,0.039-0.001,0.058
		c-0.046,5.411,4.303,9.836,9.715,9.883h3.082c5.723-0.078,10.319-4.743,10.31-10.466l-0.014-21.174
		C393.547,505.834,393.547,505.721,393.531,505.609z"/>
	<path fill="#FF8E06" d="M403.316,527.347c0-0.022,0.001-0.043,0.001-0.065c0-0.007-0.001-0.014-0.001-0.021V527.347z"/>
	<path fill="#FF8E06" d="M423.639,521.439c-0.88-0.597-1.835-1.075-2.84-1.42c-0.994-0.369-2.713-0.824-5.113-1.52l-4.601-1.321
		c-0.657-0.197-1.249-0.565-1.718-1.065c-0.709-0.814-0.951-1.935-0.639-2.968c0.435-2.074,2.242-3.574,4.36-3.621h3.039
		c2.556,0,3.962,1.306,4.076,4.814c0.007,0.71,0.569,1.29,1.278,1.321h2.641c1.278,0,1.278-0.781,1.278-1.605
		c0.23-2.8-0.813-5.554-2.84-7.498c-1.817-1.522-4.106-2.365-6.476-2.386h-2.968c-4.652,0.031-8.635,3.342-9.515,7.91
		c-0.209,0.931-0.29,1.887-0.241,2.84v0.582c0,5.482,5.51,7.129,10.623,8.322c2.883,0.682,5.311,1.108,6.433,2.102
		c0.52,0.679,0.736,1.542,0.596,2.386c-0.008,0.276-0.037,0.552-0.085,0.824c-0.514,2.217-2.575,3.722-4.843,3.536h-3.124
		c-2.062-0.039-3.826-1.492-4.26-3.508c-0.085-0.525-0.085-0.895-0.085-1.108c0.048-0.443,0.009-0.892-0.114-1.321
		c-0.074-0.594-0.595-1.029-1.193-0.994h-2.713c-1.244,0-1.277,0.741-1.278,1.54c-0.035,1.113,0.059,2.226,0.284,3.317
		c0.188,0.961,0.57,1.875,1.122,2.684c1.762,2.901,4.914,4.668,8.308,4.658h3.039c2.618,0.152,5.198-0.684,7.229-2.343
		c2.062-2.24,3.198-5.178,3.181-8.222C426.595,525.044,425.526,522.812,423.639,521.439z"/>
	<path fill="#FF8E06" d="M480.616,524.933c-0.81-2.315-1.605-4.459-2.443-6.76c2.287-1.605,3.92-3.422,3.92-6.547
		c-0.048-3.748-3.001-6.814-6.746-7.001l-14.23-0.014c-0.709,0.048-1.273,0.612-1.321,1.321l0.085,30.319c0,0,0,0.001,0,0.001
		c-0.023,0.706,0.53,1.296,1.236,1.319h2.84c1.278,0,1.278-0.781,1.278-1.605V525.26c2.869-1.562,5.311-2.982,8.067-4.402
		l5.752,15.692c0.199,0.54,0.44,1.037,1.278,1.037h3.039c1.079,0,1.676-0.582,1.236-1.69
		C483.215,532.218,481.894,528.554,480.616,524.933z M476.341,512.493c-0.838,1.363-7.953,4.985-11.106,6.589v-8.975l9.785-0.043
		c0.029-0.001,0.058-0.001,0.087,0c0.839,0.024,1.5,0.723,1.476,1.562C476.59,511.933,476.506,512.234,476.341,512.493z"/>
	<path fill="#FF8E06" d="M507.057,504.339c-7.714-0.246-14.167,5.808-14.413,13.522v6.419c0.235,7.368,6.154,13.287,13.522,13.522
		c7.714,0.246,14.167-5.808,14.413-13.522v-6.419C520.345,510.492,514.426,504.574,507.057,504.339z M515.183,524.28
		c0,4.733-3.837,8.57-8.571,8.57c-4.734,0-8.571-3.837-8.571-8.57v-6.461c0-4.733,3.837-8.57,8.571-8.57
		c4.733,0,8.571,3.837,8.571,8.57V524.28z"/>
	<path fill="#FF8E06" d="M547.506,517.719c1.282-0.599,2.384-1.525,3.195-2.684c0.529-1.06,0.778-2.239,0.724-3.422
		c0-0.001,0-0.002,0-0.003c0.078-3.787-2.93-6.921-6.717-6.998H531.6c-0.039-0.002-0.078-0.002-0.116,0
		c-0.697,0.032-1.237,0.623-1.205,1.321l0.085,30.319c0,0,0,0.001,0,0.001c-0.023,0.706,0.53,1.296,1.236,1.319h13.421
		c0.001,0,0.001,0,0.002,0c4.862-0.071,8.747-4.07,8.675-8.932v-3.422C553.698,520.772,551.866,518.542,547.506,517.719z
		 M544.637,510.121c0.034,0,0.069,0.001,0.103,0.003c0.782,0.055,1.372,0.734,1.317,1.516c0.019,0.37-0.065,0.739-0.242,1.065
		c-0.753,1.236-7.143,4.814-10.225,6.461l-0.071-9.046H544.637z M548.415,527.361c0,0.454,0,0.781,0,1.235
		c0.029,0.693-0.182,1.375-0.596,1.931l-0.398,0.497c-0.617,0.67-1.489,1.047-2.4,1.037h-9.43v-6.959l4.871-2.812h5.113
		c1.42,0,2.84,0.952,2.84,3.919C548.415,526.58,548.415,526.907,548.415,527.361z"/>
	<path fill="#FF8E06" d="M577.739,504.339c-7.714-0.246-14.167,5.808-14.412,13.522v6.419c0.235,7.368,6.154,13.287,13.522,13.522
		c7.714,0.246,14.167-5.808,14.412-13.522v-6.419C591.026,510.492,585.108,504.574,577.739,504.339z M585.865,524.28
		c0,4.733-3.837,8.57-8.571,8.57c-4.734,0-8.571-3.837-8.571-8.57v-6.461c0-4.733,3.837-8.57,8.571-8.57
		c4.733,0,8.571,3.837,8.571,8.57V524.28z"/>
	<path fill="#FF8E06" d="M622.036,504.625h-21.303c-1.278,0-1.278,0.781-1.278,1.605v2.102c0,1.321,0.17,1.605,1.591,1.605h7.754
		v26.031c0,0.824,0.043,1.605,1.278,1.605h2.755c1.278,0,1.278-0.781,1.278-1.605v-26.031h7.683c1.406,0,1.562-0.284,1.562-1.605
		v-2.102C623.357,505.406,623.272,504.625,622.036,504.625z"/>
	<path fill="#FF8E06" d="M635.94,504.625h-2.713c-0.716,0.016-1.286,0.605-1.278,1.321l0.099,30.376
		c-0.001,0.015-0.002,0.031-0.002,0.046c-0.022,0.682,0.513,1.253,1.195,1.274h2.713c0.709-0.048,1.273-0.612,1.321-1.321
		l-0.014-30.376C637.213,505.238,636.648,504.673,635.94,504.625z"/>
	<path fill="#FF8E06" d="M672.126,524.862h-2.684c-0.015-0.001-0.031-0.002-0.046-0.003c-0.635-0.022-1.167,0.475-1.189,1.11v-0.085
		c-0.221,1.265-0.705,2.47-1.42,3.536c-1.456,2.063-3.823,3.291-6.348,3.295c-4.378-0.093-7.86-3.702-7.797-8.08v-7.101
		c-0.063-4.378,3.419-7.987,7.797-8.08c2.492-0.022,4.836,1.177,6.277,3.209c0.632,0.992,1.111,2.074,1.42,3.209
		c0.27,0.54,0.554,0.909,1.236,0.909h2.67c0.753,0,1.079-0.653,1.236-1.193c0-0.043,0-0.412,0-0.412l0.057,0.043
		c-0.997-6.484-6.666-11.211-13.224-11.026c-7.182,0.202-12.839,6.188-12.637,13.37v7.101c-0.095,7.268,5.713,13.24,12.98,13.349
		c5.659-0.23,10.596-3.913,12.426-9.273c0.313-0.818,0.49-1.681,0.525-2.556C673.412,525.466,672.842,524.877,672.126,524.862z"/>
	<path fill="#FF8E06" d="M702.915,521.439c-0.88-0.597-1.835-1.075-2.84-1.42c-0.994-0.369-2.712-0.824-5.113-1.52l-4.601-1.321
		c-0.657-0.197-1.25-0.564-1.718-1.065c-0.709-0.814-0.951-1.935-0.639-2.968c0.435-2.074,2.242-3.574,4.36-3.621h3.039
		c2.556,0,3.962,1.306,4.076,4.814c0.007,0.71,0.569,1.291,1.278,1.321h2.641c1.278,0,1.278-0.781,1.278-1.605
		c0.23-2.8-0.813-5.554-2.84-7.498c-1.817-1.522-4.106-2.365-6.476-2.386h-3.039c-4.652,0.031-8.635,3.342-9.515,7.91
		c-0.209,0.931-0.291,1.887-0.241,2.84v0.582c0,5.482,5.51,7.129,10.623,8.322c2.883,0.682,5.312,1.108,6.433,2.102
		c0.52,0.679,0.736,1.542,0.596,2.386c-0.008,0.276-0.037,0.552-0.085,0.824c-0.513,2.211-2.566,3.714-4.829,3.536h-3.039
		c-2.062-0.039-3.826-1.492-4.26-3.508c-0.085-0.525-0.085-0.895-0.085-1.108c0.048-0.443,0.009-0.892-0.114-1.321
		c-0.08-0.59-0.598-1.022-1.193-0.994h-2.713c-1.244,0-1.277,0.741-1.278,1.54c-0.035,1.113,0.059,2.226,0.284,3.317
		c0.189,0.961,0.571,1.874,1.122,2.684c1.762,2.901,4.914,4.668,8.308,4.658h3.039c2.618,0.152,5.198-0.684,7.229-2.343
		c2.051-2.244,3.177-5.182,3.153-8.222C705.868,525.045,704.801,522.814,702.915,521.439z"/>
	<path fill="#FF8E06" d="M682.621,527.347c0-0.022,0.001-0.043,0.001-0.065c0-0.007-0.001-0.014-0.001-0.021V527.347z"/>
</g>
</svg>
