<?xml version="1.0" encoding="utf-8"?>
<!-- Generator: Adobe Illustrator 24.3.0, SVG Export Plug-In . SVG Version: 6.00 Build 0)  -->
<svg version="1.1" xmlns="http://www.w3.org/2000/svg" xmlns:xlink="http://www.w3.org/1999/xlink" x="0px" y="0px"
	 viewBox="0 0 3370.39 2383.94" style="enable-background:new 0 0 3370.39 2383.94;" xml:space="preserve">
<style type="text/css">
	.st0{fill:#231F20;}
	.st1{fill:#FFFFFF;}
	.st2{clip-path:url(#SVGID_2_);}
	.st3{clip-path:url(#SVGID_4_);}
	.st4{fill:none;}
	.st5{clip-path:url(#SVGID_6_);}
	.st6{clip-path:url(#SVGID_8_);}
	.st7{clip-path:url(#SVGID_10_);}
</style>
<g id="Background">
	<rect x="-294.31" y="-9.17" class="st0" width="4164.08" height="2383.94"/>
</g>
<g id="Layer_1">
	<g>
		<g>
			<path class="st1" d="M410.85,568.5c0,25.84-20.66,46.93-46.14,46.93c-25.41,0-46.14-21.09-46.14-46.93
				c0-25.84,20.73-46.86,46.14-46.86C390.19,521.64,410.85,542.66,410.85,568.5z"/>
			<path class="st1" d="M472.54,655.24h2.3l40.09-86.74l21.45-46.43l38.58-83.57H313.53c-41.6-2.08-81.15,18.45-103.11,53.57
				c-22.69,36.29-23.08,82.55-1.05,119.55l295.2,475.88l171.75-100.2L472.54,655.24z M364.71,661.86
				c-50.6,0-91.85-41.89-91.85-93.36c0-51.47,41.25-93.29,91.85-93.29c34.05,0,63.78,18.86,79.61,46.86
				c7.77,13.68,12.24,29.51,12.24,46.43C456.56,619.97,415.39,661.86,364.71,661.86z"/>
		</g>
		<g>
			<defs>
				<path id="SVGID_1_" d="M724.64,654.23c69.32,7.49,127.57-48.11,126.38-110.08c-1.15-60.27-58.25-112.79-125.63-105.85
					c-34.16-0.21-68.32-0.43-102.47-0.64c-31.84,72.19-63.69,144.38-95.53,216.57C593.14,654.23,658.89,654.23,724.64,654.23z"/>
			</defs>
			<clipPath id="SVGID_2_">
				<use xlink:href="#SVGID_1_"  style="overflow:visible;"/>
			</clipPath>
			<g class="st2">
				<g>
					<rect x="522.82" y="613.6" class="st1" width="717.72" height="40.63"/>
				</g>
				<g>
					<rect x="556.76" y="525.7" class="st1" width="717.72" height="40.63"/>
				</g>
				<g>
					<rect x="541.72" y="438.34" class="st1" width="717.72" height="40.63"/>
				</g>
			</g>
		</g>
		<g>
			<defs>
				<path id="SVGID_3_" d="M793.14,974.62l-267.9,153.11l-322.19,1.07c-57.42,3.64-102.29,48.22-105.99,100.11
					c-4.78,67.07,61.33,116.75,104.72,115.66c1.2-0.03,2.07-0.12,2.55-0.12c173.52,0,328.05,0,501.67,0l54.52-29.96l75.32-184.43"/>
			</defs>
			<clipPath id="SVGID_4_">
				<use xlink:href="#SVGID_3_"  style="overflow:visible;"/>
			</clipPath>
			<g class="st3">
				<g>
					<path class="st1" d="M657.73,1344.45h-821.45v-40.63h821.45c34.33,0,64.71-18.51,81.27-49.51c16.56-31,15.49-67.36-2.87-97.27
						l-88.99-144.99l33.31-21.73l88.99,144.99c26.15,42.61,27.68,94.42,4.09,138.59S706.65,1344.45,657.73,1344.45z"/>
				</g>
				<g>
					<path class="st1" d="M550.26,1169.43H-464.5v-40.63h989.93L346.35,837.04l33.31-21.73l192.36,313.39
						c5.02,8.17,5.33,18.51,0.8,26.99S559.65,1169.43,550.26,1169.43z"/>
				</g>
				<g>
					<path class="st1" d="M619.87,1257.06h-932.16v-40.63h932.16c11.77,0,22.19-6.35,27.87-16.98c5.68-10.63,5.31-23.1-0.98-33.35
						L498.57,924.66l33.31-21.73l148.19,241.43c14.09,22.96,14.92,50.88,2.2,74.68C669.56,1242.85,646.23,1257.06,619.87,1257.06z"
						/>
				</g>
			</g>
		</g>
		<g>
			<rect x="1165.91" y="662.09" class="st4" width="271.94" height="447.98"/>
			<g>
				<defs>
					<polygon id="SVGID_5_" points="1165.91,1116.06 1165.91,711.8 948.2,711.8 948.2,1228.27 964.14,1267.95 1018.57,1324.05 
						1057.06,1340.49 1496.83,1340.49 1387.97,1116.06 					"/>
				</defs>
				<clipPath id="SVGID_6_">
					<use xlink:href="#SVGID_5_"  style="overflow:visible;"/>
				</clipPath>
				<g class="st5">
					<g>
						<path class="st1" d="M1635.98,1159.34h-478.43c-19.74,0-35.81-16.56-35.81-36.91V563.49h40.82v553.77h473.41V1159.34z"/>
					</g>
					<g>
						<path class="st1" d="M1549.97,1251.33h-423.48c-50.04,0-90.75-41.97-90.75-93.55v-502.3h40.82v502.3
							c0,28.38,22.4,51.47,49.93,51.47h423.48V1251.33z"/>
					</g>
					<g>
						<path class="st1" d="M1568.9,1336.98h-477.35c-77.17,0-139.95-64.72-139.95-144.26V621.17h40.82v571.55
							c0,56.34,44.47,102.18,99.13,102.18h477.35V1336.98z"/>
					</g>
				</g>
			</g>
		</g>
		<g>
			<defs>
				<path id="SVGID_7_" d="M2365.78,816.2h-221.38h-74.07l-39.38,224.33h152.64c13.8,71.67,27.6,143.33,41.4,215
					c13.31,72.75,85.02,113.43,141.85,95.43c46.21-14.64,79.31-67.03,71.97-124.68C2414.48,1089.59,2390.13,952.89,2365.78,816.2z"
					/>
			</defs>
			<clipPath id="SVGID_8_">
				<use xlink:href="#SVGID_7_"  style="overflow:visible;"/>
			</clipPath>
			<g class="st6">
				<g>
					<g>
						<polygon class="st1" points="2457.21,1561.25 2330.48,861.77 2022.14,861.77 2022.14,816.2 2367.19,816.2 2500.66,1552.89 
													"/>
					</g>
				</g>
				<g>
					<g>
						<polygon class="st1" points="2384.24,1654.44 2257.51,954.96 1949.17,954.96 1949.17,909.4 2294.22,909.4 2427.69,1646.08 
													"/>
					</g>
				</g>
				<g>
					<g>
						<polygon class="st1" points="2312.18,1738.25 2185.45,1038.77 1877.12,1038.77 1877.12,993.2 2222.17,993.2 2355.64,1729.89 
													"/>
					</g>
				</g>
			</g>
		</g>
		<g>
			<g>
				<path class="st1" d="M3160.27,1115.71c-60.13-41.28-120.25-82.57-180.38-123.85h128.62c7.06-0.41,57.56-4.18,87.87-47.11
					c18.29-25.9,19.92-52.86,19.95-64.03c0-55.76,0-111.51,0-167.27h-215.65v56.12h-216.02v355.34
					c85.29,58.56,170.59,117.12,255.88,175.69c55.63,44.95,133.77,32.93,168.1-13.47
					C3245.55,1237.24,3228.92,1151.51,3160.27,1115.71z"/>
			</g>
			<g>
				<defs>
					<path id="SVGID_9_" d="M2737.46,667.11v-3.03h269.35h215.65c1.43-10.14,12.69-100.79-54.93-167.42
						c-51.82-51.06-115.92-54.47-131.23-54.87c-135.55,0-271.11,0-406.66,0l-38.12,16.28l-53.91,55.57l-15.79,39.3
						c0.43,232.48,0.86,464.95,1.29,697.43c5.92,54.04,51.57,95.62,105.7,96.51c53.73,0.88,100.48-38.58,108.65-91.91
						c0-53.81,0-107.63,0-161.44C2737.46,951.38,2737.46,809.24,2737.46,667.11z"/>
				</defs>
				<clipPath id="SVGID_10_">
					<use xlink:href="#SVGID_9_"  style="overflow:visible;"/>
				</clipPath>
				<g class="st7">
					<g>
						<path class="st1" d="M2696.21,1362.45l-1.13-291.91V645.87c0-14.16,11.18-25.69,24.92-25.69h687.5v41.68h-671.99v408.59
							l1.13,291.83L2696.21,1362.45z"/>
					</g>
					<g>
						<path class="st1" d="M2609.55,1576.67l-1.61-414.24V611.01c0-43.51,34.34-78.9,76.54-78.9h925.96v41.68h-925.96
							c-19.91,0-36.11,16.7-36.11,37.22v551.34l1.61,414.16L2609.55,1576.67z"/>
					</g>
					<g>
						<path class="st1" d="M2523.42,1486.35l-1.6-414.24V599.39c0-86.9,68.58-157.6,152.88-157.6h849.62v41.68H2674.7
							c-62.01,0-112.45,52-112.45,115.92v472.64l1.6,414.16L2523.42,1486.35z"/>
					</g>
				</g>
			</g>
		</g>
		<path class="st1" d="M1546.71,437.66h-489.66c-4.23-0.42-54.46-4.58-87.31,35c-27.04,32.58-22.42,70.84-21.55,77.21
			c0,37.41,0,74.81,0,112.22h217.72h271.94v447.97l108.86,224.43c6.06,0.18,52.04,0.79,84.05-36.65
			c26.85-31.4,25.31-67.87,24.81-75.57c0-224.14,0-448.27,0-672.41c-0.35-2.93-0.94-7.04-1.99-11.88
			c-1.38-6.36-7.86-33.76-29.2-58.18C1595.66,446.92,1557.45,439.41,1546.71,437.66z M1603.84,570.62
			c-4.82,3.2-9.59,6.48-14.41,9.68c-0.77,0.51-1.15,1.08-1.25,2.02c-0.26,2.44-0.58,4.87-0.99,7.28c-0.15,0.9,0.06,1.49,0.61,2.15
			c3.71,4.44,7.37,8.94,11.1,13.37c0.66,0.79,0.8,1.38,0.33,2.36c-1.37,2.86-2.64,5.77-3.85,8.71c-0.41,1.01-0.95,1.29-1.97,1.28
			c-5.69-0.02-11.38,0.06-17.08,0.06c-0.79,0-1.34,0.2-1.86,0.84c-1.62,2.01-3.29,3.98-4.97,5.93c-0.45,0.52-0.6,1.03-0.51,1.73
			c0.8,5.86,1.56,11.72,2.38,17.57c0.15,1.08-0.08,1.73-1.03,2.33c-2.65,1.65-5.25,3.4-7.82,5.18c-0.75,0.52-1.3,0.52-2.06,0.01
			c-4.82-3.19-9.7-6.31-14.52-9.51c-0.78-0.52-1.45-0.58-2.3-0.31c-2.26,0.73-4.53,1.46-6.83,2.08c-0.85,0.23-1.31,0.66-1.66,1.45
			c-2.39,5.36-4.84,10.69-7.21,16.07c-0.41,0.93-0.9,1.21-1.86,1.19c-3.16-0.07-6.31-0.06-9.47,0c-0.91,0.02-1.35-0.29-1.72-1.14
			c-2.35-5.32-4.78-10.61-7.15-15.92c-0.39-0.88-0.88-1.43-1.86-1.68c-2.3-0.6-4.57-1.33-6.83-2.07c-0.81-0.27-1.43-0.14-2.15,0.33
			c-4.79,3.15-9.62,6.24-14.39,9.41c-0.84,0.56-1.43,0.67-2.32,0.05c-2.51-1.77-5.08-3.47-7.69-5.1c-0.93-0.58-1.23-1.2-1.08-2.31
			c0.81-5.8,1.53-11.62,2.34-17.42c0.11-0.81,0.01-1.4-0.54-2.02c-1.63-1.86-3.22-3.75-4.77-5.69c-0.58-0.72-1.18-1-2.1-1
			c-5.69,0.01-11.38-0.07-17.08-0.06c-0.97,0-1.45-0.3-1.84-1.23c-1.22-2.93-2.5-5.84-3.88-8.69c-0.51-1.06-0.3-1.69,0.38-2.51
			c3.69-4.39,7.32-8.85,11-13.25c0.56-0.66,0.78-1.28,0.65-2.15c-0.39-2.53-0.69-5.06-1.04-7.6c-0.08-0.58-0.22-1.08-0.79-1.46
			c-5.07-3.39-10.12-6.81-15.19-10.21c-0.2-0.13-0.48-0.14-0.72-0.2c0-0.43,0-0.85,0-1.28c0.41-3.1,0.65-6.22,1.08-9.32
			c0.22-1.54,0.88-2.39,2.3-2.8c4.83-1.4,9.58-3.06,14.42-4.42c1.74-0.49,2.94-1.39,3.58-3.15c0.63-1.75,1.49-3.4,2.21-5.11
			c0.38-0.9,0.34-1.7-0.06-2.6c-2.23-5.1-4.45-10.21-6.68-15.31c-0.5-1.15-0.49-2.15,0.29-3.12c2.06-2.53,4.22-4.97,6.28-7.5
			c0.79-0.97,1.76-0.67,2.72-0.39c5.07,1.5,10.15,2.96,15.2,4.5c1.31,0.4,2.39,0.3,3.48-0.55c1.44-1.13,3.04-2.03,4.56-3.03
			c1.09-0.71,1.67-1.59,1.86-2.93c0.76-5.38,1.58-10.75,2.34-16.12c0.21-1.48,0.87-2.31,2.23-2.68c3.24-0.87,6.38-2.1,9.71-2.63
			c0.1,0,0.21,0,0.31,0c1.32,0.73,2.08,2.05,3.04,3.14c3.14,3.6,6.17,7.29,9.32,10.88c0.62,0.7,1.28,0.97,2.17,0.96
			c2.12-0.03,4.23-0.04,6.35,0c0.9,0.02,1.55-0.31,2.16-0.99c3.65-4.13,7.15-8.39,10.75-12.56c0.49-0.57,0.98-1.08,1.63-1.43
			c0.1,0,0.21,0,0.31,0c3.19,1.36,6.56,2.12,9.85,3.12c1.09,0.33,1.46,0.86,1.6,1.92c0.82,5.85,1.7,11.7,2.53,17.55
			c0.1,0.7,0.38,1.14,0.96,1.52c2.19,1.41,4.36,2.85,6.51,4.33c0.65,0.45,1.21,0.35,1.89,0.15c5.5-1.64,11.02-3.23,16.52-4.87
			c0.88-0.26,1.45-0.21,2.09,0.61c1.92,2.44,3.93,4.82,5.99,7.14c0.76,0.86,0.9,1.54,0.4,2.64c-2.36,5.26-4.61,10.57-6.93,15.85
			c-0.37,0.83-0.43,1.54,0,2.39c0.65,1.27,1.36,2.55,1.72,3.92c0.82,3.14,2.87,4.47,5.8,5.23c4.6,1.19,9.1,2.77,13.65,4.15
			c0.78,0.24,1.19,0.59,1.3,1.48c0.41,3.33,0.87,6.65,1.37,9.97C1604.8,569.69,1604.55,570.15,1603.84,570.62z"/>
		<g>
			<g>
				<path class="st1" d="M848.08,522.07c1.51,5.61,2.92,13.14,2.95,22.08c0.03,11.37-2.22,20.68-4.29,27
					c-130.06-0.88-260.11-1.77-390.17-2.65c0-16.92-4.46-32.75-12.24-46.43C578.91,522.07,713.49,522.07,848.08,522.07z"/>
			</g>
		</g>
		<g>
			<g>
				<g>
					<g>
						<path class="st1" d="M1869.64,1030.53c-2.33-1.64-5.07-2.46-8.18-2.46c-5.84,0-10.31,2.56-13.42,7.67
							c-3.1,5.11-4.65,12.12-4.65,21.01c0,4.96,0.58,9.61,1.74,13.95l30.42-33.1C1873.95,1034.54,1871.98,1032.17,1869.64,1030.53z"
							/>
					</g>
				</g>
			</g>
			<g>
				<g>
					<g>
						<path class="st1" d="M1877.78,1043.41l-30.31,32.99c3.28,6.02,7.94,9.03,13.99,9.03c5.71,0,10.13-2.56,13.26-7.67
							c3.14-5.11,4.7-12.12,4.7-21.01c0-2.46-0.15-4.8-0.44-7.01C1878.7,1047.54,1878.29,1045.43,1877.78,1043.41z"/>
					</g>
				</g>
			</g>
			<g>
				<g>
					<g>
						<path class="st1" d="M1877.78,1169.51l-30.31,32.99c3.28,6.02,7.94,9.03,13.99,9.03c5.71,0,10.13-2.56,13.26-7.67
							c3.14-5.11,4.7-12.12,4.7-21.01c0-2.46-0.15-4.8-0.44-7.01C1878.7,1173.64,1878.29,1171.53,1877.78,1169.51z"/>
					</g>
				</g>
			</g>
			<g>
				<g>
					<g>
						<path class="st1" d="M2251.32,454.9l-0.02-0.01l-10.17-3.78c2.74,2.47,5.98,3.84,9.84,3.84
							C2251.1,454.94,2251.2,454.9,2251.32,454.9z"/>
					</g>
				</g>
			</g>
			<g>
				<g>
					<g>
						<path class="st1" d="M1758.34,1156.63c-2.33-1.64-5.07-2.46-8.18-2.46c-1.08,0-2.06,0.18-3.05,0.35l-6.04,34.41l23.18-25.22
							C1762.65,1160.64,1760.68,1158.28,1758.34,1156.63z"/>
					</g>
				</g>
			</g>
			<g>
				<g>
					<g>
						<path class="st1" d="M1869.64,1156.63c-2.33-1.64-5.07-2.46-8.18-2.46c-5.84,0-10.31,2.56-13.42,7.67
							c-3.1,5.11-4.65,12.12-4.65,21.01c0,4.96,0.58,9.61,1.74,13.95l30.42-33.1C1873.95,1160.64,1871.98,1158.28,1869.64,1156.63z"
							/>
					</g>
				</g>
			</g>
			<g>
				<g>
					<g>
						<path class="st1" d="M1869.64,778.34c-2.33-1.64-5.07-2.46-8.18-2.46c-5.84,0-10.31,2.56-13.42,7.67
							c-3.1,5.11-4.65,12.12-4.65,21.01c0,4.96,0.58,9.61,1.74,13.95l30.42-33.1C1873.95,782.34,1871.98,779.98,1869.64,778.34z"/>
					</g>
				</g>
			</g>
			<g>
				<g>
					<g>
						<path class="st1" d="M1869.64,904.44c-2.33-1.64-5.07-2.46-8.18-2.46c-5.84,0-10.31,2.56-13.42,7.67
							c-3.1,5.11-4.65,12.12-4.65,21.01c0,4.96,0.58,9.61,1.74,13.95l30.42-33.1C1873.95,908.44,1871.98,906.08,1869.64,904.44z"/>
					</g>
				</g>
			</g>
			<g>
				<g>
					<g>
						<path class="st1" d="M1746.67,1293.43v-2.8c-0.21,0.5-0.53,1.04-0.83,1.56L1746.67,1293.43z"/>
					</g>
				</g>
			</g>
			<g>
				<g>
					<g>
						<path class="st1" d="M1877.78,791.21l-30.31,32.99c3.28,6.02,7.94,9.03,13.99,9.03c5.71,0,10.13-2.56,13.26-7.67
							c3.14-5.11,4.7-12.12,4.7-21.01c0-2.46-0.15-4.8-0.44-7.01C1878.7,795.34,1878.29,793.23,1877.78,791.21z"/>
					</g>
				</g>
			</g>
			<g>
				<g>
					<g>
						<path class="st1" d="M1877.78,917.31l-30.31,32.99c3.28,6.02,7.94,9.03,13.99,9.03c5.71,0,10.13-2.56,13.26-7.67
							c3.14-5.11,4.7-12.12,4.7-21.01c0-2.46-0.15-4.8-0.44-7.01C1878.7,921.44,1878.29,919.33,1877.78,917.31z"/>
					</g>
				</g>
			</g>
			<g>
				<g>
					<g>
						<path class="st1" d="M1750.16,1211.53c5.71,0,10.13-2.56,13.26-7.67c3.14-5.11,4.7-12.12,4.7-21.01c0-2.46-0.15-4.8-0.44-7.01
							c-0.29-2.21-0.7-4.32-1.21-6.34l-27.2,29.61l-1.1,6.29C1741.27,1209.42,1745.23,1211.53,1750.16,1211.53z"/>
					</g>
				</g>
			</g>
			<g>
				<g>
					<g>
						<path class="st1" d="M1958.76,1202.51c0.26,0.47,0.58,0.81,0.86,1.25l0.47-2.69L1958.76,1202.51z"/>
					</g>
				</g>
			</g>
			<g>
				<g>
					<g>
						<path class="st1" d="M2354.28,777.99h13.52l-0.19-1.04c-1.64-0.64-3.39-1.08-5.34-1.08
							C2359.23,775.87,2356.58,776.6,2354.28,777.99z"/>
					</g>
				</g>
			</g>
			<g>
				<g>
					<g>
						<path class="st1" d="M2195.33,581.04c5.71,0,10.13-2.56,13.26-7.67c3.14-5.11,4.7-12.12,4.7-21.01c0-2.46-0.15-4.8-0.44-7.01
							c-0.29-2.21-0.7-4.32-1.21-6.34l-30.31,32.99C2184.63,578.03,2189.29,581.04,2195.33,581.04z"/>
					</g>
				</g>
			</g>
			<g>
				<g>
					<g>
						<path class="st1" d="M2209.42,533.22c-1.6-3.08-3.56-5.44-5.91-7.08c-2.33-1.64-5.07-2.46-8.18-2.46
							c-5.84,0-10.31,2.56-13.42,7.67c-3.1,5.11-4.65,12.12-4.65,21.01c0,4.96,0.58,9.61,1.74,13.95L2209.42,533.22z"/>
					</g>
				</g>
			</g>
			<g>
				<g>
					<g>
						<path class="st1" d="M2139.69,454.94c5.71,0,10.13-2.56,13.26-7.67c0.96-1.57,1.73-3.39,2.4-5.32h-26.01l-3.64,3.96
							C2128.98,451.93,2133.64,454.94,2139.69,454.94z"/>
					</g>
				</g>
			</g>
			<g>
				<g>
					<g>
						<path class="st1" d="M2195.33,707.14c5.71,0,10.13-2.56,13.26-7.67c3.14-5.11,4.7-12.12,4.7-21.01c0-2.46-0.15-4.8-0.44-7.01
							c-0.29-2.21-0.7-4.32-1.21-6.34l-30.31,32.99C2184.63,704.13,2189.29,707.14,2195.33,707.14z"/>
					</g>
				</g>
			</g>
			<g>
				<g>
					<g>
						<path class="st1" d="M2265.07,659.32c-1.6-3.08-3.56-5.44-5.9-7.08c-2.33-1.64-5.07-2.46-8.18-2.46
							c-5.84,0-10.31,2.56-13.42,7.67c-3.1,5.11-4.65,12.12-4.65,21.01c0,4.96,0.58,9.61,1.74,13.95L2265.07,659.32z"/>
					</g>
				</g>
			</g>
			<g>
				<g>
					<g>
						<path class="st1" d="M2250.98,707.14c5.71,0,10.13-2.56,13.26-7.67c3.14-5.11,4.7-12.12,4.7-21.01c0-2.46-0.15-4.8-0.44-7.01
							c-0.29-2.21-0.7-4.32-1.21-6.34l-30.31,32.99C2240.27,704.13,2244.93,707.14,2250.98,707.14z"/>
					</g>
				</g>
			</g>
			<g>
				<g>
					<g>
						<path class="st1" d="M1813.99,1156.63c-2.33-1.64-5.07-2.46-8.18-2.46c-5.84,0-10.31,2.56-13.42,7.67
							c-3.1,5.11-4.65,12.12-4.65,21.01c0,4.96,0.58,9.61,1.74,13.95l30.42-33.1C1818.3,1160.64,1816.33,1158.28,1813.99,1156.63z"
							/>
					</g>
				</g>
			</g>
			<g>
				<g>
					<g>
						<path class="st1" d="M1822.13,1169.51l-30.31,32.99c3.28,6.02,7.94,9.03,13.99,9.03c5.71,0,10.13-2.56,13.26-7.67
							c3.14-5.11,4.7-12.12,4.7-21.01c0-2.46-0.15-4.8-0.44-7.01C1823.05,1173.64,1822.64,1171.53,1822.13,1169.51z"/>
					</g>
				</g>
			</g>
			<g>
				<g>
					<g>
						<path class="st1" d="M2209.42,659.32c-1.6-3.08-3.56-5.44-5.91-7.08c-2.33-1.64-5.07-2.46-8.18-2.46
							c-5.84,0-10.31,2.56-13.42,7.67c-3.1,5.11-4.65,12.12-4.65,21.01c0,4.96,0.58,9.61,1.74,13.95L2209.42,659.32z"/>
					</g>
				</g>
			</g>
			<g>
				<g>
					<g>
						<path class="st1" d="M1935.07,1308.95c0-2.46-0.15-4.8-0.44-7.01c-0.29-2.21-0.7-4.32-1.21-6.34l-30.31,32.99
							c0.59,1.08,1.27,1.94,1.94,2.82l29.96-21.42C1935.02,1309.64,1935.07,1309.32,1935.07,1308.95z"/>
					</g>
				</g>
			</g>
			<g>
				<g>
					<g>
						<path class="st1" d="M1925.28,1282.73c-2.33-1.64-5.07-2.46-8.18-2.46c-5.84,0-10.31,2.56-13.42,7.67
							c-3.1,5.11-4.65,12.12-4.65,21.01c0,4.96,0.58,9.61,1.74,13.95l30.42-33.1C1929.59,1286.73,1927.62,1284.37,1925.28,1282.73z"
							/>
					</g>
				</g>
			</g>
			<g>
				<g>
					<g>
						<path class="st1" d="M2075.98,666.28h4.57v-6.14c-0.6,1.4-1.54,2.9-2.84,4.49C2077.22,665.23,2076.54,665.71,2075.98,666.28z"
							/>
					</g>
				</g>
			</g>
			<g>
				<g>
					<g>
						<path class="st1" d="M2044.72,539.02l-30.31,32.99c3.28,6.02,7.94,9.03,13.99,9.03c5.71,0,10.13-2.56,13.26-7.67
							c3.14-5.11,4.7-12.12,4.7-21.01c0-2.46-0.15-4.8-0.44-7.01C2045.64,543.15,2045.23,541.03,2044.72,539.02z"/>
					</g>
				</g>
			</g>
			<g>
				<g>
					<g>
						<path class="st1" d="M2036.58,526.14c-2.33-1.64-5.07-2.46-8.18-2.46c-5.84,0-10.31,2.56-13.42,7.67
							c-3.1,5.11-4.65,12.12-4.65,21.01c0,4.96,0.58,9.61,1.74,13.95l30.42-33.1C2040.88,530.14,2038.92,527.78,2036.58,526.14z"/>
					</g>
				</g>
			</g>
			<g>
				<g>
					<g>
						<path class="st1" d="M1819.07,825.57c3.14-5.11,4.7-12.12,4.7-21.01c0-2.46-0.15-4.8-0.44-7.01c-0.29-2.21-0.7-4.32-1.21-6.34
							l-13.9,15.13l-4.67,26.6c0.75,0.1,1.45,0.3,2.25,0.3C1811.52,833.24,1815.94,830.68,1819.07,825.57z"/>
					</g>
				</g>
			</g>
			<g>
				<g>
					<g>
						<path class="st1" d="M2098.13,533.22c-1.6-3.08-3.56-5.44-5.91-7.08c-2.33-1.64-5.07-2.46-8.18-2.46
							c-5.84,0-10.31,2.56-13.42,7.67c-3.1,5.11-4.65,12.12-4.65,21.01c0,4.96,0.58,9.61,1.74,13.95L2098.13,533.22z"/>
					</g>
				</g>
			</g>
			<g>
				<g>
					<g>
						<path class="st1" d="M2084.04,454.94c5.71,0,10.13-2.56,13.26-7.67c0.96-1.57,1.73-3.39,2.4-5.32h-26.01l-3.64,3.96
							C2073.33,451.93,2077.99,454.94,2084.04,454.94z"/>
					</g>
				</g>
			</g>
			<g>
				<g>
					<g>
						<path class="st1" d="M2028.39,454.94c5.71,0,10.13-2.56,13.26-7.67c0.96-1.57,1.73-3.39,2.4-5.32h-26.01l-3.64,3.96
							C2017.69,451.93,2022.35,454.94,2028.39,454.94z"/>
					</g>
				</g>
			</g>
			<g>
				<g>
					<g>
						<path class="st1" d="M2152.95,699.47c3.14-5.11,4.7-12.12,4.7-21.01c0-2.46-0.15-4.8-0.44-7.01c-0.29-2.21-0.7-4.32-1.21-6.34
							l-25.09,27.31l2.39,13.2c1.94,0.92,4.02,1.51,6.38,1.51C2145.39,707.14,2149.82,704.58,2152.95,699.47z"/>
					</g>
				</g>
			</g>
			<g>
				<g>
					<g>
						<path class="st1" d="M2147.87,652.24c-2.33-1.64-5.07-2.46-8.18-2.46c-5.84,0-10.31,2.56-13.42,7.67
							c-1.51,2.49-2.64,5.44-3.41,8.83h3.32l3.49,19.27l24.1-26.23C2152.18,656.24,2150.21,653.88,2147.87,652.24z"/>
					</g>
				</g>
			</g>
			<g>
				<g>
					<g>
						<path class="st1" d="M1959.33,1161.84c-3.1,5.11-4.65,12.12-4.65,21.01c0,4.96,0.58,9.61,1.74,13.95l5.46-5.94l6.33-36.05
							C1964.54,1155.84,1961.57,1158.15,1959.33,1161.84z"/>
					</g>
				</g>
			</g>
			<g>
				<g>
					<g>
						<path class="st1" d="M2187.34,777.99h15.46c-2.18-1.35-4.65-2.12-7.47-2.12C2192.29,775.87,2189.64,776.6,2187.34,777.99z"/>
					</g>
				</g>
			</g>
			<g>
				<g>
					<g>
						<path class="st1" d="M1989.07,791.21l-30.31,32.99c3.28,6.02,7.94,9.03,13.99,9.03c5.71,0,10.13-2.56,13.26-7.67
							c3.14-5.11,4.7-12.12,4.7-21.01c0-2.46-0.15-4.8-0.44-7.01C1989.99,795.34,1989.58,793.23,1989.07,791.21z"/>
					</g>
				</g>
			</g>
			<g>
				<g>
					<g>
						<path class="st1" d="M2067.32,664.4c1.96-1.04,4.42-2.92,6.42-4.98c1.95-2.02,3.58-4.31,4.88-6.88
							c1.29-2.57,1.94-5.11,1.94-7.65h6.92v21.38h28.59c0.05-0.26,0.07-0.54,0.13-0.8c0.93-4.17,2.37-7.87,4.33-11.08
							c1.95-3.22,4.52-5.79,7.69-7.72c3.16-1.93,6.99-2.9,11.47-2.9c4.48,0,8.3,0.97,11.47,2.9c3.17,1.93,5.75,4.51,7.74,7.72
							c1.99,3.22,3.43,6.91,4.33,11.08c0.89,4.18,1.34,8.5,1.34,12.98s-0.45,8.81-1.34,12.98c-0.9,4.17-2.33,7.85-4.28,11.03
							c-1.96,3.18-4.52,5.74-7.69,7.67c-3.17,1.93-7.03,2.9-11.57,2.9c-1.85,0-3.52-0.27-5.14-0.59l11.88,65.54h31.7
							c1.64-2.03,3.48-3.84,5.74-5.22c3.16-1.93,6.99-2.9,11.47-2.9c4.48,0,8.3,0.97,11.47,2.9c2.26,1.38,4.11,3.19,5.77,5.22h33.23
							c1.08-2.34,1.69-4.68,1.69-6.99h6.92v6.99h47.04c1.08-2.34,1.69-4.68,1.69-6.99h6.92v6.99h35.01
							c1.64-2.03,3.48-3.84,5.74-5.22c3.16-1.93,6.99-2.9,11.47-2.9c1.49,0,2.8,0.27,4.14,0.48l-10.6-58.49h-7.53v-6h6.44
							l-6.37-35.15c-0.93,0.53-1.77,1.16-2.79,1.59c-2.11,0.89-4.29,1.33-6.54,1.33v-7.29c2.02,0,4.2-0.65,6.52-1.95
							c0.52-0.29,0.99-0.66,1.49-0.99c-7.13-43.79-14.27-87.59-21.4-131.38c-4.66-10.03-11.91-22.87-23.13-35.92
							c-16.06-18.67-33.36-29.77-45.14-36.03c-2.61,0.64-4.82,0.76-6.39,0.76c-4.55,0-8.41-0.97-11.58-2.9
							c-3.16-1.93-5.74-4.49-7.71-7.67c-0.63-1.02-1.11-2.17-1.63-3.29l-13.51-5.03h-17.78v11.71h10.45v6h-27.87v-6h10.5v-11.71
							h-29.42c-0.88,3.04-1.97,5.87-3.48,8.32c-1.96,3.18-4.52,5.74-7.69,7.67c-3.17,1.93-7.03,2.9-11.57,2.9
							c-4.55,0-8.41-0.97-11.58-2.9c-3.16-1.93-5.74-4.49-7.71-7.67c-1.52-2.45-2.61-5.29-3.49-8.32h-10.13
							c-0.88,3.04-1.97,5.87-3.48,8.32c-1.96,3.18-4.52,5.74-7.69,7.67c-3.17,1.93-7.03,2.9-11.57,2.9c-4.55,0-8.41-0.97-11.58-2.9
							c-3.16-1.93-5.74-4.49-7.71-7.67c-1.52-2.45-2.61-5.29-3.49-8.32h-10.13c-0.88,3.04-1.97,5.87-3.48,8.32
							c-1.96,3.18-4.52,5.74-7.69,7.67c-3.17,1.93-7.03,2.9-11.57,2.9c-4.55,0-8.41-0.97-11.58-2.9c-3.16-1.93-5.74-4.49-7.71-7.67
							c-1.52-2.45-2.61-5.29-3.49-8.32h-29.44v11.71h10.45v6h-27.87v-6h10.5v-11.71h-6.18c-9.9,0.68-42.79,4.2-70.1,30.71
							c-17.22,16.72-24.68,35.27-27.91,45.43c3.76,0.36,6.43,1.61,7.86,2.48c3.17,1.93,5.75,4.51,7.74,7.72
							c1.99,3.22,3.43,6.91,4.33,11.08c0.89,4.18,1.34,8.5,1.34,12.98s-0.45,8.81-1.34,12.98c-0.9,4.17-2.33,7.85-4.28,11.03
							c-1.96,3.18-4.52,5.74-7.69,7.67c-3.17,1.93-7.03,2.9-11.57,2.9c-4.55,0-8.41-0.97-11.58-2.9c-0.85-0.52-1.54-1.2-2.31-1.8
							l-33.23,189.31c0.99,0.39,2.05,0.68,2.94,1.22c3.17,1.93,5.75,4.51,7.74,7.72c1.99,3.22,3.43,6.91,4.33,11.08
							c0.89,4.18,1.34,8.5,1.34,12.98s-0.45,8.81-1.34,12.98c-0.9,4.17-2.33,7.85-4.28,11.03c-1.96,3.18-4.52,5.74-7.69,7.67
							c-3.17,1.93-7.03,2.9-11.57,2.9c-1.18,0-2.18-0.25-3.27-0.38l-13.68,77.93c0.08-0.04,0.15-0.05,0.23-0.1
							c2.32-1.3,4.46-2.96,6.42-4.98c1.95-2.02,3.59-4.31,4.88-6.87c1.29-2.57,1.94-5.11,1.94-7.65h6.92v60.96h10.45v6h-27.87v-6
							h10.5v-45.72c-0.6,1.4-1.54,2.9-2.84,4.49c-1.29,1.59-2.82,3.05-4.58,4.36c-1.76,1.32-3.69,2.42-5.8,3.31
							c-0.56,0.24-1.14,0.36-1.71,0.53l-27.93,159.12h4.58v6h-5.64l-10.22,58.24c0.68-0.05,1.26-0.23,1.98-0.23
							c4.48,0,8.3,0.97,11.47,2.9c3.17,1.93,5.75,4.51,7.74,7.72s3.43,6.91,4.33,11.08c0.89,4.18,1.34,8.5,1.34,12.98
							c0,4.48-0.45,8.81-1.34,12.98c-0.9,4.17-2.33,7.85-4.28,11.03c-1.96,3.18-4.52,5.74-7.69,7.67c-3.17,1.93-7.03,2.9-11.57,2.9
							c-4.55,0-8.41-0.97-11.58-2.9c-0.65-0.4-1.17-0.93-1.77-1.38c-2.43,13.82-4.85,27.64-7.28,41.46
							c-0.53,4.91-0.91,15.1,4.49,25.79c2.29,4.54,5.04,8,7.43,10.51c1.12-2.2,2.28-4.83,3.28-7.87c0.92-2.79,1.53-5.37,1.94-7.65
							h6.92v28.32c4.57,5.41,11.18,12.13,20.23,18.43c10.77,7.49,21.04,11.63,28.5,13.97c0-15.16,0-30.32,0-45.48
							c-0.6,1.4-1.54,2.9-2.84,4.49c-1.29,1.59-2.82,3.05-4.58,4.36c-1.76,1.32-3.69,2.42-5.8,3.31s-4.29,1.33-6.54,1.33v-7.29
							c2.02,0,4.2-0.65,6.52-1.95c2.32-1.3,4.46-2.96,6.42-4.98c1.95-2.02,3.59-4.31,4.88-6.88c1.29-2.57,1.94-5.11,1.94-7.65h6.92
							v60.96c2.19,1.79,4.39,3.58,6.58,5.37c1.96,0.46,3.91,0.93,5.87,1.39c7.12,1.64,16.65,3.1,27.89,2.84
							c10.31-0.24,19.06-1.85,25.76-3.59c8.11-2.35,16.21-4.71,24.32-7.06c-0.62-0.77-1.31-1.46-1.84-2.32
							c-1.98-3.18-3.4-6.86-4.28-11.03c-0.88-4.17-1.32-8.5-1.32-12.98s0.46-8.81,1.4-12.98c0.93-4.17,2.37-7.87,4.33-11.08
							c1.95-3.22,4.52-5.79,7.69-7.72c3.16-1.93,6.99-2.9,11.47-2.9c4.48,0,8.3,0.97,11.47,2.9c3.17,1.93,5.75,4.51,7.74,7.72
							c1.99,3.22,3.43,6.91,4.33,11.08c0.64,2.98,1.61,2.49,1.8,5.62l0.52-2.98l15.17-86.44c-1.78-1.54-3.4-3.24-4.68-5.3
							c-1.98-3.18-3.4-6.86-4.28-11.03c-0.88-4.17-1.32-8.5-1.32-12.98c0-4.48,0.46-8.81,1.4-12.98c0.93-4.17,2.37-7.87,4.33-11.08
							c1.95-3.22,4.52-5.79,7.69-7.72c2.29-1.4,5.05-2.11,8.03-2.5l10.25-58.41h-20.8v-6h10.5v-45.72c-0.6,1.4-1.54,2.9-2.84,4.49
							c-1.29,1.59-2.82,3.05-4.58,4.36c-1.76,1.32-3.69,2.42-5.8,3.31s-4.29,1.33-6.54,1.33v-7.29c2.02,0,4.2-0.65,6.52-1.95
							c2.32-1.3,4.46-2.96,6.42-4.98c1.95-2.02,3.59-4.31,4.88-6.87c1.29-2.57,1.94-5.11,1.94-7.65h6.92v60.96h4.43l14.37-81.84
							l13.48-76.81c-1.09,0.22-2.19,0.33-3.31,0.33v-7.29c1.49,0,3.09-0.47,4.74-1.18l13.94-79.41h-9.42v-6h10.48l0.02-0.14v-45.58
							c-0.6,1.4-1.54,2.9-2.84,4.49c-1.29,1.59-2.82,3.05-4.58,4.36c-1.76,1.32-3.69,2.42-5.8,3.31c-2.11,0.89-4.29,1.33-6.54,1.33
							v-7.29c2.02,0,4.2-0.65,6.52-1.95c2.32-1.3,4.46-2.96,6.42-4.98c1.95-2.02,3.59-4.31,4.88-6.87c1.29-2.57,1.94-5.11,1.94-7.65
							h6.92v21.41l2.53-14.42l19.61-111.71C2055.45,666.48,2061.94,667.26,2067.32,664.4z M2283.38,540.25
							c2.02,0,4.2-0.65,6.52-1.95c2.32-1.3,4.46-2.96,6.42-4.98c1.95-2.02,3.58-4.31,4.88-6.88c1.29-2.57,1.94-5.11,1.94-7.65h6.92
							v60.96h10.45v6h-27.87v-6h10.5v-45.72c-0.6,1.4-1.54,2.9-2.84,4.49c-1.29,1.59-2.82,3.05-4.58,4.36
							c-1.76,1.32-3.69,2.42-5.8,3.31c-2.11,0.89-4.29,1.33-6.54,1.33V540.25z M2283.13,665.48c0.93-4.17,2.37-7.87,4.33-11.08
							c1.95-3.22,4.52-5.79,7.69-7.72c3.16-1.93,6.99-2.9,11.47-2.9c4.48,0,8.3,0.97,11.47,2.9c3.17,1.93,5.75,4.51,7.74,7.72
							c1.99,3.22,3.43,6.91,4.33,11.08c0.89,4.18,1.34,8.5,1.34,12.98s-0.45,8.81-1.34,12.98c-0.9,4.17-2.33,7.85-4.28,11.03
							c-1.96,3.18-4.52,5.74-7.69,7.67c-3.17,1.93-7.03,2.9-11.57,2.9c-4.55,0-8.41-0.97-11.58-2.9c-3.16-1.93-5.74-4.49-7.71-7.67
							c-1.98-3.18-3.4-6.86-4.28-11.03c-0.88-4.17-1.32-8.5-1.32-12.98S2282.2,669.65,2283.13,665.48z M2227.73,540.25
							c2.02,0,4.2-0.65,6.52-1.95c2.32-1.3,4.46-2.96,6.42-4.98c1.95-2.02,3.59-4.31,4.88-6.88c1.29-2.57,1.94-5.11,1.94-7.65h6.92
							v60.96h10.45v6h-27.87v-6h10.5v-45.72c-0.6,1.4-1.54,2.9-2.84,4.49c-1.29,1.59-2.82,3.05-4.58,4.36
							c-1.76,1.32-3.69,2.42-5.8,3.31c-2.11,0.89-4.29,1.33-6.54,1.33V540.25z M2227.49,665.48c0.93-4.17,2.37-7.87,4.33-11.08
							c1.95-3.22,4.52-5.79,7.69-7.72c3.16-1.93,6.99-2.9,11.47-2.9c4.48,0,8.3,0.97,11.47,2.9c3.17,1.93,5.75,4.51,7.74,7.72
							c1.99,3.22,3.43,6.91,4.33,11.08c0.89,4.18,1.34,8.5,1.34,12.98s-0.45,8.81-1.34,12.98c-0.9,4.17-2.33,7.85-4.28,11.03
							c-1.96,3.18-4.52,5.74-7.69,7.67c-3.17,1.93-7.03,2.9-11.57,2.9c-4.55,0-8.41-0.97-11.58-2.9c-3.16-1.93-5.74-4.49-7.71-7.67
							c-1.98-3.18-3.4-6.86-4.28-11.03c-0.88-4.17-1.32-8.5-1.32-12.98S2226.55,669.65,2227.49,665.48z M2171.84,539.37
							c0.93-4.17,2.37-7.87,4.33-11.08c1.95-3.22,4.52-5.79,7.69-7.72c3.16-1.93,6.99-2.9,11.47-2.9c4.48,0,8.3,0.97,11.47,2.9
							c3.17,1.93,5.75,4.51,7.74,7.72c1.99,3.22,3.43,6.91,4.33,11.08c0.89,4.18,1.34,8.5,1.34,12.98s-0.45,8.81-1.34,12.98
							c-0.9,4.17-2.33,7.85-4.28,11.03c-1.96,3.18-4.52,5.74-7.69,7.67c-3.17,1.93-7.03,2.9-11.57,2.9c-4.55,0-8.41-0.97-11.58-2.9
							c-3.16-1.93-5.74-4.49-7.71-7.67c-1.98-3.18-3.4-6.86-4.28-11.03c-0.88-4.17-1.32-8.5-1.32-12.98
							S2170.9,543.55,2171.84,539.37z M2171.84,665.48c0.93-4.17,2.37-7.87,4.33-11.08c1.95-3.22,4.52-5.79,7.69-7.72
							c3.16-1.93,6.99-2.9,11.47-2.9c4.48,0,8.3,0.97,11.47,2.9c3.17,1.93,5.75,4.51,7.74,7.72c1.99,3.22,3.43,6.91,4.33,11.08
							c0.89,4.18,1.34,8.5,1.34,12.98s-0.45,8.81-1.34,12.98c-0.9,4.17-2.33,7.85-4.28,11.03c-1.96,3.18-4.52,5.74-7.69,7.67
							c-3.17,1.93-7.03,2.9-11.57,2.9c-4.55,0-8.41-0.97-11.58-2.9c-3.16-1.93-5.74-4.49-7.71-7.67c-1.98-3.18-3.4-6.86-4.28-11.03
							c-0.88-4.17-1.32-8.5-1.32-12.98S2170.9,669.65,2171.84,665.48z M2116.44,540.25c2.02,0,4.2-0.65,6.52-1.95
							c2.32-1.3,4.46-2.96,6.42-4.98c1.95-2.02,3.59-4.31,4.88-6.88c1.29-2.57,1.94-5.11,1.94-7.65h6.92v60.96h10.45v6h-27.87v-6
							h10.5v-45.72c-0.6,1.4-1.54,2.9-2.84,4.49c-1.29,1.59-2.82,3.05-4.58,4.36c-1.76,1.32-3.69,2.42-5.8,3.31
							c-2.11,0.89-4.29,1.33-6.54,1.33V540.25z M1782.56,1044.64c2.02,0,4.2-0.65,6.52-1.95c2.32-1.3,4.46-2.96,6.42-4.98
							c1.95-2.02,3.59-4.31,4.88-6.87c1.29-2.57,1.94-5.11,1.94-7.65h6.92v60.96h10.45v6h-27.87v-6h10.5v-45.72
							c-0.6,1.4-1.54,2.9-2.84,4.49c-1.29,1.59-2.82,3.05-4.58,4.36c-1.76,1.32-3.69,2.42-5.8,3.31s-4.29,1.33-6.54,1.33V1044.64z
							 M1829.35,1195.83c-0.9,4.17-2.33,7.85-4.28,11.03c-1.96,3.18-4.52,5.74-7.69,7.67c-3.17,1.93-7.03,2.9-11.57,2.9
							c-4.55,0-8.41-0.97-11.58-2.9c-3.16-1.93-5.74-4.49-7.71-7.67c-1.98-3.18-3.4-6.86-4.28-11.03c-0.88-4.17-1.32-8.5-1.32-12.98
							c0-4.48,0.46-8.81,1.4-12.98c0.93-4.17,2.37-7.87,4.33-11.08c1.95-3.22,4.52-5.79,7.69-7.72c3.16-1.93,6.99-2.9,11.47-2.9
							c4.48,0,8.3,0.97,11.47,2.9c3.17,1.93,5.75,4.51,7.74,7.72s3.43,6.91,4.33,11.08c0.89,4.18,1.34,8.5,1.34,12.98
							C1830.69,1187.34,1830.24,1191.66,1829.35,1195.83z M1838.21,666.35c2.02,0,4.2-0.65,6.52-1.95c2.32-1.3,4.46-2.96,6.42-4.98
							c1.95-2.02,3.59-4.31,4.88-6.88c1.29-2.57,1.94-5.11,1.94-7.65h6.92v60.96h10.45v6h-27.87v-6h10.5v-45.72
							c-0.6,1.4-1.54,2.9-2.84,4.49c-1.29,1.59-2.82,3.05-4.58,4.36c-1.76,1.32-3.69,2.42-5.8,3.31c-2.11,0.89-4.29,1.33-6.54,1.33
							V666.35z M1875.34,1342.35h-27.87v-6h10.5v-45.72c-0.6,1.4-1.54,2.9-2.84,4.49c-1.29,1.59-2.82,3.05-4.58,4.36
							c-1.76,1.32-3.69,2.42-5.8,3.31s-4.29,1.33-6.54,1.33v-7.29c2.02,0,4.2-0.65,6.52-1.95c2.32-1.3,4.46-2.96,6.42-4.98
							c1.95-2.02,3.59-4.31,4.88-6.88c1.29-2.57,1.94-5.11,1.94-7.65h6.92v60.96h10.45V1342.35z M1885,1195.83
							c-0.9,4.17-2.33,7.85-4.28,11.03c-1.96,3.18-4.52,5.74-7.69,7.67c-3.17,1.93-7.03,2.9-11.57,2.9c-4.55,0-8.41-0.97-11.58-2.9
							c-3.16-1.93-5.74-4.49-7.71-7.67c-1.98-3.18-3.4-6.86-4.28-11.03c-0.88-4.17-1.32-8.5-1.32-12.98c0-4.48,0.46-8.81,1.4-12.98
							c0.93-4.17,2.37-7.87,4.33-11.08c1.95-3.22,4.52-5.79,7.69-7.72c3.16-1.93,6.99-2.9,11.47-2.9c4.48,0,8.3,0.97,11.47,2.9
							c3.17,1.93,5.75,4.51,7.74,7.72s3.43,6.91,4.33,11.08c0.89,4.18,1.34,8.5,1.34,12.98
							C1886.34,1187.34,1885.89,1191.66,1885,1195.83z M1885,1069.73c-0.9,4.17-2.33,7.85-4.28,11.03
							c-1.96,3.18-4.52,5.74-7.69,7.67c-3.17,1.93-7.03,2.9-11.57,2.9c-4.55,0-8.41-0.97-11.58-2.9c-3.16-1.93-5.74-4.49-7.71-7.67
							c-1.98-3.18-3.4-6.86-4.28-11.03c-0.88-4.17-1.32-8.5-1.32-12.98c0-4.48,0.46-8.81,1.4-12.98c0.93-4.17,2.37-7.87,4.33-11.08
							c1.95-3.22,4.52-5.79,7.69-7.72c3.16-1.93,6.99-2.9,11.47-2.9c4.48,0,8.3,0.97,11.47,2.9c3.17,1.93,5.75,4.51,7.74,7.72
							s3.43,6.91,4.33,11.08c0.89,4.18,1.34,8.5,1.34,12.98C1886.34,1061.23,1885.89,1065.56,1885,1069.73z M1885,943.64
							c-0.9,4.17-2.33,7.85-4.28,11.03c-1.96,3.18-4.52,5.74-7.69,7.67c-3.17,1.93-7.03,2.9-11.57,2.9c-4.55,0-8.41-0.97-11.58-2.9
							c-3.16-1.93-5.74-4.49-7.71-7.67c-1.98-3.18-3.4-6.86-4.28-11.03s-1.32-8.5-1.32-12.98s0.46-8.81,1.4-12.98
							c0.93-4.17,2.37-7.87,4.33-11.08c1.95-3.22,4.52-5.79,7.69-7.72c3.16-1.93,6.99-2.9,11.47-2.9c4.48,0,8.3,0.97,11.47,2.9
							c3.17,1.93,5.75,4.51,7.74,7.72s3.43,6.91,4.33,11.08c0.89,4.18,1.34,8.5,1.34,12.98S1885.89,939.46,1885,943.64z
							 M1885,817.54c-0.9,4.17-2.33,7.85-4.28,11.03c-1.96,3.18-4.52,5.74-7.69,7.67c-3.17,1.93-7.03,2.9-11.57,2.9
							c-4.55,0-8.41-0.97-11.58-2.9c-3.16-1.93-5.74-4.49-7.71-7.67c-1.98-3.18-3.4-6.86-4.28-11.03s-1.32-8.5-1.32-12.98
							s0.46-8.81,1.4-12.98c0.93-4.17,2.37-7.87,4.33-11.08c1.95-3.22,4.52-5.79,7.69-7.72c3.16-1.93,6.99-2.9,11.47-2.9
							c4.48,0,8.3,0.97,11.47,2.9c3.17,1.93,5.75,4.51,7.74,7.72c1.99,3.22,3.43,6.91,4.33,11.08c0.89,4.18,1.34,8.5,1.34,12.98
							S1885.89,813.36,1885,817.54z M1893.85,540.25c2.02,0,4.2-0.65,6.52-1.95c2.32-1.3,4.46-2.96,6.42-4.98
							c1.95-2.02,3.59-4.31,4.88-6.88c1.29-2.57,1.94-5.11,1.94-7.65h6.92v60.96h10.45v6h-27.87v-6h10.5v-45.72
							c-0.6,1.4-1.54,2.9-2.84,4.49c-1.29,1.59-2.82,3.05-4.58,4.36c-1.76,1.32-3.69,2.42-5.8,3.31c-2.11,0.89-4.29,1.33-6.54,1.33
							V540.25z M1930.98,1216.26h-27.87v-6h10.5v-45.72c-0.6,1.4-1.54,2.9-2.84,4.49c-1.29,1.59-2.82,3.05-4.58,4.36
							c-1.76,1.32-3.69,2.42-5.8,3.31s-4.29,1.33-6.54,1.33v-7.29c2.02,0,4.2-0.65,6.52-1.95c2.32-1.3,4.46-2.96,6.42-4.98
							c1.95-2.02,3.59-4.31,4.88-6.87c1.29-2.57,1.94-5.11,1.94-7.65h6.92v60.96h10.45V1216.26z M1930.98,1090.15h-27.87v-6h10.5
							v-45.72c-0.6,1.4-1.54,2.9-2.84,4.49c-1.29,1.59-2.82,3.05-4.58,4.36c-1.76,1.32-3.69,2.42-5.8,3.31s-4.29,1.33-6.54,1.33
							v-7.29c2.02,0,4.2-0.65,6.52-1.95c2.32-1.3,4.46-2.96,6.42-4.98c1.95-2.02,3.59-4.31,4.88-6.87c1.29-2.57,1.94-5.11,1.94-7.65
							h6.92v60.96h10.45V1090.15z M1930.98,964.06h-27.87v-6h10.5v-45.72c-0.6,1.4-1.54,2.9-2.84,4.49
							c-1.29,1.59-2.82,3.05-4.58,4.36c-1.76,1.32-3.69,2.42-5.8,3.31c-2.11,0.89-4.29,1.33-6.54,1.33v-7.29
							c2.02,0,4.2-0.65,6.52-1.95c2.32-1.3,4.46-2.96,6.42-4.98c1.95-2.02,3.59-4.31,4.88-6.87c1.29-2.57,1.94-5.11,1.94-7.65h6.92
							v60.96h10.45V964.06z M1930.98,837.96h-27.87v-6h10.5v-45.72c-0.6,1.4-1.54,2.9-2.84,4.49c-1.29,1.59-2.82,3.05-4.58,4.36
							c-1.76,1.32-3.69,2.42-5.8,3.31c-2.11,0.89-4.29,1.33-6.54,1.33v-7.29c2.02,0,4.2-0.65,6.52-1.95
							c2.32-1.3,4.46-2.96,6.42-4.98c1.95-2.02,3.59-4.31,4.88-6.87c1.29-2.57,1.94-5.11,1.94-7.65h6.92v60.96h10.45V837.96z
							 M1940.64,691.44c-0.9,4.17-2.33,7.85-4.28,11.03c-1.96,3.18-4.52,5.74-7.69,7.67c-3.17,1.93-7.03,2.9-11.57,2.9
							c-4.55,0-8.41-0.97-11.58-2.9c-3.16-1.93-5.74-4.49-7.71-7.67c-1.98-3.18-3.4-6.86-4.28-11.03c-0.88-4.17-1.32-8.5-1.32-12.98
							s0.46-8.81,1.4-12.98c0.93-4.17,2.37-7.87,4.33-11.08c1.95-3.22,4.52-5.79,7.69-7.72c3.16-1.93,6.99-2.9,11.47-2.9
							c4.48,0,8.3,0.97,11.47,2.9c3.17,1.93,5.75,4.51,7.74,7.72c1.99,3.22,3.43,6.91,4.33,11.08c0.89,4.18,1.34,8.5,1.34,12.98
							S1941.54,687.27,1940.64,691.44z M1949.5,540.25c2.02,0,4.2-0.65,6.52-1.95c2.32-1.3,4.46-2.96,6.42-4.98
							c1.95-2.02,3.59-4.31,4.88-6.88c1.29-2.57,1.94-5.11,1.94-7.65h6.92v60.96h10.45v6h-27.87v-6h10.5v-45.72
							c-0.6,1.4-1.54,2.9-2.84,4.49c-1.29,1.59-2.82,3.05-4.58,4.36c-1.76,1.32-3.69,2.42-5.8,3.31c-2.11,0.89-4.29,1.33-6.54,1.33
							V540.25z M1949.5,666.35c2.02,0,4.2-0.65,6.52-1.95c2.32-1.3,4.46-2.96,6.42-4.98c1.95-2.02,3.59-4.31,4.88-6.88
							c1.29-2.57,1.94-5.11,1.94-7.65h6.92v60.96h10.45v6h-27.87v-6h10.5v-45.72c-0.6,1.4-1.54,2.9-2.84,4.49
							c-1.29,1.59-2.82,3.05-4.58,4.36c-1.76,1.32-3.69,2.42-5.8,3.31c-2.11,0.89-4.29,1.33-6.54,1.33V666.35z M1996.29,943.64
							c-0.9,4.17-2.33,7.85-4.28,11.03c-1.96,3.18-4.52,5.74-7.69,7.67c-3.17,1.93-7.03,2.9-11.57,2.9c-4.55,0-8.41-0.97-11.58-2.9
							c-3.16-1.93-5.74-4.49-7.71-7.67c-1.98-3.18-3.4-6.86-4.28-11.03s-1.32-8.5-1.32-12.98s0.46-8.81,1.4-12.98
							c0.93-4.17,2.37-7.87,4.33-11.08c1.95-3.22,4.52-5.79,7.69-7.72c3.16-1.93,6.99-2.9,11.47-2.9c4.48,0,8.3,0.97,11.47,2.9
							c3.17,1.93,5.75,4.51,7.74,7.72s3.43,6.91,4.33,11.08c0.89,4.18,1.34,8.5,1.34,12.98S1997.18,939.46,1996.29,943.64z
							 M1996.29,817.54c-0.9,4.17-2.33,7.85-4.28,11.03c-1.96,3.18-4.52,5.74-7.69,7.67c-3.17,1.93-7.03,2.9-11.57,2.9
							c-4.55,0-8.41-0.97-11.58-2.9c-3.16-1.93-5.74-4.49-7.71-7.67c-1.98-3.18-3.4-6.86-4.28-11.03s-1.32-8.5-1.32-12.98
							s0.46-8.81,1.4-12.98c0.93-4.17,2.37-7.87,4.33-11.08c1.95-3.22,4.52-5.79,7.69-7.72c3.16-1.93,6.99-2.9,11.47-2.9
							c4.48,0,8.3,0.97,11.47,2.9c3.17,1.93,5.75,4.51,7.74,7.72c1.99,3.22,3.43,6.91,4.33,11.08c0.89,4.18,1.34,8.5,1.34,12.98
							S1997.18,813.36,1996.29,817.54z M2042.28,711.86h-27.87v-6h10.5v-45.72c-0.6,1.4-1.54,2.9-2.84,4.49
							c-1.29,1.59-2.82,3.05-4.58,4.36c-1.76,1.32-3.69,2.42-5.8,3.31c-2.11,0.89-4.29,1.33-6.54,1.33v-7.29
							c2.02,0,4.2-0.65,6.52-1.95c2.32-1.3,4.46-2.96,6.42-4.98c1.95-2.02,3.59-4.31,4.88-6.88c1.29-2.57,1.94-5.11,1.94-7.65h6.92
							v60.96h10.45V711.86z M2051.94,565.34c-0.9,4.17-2.33,7.85-4.28,11.03c-1.96,3.18-4.52,5.74-7.69,7.67
							c-3.17,1.93-7.03,2.9-11.57,2.9c-4.55,0-8.41-0.97-11.58-2.9c-3.16-1.93-5.74-4.49-7.71-7.67c-1.98-3.18-3.4-6.86-4.28-11.03
							c-0.88-4.17-1.32-8.5-1.32-12.98s0.46-8.81,1.4-12.98c0.93-4.17,2.37-7.87,4.33-11.08c1.95-3.22,4.52-5.79,7.69-7.72
							c3.16-1.93,6.99-2.9,11.47-2.9c4.48,0,8.3,0.97,11.47,2.9c3.17,1.93,5.75,4.51,7.74,7.72c1.99,3.22,3.43,6.91,4.33,11.08
							c0.89,4.18,1.34,8.5,1.34,12.98S2052.83,561.17,2051.94,565.34z M2060.55,539.37c0.93-4.17,2.37-7.87,4.33-11.08
							c1.95-3.22,4.52-5.79,7.69-7.72c3.16-1.93,6.99-2.9,11.47-2.9c4.48,0,8.3,0.97,11.47,2.9c3.17,1.93,5.75,4.51,7.74,7.72
							c1.99,3.22,3.43,6.91,4.33,11.08c0.89,4.18,1.34,8.5,1.34,12.98s-0.45,8.81-1.34,12.98c-0.9,4.17-2.33,7.85-4.28,11.03
							c-1.96,3.18-4.52,5.74-7.69,7.67c-3.17,1.93-7.03,2.9-11.57,2.9c-4.55,0-8.41-0.97-11.58-2.9c-3.16-1.93-5.74-4.49-7.71-7.67
							c-1.98-3.18-3.4-6.86-4.28-11.03c-0.88-4.17-1.32-8.5-1.32-12.98S2059.61,543.55,2060.55,539.37z"/>
					</g>
				</g>
			</g>
			<g>
				<g>
					<g>
						<path class="st1" d="M2084.04,581.04c5.71,0,10.13-2.56,13.26-7.67c3.14-5.11,4.7-12.12,4.7-21.01c0-2.46-0.15-4.8-0.44-7.01
							c-0.29-2.21-0.7-4.32-1.21-6.34l-30.31,32.99C2073.33,578.03,2077.99,581.04,2084.04,581.04z"/>
					</g>
				</g>
			</g>
			<g>
				<g>
					<g>
						<path class="st1" d="M1925.28,652.24c-2.33-1.64-5.07-2.46-8.18-2.46c-5.84,0-10.31,2.56-13.42,7.67
							c-3.1,5.11-4.65,12.12-4.65,21.01c0,4.96,0.58,9.61,1.74,13.95l30.42-33.1C1929.59,656.24,1927.62,653.88,1925.28,652.24z"/>
					</g>
				</g>
			</g>
			<g>
				<g>
					<g>
						<path class="st1" d="M1933.42,665.12l-30.31,32.99c3.28,6.02,7.94,9.03,13.99,9.03c5.71,0,10.13-2.56,13.26-7.67
							c3.14-5.11,4.7-12.12,4.7-21.01c0-2.46-0.15-4.8-0.44-7.01C1934.34,669.25,1933.94,667.13,1933.42,665.12z"/>
					</g>
				</g>
			</g>
			<g>
				<g>
					<g>
						<path class="st1" d="M1819.9,785.41c-1.6-3.08-3.56-5.44-5.9-7.08c-0.24-0.17-0.53-0.23-0.78-0.38l-3.2,18.2L1819.9,785.41z"
							/>
					</g>
				</g>
			</g>
			<g>
				<g>
					<g>
						<path class="st1" d="M2320.71,659.32c-1.6-3.08-3.56-5.44-5.91-7.08c-2.33-1.64-5.07-2.46-8.18-2.46
							c-5.84,0-10.31,2.56-13.42,7.67c-3.1,5.11-4.65,12.12-4.65,21.01c0,4.96,0.58,9.61,1.74,13.95L2320.71,659.32z"/>
					</g>
				</g>
			</g>
			<g>
				<g>
					<g>
						<path class="st1" d="M1869.64,526.14c-2.22-1.56-4.83-2.33-7.75-2.4l-5.87,10.4l-4.41,25.12l23.94-26.05
							C1873.95,530.14,1871.98,527.78,1869.64,526.14z"/>
					</g>
				</g>
			</g>
			<g>
				<g>
					<g>
						<path class="st1" d="M1980.93,904.44c-2.33-1.64-5.07-2.46-8.18-2.46c-5.84,0-10.31,2.56-13.42,7.67
							c-3.1,5.11-4.65,12.12-4.65,21.01c0,4.96,0.58,9.61,1.74,13.95l30.42-33.1C1985.24,908.44,1983.27,906.08,1980.93,904.44z"/>
					</g>
				</g>
			</g>
			<g>
				<g>
					<g>
						<path class="st1" d="M1980.93,778.34c-2.33-1.64-5.07-2.46-8.18-2.46c-5.84,0-10.31,2.56-13.42,7.67
							c-3.1,5.11-4.65,12.12-4.65,21.01c0,4.96,0.58,9.61,1.74,13.95l30.42-33.1C1985.24,782.34,1983.27,779.98,1980.93,778.34z"/>
					</g>
				</g>
			</g>
			<g>
				<g>
					<g>
						<path class="st1" d="M1989.07,917.31l-30.31,32.99c3.28,6.02,7.94,9.03,13.99,9.03c5.71,0,10.13-2.56,13.26-7.67
							c3.14-5.11,4.7-12.12,4.7-21.01c0-2.46-0.15-4.8-0.44-7.01C1989.99,921.44,1989.58,919.33,1989.07,917.31z"/>
					</g>
				</g>
			</g>
			<g>
				<g>
					<g>
						<path class="st1" d="M2306.62,707.14c5.71,0,10.13-2.56,13.26-7.67c3.14-5.11,4.7-12.12,4.7-21.01c0-2.46-0.15-4.8-0.44-7.01
							c-0.29-2.21-0.7-4.32-1.21-6.34l-30.31,32.99C2295.92,704.13,2300.58,707.14,2306.62,707.14z"/>
					</g>
				</g>
			</g>
			<g>
				<g>
					<g>
						<path class="st1" d="M1861.45,581.04c5.71,0,10.13-2.56,13.26-7.67c3.14-5.11,4.7-12.12,4.7-21.01c0-2.46-0.15-4.8-0.44-7.01
							c-0.29-2.21-0.7-4.32-1.21-6.34l-27.96,30.44l-0.83,4.76C1852.14,578.67,1856.25,581.04,1861.45,581.04z"/>
					</g>
				</g>
			</g>
		</g>
		<path class="st4" d="M2037.27,777.87l19.61-111.71h72.21l20.24,111.71h221.38l-44.29-244.47l-18.72-32.85l-53.48-45.79
			l-34.76-12.94H1966c-8.06-0.26-40.78-0.38-70.1,23.97c-31.16,25.86-36.08,60.75-36.97,68.22
			c-42.78,243.69-85.55,487.37-128.33,731.06c2.56,5.23,33.18,65.11,102.23,75.19c62.63,9.14,106.32-30.06,111.9-35.24
			c17.72-100.94,35.44-201.89,53.16-302.83L2037.27,777.87z"/>
		<g>
			<path class="st1" d="M2095.08,1722.81c5.26,3.27,9.48,7.62,12.66,13.05c3.17,5.43,4.76,11.27,4.76,17.54
				c0,7.38-1.69,13.61-5.06,18.68c-3.38,5.08-8.3,9.92-14.78,14.51l3.24,8.77l9.11,25.47c7.69,21.71,14.44,40.22,20.25,55.53
				c0.54,1.67,0.81,2.79,0.81,3.34c0,1.67-0.64,2.96-1.92,3.86c-1.29,0.91-3.01,1.36-5.16,1.36h-15.39c-1.89,0-3.27-0.45-4.15-1.36
				c-0.88-0.9-1.66-2.19-2.33-3.86l-29.16-79.53l-17.82,9.81l-23.09,12.52v54.28c0,2.65-0.37,4.67-1.11,6.05
				c-0.74,1.39-2.53,2.09-5.37,2.09h-14.38c-1.89,0-3.41-0.66-4.56-1.98c-1.15-1.32-1.72-2.89-1.72-4.7l-0.41-153.64
				c0-1.67,0.64-3.2,1.92-4.59c1.28-1.39,2.87-2.09,4.76-2.09h72.09C2084.21,1717.9,2089.82,1719.54,2095.08,1722.81z
				 M2027.04,1791.17c34.69-17.67,53.46-28.81,56.3-33.4v0.21c0.81-1.25,1.22-2.71,1.22-4.38c0-2.22-0.74-4.1-2.23-5.64
				c-1.49-1.53-3.38-2.3-5.67-2.3h-49.61V1791.17z"/>
			<path class="st1" d="M2297.99,1852.23c-6.35,10.65-14.92,19.07-25.72,25.26c-10.8,6.19-22.61,9.29-35.44,9.29
				c-12.83,0-24.64-3.1-35.44-9.29c-10.8-6.19-19.41-14.61-25.82-25.26c-6.41-10.65-9.62-22.23-9.62-34.76v-32.77
				c0-12.53,3.21-24.08,9.62-34.65c6.41-10.57,15.05-18.96,25.92-25.15c10.87-6.19,22.71-9.29,35.54-9.29
				c12.82,0,24.64,3.1,35.44,9.29c10.8,6.19,19.34,14.54,25.62,25.05c6.28,10.51,9.42,22.1,9.42,34.76v32.77
				C2307.51,1830,2304.34,1841.59,2297.99,1852.23z M2274.3,1763.41c-3.92-6.54-9.18-11.72-15.79-15.55
				c-6.62-3.83-13.84-5.74-21.67-5.74c-7.83,0-15.09,1.95-21.77,5.85c-6.68,3.9-11.98,9.08-15.9,15.55
				c-3.92,6.47-5.87,13.54-5.87,21.19v32.77c0,7.66,1.96,14.75,5.87,21.29c3.91,6.54,9.21,11.73,15.9,15.55
				c6.68,3.83,13.94,5.74,21.77,5.74c7.83,0,15.05-1.91,21.67-5.74c6.61-3.83,11.88-9.01,15.79-15.55
				c3.91-6.54,5.87-13.64,5.87-21.29v-32.77C2280.17,1777.05,2278.21,1769.95,2274.3,1763.41z"/>
			<path class="st1" d="M2469.51,1862.36c-3.92,6.96-9.25,12.46-16,16.49c-6.75,4.04-14.11,6.05-22.07,6.05h-68.04
				c-1.89,0-3.41-0.66-4.56-1.98c-1.15-1.32-1.72-2.89-1.72-4.7l-0.41-153.64c0-1.95,0.64-3.55,1.92-4.8
				c1.28-1.25,2.87-1.88,4.76-1.88h66.42c6.21,0,11.91,1.6,17.11,4.8c5.2,3.2,9.32,7.51,12.35,12.94
				c3.04,5.43,4.56,11.34,4.56,17.74c0,7.1-1.22,12.88-3.65,17.33c-2.43,4.46-7.83,8.98-16.2,13.57c11.07,2.09,19.07,6.13,24,12.11
				c4.93,5.99,7.39,14.61,7.39,25.89v17.33C2475.39,1847.82,2473.43,1855.4,2469.51,1862.36z M2416.66,1772.8
				c10.8-6.54,17.08-11.2,18.83-13.99c0.81-1.25,1.22-3.06,1.22-5.43c0-2.09-0.64-3.89-1.92-5.43c-1.29-1.53-2.94-2.3-4.96-2.3
				h-46.17v45.93C2394.86,1785.61,2405.86,1779.35,2416.66,1772.8z M2383.65,1857.14h47.79c4.72,0,8.77-1.74,12.15-5.22l2.03-2.5
				c2.02-2.51,3.04-5.64,3.04-9.39l0.2-6.68l0.2-5.84c0-6.96-1.39-12-4.15-15.13c-2.77-3.13-6.25-4.7-10.43-4.7h-25.92l-24.91,13.99
				V1857.14z"/>
			<path class="st1" d="M2656.22,1852.23c-6.35,10.65-14.92,19.07-25.72,25.26c-10.8,6.19-22.61,9.29-35.44,9.29
				c-12.83,0-24.64-3.1-35.44-9.29c-10.8-6.19-19.41-14.61-25.82-25.26c-6.41-10.65-9.62-22.23-9.62-34.76v-32.77
				c0-12.53,3.21-24.08,9.62-34.65c6.41-10.57,15.05-18.96,25.92-25.15c10.87-6.19,22.71-9.29,35.54-9.29
				c12.82,0,24.64,3.1,35.44,9.29c10.8,6.19,19.34,14.54,25.62,25.05c6.28,10.51,9.42,22.1,9.42,34.76v32.77
				C2665.74,1830,2662.57,1841.59,2656.22,1852.23z M2632.53,1763.41c-3.92-6.54-9.18-11.72-15.79-15.55
				c-6.62-3.83-13.84-5.74-21.67-5.74c-7.83,0-15.09,1.95-21.77,5.85c-6.68,3.9-11.98,9.08-15.9,15.55
				c-3.92,6.47-5.87,13.54-5.87,21.19v32.77c0,7.66,1.96,14.75,5.87,21.29c3.91,6.54,9.21,11.73,15.9,15.55
				c6.68,3.83,13.94,5.74,21.77,5.74c7.83,0,15.05-1.91,21.67-5.74c6.61-3.83,11.88-9.01,15.79-15.55
				c3.91-6.54,5.87-13.64,5.87-21.29v-32.77C2638.4,1777.05,2636.44,1769.95,2632.53,1763.41z"/>
			<path class="st1" d="M2781.57,1876.76c0,2.65-0.37,4.67-1.11,6.05c-0.74,1.39-2.53,2.09-5.37,2.09h-13.97
				c-2.84,0-4.63-0.69-5.37-2.09c-0.74-1.39-1.11-3.41-1.11-6.05v-131.93h-39.29c-3.51,0-5.74-0.52-6.68-1.57
				c-0.95-1.04-1.42-3.24-1.42-6.58v-10.65c0-2.64,0.37-4.66,1.11-6.05c0.74-1.39,2.53-2.09,5.37-2.09h107.94
				c2.83,0,4.66,0.7,5.47,2.09c0.81,1.39,1.21,3.41,1.21,6.05v10.65c0,3.48-0.44,5.71-1.32,6.68c-0.88,0.98-3.07,1.46-6.58,1.46
				h-38.88V1876.76z"/>
			<path class="st1" d="M2897.1,1882.81c-1.28,1.39-2.87,2.09-4.76,2.09h-13.77c-1.89,0-3.38-0.66-4.46-1.98
				c-1.08-1.32-1.62-2.89-1.62-4.7l-0.4-153.64c0-1.81,0.61-3.37,1.82-4.7c1.21-1.32,2.77-1.98,4.66-1.98h13.77
				c1.89,0,3.47,0.7,4.76,2.09c1.28,1.39,1.92,2.92,1.92,4.59v153.64C2899.03,1879.89,2898.38,1881.43,2897.1,1882.81z"/>
			<path class="st1" d="M3046.14,1722.39c9.11,4.8,16.74,11.45,22.88,19.94c6.14,8.49,10.29,18.16,12.45,29.02l-0.2,2.09
				c-1.22,4.04-3.31,6.05-6.28,6.05h-13.57c-1.62,0-2.87-0.38-3.75-1.15c-0.88-0.76-1.72-1.91-2.53-3.44
				c-0.27-0.83-0.81-2.47-1.62-4.91c-0.81-2.43-1.65-4.56-2.53-6.37c-0.88-1.81-1.86-3.48-2.94-5.01c-3.65-5.15-8.24-9.15-13.77-12
				c-5.54-2.85-11.54-4.28-18.02-4.28c-7.16,0-13.74,1.85-19.74,5.53c-6.01,3.69-10.8,8.66-14.38,14.93
				c-3.58,6.26-5.37,13.08-5.37,20.46v36.32c0,7.38,1.79,14.2,5.37,20.46c3.58,6.26,8.37,11.24,14.38,14.93
				c6.01,3.69,12.59,5.53,19.74,5.53c6.48,0,12.49-1.46,18.02-4.38c5.53-2.92,10.26-7.03,14.17-12.32c1.89-2.64,3.34-5.32,4.35-8.04
				s1.99-6.02,2.94-9.92l-0.2,0.42c0.67-3.76,2.77-5.64,6.28-5.64h13.57c1.89,0,3.44,0.66,4.66,1.98c1.22,1.32,1.82,2.89,1.82,4.7
				c0,3.76-0.88,8.07-2.63,12.94c-2.97,8.77-7.7,16.74-14.18,23.9c-6.48,7.17-13.97,12.81-22.48,16.91
				c-8.51,4.1-17.28,6.16-26.33,6.16c-11.88,0-22.85-3.03-32.91-9.08c-10.06-6.05-18.06-14.26-24-24.63
				c-5.94-10.37-8.91-21.67-8.91-33.92v-36.32c0-12.24,2.97-23.59,8.91-34.03c5.94-10.44,13.94-18.72,24-24.84
				c10.06-6.12,21.03-9.19,32.91-9.19C3027.07,1715.19,3037.03,1717.59,3046.14,1722.39z"/>
			<path class="st1" d="M3241.26,1856.83c-2.83,7.86-6.55,13.88-11.14,18.06c-8.64,7.93-20.86,11.9-36.65,11.9h-15.39
				c-8.78,0-16.88-2.12-24.3-6.37c-7.43-4.24-13.37-9.98-17.82-17.22c-2.97-4.45-4.86-8.98-5.67-13.57c-0.95-5.15-1.42-9.15-1.42-12
				c0-2.85,0-4.49,0-4.91v0.42c0-2.64,0.37-4.66,1.11-6.05c0.74-1.39,2.53-2.09,5.37-2.09h13.77c3.24,0,5.26,1.67,6.08,5.01
				c0.4,1.53,0.61,2.89,0.61,4.07c0,1.18,0,2.05,0,2.61l0.41,5.64c1.08,5.15,3.68,9.39,7.8,12.73c4.12,3.34,8.81,5.01,14.07,5.01
				h15.39c6.21,0,11.61-1.63,16.2-4.91c4.59-3.27,7.36-7.62,8.3-13.05c0.27-1.95,0.41-3.34,0.41-4.17c0.4-5.85-0.61-9.88-3.04-12.11
				c-2.02-1.81-4.83-3.3-8.4-4.49c-3.58-1.18-9.15-2.68-16.71-4.49c-1.08-0.14-3.58-0.7-7.49-1.67c-10.93-2.5-20.15-5.25-27.64-8.25
				c-7.49-2.99-13.74-7.2-18.73-12.63c-5-5.43-7.49-12.53-7.49-21.29v-2.92c0-0.42,0-2.09,0-5.01s0.41-6.05,1.21-9.39l-0.2,0.21
				c1.35-7.65,4.39-14.51,9.11-20.56c4.72-6.05,10.53-10.82,17.42-14.3c6.88-3.48,14.11-5.22,21.67-5.22h15.39
				c5.94,0,11.75,1.04,17.42,3.13c5.67,2.09,10.8,5.08,15.39,8.98c4.59,3.76,8.17,9.05,10.73,15.86c2.56,6.82,3.71,14.2,3.44,22.13
				c-0.14,2.79-0.54,4.84-1.22,6.16c-0.68,1.32-2.43,1.98-5.26,1.98h-13.37c-1.89,0-3.41-0.66-4.56-1.98
				c-1.15-1.32-1.79-2.89-1.92-4.7c-0.27-8.63-2.13-14.85-5.57-18.68c-3.44-3.83-8.47-5.74-15.09-5.74h-15.39
				c-5.13,0-9.82,1.74-14.07,5.22c-4.25,3.48-6.92,7.86-8,13.15v-0.21c-0.41,2.92-0.61,4.66-0.61,5.22c0,3.9,1.28,7.17,3.85,9.81
				c2.7,2.79,5.6,4.59,8.71,5.43l23.29,6.68l10.12,2.92c6.88,1.95,12.15,3.55,15.8,4.8c4.86,1.67,9.58,4.04,14.17,7.1
				c4.32,3.06,7.76,7.13,10.33,12.21c2.56,5.08,3.85,11.03,3.85,17.85C3245.51,1841.06,3244.09,1848.96,3241.26,1856.83z"/>
		</g>
		<g>
			<path class="st1" d="M221.35,1884.91h-14.58c-1.89,0-3.21-0.38-3.95-1.15c-0.74-0.76-1.59-2.19-2.53-4.28l-18.43-54.9
				l-49.82,22.75l-11.14,32.15c-0.95,2.23-1.76,3.69-2.43,4.38c-0.68,0.7-2.09,1.04-4.25,1.04h-13.97c-1.76,0-3.31-0.63-4.66-1.88
				c-1.35-1.25-2.02-2.85-2.02-4.8c0-0.55,8.03-25.05,24.1-73.48c16.06-48.43,25.24-75.57,27.54-81.41
				c0.94-1.95,1.82-3.34,2.63-4.17s2.09-1.25,3.85-1.25h17.82c1.62,0,2.8,0.35,3.54,1.04c0.74,0.7,1.35,1.53,1.82,2.5
				c0.47,0.98,0.78,1.6,0.91,1.88l51.84,152.39l0.2,2.5C227.83,1882.68,225.67,1884.91,221.35,1884.91z M170.32,1792.22
				c-1.76-5.15-2.7-8-2.83-8.56c-0.27-1.11-0.61-2.19-1.01-3.24c-0.41-1.04-0.74-2.12-1.01-3.24l-1.82-5.64l-3.04-9.39l-16.4,47.39
				l27.95-12.73C171.33,1794.59,170.72,1793.05,170.32,1792.22z"/>
			<path class="st1" d="M379.91,1858.39c-4.73,8.07-11.11,14.51-19.14,19.31c-8.03,4.8-16.71,7.2-26.02,7.2h-15.59
				c-8.78,0-16.94-2.22-24.5-6.68c-7.56-4.45-13.57-10.51-18.02-18.16c-4.46-7.65-6.68-16.14-6.68-25.47v-110.01
				c0-4.45,2.16-6.68,6.48-6.68H290c2.84,0,4.62,0.7,5.37,2.09c0.74,1.39,1.11,3.41,1.11,6.05v108.55c0,6.26,2.26,11.66,6.78,16.18
				c4.52,4.52,9.82,6.78,15.9,6.78h15.59c4.59,0,8.84-1.15,12.76-3.44c3.91-2.3,7.02-5.43,9.32-9.39c2.29-3.97,3.44-8.25,3.44-12.84
				v-105.84c0-2.64,0.41-4.66,1.21-6.05c0.81-1.39,2.63-2.09,5.47-2.09h13.37c4.46,0,6.68,2.23,6.68,6.68v107.3
				C387,1841.49,384.64,1850.32,379.91,1858.39z"/>
			<path class="st1" d="M505.46,1876.76c0,2.65-0.37,4.67-1.11,6.05c-0.74,1.39-2.53,2.09-5.37,2.09h-13.97
				c-2.83,0-4.63-0.69-5.37-2.09c-0.74-1.39-1.11-3.41-1.11-6.05v-131.93h-39.29c-3.51,0-5.74-0.52-6.68-1.57
				c-0.95-1.04-1.42-3.24-1.42-6.58v-10.65c0-2.64,0.37-4.66,1.11-6.05c0.74-1.39,2.53-2.09,5.37-2.09h107.94
				c2.83,0,4.66,0.7,5.47,2.09c0.81,1.39,1.22,3.41,1.22,6.05v10.65c0,3.48-0.44,5.71-1.32,6.68c-0.88,0.98-3.07,1.46-6.58,1.46
				h-38.88V1876.76z"/>
			<path class="st1" d="M725.39,1852.24c-6.35,10.65-14.92,19.07-25.72,25.26c-10.8,6.19-22.61,9.29-35.44,9.29
				c-12.83,0-24.64-3.1-35.44-9.29c-10.8-6.19-19.41-14.61-25.82-25.26c-6.41-10.65-9.62-22.23-9.62-34.76v-32.77
				c0-12.53,3.21-24.08,9.62-34.65c6.41-10.57,15.05-18.96,25.92-25.15c10.87-6.19,22.71-9.29,35.54-9.29
				c12.82,0,24.64,3.1,35.44,9.29c10.8,6.19,19.34,14.54,25.62,25.05c6.28,10.51,9.42,22.1,9.42,34.76v32.77
				C734.9,1830,731.73,1841.59,725.39,1852.24z M701.69,1763.41c-3.92-6.54-9.18-11.72-15.8-15.55c-6.62-3.83-13.84-5.74-21.67-5.74
				c-7.83,0-15.09,1.95-21.77,5.85c-6.68,3.9-11.98,9.08-15.9,15.55c-3.92,6.47-5.87,13.54-5.87,21.19v32.77
				c0,7.66,1.96,14.75,5.87,21.29c3.91,6.54,9.21,11.73,15.9,15.55c6.68,3.83,13.94,5.74,21.77,5.74c7.83,0,15.05-1.91,21.67-5.74
				c6.61-3.83,11.88-9.01,15.8-15.55c3.91-6.54,5.87-13.64,5.87-21.29v-32.77C707.56,1777.05,705.61,1769.96,701.69,1763.41z"/>
			<path class="st1" d="M905.92,1882.82c-1.28,1.39-2.87,2.09-4.76,2.09h-13.77c-2.57,0-4.46-1.04-5.67-3.13
				c-17.42-26.86-40.84-62.69-70.27-107.51v103.96c0,1.67-0.64,3.2-1.92,4.59c-1.28,1.39-2.87,2.09-4.76,2.09h-13.97
				c-1.89,0-3.38-0.66-4.46-1.98c-1.08-1.32-1.62-2.89-1.62-4.7l-0.41-153.64c0-1.81,0.61-3.37,1.82-4.7
				c1.21-1.32,2.77-1.98,4.66-1.98h14.99c2.43,0,4.25,1.12,5.47,3.34v-0.21l69.46,107.72v-104.17c0-1.67,0.64-3.2,1.92-4.59
				c1.28-1.39,2.87-2.09,4.76-2.09h13.77c1.89,0,3.47,0.7,4.76,2.09c1.28,1.39,1.92,2.92,1.92,4.59v153.64
				C907.84,1879.9,907.2,1881.43,905.92,1882.82z"/>
			<path class="st1" d="M1089.29,1852.24c-6.35,10.65-14.92,19.07-25.72,25.26c-10.8,6.19-22.61,9.29-35.44,9.29
				c-12.83,0-24.64-3.1-35.44-9.29c-10.8-6.19-19.41-14.61-25.82-25.26c-6.41-10.65-9.62-22.23-9.62-34.76v-32.77
				c0-12.53,3.21-24.08,9.62-34.65c6.41-10.57,15.05-18.96,25.92-25.15c10.87-6.19,22.71-9.29,35.54-9.29
				c12.82,0,24.64,3.1,35.44,9.29c10.8,6.19,19.34,14.54,25.62,25.05c6.28,10.51,9.42,22.1,9.42,34.76v32.77
				C1098.8,1830,1095.63,1841.59,1089.29,1852.24z M1065.59,1763.41c-3.92-6.54-9.18-11.72-15.8-15.55
				c-6.62-3.83-13.84-5.74-21.67-5.74c-7.83,0-15.09,1.95-21.77,5.85c-6.68,3.9-11.98,9.08-15.9,15.55
				c-3.92,6.47-5.87,13.54-5.87,21.19v32.77c0,7.66,1.96,14.75,5.87,21.29c3.91,6.54,9.21,11.73,15.9,15.55
				c6.68,3.83,13.94,5.74,21.77,5.74c7.83,0,15.05-1.91,21.67-5.74c6.61-3.83,11.88-9.01,15.8-15.55
				c3.91-6.54,5.87-13.64,5.87-21.29v-32.77C1071.47,1777.05,1069.51,1769.96,1065.59,1763.41z"/>
			<path class="st1" d="M1303.03,1719.26c2.09,0.91,3.14,3.38,3.14,7.41v152.18c0,2.65-0.58,4.32-1.72,5.01
				c-1.15,0.7-2.94,1.04-5.37,1.04h-11.95c-3.51,0-5.74-0.49-6.68-1.46c-0.95-0.97-1.42-3.27-1.42-6.89v-109.59l-4.05,5.43
				c-15.8,20.74-28.42,36.88-37.87,48.43l0.2-0.42c-0.81,1.39-1.59,2.26-2.33,2.61c-0.74,0.35-1.99,0.52-3.75,0.52h-7.9
				c-1.76,0-2.97-0.17-3.65-0.52c-0.68-0.35-1.62-1.29-2.83-2.82l-41.51-53.23v109.59c0,3.62-0.47,5.92-1.42,6.89
				c-0.95,0.97-3.17,1.46-6.68,1.46h-11.95c-2.3,0.14-3.98-0.14-5.06-0.83c-1.08-0.69-1.62-2.3-1.62-4.8l-0.41-152.81
				c0-3.76,1.18-6.12,3.54-7.1c2.36-0.97,5.09-1.46,8.2-1.46h7.29c2.16,0,3.85,0.25,5.06,0.73c1.21,0.49,2.36,1.5,3.44,3.03
				l51.64,66.8l51.84-67.43c1.62-2.09,4.25-3.13,7.9-3.13h7.9C1298.27,1717.9,1300.94,1718.36,1303.03,1719.26z"/>
			<path class="st1" d="M1487.61,1852.24c-6.35,10.65-14.92,19.07-25.72,25.26c-10.8,6.19-22.61,9.29-35.44,9.29
				c-12.83,0-24.64-3.1-35.44-9.29c-10.8-6.19-19.41-14.61-25.82-25.26c-6.41-10.65-9.62-22.23-9.62-34.76v-32.77
				c0-12.53,3.21-24.08,9.62-34.65c6.41-10.57,15.05-18.96,25.92-25.15c10.87-6.19,22.71-9.29,35.54-9.29
				c12.82,0,24.64,3.1,35.44,9.29c10.8,6.19,19.34,14.54,25.62,25.05c6.28,10.51,9.42,22.1,9.42,34.76v32.77
				C1497.13,1830,1493.96,1841.59,1487.61,1852.24z M1463.92,1763.41c-3.92-6.54-9.18-11.72-15.8-15.55
				c-6.62-3.83-13.84-5.74-21.67-5.74c-7.83,0-15.09,1.95-21.77,5.85c-6.68,3.9-11.98,9.08-15.9,15.55
				c-3.92,6.47-5.87,13.54-5.87,21.19v32.77c0,7.66,1.96,14.75,5.87,21.29c3.91,6.54,9.21,11.73,15.9,15.55
				c6.68,3.83,13.94,5.74,21.77,5.74c7.83,0,15.05-1.91,21.67-5.74c6.61-3.83,11.88-9.01,15.8-15.55
				c3.91-6.54,5.87-13.64,5.87-21.29v-32.77C1469.79,1777.05,1467.83,1769.96,1463.92,1763.41z"/>
			<path class="st1" d="M1656.5,1858.39c-4.73,8.07-11.11,14.51-19.14,19.31c-8.03,4.8-16.71,7.2-26.02,7.2h-15.59
				c-8.78,0-16.94-2.22-24.5-6.68c-7.56-4.45-13.57-10.51-18.02-18.16c-4.46-7.65-6.68-16.14-6.68-25.47v-110.01
				c0-4.45,2.16-6.68,6.48-6.68h13.57c2.84,0,4.62,0.7,5.37,2.09c0.74,1.39,1.11,3.41,1.11,6.05v108.55
				c0,6.26,2.26,11.66,6.78,16.18c4.52,4.52,9.82,6.78,15.9,6.78h15.59c4.59,0,8.84-1.15,12.76-3.44c3.91-2.3,7.02-5.43,9.32-9.39
				c2.29-3.97,3.44-8.25,3.44-12.84v-105.84c0-2.64,0.41-4.66,1.21-6.05c0.81-1.39,2.63-2.09,5.47-2.09h13.37
				c4.46,0,6.68,2.23,6.68,6.68v107.3C1663.59,1841.49,1661.22,1850.32,1656.5,1858.39z"/>
			<path class="st1" d="M1825.59,1856.83c-2.83,7.86-6.55,13.88-11.14,18.06c-8.64,7.93-20.86,11.9-36.65,11.9h-15.39
				c-8.78,0-16.88-2.12-24.3-6.37c-7.43-4.24-13.37-9.98-17.82-17.22c-2.97-4.45-4.86-8.98-5.67-13.57c-0.95-5.15-1.42-9.15-1.42-12
				c0-2.85,0-4.49,0-4.91v0.42c0-2.64,0.37-4.66,1.11-6.05c0.74-1.39,2.53-2.09,5.37-2.09h13.77c3.24,0,5.26,1.67,6.08,5.01
				c0.4,1.53,0.61,2.89,0.61,4.07c0,1.18,0,2.05,0,2.61l0.41,5.64c1.08,5.15,3.68,9.39,7.8,12.73c4.12,3.34,8.81,5.01,14.07,5.01
				h15.39c6.21,0,11.61-1.63,16.2-4.91c4.59-3.27,7.36-7.62,8.3-13.05c0.27-1.95,0.41-3.34,0.41-4.17c0.4-5.85-0.61-9.88-3.04-12.11
				c-2.02-1.81-4.83-3.3-8.4-4.49c-3.58-1.18-9.15-2.68-16.71-4.49c-1.08-0.14-3.58-0.7-7.49-1.67c-10.93-2.5-20.15-5.25-27.64-8.25
				c-7.49-2.99-13.74-7.2-18.73-12.63c-5-5.43-7.49-12.53-7.49-21.29v-2.92c0-0.42,0-2.09,0-5.01s0.41-6.05,1.21-9.39l-0.2,0.21
				c1.35-7.65,4.39-14.51,9.11-20.56c4.72-6.05,10.53-10.82,17.42-14.3c6.88-3.48,14.11-5.22,21.67-5.22h15.39
				c5.94,0,11.75,1.04,17.42,3.13c5.67,2.09,10.8,5.08,15.39,8.98c4.59,3.76,8.17,9.05,10.73,15.86c2.56,6.82,3.71,14.2,3.44,22.13
				c-0.14,2.79-0.54,4.84-1.22,6.16c-0.68,1.32-2.43,1.98-5.26,1.98h-13.37c-1.89,0-3.41-0.66-4.56-1.98
				c-1.15-1.32-1.79-2.89-1.92-4.7c-0.27-8.63-2.13-14.85-5.57-18.68c-3.44-3.83-8.47-5.74-15.09-5.74h-15.39
				c-5.13,0-9.82,1.74-14.07,5.22c-4.25,3.48-6.92,7.86-8,13.15v-0.21c-0.41,2.92-0.61,4.66-0.61,5.22c0,3.9,1.28,7.17,3.85,9.81
				c2.7,2.79,5.6,4.59,8.71,5.43l23.29,6.68l10.12,2.92c6.88,1.95,12.15,3.55,15.8,4.8c4.86,1.67,9.58,4.04,14.17,7.1
				c4.32,3.06,7.76,7.13,10.33,12.21c2.56,5.08,3.85,11.03,3.85,17.85C1829.85,1841.07,1828.43,1848.97,1825.59,1856.83z"/>
		</g>
		<g>
			<path class="st1" d="M3072.09,1575.19c-6.35,10.65-14.92,19.07-25.72,25.26c-10.8,6.19-22.61,9.29-35.44,9.29
				c-12.83,0-24.64-3.1-35.44-9.29c-10.8-6.19-19.41-14.61-25.82-25.26c-6.41-10.65-9.62-22.23-9.62-34.76v-32.77
				c0-12.53,3.21-24.08,9.62-34.65c6.41-10.57,15.05-18.96,25.92-25.15c10.87-6.19,22.71-9.29,35.54-9.29
				c12.82,0,24.64,3.1,35.44,9.29c10.8,6.19,19.34,14.54,25.62,25.05c6.28,10.51,9.42,22.1,9.42,34.76v32.77
				C3081.61,1552.96,3078.44,1564.55,3072.09,1575.19z M3048.4,1486.37c-3.92-6.54-9.18-11.72-15.79-15.55
				c-6.62-3.83-13.84-5.74-21.67-5.74c-7.83,0-15.09,1.95-21.77,5.85c-6.68,3.9-11.98,9.08-15.9,15.55
				c-3.92,6.47-5.87,13.54-5.87,21.19v32.77c0,7.66,1.96,14.75,5.87,21.29c3.91,6.54,9.21,11.73,15.9,15.55
				c6.68,3.83,13.94,5.74,21.77,5.74c7.83,0,15.05-1.91,21.67-5.74c6.61-3.83,11.88-9.01,15.79-15.55
				c3.91-6.54,5.87-13.64,5.87-21.29v-32.77C3054.27,1500.01,3052.31,1492.91,3048.4,1486.37z"/>
			<path class="st1" d="M3135.58,1605.98c-1.29-1.25-1.92-2.85-1.92-4.8l-0.41-153.64c0-1.95,0.64-3.55,1.92-4.8
				c1.28-1.25,2.8-1.88,4.56-1.88h93.96c2.84,0,4.66,0.7,5.47,2.09c0.81,1.39,1.22,3.41,1.22,6.05v11.48c0,2.64-0.17,4.49-0.51,5.53
				c-0.34,1.04-1.05,1.74-2.13,2.09c-1.08,0.35-2.91,0.52-5.47,0.52h-71.89v39.25h67.64c4.32,0,6.48,2.23,6.48,6.68v14.4
				c0,4.46-2.16,6.68-6.48,6.68h-67.64v63.88c0,2.79-0.37,4.87-1.11,6.26c-0.74,1.39-2.6,2.09-5.57,2.09h-13.77
				C3138.31,1607.86,3136.86,1607.24,3135.58,1605.98z"/>
		</g>
		<g>
			<path class="st1" d="M1049.15,1575.19c-6.35,10.65-14.92,19.07-25.72,25.26c-10.8,6.19-22.61,9.29-35.44,9.29
				c-12.83,0-24.64-3.1-35.44-9.29c-10.8-6.19-19.41-14.61-25.82-25.26c-6.41-10.65-9.62-22.23-9.62-34.76v-32.77
				c0-12.53,3.21-24.08,9.62-34.65c6.41-10.57,15.05-18.96,25.92-25.15c10.87-6.19,22.71-9.29,35.54-9.29
				c12.82,0,24.64,3.1,35.44,9.29c10.8,6.19,19.34,14.54,25.62,25.05c6.28,10.51,9.42,22.1,9.42,34.76v32.77
				C1058.67,1552.96,1055.5,1564.55,1049.15,1575.19z M1025.46,1486.37c-3.92-6.54-9.18-11.72-15.8-15.55
				c-6.62-3.83-13.84-5.74-21.67-5.74c-7.83,0-15.09,1.95-21.77,5.85c-6.68,3.9-11.98,9.08-15.9,15.55
				c-3.92,6.47-5.87,13.54-5.87,21.19v32.77c0,7.66,1.96,14.75,5.87,21.29c3.91,6.54,9.21,11.73,15.9,15.55
				c6.68,3.83,13.94,5.74,21.77,5.74c7.83,0,15.05-1.91,21.67-5.74c6.61-3.83,11.88-9.01,15.8-15.55
				c3.91-6.54,5.87-13.64,5.87-21.29v-32.77C1031.33,1500.01,1029.37,1492.91,1025.46,1486.37z"/>
			<path class="st1" d="M1205.89,1445.77c5.27,3.27,9.48,7.62,12.66,13.05c3.17,5.43,4.76,11.27,4.76,17.54
				c0,7.38-1.69,13.61-5.06,18.68c-3.38,5.08-8.3,9.92-14.78,14.51l3.24,8.77l9.11,25.47c7.7,21.71,14.44,40.22,20.25,55.53
				c0.54,1.67,0.81,2.79,0.81,3.34c0,1.67-0.64,2.96-1.92,3.86c-1.28,0.91-3.01,1.36-5.16,1.36h-15.39c-1.89,0-3.27-0.45-4.15-1.36
				c-0.88-0.9-1.65-2.19-2.33-3.86l-29.16-79.53l-17.82,9.81l-23.09,12.52v54.28c0,2.65-0.37,4.67-1.11,6.05
				c-0.74,1.39-2.53,2.09-5.37,2.09h-14.38c-1.89,0-3.41-0.66-4.56-1.98c-1.15-1.32-1.72-2.89-1.72-4.7l-0.41-153.64
				c0-1.67,0.64-3.2,1.92-4.59c1.28-1.39,2.87-2.09,4.76-2.09h72.09C1195.02,1440.86,1200.62,1442.5,1205.89,1445.77z
				 M1137.85,1514.13c34.69-17.67,53.46-28.81,56.3-33.4v0.21c0.81-1.25,1.21-2.71,1.21-4.38c0-2.22-0.74-4.1-2.23-5.64
				c-1.49-1.53-3.38-2.3-5.67-2.3h-49.61V1514.13z"/>
			<path class="st1" d="M1384.29,1450.25c10.94,8.21,19.3,19.28,25.11,33.19c0.4,0.83,0.61,1.74,0.61,2.71
				c0,1.67-0.64,3.03-1.92,4.07c-1.28,1.04-2.94,1.57-4.96,1.57h-14.58c-2.57,0-4.52-1.32-5.87-3.97l0.2,0.21
				c-3.92-7.38-8.84-13.05-14.78-17.01c-5.94-3.97-12.83-5.95-20.66-5.95c-7.16,0-13.81,1.85-19.95,5.53
				c-6.15,3.69-11,8.66-14.58,14.93c-3.58,6.26-5.37,13.08-5.37,20.46v33.82c0,6.96,1.01,12.91,3.04,17.85
				c2.02,4.94,4.93,9.43,8.71,13.46c7.96,7.93,17.35,11.9,28.15,11.9c8.1,0,15.49-1.91,22.17-5.74c6.68-3.83,11.71-9.36,15.09-16.6
				c1.35-3.06,2.36-7.1,3.04-12.11l1.01-8.14h-34.83c-1.76,0-3.27-0.69-4.56-2.09c-1.28-1.39-1.92-2.92-1.92-4.59v-12.94
				c0-4.45,2.16-6.68,6.48-6.68h53.87c4.18,0,6.28,2.23,6.28,6.68l0.2,7.72c0.13,2.09,0.2,4.94,0.2,8.56
				c0,2.09-0.27,5.71-0.81,10.86c-0.68,6.68-1.42,11.55-2.23,14.61c-2.3,8.07-6.21,15.73-11.75,22.96
				c-6.07,7.93-13.3,13.95-21.67,18.06c-8.37,4.11-17.55,6.16-27.54,6.16c-12.69,0-24.34-2.89-34.93-8.66
				c-10.6-5.77-18.97-13.95-25.11-24.53c-6.14-10.58-9.21-22.82-9.21-36.74v-33.82c0-12.25,2.97-23.59,8.91-34.03
				c5.94-10.44,14-18.72,24.2-24.84c10.19-6.12,21.23-9.19,33.11-9.19C1361.07,1437.94,1373.36,1442.04,1384.29,1450.25z"/>
			<path class="st1" d="M1584.57,1607.86h-14.58c-1.89,0-3.21-0.38-3.95-1.15c-0.74-0.76-1.59-2.19-2.53-4.28l-18.43-54.9
				l-49.82,22.75l-11.14,32.15c-0.95,2.23-1.76,3.69-2.43,4.38c-0.68,0.7-2.09,1.04-4.25,1.04h-13.97c-1.76,0-3.31-0.63-4.66-1.88
				c-1.35-1.25-2.02-2.85-2.02-4.8c0-0.55,8.03-25.05,24.1-73.48c16.06-48.43,25.24-75.57,27.54-81.41
				c0.94-1.95,1.82-3.34,2.63-4.17s2.09-1.25,3.85-1.25h17.82c1.62,0,2.8,0.35,3.54,1.04c0.74,0.7,1.35,1.53,1.82,2.5
				c0.47,0.98,0.78,1.6,0.91,1.88l51.84,152.39l0.2,2.5C1591.05,1605.64,1588.89,1607.86,1584.57,1607.86z M1533.54,1515.18
				c-1.76-5.15-2.7-8-2.83-8.56c-0.27-1.11-0.61-2.19-1.01-3.24c-0.41-1.04-0.74-2.12-1.01-3.24l-1.82-5.64l-3.04-9.39l-16.4,47.39
				l27.95-12.73C1534.55,1517.54,1533.94,1516.01,1533.54,1515.18z"/>
			<path class="st1" d="M1757.21,1605.77c-1.29,1.39-2.87,2.09-4.76,2.09h-13.77c-2.57,0-4.46-1.04-5.67-3.13
				c-17.42-26.86-40.84-62.69-70.27-107.51v103.96c0,1.67-0.64,3.2-1.92,4.59c-1.29,1.39-2.87,2.09-4.76,2.09h-13.97
				c-1.89,0-3.38-0.66-4.46-1.98c-1.08-1.32-1.62-2.89-1.62-4.7l-0.41-153.64c0-1.81,0.61-3.37,1.82-4.7
				c1.21-1.32,2.77-1.98,4.66-1.98h14.98c2.43,0,4.25,1.12,5.47,3.34v-0.21l69.46,107.72v-104.17c0-1.67,0.64-3.2,1.92-4.59
				c1.28-1.39,2.87-2.09,4.76-2.09h13.77c1.89,0,3.47,0.7,4.76,2.09c1.28,1.39,1.92,2.92,1.92,4.59v153.64
				C1759.13,1602.85,1758.49,1604.38,1757.21,1605.77z"/>
			<path class="st1" d="M1838.61,1605.77c-1.28,1.39-2.87,2.09-4.76,2.09h-13.77c-1.89,0-3.38-0.66-4.46-1.98
				c-1.08-1.32-1.62-2.89-1.62-4.7l-0.4-153.64c0-1.81,0.61-3.37,1.82-4.7c1.21-1.32,2.77-1.98,4.66-1.98h13.77
				c1.89,0,3.47,0.7,4.76,2.09c1.28,1.39,1.92,2.92,1.92,4.59v153.64C1840.54,1602.85,1839.89,1604.38,1838.61,1605.77z"/>
			<path class="st1" d="M1888.33,1605.67c-0.81-1.46-1.22-3.51-1.22-6.16v-8.98c0-1.67,0.61-3.41,1.82-5.22l82.82-116.27h-72.29
				c-3.51,0-5.74-0.49-6.68-1.46c-0.95-0.97-1.42-3.27-1.42-6.89V1449c0-2.78,0.37-4.83,1.11-6.16c0.74-1.32,2.67-1.98,5.77-1.98
				h103.08c1.89,0,3.44,0.66,4.66,1.98c1.21,1.32,1.82,2.89,1.82,4.7v13.15c0,1.95-0.54,3.48-1.62,4.59l-80.39,114.4h76.75
				c3.51,0,5.7,0.49,6.58,1.46c0.88,0.97,1.32,3.27,1.32,6.89v11.48c0,2.64-0.41,4.7-1.21,6.16c-0.81,1.46-2.63,2.19-5.47,2.19
				h-109.96C1890.96,1607.86,1889.14,1607.13,1888.33,1605.67z"/>
			<path class="st1" d="M2175.48,1607.86h-14.58c-1.89,0-3.21-0.38-3.95-1.15c-0.74-0.76-1.59-2.19-2.53-4.28l-18.43-54.9
				l-49.82,22.75l-11.14,32.15c-0.95,2.23-1.76,3.69-2.43,4.38c-0.68,0.7-2.09,1.04-4.25,1.04h-13.97c-1.76,0-3.31-0.63-4.66-1.88
				c-1.35-1.25-2.03-2.85-2.03-4.8c0-0.55,8.03-25.05,24.1-73.48c16.06-48.43,25.24-75.57,27.54-81.41
				c0.94-1.95,1.82-3.34,2.63-4.17c0.81-0.83,2.09-1.25,3.85-1.25h17.82c1.62,0,2.8,0.35,3.54,1.04c0.74,0.7,1.35,1.53,1.82,2.5
				c0.47,0.98,0.77,1.6,0.91,1.88l51.84,152.39l0.2,2.5C2181.96,1605.64,2179.8,1607.86,2175.48,1607.86z M2124.45,1515.18
				c-1.76-5.15-2.7-8-2.83-8.56c-0.27-1.11-0.61-2.19-1.01-3.24c-0.41-1.04-0.74-2.12-1.01-3.24l-1.82-5.64l-3.04-9.39l-16.4,47.39
				l27.95-12.73C2125.46,1517.54,2124.85,1516.01,2124.45,1515.18z"/>
			<path class="st1" d="M2292.93,1599.72c0,2.65-0.37,4.67-1.11,6.05c-0.74,1.39-2.53,2.09-5.37,2.09h-13.97
				c-2.84,0-4.63-0.69-5.37-2.09c-0.74-1.39-1.11-3.41-1.11-6.05v-131.93h-39.29c-3.51,0-5.74-0.52-6.68-1.57
				c-0.95-1.04-1.42-3.24-1.42-6.58V1449c0-2.64,0.37-4.66,1.11-6.05c0.74-1.39,2.53-2.09,5.37-2.09h107.94
				c2.83,0,4.66,0.7,5.47,2.09c0.81,1.39,1.21,3.41,1.21,6.05v10.65c0,3.48-0.44,5.71-1.32,6.68c-0.88,0.98-3.07,1.46-6.58,1.46
				h-38.88V1599.72z"/>
			<path class="st1" d="M2410.89,1605.77c-1.28,1.39-2.87,2.09-4.76,2.09h-13.77c-1.89,0-3.38-0.66-4.46-1.98
				c-1.08-1.32-1.62-2.89-1.62-4.7l-0.4-153.64c0-1.81,0.61-3.37,1.82-4.7c1.21-1.32,2.77-1.98,4.66-1.98h13.77
				c1.89,0,3.47,0.7,4.76,2.09c1.28,1.39,1.92,2.92,1.92,4.59v153.64C2412.81,1602.85,2412.17,1604.38,2410.89,1605.77z"/>
			<path class="st1" d="M2596.68,1575.19c-6.35,10.65-14.92,19.07-25.72,25.26c-10.8,6.19-22.61,9.29-35.44,9.29
				c-12.83,0-24.64-3.1-35.44-9.29c-10.8-6.19-19.41-14.61-25.82-25.26c-6.41-10.65-9.62-22.23-9.62-34.76v-32.77
				c0-12.53,3.21-24.08,9.62-34.65c6.41-10.57,15.05-18.96,25.92-25.15c10.87-6.19,22.71-9.29,35.54-9.29
				c12.82,0,24.64,3.1,35.44,9.29c10.8,6.19,19.34,14.54,25.62,25.05c6.28,10.51,9.42,22.1,9.42,34.76v32.77
				C2606.2,1552.96,2603.03,1564.55,2596.68,1575.19z M2572.99,1486.37c-3.92-6.54-9.18-11.72-15.79-15.55
				c-6.62-3.83-13.84-5.74-21.67-5.74c-7.83,0-15.09,1.95-21.77,5.85c-6.68,3.9-11.98,9.08-15.9,15.55
				c-3.92,6.47-5.87,13.54-5.87,21.19v32.77c0,7.66,1.96,14.75,5.87,21.29c3.91,6.54,9.21,11.73,15.9,15.55
				c6.68,3.83,13.94,5.74,21.77,5.74c7.83,0,15.05-1.91,21.67-5.74c6.61-3.83,11.88-9.01,15.79-15.55
				c3.91-6.54,5.87-13.64,5.87-21.29v-32.77C2578.86,1500.01,2576.9,1492.91,2572.99,1486.37z"/>
			<path class="st1" d="M2779.65,1605.77c-1.29,1.39-2.87,2.09-4.76,2.09h-13.77c-2.57,0-4.46-1.04-5.67-3.13
				c-17.42-26.86-40.84-62.69-70.27-107.51v103.96c0,1.67-0.64,3.2-1.92,4.59c-1.29,1.39-2.87,2.09-4.76,2.09h-13.97
				c-1.89,0-3.38-0.66-4.46-1.98c-1.08-1.32-1.62-2.89-1.62-4.7l-0.4-153.64c0-1.81,0.61-3.37,1.82-4.7
				c1.21-1.32,2.77-1.98,4.66-1.98h14.99c2.43,0,4.25,1.12,5.47,3.34v-0.21l69.46,107.72v-104.17c0-1.67,0.64-3.2,1.92-4.59
				c1.28-1.39,2.87-2.09,4.76-2.09h13.77c1.89,0,3.47,0.7,4.76,2.09c1.28,1.39,1.92,2.92,1.92,4.59v153.64
				C2781.57,1602.85,2780.93,1604.38,2779.65,1605.77z"/>
		</g>
		<g>
			<path class="st1" d="M220.9,1579.78c-2.83,7.86-6.55,13.88-11.14,18.06c-8.64,7.93-20.86,11.9-36.65,11.9h-15.39
				c-8.78,0-16.88-2.12-24.3-6.37c-7.43-4.24-13.37-9.98-17.82-17.22c-2.97-4.45-4.86-8.98-5.67-13.57c-0.95-5.15-1.42-9.15-1.42-12
				c0-2.85,0-4.49,0-4.91v0.42c0-2.64,0.37-4.66,1.11-6.05c0.74-1.39,2.53-2.09,5.37-2.09h13.77c3.24,0,5.27,1.67,6.08,5.01
				c0.41,1.53,0.61,2.89,0.61,4.07c0,1.18,0,2.05,0,2.61l0.4,5.64c1.08,5.15,3.68,9.39,7.8,12.73c4.12,3.34,8.81,5.01,14.07,5.01
				h15.39c6.21,0,11.61-1.63,16.2-4.91c4.59-3.27,7.36-7.62,8.3-13.05c0.27-1.95,0.4-3.34,0.4-4.17c0.41-5.85-0.61-9.88-3.04-12.11
				c-2.02-1.81-4.83-3.3-8.4-4.49c-3.58-1.18-9.15-2.68-16.71-4.49c-1.08-0.14-3.58-0.7-7.49-1.67c-10.94-2.5-20.15-5.25-27.64-8.25
				c-7.49-2.99-13.74-7.2-18.73-12.63c-5-5.43-7.49-12.53-7.49-21.29v-2.92c0-0.42,0-2.09,0-5.01s0.41-6.05,1.22-9.39l-0.2,0.21
				c1.35-7.65,4.39-14.51,9.11-20.56c4.72-6.05,10.53-10.82,17.42-14.3c6.89-3.48,14.11-5.22,21.67-5.22h15.39
				c5.94,0,11.75,1.04,17.42,3.13c5.67,2.09,10.8,5.08,15.39,8.98c4.59,3.76,8.17,9.05,10.73,15.86c2.56,6.82,3.71,14.2,3.44,22.13
				c-0.14,2.79-0.54,4.84-1.21,6.16c-0.68,1.32-2.43,1.98-5.27,1.98h-13.37c-1.89,0-3.41-0.66-4.56-1.98
				c-1.15-1.32-1.79-2.89-1.92-4.7c-0.27-8.63-2.13-14.85-5.57-18.68c-3.44-3.83-8.47-5.74-15.09-5.74h-15.39
				c-5.13,0-9.82,1.74-14.07,5.22c-4.25,3.48-6.92,7.86-8,13.15v-0.21c-0.4,2.92-0.61,4.66-0.61,5.22c0,3.9,1.28,7.17,3.85,9.81
				c2.7,2.79,5.6,4.59,8.71,5.43l23.29,6.68l10.13,2.92c6.89,1.95,12.15,3.55,15.8,4.8c4.86,1.67,9.58,4.04,14.18,7.1
				c4.32,3.06,7.76,7.13,10.33,12.21c2.56,5.08,3.85,11.03,3.85,17.85C225.16,1564.02,223.74,1571.92,220.9,1579.78z"/>
			<path class="st1" d="M385.95,1581.35c-4.73,8.07-11.11,14.51-19.14,19.31c-8.03,4.8-16.71,7.2-26.02,7.2h-15.59
				c-8.78,0-16.94-2.22-24.5-6.68c-7.56-4.45-13.57-10.51-18.02-18.16c-4.46-7.65-6.68-16.14-6.68-25.47v-110.01
				c0-4.45,2.16-6.68,6.48-6.68h13.57c2.84,0,4.62,0.7,5.37,2.09c0.74,1.39,1.11,3.41,1.11,6.05v108.55
				c0,6.26,2.26,11.66,6.78,16.18c4.52,4.52,9.82,6.78,15.9,6.78h15.59c4.59,0,8.84-1.15,12.76-3.44c3.91-2.3,7.02-5.43,9.32-9.39
				c2.29-3.97,3.44-8.25,3.44-12.84V1449c0-2.64,0.41-4.66,1.21-6.05c0.81-1.39,2.63-2.09,5.47-2.09h13.37
				c4.46,0,6.68,2.23,6.68,6.68v107.3C393.03,1564.44,390.67,1573.28,385.95,1581.35z"/>
			<path class="st1" d="M513.93,1599.72c0,2.65-0.37,4.67-1.11,6.05c-0.74,1.39-2.53,2.09-5.37,2.09h-13.97
				c-2.83,0-4.63-0.69-5.37-2.09c-0.74-1.39-1.11-3.41-1.11-6.05v-131.93h-39.29c-3.51,0-5.74-0.52-6.68-1.57
				c-0.95-1.04-1.42-3.24-1.42-6.58V1449c0-2.64,0.37-4.66,1.11-6.05c0.74-1.39,2.53-2.09,5.37-2.09h107.94
				c2.83,0,4.66,0.7,5.47,2.09c0.81,1.39,1.22,3.41,1.22,6.05v10.65c0,3.48-0.44,5.71-1.32,6.68c-0.88,0.98-3.07,1.46-6.58,1.46
				h-38.88V1599.72z"/>
			<path class="st1" d="M702.87,1449.84c9.85,5.99,17.68,14.02,23.49,24.11c5.8,10.09,8.71,21.12,8.71,33.09v34.65
				c0,11.97-2.9,23-8.71,33.09c-5.81,10.09-13.64,18.13-23.49,24.11c-9.86,5.99-20.59,8.98-32.2,8.98h-57.31
				c-1.89,0-3.44-0.63-4.66-1.88c-1.22-1.25-1.82-2.85-1.82-4.8l-0.4-153.64c0-1.67,0.67-3.2,2.02-4.59
				c1.35-1.39,2.97-2.09,4.86-2.09h57.31C682.28,1440.86,693.01,1443.85,702.87,1449.84z M633.61,1580.1h37.06
				c6.75,0,12.99-1.74,18.73-5.22c5.74-3.48,10.29-8.17,13.67-14.09c3.37-5.91,5.06-12.28,5.06-19.1v-34.65
				c0-6.82-1.69-13.18-5.06-19.1c-3.38-5.91-7.93-10.61-13.67-14.09c-5.74-3.48-11.98-5.22-18.73-5.22h-37.06V1580.1z"/>
		</g>
	</g>
	<path class="st4" d="M911.53,607.47"/>
	<path class="st4" d="M1886.6,1350.7"/>
	<path class="st4" d="M1878.17,1359.89"/>
	<path class="st1" d="M1799.28,1369.09"/>
	<path class="st4" d="M1829.15,1334.11"/>
	<path class="st1" d="M158.85,496.15"/>
</g>
</svg>
