<svg xmlns="http://www.w3.org/2000/svg" width="622.001" height="285.941" viewBox="0 0 622.001 285.941">
  <g id="SOAR_Logo_v2" data-name="SOAR Logo v2" transform="translate(-83.763 -252.072)">
    <path id="Path_1" data-name="Path 1" d="M352.133,280.22a.368.368,0,0,1,.156.284c.057.511.128,1.008.2,1.505a.482.482,0,0,1-.128.426l-2.173,2.613a.4.4,0,0,0-.071.5c.27.568.525,1.136.767,1.718a.326.326,0,0,0,.369.241h3.366a.468.468,0,0,1,.412.2q.455.568.937,1.122a.438.438,0,0,1,.1.4c-.17,1.15-.312,2.286-.469,3.437a.4.4,0,0,0,.213.454q.781.483,1.52,1.008a.34.34,0,0,0,.454,0l2.84-1.86a.442.442,0,0,1,.426,0c.454.156.895.3,1.349.412a.51.51,0,0,1,.369.327c.483,1.051.952,2.088,1.42,3.138a.312.312,0,0,0,.341.227h1.889a.326.326,0,0,0,.369-.227c.469-1.051.951-2.116,1.42-3.167a.454.454,0,0,1,.327-.284c.454-.128.909-.27,1.349-.412a.47.47,0,0,1,.454,0l2.84,1.875a.313.313,0,0,0,.412,0c.511-.355,1.022-.7,1.548-1.023a.4.4,0,0,0,.2-.454c-.156-1.15-.312-2.315-.469-3.465a.4.4,0,0,1,.1-.341c.327-.383.653-.767.98-1.165a.41.41,0,0,1,.369-.17h3.266a.354.354,0,0,0,.383-.256q.355-.867.753-1.718a.369.369,0,0,0,0-.469l-2.187-2.641a.471.471,0,0,1-.114-.426,7.787,7.787,0,0,0,.2-1.42.5.5,0,0,1,.241-.4l2.84-1.917h.043a.311.311,0,0,0-.1-.3q-.143-.994-.27-1.974a.312.312,0,0,0-.256-.284c-.909-.27-1.789-.6-2.7-.824a1.419,1.419,0,0,1-1.15-1.037,3.926,3.926,0,0,0-.341-.767.5.5,0,0,1,0-.469c.511-1.037.952-2.088,1.42-3.124a.411.411,0,0,0-.085-.525c-.4-.469-.8-.937-1.179-1.42a.327.327,0,0,0-.412-.128l-3.252.966a.384.384,0,0,1-.369,0l-1.278-.852a.385.385,0,0,1-.185-.3c-.156-1.164-.341-2.315-.5-3.465a.4.4,0,0,0-.312-.383,19.242,19.242,0,0,1-1.946-.611,1.17,1.17,0,0,0-.327.284c-.7.824-1.392,1.661-2.116,2.471a.512.512,0,0,1-.426.2h-1.25a.51.51,0,0,1-.426-.185c-.611-.724-1.207-1.434-1.832-2.144a2.464,2.464,0,0,0-.6-.625,19.184,19.184,0,0,0-1.917.525.552.552,0,0,0-.44.525c-.142,1.065-.3,2.116-.454,3.181a.765.765,0,0,1-.369.582c-.3.2-.611.369-.895.6a.7.7,0,0,1-.682.114l-3-.895c-.2-.057-.383-.114-.54.071l-1.236,1.42a.541.541,0,0,0,0,.611l1.321,3.025a.608.608,0,0,1,0,.511c-.142.341-.312.668-.44,1.008a.953.953,0,0,1-.71.625c-.951.256-1.889.6-2.84.866a.581.581,0,0,0-.454.554c-.085.611-.128,1.221-.213,1.832v.256a.483.483,0,0,1,.142,0Z" fill="none"/>
    <path id="Path_2" data-name="Path 2" d="M452.383,272.835a5.072,5.072,0,0,0,.909-.866,3.749,3.749,0,0,0,.554-.88v9.018h-2.073v1.179h5.5v-1.179h-2V268.079h-1.42a3.318,3.318,0,0,1-.383,1.505,5.568,5.568,0,0,1-2.23,2.343,2.65,2.65,0,0,1-1.292.383v1.449a3.3,3.3,0,0,0,1.292-.27A5.442,5.442,0,0,0,452.383,272.835Z" fill="none"/>
    <path id="Path_3" data-name="Path 3" d="M452.383,297.715a5.072,5.072,0,0,0,.909-.866,3.749,3.749,0,0,0,.554-.88v9.018h-2.073v1.179h5.5v-1.179h-2V292.959h-1.42a3.318,3.318,0,0,1-.383,1.505,5.568,5.568,0,0,1-2.23,2.343,2.65,2.65,0,0,1-1.292.383v1.449a3.3,3.3,0,0,0,1.292-.27A5.4,5.4,0,0,0,452.383,297.715Z" fill="none"/>
    <path id="Path_4" data-name="Path 4" d="M450.721,354.065a4.583,4.583,0,0,0,1.52,1.52,4.843,4.843,0,0,0,4.573,0,4.529,4.529,0,0,0,1.52-1.52,6.93,6.93,0,0,0,.838-2.173l.014.014a12.508,12.508,0,0,0,0-5.127,6.9,6.9,0,0,0-.852-2.187,4.578,4.578,0,0,0-1.534-1.52,4.758,4.758,0,0,0-4.53,0,4.484,4.484,0,0,0-1.52,1.52,7.121,7.121,0,0,0-.852,2.187,11.69,11.69,0,0,0-.27,2.556,12.327,12.327,0,0,0,.256,2.556A6.708,6.708,0,0,0,450.721,354.065Zm3.806.909a3.025,3.025,0,0,1-2.755-1.775l5.969-6.494c0-.008,0-.016-.005-.025l.014.014-.01.01a10.527,10.527,0,0,1,.322,2.6,7.912,7.912,0,0,1-.923,4.147A2.906,2.906,0,0,1,454.527,354.974Zm0-11.3a2.733,2.733,0,0,1,1.619.483,3.791,3.791,0,0,1,1.165,1.406l-6.007,6.533a10.628,10.628,0,0,1-.341-2.755,7.977,7.977,0,0,1,.923-4.147A2.925,2.925,0,0,1,454.527,343.67Z" fill="none"/>
    <path id="Path_5" data-name="Path 5" d="M441.4,272.863a5.072,5.072,0,0,0,.909-.866,3.749,3.749,0,0,0,.554-.88v9.018h-2.073v1.179h5.553v-1.179h-2.059V268.107h-1.42a3.318,3.318,0,0,1-.383,1.505,5.568,5.568,0,0,1-2.23,2.343,2.65,2.65,0,0,1-1.292.383v1.449a3.3,3.3,0,0,0,1.292-.27A5.4,5.4,0,0,0,441.4,272.863Z" fill="none"/>
    <path id="Path_6" data-name="Path 6" d="M450.721,329.185a4.583,4.583,0,0,0,1.52,1.52,4.843,4.843,0,0,0,4.573,0,4.529,4.529,0,0,0,1.52-1.52,6.93,6.93,0,0,0,.838-2.173l.014.014a12.508,12.508,0,0,0,0-5.127,6.9,6.9,0,0,0-.852-2.187,4.578,4.578,0,0,0-1.534-1.52,4.758,4.758,0,0,0-4.53,0,4.484,4.484,0,0,0-1.52,1.52,7.121,7.121,0,0,0-.852,2.187,11.69,11.69,0,0,0-.27,2.556,12.327,12.327,0,0,0,.256,2.556A6.707,6.707,0,0,0,450.721,329.185Zm7.016-7.385.014.014-.01.01a10.527,10.527,0,0,1,.322,2.6,7.912,7.912,0,0,1-.923,4.147,2.914,2.914,0,0,1-2.613,1.52,3.025,3.025,0,0,1-2.755-1.775l5.969-6.494C457.739,321.817,457.739,321.809,457.737,321.8Zm-5.851-1.491a2.927,2.927,0,0,1,2.642-1.52,2.733,2.733,0,0,1,1.619.483,3.791,3.791,0,0,1,1.165,1.406L451.3,327.21a10.623,10.623,0,0,1-.341-2.755A7.965,7.965,0,0,1,451.886,320.309Z" fill="none"/>
    <path id="Path_7" data-name="Path 7" d="M268.151,509.248a8.571,8.571,0,0,0-8.571,8.57v6.461a8.571,8.571,0,0,0,17.142,0v-6.461A8.57,8.57,0,0,0,268.151,509.248Z" fill="none"/>
    <path id="Path_8" data-name="Path 8" d="M442.868,317.853a3.318,3.318,0,0,1-.383,1.505,5.562,5.562,0,0,1-2.23,2.343,2.65,2.65,0,0,1-1.292.383v1.42a3.3,3.3,0,0,0,1.292-.27,5.4,5.4,0,0,0,1.15-.653,5.072,5.072,0,0,0,.909-.866,3.749,3.749,0,0,0,.554-.88v9.018h-2.073v1.179h5.5l.057-1.15h-2.059V317.854h-1.421Z" fill="none"/>
    <path id="Path_9" data-name="Path 9" d="M505.7,304.3a4.583,4.583,0,0,0,1.52,1.52,4.843,4.843,0,0,0,4.573,0,4.529,4.529,0,0,0,1.52-1.52,6.93,6.93,0,0,0,.838-2.173,12.508,12.508,0,0,0,0-5.127,6.875,6.875,0,0,0-.852-2.187,4.578,4.578,0,0,0-1.534-1.52,4.758,4.758,0,0,0-4.53,0,4.484,4.484,0,0,0-1.52,1.52,7.121,7.121,0,0,0-.852,2.187h-.071a11.713,11.713,0,0,0-.185,2.57,12.327,12.327,0,0,0,.256,2.556A6.684,6.684,0,0,0,505.7,304.3Zm6.93-7.371a10.537,10.537,0,0,1,.327,2.627,7.916,7.916,0,0,1-.923,4.147,2.914,2.914,0,0,1-2.613,1.52,3.024,3.024,0,0,1-2.755-1.8Zm-5.851-1.519a2.927,2.927,0,0,1,2.642-1.52,2.733,2.733,0,0,1,1.619.483,3.789,3.789,0,0,1,1.165,1.42l-6.007,6.518a10.672,10.672,0,0,1-.341-2.755A7.98,7.98,0,0,1,506.775,295.415Z" fill="none"/>
    <path id="Path_10" data-name="Path 10" d="M494.647,279.481a4.574,4.574,0,0,0,1.52,1.52,4.843,4.843,0,0,0,4.573,0,4.529,4.529,0,0,0,1.52-1.52,6.93,6.93,0,0,0,.838-2.173,12.508,12.508,0,0,0,0-5.127,6.9,6.9,0,0,0-.852-2.187,4.578,4.578,0,0,0-1.534-1.52,4.758,4.758,0,0,0-4.53,0,4.484,4.484,0,0,0-1.52,1.52,7.121,7.121,0,0,0-.852,2.187,11.688,11.688,0,0,0-.256,2.57,12.327,12.327,0,0,0,.256,2.556A6.686,6.686,0,0,0,494.647,279.481Zm7.016-7.427a10.528,10.528,0,0,1,.327,2.627,7.912,7.912,0,0,1-.923,4.147,2.914,2.914,0,0,1-2.613,1.52,3.024,3.024,0,0,1-2.84-1.775Zm-5.865-1.519a2.927,2.927,0,0,1,2.641-1.52,2.733,2.733,0,0,1,1.619.483,3.8,3.8,0,0,1,1.165,1.42l-6.007,6.518a10.672,10.672,0,0,1-.341-2.755A7.971,7.971,0,0,1,495.8,270.535Z" fill="none"/>
    <path id="Path_11" data-name="Path 11" d="M300.908,457.833a1.552,1.552,0,0,0,.241-.866,1.52,1.52,0,0,0-1.476-1.562q-.043,0-.087,0l-9.785.043v8.975C292.955,462.817,300.07,459.2,300.908,457.833Z" fill="none"/>
    <path id="Path_12" data-name="Path 12" d="M506.207,273.474a5.4,5.4,0,0,0,1.15-.653,5.072,5.072,0,0,0,.909-.866,3.749,3.749,0,0,0,.554-.88v9.018h-2.073v1.179h5.5v-1.179h-2.059V268.065h-1.42a3.318,3.318,0,0,1-.383,1.505,5.568,5.568,0,0,1-2.23,2.343,2.65,2.65,0,0,1-1.292.383l.057,1.449A3.319,3.319,0,0,0,506.207,273.474Z" fill="none"/>
    <path id="Path_13" data-name="Path 13" d="M517.143,273.474a5.4,5.4,0,0,0,1.15-.653,5.072,5.072,0,0,0,.909-.866,3.751,3.751,0,0,0,.554-.88v9.018h-2.073v1.179h5.5v-1.179H521.12V268.065H519.7a3.318,3.318,0,0,1-.383,1.505,5.568,5.568,0,0,1-2.23,2.343,2.65,2.65,0,0,1-1.292.383l.057,1.449A3.323,3.323,0,0,0,517.143,273.474Z" fill="none"/>
    <path id="Path_14" data-name="Path 14" d="M366.917,461.667c-.284-.824-.525-1.69-.966-2.968l-3.238,9.344,5.524-2.5c-.483-1.321-.8-2.144-.923-2.6S367.031,462.121,366.917,461.667Z" fill="none"/>
    <path id="Path_15" data-name="Path 15" d="M494.647,304.362a4.574,4.574,0,0,0,1.52,1.52,4.843,4.843,0,0,0,4.573,0,4.529,4.529,0,0,0,1.52-1.52,6.93,6.93,0,0,0,.838-2.173,12.508,12.508,0,0,0,0-5.127,6.9,6.9,0,0,0-.852-2.187,4.567,4.567,0,0,0-1.534-1.519,4.758,4.758,0,0,0-4.53,0,4.489,4.489,0,0,0-1.52,1.519,7.121,7.121,0,0,0-.852,2.187V297a11.714,11.714,0,0,0-.256,2.627,12.327,12.327,0,0,0,.256,2.556A6.7,6.7,0,0,0,494.647,304.362Zm7.016-7.428a10.534,10.534,0,0,1,.327,2.627,7.916,7.916,0,0,1-.923,4.147,2.914,2.914,0,0,1-2.613,1.52,3.025,3.025,0,0,1-2.84-1.8Zm-5.865-1.519a2.927,2.927,0,0,1,2.641-1.52,2.733,2.733,0,0,1,1.619.483,3.789,3.789,0,0,1,1.165,1.42l-6.007,6.518a10.672,10.672,0,0,1-.341-2.755A7.971,7.971,0,0,1,495.8,295.415Z" fill="none"/>
    <path id="Path_16" data-name="Path 16" d="M516.631,304.3a4.574,4.574,0,0,0,1.52,1.52,4.843,4.843,0,0,0,4.573,0,4.529,4.529,0,0,0,1.52-1.52,6.93,6.93,0,0,0,.838-2.173,12.508,12.508,0,0,0,0-5.127,6.9,6.9,0,0,0-.852-2.187,4.578,4.578,0,0,0-1.534-1.52,4.758,4.758,0,0,0-4.53,0,4.484,4.484,0,0,0-1.52,1.52,7.122,7.122,0,0,0-.852,2.187h-.028a11.673,11.673,0,0,0-.227,2.57,12.325,12.325,0,0,0,.256,2.556A6.685,6.685,0,0,0,516.631,304.3Zm6.973-7.371a10.537,10.537,0,0,1,.327,2.627,7.916,7.916,0,0,1-.923,4.147,2.914,2.914,0,0,1-2.613,1.52,3.024,3.024,0,0,1-2.755-1.8Zm-5.851-1.519a2.927,2.927,0,0,1,2.641-1.52,2.733,2.733,0,0,1,1.619.483,3.789,3.789,0,0,1,1.165,1.42l-6.007,6.518a10.627,10.627,0,0,1-.341-2.755A7.991,7.991,0,0,1,517.753,295.415Z" fill="none"/>
    <path id="Path_17" data-name="Path 17" d="M472.691,279.439a4.583,4.583,0,0,0,1.52,1.52,4.843,4.843,0,0,0,4.573,0,4.529,4.529,0,0,0,1.52-1.52,6.93,6.93,0,0,0,.838-2.173,12.508,12.508,0,0,0,0-5.127,6.9,6.9,0,0,0-.852-2.187,4.578,4.578,0,0,0-1.534-1.52,4.758,4.758,0,0,0-4.53,0,4.484,4.484,0,0,0-1.52,1.52,7.121,7.121,0,0,0-.852,2.187v.043a11.733,11.733,0,0,0-.256,2.528,12.327,12.327,0,0,0,.256,2.556A6.72,6.72,0,0,0,472.691,279.439Zm7-7.385a10.528,10.528,0,0,1,.327,2.627,7.912,7.912,0,0,1-.923,4.147,2.914,2.914,0,0,1-2.613,1.52,3.024,3.024,0,0,1-2.769-1.789Zm-5.851-1.519a2.927,2.927,0,0,1,2.642-1.52,2.733,2.733,0,0,1,1.619.483,3.8,3.8,0,0,1,1.165,1.42l-6.007,6.518a10.672,10.672,0,0,1-.341-2.755A7.96,7.96,0,0,1,473.842,270.535Z" fill="none"/>
    <path id="Path_18" data-name="Path 18" d="M484.223,273.531a5.4,5.4,0,0,0,1.15-.653,5.072,5.072,0,0,0,.909-.866,3.749,3.749,0,0,0,.554-.88v9.018h-2.073v1.179h5.5V280.15H488.2V268.12h-1.42a3.318,3.318,0,0,1-.383,1.505,5.568,5.568,0,0,1-2.23,2.343,2.65,2.65,0,0,1-1.292.383l.057,1.449A3.281,3.281,0,0,0,484.223,273.531Z" fill="none"/>
    <path id="Path_19" data-name="Path 19" d="M466.244,292.986h-1.42a3.318,3.318,0,0,1-.383,1.505,5.568,5.568,0,0,1-2.23,2.343,2.65,2.65,0,0,1-1.292.383v1.42a3.3,3.3,0,0,0,1.292-.27,5.4,5.4,0,0,0,1.15-.653,5.072,5.072,0,0,0,.909-.866,3.749,3.749,0,0,0,.554-.88v9.018h-2.073v1.179h5.5l.057-1.15h-2.059V292.986Z" fill="none"/>
    <path id="Path_20" data-name="Path 20" d="M439.743,304.3a4.574,4.574,0,0,0,1.52,1.52,4.843,4.843,0,0,0,4.573,0,4.529,4.529,0,0,0,1.52-1.52,6.93,6.93,0,0,0,.838-2.173l.014.014a12.508,12.508,0,0,0,0-5.127,6.9,6.9,0,0,0-.852-2.187,4.567,4.567,0,0,0-1.534-1.519,4.758,4.758,0,0,0-4.53,0,4.489,4.489,0,0,0-1.52,1.519,7.121,7.121,0,0,0-.852,2.187,11.69,11.69,0,0,0-.27,2.556,12.327,12.327,0,0,0,.256,2.556A6.716,6.716,0,0,0,439.743,304.3Zm7.016-7.4.014.028-.007.008a10.525,10.525,0,0,1,.32,2.591,7.914,7.914,0,0,1-.923,4.147,2.914,2.914,0,0,1-2.613,1.52,3.025,3.025,0,0,1-2.755-1.775l5.972-6.482C446.763,296.93,446.762,296.918,446.759,296.906Zm-5.851-1.477a2.927,2.927,0,0,1,2.641-1.52,2.74,2.74,0,0,1,1.619.483,3.791,3.791,0,0,1,1.165,1.406l-6.007,6.532a10.623,10.623,0,0,1-.341-2.755A7.971,7.971,0,0,1,440.908,295.429Z" fill="none"/>
    <path id="Path_21" data-name="Path 21" d="M438.962,348.385a3.3,3.3,0,0,0,1.292-.27,5.4,5.4,0,0,0,1.15-.653,5.072,5.072,0,0,0,.909-.866,3.749,3.749,0,0,0,.554-.88v9.018h-2.073v1.179h5.5l.057-1.15h-2.059V342.735h-1.42a3.318,3.318,0,0,1-.383,1.505,5.562,5.562,0,0,1-2.23,2.343,2.65,2.65,0,0,1-1.292.383v1.419Z" fill="none"/>
    <path id="Path_22" data-name="Path 22" d="M444.288,367.613h-1.42a3.318,3.318,0,0,1-.383,1.505,5.568,5.568,0,0,1-2.23,2.343,2.65,2.65,0,0,1-1.292.383v1.42a3.3,3.3,0,0,0,1.292-.27,5.4,5.4,0,0,0,1.15-.653,5.072,5.072,0,0,0,.909-.866,3.749,3.749,0,0,0,.554-.88v9.018h-2.073v1.179h5.5l.057-1.15h-2.059V367.613Z" fill="none"/>
    <path id="Path_23" data-name="Path 23" d="M461.7,279.439a4.574,4.574,0,0,0,1.52,1.52,4.843,4.843,0,0,0,4.573,0,4.529,4.529,0,0,0,1.52-1.52,6.93,6.93,0,0,0,.838-2.173l.014.014a12.508,12.508,0,0,0,0-5.127,6.9,6.9,0,0,0-.852-2.187,4.578,4.578,0,0,0-1.534-1.52,4.758,4.758,0,0,0-4.53,0,4.484,4.484,0,0,0-1.52,1.52,7.121,7.121,0,0,0-.852,2.187,11.69,11.69,0,0,0-.27,2.556,12.327,12.327,0,0,0,.256,2.556A6.716,6.716,0,0,0,461.7,279.439Zm7.016-7.4.014.014-.01.01a10.527,10.527,0,0,1,.322,2.6,7.912,7.912,0,0,1-.923,4.147,2.914,2.914,0,0,1-2.613,1.52,3.025,3.025,0,0,1-2.755-1.775l5.969-6.494C468.717,272.056,468.717,272.048,468.715,272.04Zm-5.851-1.477a2.927,2.927,0,0,1,2.641-1.52,2.733,2.733,0,0,1,1.619.483,3.791,3.791,0,0,1,1.165,1.406l-6.007,6.533a10.672,10.672,0,0,1-.341-2.755A7.972,7.972,0,0,1,462.864,270.563Z" fill="none"/>
    <path id="Path_24" data-name="Path 24" d="M444.288,392.494h-1.42a3.318,3.318,0,0,1-.383,1.505,5.568,5.568,0,0,1-2.23,2.343,2.65,2.65,0,0,1-1.292.383v1.42a3.3,3.3,0,0,0,1.292-.27,5.4,5.4,0,0,0,1.15-.653,5.072,5.072,0,0,0,.909-.866,3.749,3.749,0,0,0,.554-.88v9.018h-2.073v1.179h5.5l.057-1.15h-2.059V392.494Z" fill="none"/>
    <path id="Path_25" data-name="Path 25" d="M429.333,298.4a5.4,5.4,0,0,0,1.15-.653,5.072,5.072,0,0,0,.909-.866,3.749,3.749,0,0,0,.554-.88v9.018h-2.073v1.179h5.5v-1.179H433.31V292.988h-1.42a3.331,3.331,0,0,1-.383,1.505,5.568,5.568,0,0,1-2.23,2.343,2.65,2.65,0,0,1-1.292.383l.057,1.449A3.315,3.315,0,0,0,429.333,298.4Z" fill="none"/>
    <path id="Path_26" data-name="Path 26" d="M196.347,509.248a8.571,8.571,0,0,0-8.571,8.57v6.461a8.571,8.571,0,0,0,17.142,0v-6.461A8.57,8.57,0,0,0,196.347,509.248Z" fill="none"/>
    <path id="Path_27" data-name="Path 27" d="M436.378,394.382a4.578,4.578,0,0,0-1.534-1.52,4.758,4.758,0,0,0-4.53,0,4.484,4.484,0,0,0-1.52,1.52,7.121,7.121,0,0,0-.852,2.187,11.69,11.69,0,0,0-.27,2.556,12.327,12.327,0,0,0,.256,2.556,6.715,6.715,0,0,0,.838,2.173,4.583,4.583,0,0,0,1.52,1.52,4.843,4.843,0,0,0,4.573,0,4.529,4.529,0,0,0,1.52-1.52,6.93,6.93,0,0,0,.838-2.173l.014.014a12.508,12.508,0,0,0,0-5.127A6.929,6.929,0,0,0,436.378,394.382Zm-7.03,7.456a10.672,10.672,0,0,1-.341-2.755,7.977,7.977,0,0,1,.923-4.147,2.927,2.927,0,0,1,2.642-1.52,2.74,2.74,0,0,1,1.619.483,3.791,3.791,0,0,1,1.165,1.406Zm5.837,1.363a2.914,2.914,0,0,1-2.613,1.52,3.025,3.025,0,0,1-2.755-1.775l5.969-6.494c0-.008,0-.016-.005-.025l.014.014-.01.01a10.527,10.527,0,0,1,.322,2.6A7.9,7.9,0,0,1,435.185,403.2Z" fill="none"/>
    <path id="Path_28" data-name="Path 28" d="M545.574,522.292h-5.113L535.59,525.1v6.959h9.43a3.207,3.207,0,0,0,2.4-1.037l.4-.5a3.023,3.023,0,0,0,.6-1.931v-2.385C548.415,523.243,546.995,522.292,545.574,522.292Z" fill="none"/>
    <path id="Path_29" data-name="Path 29" d="M197.59,455.447h-7.314v22h7.314a7.554,7.554,0,0,0,7.4-7.583v-6.831A7.554,7.554,0,0,0,197.59,455.447Z" fill="none"/>
    <path id="Path_30" data-name="Path 30" d="M346.729,509.29a8.571,8.571,0,0,0-8.571,8.57v6.461a8.571,8.571,0,0,0,17.142,0V517.86A8.571,8.571,0,0,0,346.729,509.29Z" fill="none"/>
    <path id="Path_31" data-name="Path 31" d="M436.378,369.5a4.578,4.578,0,0,0-1.534-1.52,4.758,4.758,0,0,0-4.53,0,4.484,4.484,0,0,0-1.52,1.52,7.121,7.121,0,0,0-.852,2.187,11.69,11.69,0,0,0-.27,2.556,12.327,12.327,0,0,0,.256,2.556,6.715,6.715,0,0,0,.838,2.173,4.583,4.583,0,0,0,1.52,1.52,4.843,4.843,0,0,0,4.573,0,4.529,4.529,0,0,0,1.52-1.52,6.93,6.93,0,0,0,.838-2.173l.014.014a12.508,12.508,0,0,0,0-5.127A6.919,6.919,0,0,0,436.378,369.5Zm-7.03,7.47a10.672,10.672,0,0,1-.341-2.755,7.977,7.977,0,0,1,.923-4.147,2.927,2.927,0,0,1,2.642-1.52,2.733,2.733,0,0,1,1.619.483,3.791,3.791,0,0,1,1.165,1.406Zm5.837,1.377a2.914,2.914,0,0,1-2.613,1.52,3.025,3.025,0,0,1-2.755-1.775l5.969-6.494c0-.008,0-.016-.005-.025l.014.014-.01.01a10.527,10.527,0,0,1,.322,2.6A7.9,7.9,0,0,1,435.185,378.349Z" fill="none"/>
    <path id="Path_32" data-name="Path 32" d="M97.965,516.327c-.284-.824-.525-1.69-.966-2.968L93.7,522.717l5.581-2.514c-.483-1.321-.795-2.144-.923-2.6S98.079,516.782,97.965,516.327Z" fill="none"/>
    <path id="Path_33" data-name="Path 33" d="M483.5,461.667c-.284-.824-.525-1.69-.966-2.968l-3.238,9.344,5.524-2.5c-.483-1.321-.8-2.144-.923-2.6S483.612,462.121,483.5,461.667Z" fill="none"/>
    <path id="Path_34" data-name="Path 34" d="M433.31,417.4h-1.42a3.318,3.318,0,0,1-.383,1.505,5.562,5.562,0,0,1-2.23,2.343,2.65,2.65,0,0,1-1.292.383v1.42a3.3,3.3,0,0,0,1.292-.27,5.4,5.4,0,0,0,1.15-.653,5.072,5.072,0,0,0,.909-.866,3.749,3.749,0,0,0,.554-.88V429.4h-2.073v1.179h5.5l.057-1.15h-2.059V417.4Z" fill="none"/>
    <path id="Path_35" data-name="Path 35" d="M545.816,512.706a2.026,2.026,0,0,0,.242-1.065,1.42,1.42,0,0,0-1.317-1.516c-.034,0-.069,0-.1,0H535.52l.071,9.046C538.672,517.52,545.063,513.941,545.816,512.706Z" fill="none"/>
    <path id="Path_36" data-name="Path 36" d="M506.612,509.248a8.57,8.57,0,0,0-8.571,8.57v6.461a8.571,8.571,0,0,0,17.142,0v-6.461A8.57,8.57,0,0,0,506.612,509.248Z" fill="none"/>
    <path id="Path_37" data-name="Path 37" d="M418.356,373.038a5.4,5.4,0,0,0,1.15-.653,5.072,5.072,0,0,0,.909-.866,3.749,3.749,0,0,0,.554-.88v9.018H418.9v1.179h5.5v-1.179h-2.059V367.629h-1.42a3.318,3.318,0,0,1-.383,1.505,5.568,5.568,0,0,1-2.23,2.343,2.65,2.65,0,0,1-1.292.383l.057,1.449A3.323,3.323,0,0,0,418.356,373.038Z" fill="none"/>
    <path id="Path_38" data-name="Path 38" d="M428.765,354.094a4.583,4.583,0,0,0,1.52,1.52,4.843,4.843,0,0,0,4.573,0,4.529,4.529,0,0,0,1.52-1.52,6.93,6.93,0,0,0,.838-2.173l.014.014a12.508,12.508,0,0,0,0-5.127,6.9,6.9,0,0,0-.852-2.187,4.578,4.578,0,0,0-1.534-1.52,4.758,4.758,0,0,0-4.53,0,4.484,4.484,0,0,0-1.52,1.52,7.121,7.121,0,0,0-.852,2.187,11.69,11.69,0,0,0-.27,2.556,12.327,12.327,0,0,0,.256,2.556A6.707,6.707,0,0,0,428.765,354.094Zm7.016-7.413.014.014-.01.01a10.527,10.527,0,0,1,.322,2.6,7.912,7.912,0,0,1-.923,4.147,2.914,2.914,0,0,1-2.613,1.52,3.025,3.025,0,0,1-2.755-1.775l5.969-6.494A.185.185,0,0,0,435.781,346.681Zm-5.851-1.491a2.927,2.927,0,0,1,2.642-1.52,2.733,2.733,0,0,1,1.619.483,3.791,3.791,0,0,1,1.165,1.406l-6.007,6.533a10.672,10.672,0,0,1-.341-2.755A7.962,7.962,0,0,1,429.93,345.19Z" fill="none"/>
    <path id="Path_39" data-name="Path 39" d="M659.337,478.147a8.57,8.57,0,0,0,8.571-8.57v-6.461a8.571,8.571,0,0,0-17.142,0v6.461A8.571,8.571,0,0,0,659.337,478.147Z" fill="none"/>
    <path id="Path_40" data-name="Path 40" d="M428.765,329.213a4.583,4.583,0,0,0,1.52,1.52,4.843,4.843,0,0,0,4.573,0,4.529,4.529,0,0,0,1.52-1.52,6.93,6.93,0,0,0,.838-2.173l.014.014a12.508,12.508,0,0,0,0-5.127,6.9,6.9,0,0,0-.852-2.187,4.578,4.578,0,0,0-1.534-1.52,4.758,4.758,0,0,0-4.53,0,4.484,4.484,0,0,0-1.52,1.52,7.121,7.121,0,0,0-.852,2.187,11.69,11.69,0,0,0-.27,2.556,12.327,12.327,0,0,0,.256,2.556A6.708,6.708,0,0,0,428.765,329.213Zm7.016-7.413.014.014-.01.01a10.527,10.527,0,0,1,.322,2.6,7.912,7.912,0,0,1-.923,4.147,2.914,2.914,0,0,1-2.613,1.52,3.025,3.025,0,0,1-2.755-1.775l5.969-6.494C435.784,321.817,435.783,321.809,435.781,321.8Zm-5.851-1.491a2.927,2.927,0,0,1,2.642-1.52,2.733,2.733,0,0,1,1.619.483,3.791,3.791,0,0,1,1.165,1.406l-6.007,6.532a10.666,10.666,0,0,1-.341-2.755A7.965,7.965,0,0,1,429.93,320.309Z" fill="none"/>
    <path id="Path_41" data-name="Path 41" d="M268.8,469.577v-6.461a8.571,8.571,0,0,0-17.142,0v6.461a8.571,8.571,0,0,0,17.142,0Z" fill="none"/>
    <path id="Path_42" data-name="Path 42" d="M574.106,469.577v-6.461a8.571,8.571,0,0,0-17.142,0v6.461a8.571,8.571,0,0,0,17.142,0Z" fill="none"/>
    <path id="Path_43" data-name="Path 43" d="M425.4,394.382a4.578,4.578,0,0,0-1.534-1.52,4.758,4.758,0,0,0-4.53,0,4.484,4.484,0,0,0-1.52,1.52,7.121,7.121,0,0,0-.852,2.187,11.69,11.69,0,0,0-.27,2.556,12.327,12.327,0,0,0,.256,2.556,6.715,6.715,0,0,0,.838,2.173,4.583,4.583,0,0,0,1.52,1.52,4.843,4.843,0,0,0,4.573,0,4.529,4.529,0,0,0,1.52-1.52,6.93,6.93,0,0,0,.838-2.173l.014.014a12.508,12.508,0,0,0,0-5.127A6.929,6.929,0,0,0,425.4,394.382Zm-7.059,7.456a10.672,10.672,0,0,1-.341-2.755,7.977,7.977,0,0,1,.923-4.147,2.927,2.927,0,0,1,2.642-1.52,2.74,2.74,0,0,1,1.619.483,3.791,3.791,0,0,1,1.165,1.406Zm5.866,1.363a2.914,2.914,0,0,1-2.613,1.52,3.025,3.025,0,0,1-2.755-1.775l5.969-6.494c0-.008,0-.016-.005-.025l.014.014-.01.01a10.527,10.527,0,0,1,.322,2.6A7.9,7.9,0,0,1,424.207,403.2Z" fill="none"/>
    <path id="Path_44" data-name="Path 44" d="M137.275,296.324a18.479,18.479,0,0,0,15.679-27.607,18.05,18.05,0,0,0-15.707-9.245,18.461,18.461,0,0,0,0,36.823Zm-9.1-18.746a9.1,9.1,0,1,1,8.96,9.244A9.1,9.1,0,0,1,128.174,277.578Z" fill="none"/>
    <path id="Path_45" data-name="Path 45" d="M577.294,509.248a8.57,8.57,0,0,0-8.571,8.57v6.461a8.571,8.571,0,0,0,17.142,0v-6.461A8.571,8.571,0,0,0,577.294,509.248Z" fill="none"/>
    <path id="Path_46" data-name="Path 46" d="M475.107,510.064q-.043,0-.087,0l-9.785.043v8.975c3.153-1.6,10.268-5.226,11.106-6.589a1.542,1.542,0,0,0,.241-.866A1.52,1.52,0,0,0,475.107,510.064Z" fill="none"/>
    <path id="Path_47" data-name="Path 47" d="M91.915,472.076a1.136,1.136,0,0,0-1.193-.994H88.01c-1.244,0-1.277.741-1.278,1.54a14.207,14.207,0,0,0,.284,3.317,7.265,7.265,0,0,0,1.122,2.684,9.687,9.687,0,0,0,8.308,4.658h3.039a10.468,10.468,0,0,0,7.229-2.343,12.041,12.041,0,0,0,3.124-8.222A6.931,6.931,0,0,0,107,466.78a12,12,0,0,0-2.84-1.42c-.994-.369-2.712-.824-5.113-1.52l-4.6-1.321a3.886,3.886,0,0,1-1.718-1.065,3.138,3.138,0,0,1-.639-2.968,4.558,4.558,0,0,1,4.36-3.621h3.068c2.556,0,3.962,1.307,4.076,4.814A1.336,1.336,0,0,0,104.869,461h2.641c1.278,0,1.278-.781,1.278-1.605a9.331,9.331,0,0,0-2.84-7.5,10.225,10.225,0,0,0-6.476-2.386H96.433a9.756,9.756,0,0,0-9.515,7.91,10.506,10.506,0,0,0-.241,2.84v.582c0,5.482,5.51,7.129,10.623,8.322,2.883.682,5.311,1.108,6.433,2.1a3.091,3.091,0,0,1,.6,2.386,5.7,5.7,0,0,1-.085.824,4.587,4.587,0,0,1-4.829,3.536H96.376a4.446,4.446,0,0,1-4.261-3.508,6.463,6.463,0,0,1-.085-1.108A3.468,3.468,0,0,0,91.915,472.076Z" fill="#fff"/>
    <path id="Path_48" data-name="Path 48" d="M86.732,472.687c0-.022,0-.043,0-.065,0-.007,0-.014,0-.021Z" fill="#fff"/>
    <path id="Path_49" data-name="Path 49" d="M141.55,449.98h-2.641c-1.236,0-1.321.781-1.321,1.605v20.833a5.07,5.07,0,0,1-5.027,5.1h-3.082a4.545,4.545,0,0,1-4.474-4.53V451.57c0-.824-.043-1.605-1.278-1.605h-2.684a1.165,1.165,0,0,0-1.278,1.321v21.657c0,.019,0,.039,0,.058a9.8,9.8,0,0,0,9.715,9.883h3.082a10.451,10.451,0,0,0,10.31-10.466V451.3a1.189,1.189,0,0,0,0-.337A1.163,1.163,0,0,0,141.55,449.98Z" fill="#fff"/>
    <path id="Path_50" data-name="Path 50" d="M174.626,449.98h-21.3c-1.278,0-1.278.781-1.278,1.605v2.1c0,1.321.185,1.605,1.6,1.605H161.4v26.031c0,.824.043,1.605,1.278,1.605h2.755c1.278,0,1.278-.781,1.278-1.605V455.292h7.669c1.406,0,1.562-.284,1.562-1.605v-2.1C175.947,450.761,175.862,449.98,174.626,449.98Z" fill="#fff"/>
    <path id="Path_51" data-name="Path 51" d="M197.647,449.965h-11.3a1.419,1.419,0,0,0-1.42,1.321l.085,30.319a1.162,1.162,0,0,0,0,.132,1.235,1.235,0,0,0,1.28,1.189h11.361a12.938,12.938,0,0,0,12.711-13.065V463.03A12.937,12.937,0,0,0,197.647,449.965Zm7.342,19.9a7.555,7.555,0,0,1-7.4,7.583h-7.314v-22h7.314a7.554,7.554,0,0,1,7.4,7.583Z" fill="#fff"/>
    <path id="Path_52" data-name="Path 52" d="M146.379,277.862a9.1,9.1,0,1,0-9.244,8.96A9.189,9.189,0,0,0,146.379,277.862Z" fill="#fff"/>
    <path id="Path_53" data-name="Path 53" d="M164.855,380.266,198.8,360.5l-40.248-65.51h.483l7.91-17.041.04-.085h74.633v-9.146l-70.374-.011,7.518-16.4H127.178l-9.331,5.851-11.063,19.555-.156,8.677ZM120.188,276.53a18.462,18.462,0,0,1,17.059-17.058,18.05,18.05,0,0,1,15.707,9.245,18.479,18.479,0,0,1-15.679,27.607l-.028-.028A18.463,18.463,0,0,1,120.188,276.53Z" fill="#fff"/>
    <path id="Path_54" data-name="Path 54" d="M172.915,286.766l-3.531,8.01H230.21l7.765-8.01Z" fill="#fff"/>
    <path id="Path_55" data-name="Path 55" d="M184.623,260.21h53.449l-7.766-8.009H188.154Z" fill="#fff"/>
    <path id="Path_56" data-name="Path 56" d="M217.132,389.739l-13.208-21.522-6.8,3.888L210.557,394a19.116,19.116,0,0,1,.568,19.186,17.994,17.994,0,0,1-16.034,9.77H87.873l9,8.009h98.219a25.632,25.632,0,0,0,22.85-13.889A27.233,27.233,0,0,0,217.132,389.739Z" fill="#fff"/>
    <path id="Path_57" data-name="Path 57" d="M168.843,388.2l.131.213H96.632l-9,8.009h86.254a5.055,5.055,0,0,0,4.431-2.67,5.367,5.367,0,0,0-.156-5.325l-2.5-4.068-6.721,3.84h-.1Z" fill="#fff"/>
    <path id="Path_58" data-name="Path 58" d="M199.933,406.2a14.684,14.684,0,0,0-.44-14.727l-9.42-15.34-6.808,3.891,9.653,15.724a6.561,6.561,0,0,1,.2,6.575,6.162,6.162,0,0,1-5.5,3.351H84.857v8.052H187.621A13.818,13.818,0,0,0,199.933,406.2Z" fill="#fff"/>
    <path id="Path_59" data-name="Path 59" d="M286.592,306.151v81.018a7.187,7.187,0,0,0,7.1,7.27h49.6l-4.029-8.308H294.645V306.15h-8.053Z" fill="#fff"/>
    <path id="Path_60" data-name="Path 60" d="M269.664,306.151v87.976a18.2,18.2,0,0,0,17.908,18.461h64.521l-4.029-8.308H287.572a10.013,10.013,0,0,1-9.856-10.154V306.15h-8.052Z" fill="#fff"/>
    <path id="Path_61" data-name="Path 61" d="M280.67,421.251a19.882,19.882,0,0,1-19.556-20.166V306.151h-8.052v94.934c0,15.621,12.384,28.4,27.608,28.4h79.618l-3.994-8.237H280.67Z" fill="#fff"/>
    <path id="Path_62" data-name="Path 62" d="M532.069,326.742H473.785l-1.578,8.99h52.9l16.1,88.888,6.537-9.859Z" fill="#fff"/>
    <path id="Path_63" data-name="Path 63" d="M517.952,345.119H470.56l-1.578,8.989h41.727l13.846,76.4,8.564-1.671Z" fill="#fff"/>
    <path id="Path_64" data-name="Path 64" d="M506.037,423.312l10.16,7.13-12.461-68.779h-36.08l-1.577,8.989h30.414Z" fill="#fff"/>
    <path id="Path_65" data-name="Path 65" d="M702.205,408.186l-2.954-15.2-46.028-31.6H678.6l7.527-3.209,10.637-10.964,3.11-7.753v-33H657.328V317.54h-42.62v70.1l60.954,41.85,14.756-3.039Z" fill="#fff"/>
    <path id="Path_66" data-name="Path 66" d="M601.941,288.073a5,5,0,0,0-4.914,5.07v83.786l.192,48.67,7.907-8.149-.16-40.521V296.324h96.117v-8.251Z" fill="#fff"/>
    <path id="Path_67" data-name="Path 67" d="M594.935,270.648a15.352,15.352,0,0,0-15.078,15.621v108.78l.126,33.074h8l-.127-33.145V286.213a7.243,7.243,0,0,1,7.1-7.342H701.082v-4.062l-1.669-4.161H594.935Z" fill="#fff"/>
    <path id="Path_68" data-name="Path 68" d="M571.067,425.621l-.185-48.351v-93.3a22.567,22.567,0,0,1,22.14-22.864H692.2l-4.864-5.013-7.527-3.209H593.022c-16.63,0-30.164,13.945-30.164,31.086v93.3l.153,40.049Z" fill="#fff"/>
    <path id="Path_69" data-name="Path 69" d="M266.3,255.311,255.6,266.374l-3.139,7.825v22.125h96.572V384.7l21.473,44.279,7.6-3.238,10.736-11.063,3.139-7.825V274.2l-3.181-7.825L378.066,255.31l-7.6-3.238H273.9Zm82.7,22.636c.085-.611.128-1.221.213-1.832a.584.584,0,0,1,.454-.554c.952-.27,1.889-.611,2.84-.866a.951.951,0,0,0,.71-.625c.128-.341.3-.667.44-1.008a.608.608,0,0,0,0-.511l-1.321-3.025a.541.541,0,0,1,0-.611l1.236-1.42c.156-.185.341-.128.54-.071l3,.895a.7.7,0,0,0,.682-.114c.284-.227.6-.4.895-.6a.768.768,0,0,0,.369-.582c.156-1.065.312-2.116.454-3.181a.553.553,0,0,1,.44-.525,19.062,19.062,0,0,1,1.917-.525,2.48,2.48,0,0,1,.6.625c.625.71,1.221,1.42,1.832,2.144a.513.513,0,0,0,.426.185h1.25a.509.509,0,0,0,.426-.2c.724-.809,1.42-1.647,2.116-2.471a1.156,1.156,0,0,1,.327-.284,19.159,19.159,0,0,0,1.946.611.4.4,0,0,1,.312.383c.156,1.15.341,2.3.5,3.465a.385.385,0,0,0,.185.3l1.278.852a.384.384,0,0,0,.369,0l3.252-.966a.327.327,0,0,1,.412.128c.383.483.781.951,1.179,1.42a.411.411,0,0,1,.085.525c-.469,1.037-.909,2.088-1.42,3.124a.5.5,0,0,0,0,.469,3.926,3.926,0,0,1,.341.767,1.421,1.421,0,0,0,1.15,1.037c.909.227,1.789.554,2.7.824a.312.312,0,0,1,.256.284q.127.98.27,1.974a.315.315,0,0,1,.1.3H381.7l-2.84,1.917a.5.5,0,0,0-.241.4,7.787,7.787,0,0,1-.2,1.42.466.466,0,0,0,.114.426l2.187,2.641a.369.369,0,0,1,0,.469q-.4.852-.753,1.718a.356.356,0,0,1-.383.256H376.32a.412.412,0,0,0-.369.17c-.327.4-.653.781-.98,1.165a.4.4,0,0,0-.1.341c.156,1.15.312,2.315.469,3.465a.4.4,0,0,1-.2.454c-.525.327-1.037.668-1.548,1.023a.313.313,0,0,1-.412,0l-2.84-1.875a.47.47,0,0,0-.454,0c-.44.142-.895.284-1.349.412a.454.454,0,0,0-.327.284c-.469,1.051-.952,2.116-1.42,3.167a.326.326,0,0,1-.369.227h-1.889a.312.312,0,0,1-.341-.227c-.469-1.051-.937-2.087-1.42-3.138a.512.512,0,0,0-.369-.327c-.454-.114-.895-.256-1.349-.412a.442.442,0,0,0-.426,0l-2.84,1.86a.34.34,0,0,1-.454,0q-.738-.525-1.52-1.008a.4.4,0,0,1-.213-.454c.156-1.15.3-2.286.469-3.437a.444.444,0,0,0-.1-.4q-.483-.553-.937-1.122a.468.468,0,0,0-.412-.2h-3.366a.326.326,0,0,1-.369-.241c-.241-.582-.5-1.15-.767-1.718a.4.4,0,0,1,.071-.5l2.173-2.613a.485.485,0,0,0,.128-.426c-.071-.5-.142-.994-.2-1.505a.366.366,0,0,0-.156-.284l-3-2.017a.483.483,0,0,0-.142,0v-.257Z" fill="#fff"/>
    <path id="Path_70" data-name="Path 70" d="M434.191,369.033a2.747,2.747,0,0,0-1.619-.483,2.926,2.926,0,0,0-2.642,1.52,7.972,7.972,0,0,0-.923,4.147,10.628,10.628,0,0,0,.341,2.755l6.007-6.533A3.806,3.806,0,0,0,434.191,369.033Z" fill="#fff"/>
    <path id="Path_71" data-name="Path 71" d="M435.781,371.575c0,.008,0,.016.005.025l.01-.01Z" fill="#fff"/>
    <path id="Path_72" data-name="Path 72" d="M429.816,378.094a3.026,3.026,0,0,0,2.755,1.775,2.91,2.91,0,0,0,2.613-1.52,7.912,7.912,0,0,0,.923-4.147,10.527,10.527,0,0,0-.322-2.6Z" fill="#fff"/>
    <path id="Path_73" data-name="Path 73" d="M435.781,396.427c0,.008,0,.016.005.025l.01-.01Z" fill="#fff"/>
    <path id="Path_74" data-name="Path 74" d="M429.816,402.946a3.026,3.026,0,0,0,2.755,1.775,2.91,2.91,0,0,0,2.613-1.52,7.912,7.912,0,0,0,.923-4.147,10.527,10.527,0,0,0-.322-2.6Z" fill="#fff"/>
    <path id="Path_75" data-name="Path 75" d="M509.488,255.467l-2-.753a2.84,2.84,0,0,0,1.946.753Z" fill="#fff"/>
    <path id="Path_76" data-name="Path 76" d="M412.235,393.9a2.747,2.747,0,0,0-1.619-.483,3.3,3.3,0,0,0-.6,0l-1.193,6.788,4.573-4.97A3.809,3.809,0,0,0,412.235,393.9Z" fill="#fff"/>
    <path id="Path_77" data-name="Path 77" d="M434.191,393.9a2.747,2.747,0,0,0-1.619-.483,2.926,2.926,0,0,0-2.642,1.52,7.972,7.972,0,0,0-.923,4.147,10.628,10.628,0,0,0,.341,2.755l6.007-6.533A3.806,3.806,0,0,0,434.191,393.9Z" fill="#fff"/>
    <path id="Path_78" data-name="Path 78" d="M435.355,320.679a3.8,3.8,0,0,0-1.165-1.406,2.747,2.747,0,0,0-1.619-.483,2.926,2.926,0,0,0-2.642,1.52,7.972,7.972,0,0,0-.923,4.147,10.623,10.623,0,0,0,.341,2.755Z" fill="#fff"/>
    <path id="Path_79" data-name="Path 79" d="M435.355,345.559a3.8,3.8,0,0,0-1.165-1.406,2.747,2.747,0,0,0-1.619-.483,2.926,2.926,0,0,0-2.642,1.52,7.972,7.972,0,0,0-.923,4.147,10.628,10.628,0,0,0,.341,2.755Z" fill="#fff"/>
    <path id="Path_80" data-name="Path 80" d="M409.749,420.654l.17.241v-.554A2.778,2.778,0,0,1,409.749,420.654Z" fill="#fff"/>
    <path id="Path_81" data-name="Path 81" d="M432.572,330.094a2.91,2.91,0,0,0,2.613-1.52,7.912,7.912,0,0,0,.923-4.147,10.527,10.527,0,0,0-.322-2.6l-5.969,6.494A3.023,3.023,0,0,0,432.572,330.094Z" fill="#fff"/>
    <path id="Path_82" data-name="Path 82" d="M435.781,321.8c0,.008,0,.016.005.025l.01-.01Z" fill="#fff"/>
    <path id="Path_83" data-name="Path 83" d="M432.572,354.974a2.91,2.91,0,0,0,2.613-1.52,7.912,7.912,0,0,0,.923-4.147,10.527,10.527,0,0,0-.322-2.6l-5.969,6.494A3.023,3.023,0,0,0,432.572,354.974Z" fill="#fff"/>
    <path id="Path_84" data-name="Path 84" d="M435.781,346.681c0,.008,0,.016.005.025l.01-.01Z" fill="#fff"/>
    <path id="Path_85" data-name="Path 85" d="M410.616,404.735a2.91,2.91,0,0,0,2.613-1.52,7.912,7.912,0,0,0,.923-4.147,10.528,10.528,0,0,0-.327-2.627l-5.368,5.837-.213,1.236A2.841,2.841,0,0,0,410.616,404.735Z" fill="#fff"/>
    <path id="Path_86" data-name="Path 86" d="M452.042,402.676l-.27.284c0,.1.114.156.17.241Z" fill="#fff"/>
    <path id="Path_87" data-name="Path 87" d="M529.8,319.2h2.741V319a2.85,2.85,0,0,0-1.051-.213A2.975,2.975,0,0,0,529.8,319.2Z" fill="#fff"/>
    <path id="Path_88" data-name="Path 88" d="M498.453,280.347a2.91,2.91,0,0,0,2.613-1.52,7.912,7.912,0,0,0,.923-4.147,10.528,10.528,0,0,0-.327-2.627l-6.05,6.518A3.024,3.024,0,0,0,498.453,280.347Z" fill="#fff"/>
    <path id="Path_89" data-name="Path 89" d="M501.223,270.918a3.789,3.789,0,0,0-1.165-1.42,2.747,2.747,0,0,0-1.619-.483,2.924,2.924,0,0,0-2.641,1.52,7.972,7.972,0,0,0-.923,4.147,10.628,10.628,0,0,0,.341,2.755Z" fill="#fff"/>
    <path id="Path_90" data-name="Path 90" d="M487.461,255.467a2.911,2.911,0,0,0,2.613-1.519,5.377,5.377,0,0,0,.469-1.051h-5.127l-.724.781A3.024,3.024,0,0,0,487.461,255.467Z" fill="#fff"/>
    <path id="Path_91" data-name="Path 91" d="M498.453,305.228a2.91,2.91,0,0,0,2.613-1.52,7.912,7.912,0,0,0,.923-4.147,10.528,10.528,0,0,0-.327-2.627l-6.05,6.49A3.028,3.028,0,0,0,498.453,305.228Z" fill="#fff"/>
    <path id="Path_92" data-name="Path 92" d="M512.2,295.8a3.789,3.789,0,0,0-1.165-1.42,2.747,2.747,0,0,0-1.619-.483,2.926,2.926,0,0,0-2.642,1.52,7.972,7.972,0,0,0-.923,4.147,10.628,10.628,0,0,0,.341,2.755Z" fill="#fff"/>
    <path id="Path_93" data-name="Path 93" d="M509.417,305.228a2.91,2.91,0,0,0,2.613-1.52,7.911,7.911,0,0,0,.923-4.147,10.525,10.525,0,0,0-.327-2.627l-5.965,6.49A3.028,3.028,0,0,0,509.417,305.228Z" fill="#fff"/>
    <path id="Path_94" data-name="Path 94" d="M423.184,393.9a2.747,2.747,0,0,0-1.619-.483,2.926,2.926,0,0,0-2.642,1.52,7.972,7.972,0,0,0-.923,4.147,10.628,10.628,0,0,0,.341,2.755l6.007-6.533A3.786,3.786,0,0,0,423.184,393.9Z" fill="#fff"/>
    <path id="Path_95" data-name="Path 95" d="M424.8,396.427c0,.008,0,.016.005.025l.01-.01Z" fill="#fff"/>
    <path id="Path_96" data-name="Path 96" d="M418.838,402.946a3.025,3.025,0,0,0,2.755,1.775,2.91,2.91,0,0,0,2.613-1.52,7.912,7.912,0,0,0,.923-4.147,10.527,10.527,0,0,0-.322-2.6Z" fill="#fff"/>
    <path id="Path_97" data-name="Path 97" d="M501.223,295.8a3.789,3.789,0,0,0-1.165-1.42,2.747,2.747,0,0,0-1.619-.483,2.924,2.924,0,0,0-2.641,1.52,7.972,7.972,0,0,0-.923,4.147,10.628,10.628,0,0,0,.341,2.755Z" fill="#fff"/>
    <path id="Path_98" data-name="Path 98" d="M447.086,424.119a.971.971,0,0,0,.014-.17,10.528,10.528,0,0,0-.327-2.627l-5.979,6.5a4.3,4.3,0,0,0,.383.554Z" fill="#fff"/>
    <path id="Path_99" data-name="Path 99" d="M445.168,418.78a2.747,2.747,0,0,0-1.619-.483,2.924,2.924,0,0,0-2.641,1.52,7.972,7.972,0,0,0-.923,4.147,10.628,10.628,0,0,0,.341,2.755l6.007-6.532A3.786,3.786,0,0,0,445.168,418.78Z" fill="#fff"/>
    <path id="Path_100" data-name="Path 100" d="M475.177,296.835a.881.881,0,0,1-.284.327h.838v-1.207A3.783,3.783,0,0,1,475.177,296.835Z" fill="#fff"/>
    <path id="Path_101" data-name="Path 101" d="M468.715,272.04c0,.008,0,.016.005.025l.01-.01Z" fill="#fff"/>
    <path id="Path_102" data-name="Path 102" d="M465.505,280.333a2.91,2.91,0,0,0,2.613-1.52,7.912,7.912,0,0,0,.923-4.147,10.527,10.527,0,0,0-.322-2.6l-5.969,6.494A3.025,3.025,0,0,0,465.505,280.333Z" fill="#fff"/>
    <path id="Path_103" data-name="Path 103" d="M468.289,270.932a3.8,3.8,0,0,0-1.165-1.406,2.747,2.747,0,0,0-1.619-.483,2.924,2.924,0,0,0-2.641,1.52,7.972,7.972,0,0,0-.923,4.147,10.628,10.628,0,0,0,.341,2.755Z" fill="#fff"/>
    <path id="Path_104" data-name="Path 104" d="M424.207,328.589a7.912,7.912,0,0,0,.923-4.147,10.528,10.528,0,0,0-.327-2.627l-2.741,2.982-.923,5.24a3.227,3.227,0,0,0,.44,0A2.914,2.914,0,0,0,424.207,328.589Z" fill="#fff"/>
    <path id="Path_105" data-name="Path 105" d="M479.267,270.918a3.789,3.789,0,0,0-1.165-1.42,2.747,2.747,0,0,0-1.619-.483,2.926,2.926,0,0,0-2.642,1.52,7.972,7.972,0,0,0-.923,4.147,10.628,10.628,0,0,0,.341,2.755Z" fill="#fff"/>
    <path id="Path_106" data-name="Path 106" d="M476.483,255.467a2.911,2.911,0,0,0,2.613-1.519,5.377,5.377,0,0,0,.469-1.051h-5.127l-.724.781A3.025,3.025,0,0,0,476.483,255.467Z" fill="#fff"/>
    <path id="Path_107" data-name="Path 107" d="M465.505,255.467a2.911,2.911,0,0,0,2.613-1.519,5.377,5.377,0,0,0,.469-1.051H463.46l-.724.781A3.025,3.025,0,0,0,465.505,255.467Z" fill="#fff"/>
    <path id="Path_108" data-name="Path 108" d="M490.017,303.708h.057a7.912,7.912,0,0,0,.923-4.147,10.528,10.528,0,0,0-.327-2.627l-5,5.4.469,2.6A2.953,2.953,0,0,0,490.017,303.708Z" fill="#fff"/>
    <path id="Path_109" data-name="Path 109" d="M489.08,294.392a2.747,2.747,0,0,0-1.619-.483,2.924,2.924,0,0,0-2.641,1.52,5.865,5.865,0,0,0-.667,1.747h.653l.7,3.806,4.758-5.169A3.8,3.8,0,0,0,489.08,294.392Z" fill="#fff"/>
    <path id="Path_110" data-name="Path 110" d="M453.633,393.559a2.955,2.955,0,0,0-1.747,1.377,7.972,7.972,0,0,0-.923,4.147,10.623,10.623,0,0,0,.341,2.755l1.079-1.179Z" fill="#fff"/>
    <path id="Path_111" data-name="Path 111" d="M496.863,319.2h3.011a2.743,2.743,0,0,0-1.42-.412A2.98,2.98,0,0,0,496.863,319.2Z" fill="#fff"/>
    <path id="Path_112" data-name="Path 112" d="M454.527,330.094a2.91,2.91,0,0,0,2.613-1.52,7.912,7.912,0,0,0,.923-4.147,10.527,10.527,0,0,0-.322-2.6l-5.969,6.494A3.025,3.025,0,0,0,454.527,330.094Z" fill="#fff"/>
    <path id="Path_113" data-name="Path 113" d="M457.737,321.8c0,.008,0,.016.005.025l.01-.01Z" fill="#fff"/>
    <path id="Path_114" data-name="Path 114" d="M439.772,428.706a6.715,6.715,0,0,1-.838-2.173,12.473,12.473,0,0,1-.256-2.556,11.683,11.683,0,0,1,.27-2.556,7.123,7.123,0,0,1,.852-2.187,4.484,4.484,0,0,1,1.52-1.52,4.758,4.758,0,0,1,4.53,0,4.579,4.579,0,0,1,1.534,1.52,6.874,6.874,0,0,1,.852,2.187,11.948,11.948,0,0,1,.227,1.818l3.124-18.376a4.562,4.562,0,0,1-.923-1.051,6.715,6.715,0,0,1-.838-2.173,12.4,12.4,0,0,1-.256-2.556,11.683,11.683,0,0,1,.27-2.556,7.123,7.123,0,0,1,.852-2.187,4.484,4.484,0,0,1,1.52-1.52,4,4,0,0,1,1.591-.5l2.017-11.517h-4.1v-1.179h2.073v-9.018a3.731,3.731,0,0,1-.554.88,5.073,5.073,0,0,1-.909.866,5.356,5.356,0,0,1-1.15.653,3.3,3.3,0,0,1-1.292.27v-1.42a2.665,2.665,0,0,0,1.292-.383,5.568,5.568,0,0,0,2.23-2.343,3.318,3.318,0,0,0,.383-1.505h1.42v12.028h.88l2.84-16.147,2.6-15.209a3.238,3.238,0,0,1-.653,0v-1.42a2.453,2.453,0,0,0,.937-.227l2.755-15.621h-1.86v-1.179h2.073v-9.018a3.731,3.731,0,0,1-.554.88,5.073,5.073,0,0,1-.909.866,5.356,5.356,0,0,1-1.15.653,3.3,3.3,0,0,1-1.292.27v-1.42a2.665,2.665,0,0,0,1.292-.383,5.559,5.559,0,0,0,2.2-2.372,3.318,3.318,0,0,0,.383-1.505h1.42v4.26l.5-2.84,3.863-22.04h1.42a2.7,2.7,0,0,0,1.236-.412,5.568,5.568,0,0,0,2.23-2.343,3.318,3.318,0,0,0,.383-1.505h1.42v4.26H482.9v-.156a7.123,7.123,0,0,1,.852-2.187,4.484,4.484,0,0,1,1.52-1.52,4.758,4.758,0,0,1,4.53,0,4.579,4.579,0,0,1,1.534,1.52,6.864,6.864,0,0,1,.852,2.187,12.508,12.508,0,0,1,0,5.127,6.914,6.914,0,0,1-.838,2.173,4.537,4.537,0,0,1-1.52,1.52,4.268,4.268,0,0,1-2.286.568,5.021,5.021,0,0,1-1.008-.114l2.343,12.923h6.249a4.454,4.454,0,0,1,1.136-1.037,4.758,4.758,0,0,1,4.53,0,4.525,4.525,0,0,1,1.136,1.037h6.462a3.294,3.294,0,0,0,.327-1.42h1.42v1.42h9.274a3.308,3.308,0,0,0,.327-1.42h1.42v1.42h6.9a4.454,4.454,0,0,1,1.136-1.037,4.262,4.262,0,0,1,2.258-.568,5.081,5.081,0,0,1,.824.1l-2.088-11.546h-1.42v-1.179h1.278l-1.25-6.93a5.278,5.278,0,0,1-.554.312,3.3,3.3,0,0,1-1.292.27v-1.42a2.665,2.665,0,0,0,1.292-.383l.3-.2L523.9,271.1l-3.692-6.476-9.359-8.009a5.037,5.037,0,0,1-1.264.156,4.266,4.266,0,0,1-2.286-.568,4.57,4.57,0,0,1-1.747-1.647,6.121,6.121,0,0,1-.327-.653l-2.67-.994h-3.508v2.315h2.059V256.4h-5.5v-1.179h2.073V252.91h-5.808a6.685,6.685,0,0,1-.682,1.647,4.538,4.538,0,0,1-1.52,1.52,4.843,4.843,0,0,1-4.573,0,4.583,4.583,0,0,1-1.52-1.52,6.52,6.52,0,0,1-.682-1.647h-2a6.685,6.685,0,0,1-.682,1.647,4.538,4.538,0,0,1-1.52,1.52,4.843,4.843,0,0,1-4.573,0,4.583,4.583,0,0,1-1.52-1.52,6.52,6.52,0,0,1-.682-1.647h-1.874a6.685,6.685,0,0,1-.682,1.647,4.538,4.538,0,0,1-1.52,1.52,4.843,4.843,0,0,1-4.573,0,4.583,4.583,0,0,1-1.52-1.52,6.52,6.52,0,0,1-.682-1.647h-5.808v2.315h2V256.4h-5.5v-1.179h2.073V252.91h-1.221l-5.681,2.1a4.517,4.517,0,0,1-1.15,1.051,3.888,3.888,0,0,1-1.307.5l-9.345,8.052-1.86,3.309a4.011,4.011,0,0,1,1.548.483,4.585,4.585,0,0,1,1.534,1.519,6.874,6.874,0,0,1,.852,2.187,12.508,12.508,0,0,1,0,5.127,6.914,6.914,0,0,1-.838,2.173,4.526,4.526,0,0,1-1.52,1.519,4.843,4.843,0,0,1-4.573,0,4.578,4.578,0,0,1-.454-.355l-6.561,37.349a3.794,3.794,0,0,1,.582.241,4.579,4.579,0,0,1,1.534,1.52,6.864,6.864,0,0,1,.852,2.187,12.508,12.508,0,0,1,0,5.127,6.905,6.905,0,0,1-.838,2.173,4.537,4.537,0,0,1-1.52,1.52,4.268,4.268,0,0,1-2.286.568,5.076,5.076,0,0,1-.639-.071l-2.7,15.38a5.568,5.568,0,0,0,2.23-2.343,3.318,3.318,0,0,0,.383-1.505h1.42v12.028h2.059v1.221h-5.5V354.79h2.073v-9.018a3.731,3.731,0,0,1-.554.88,5.073,5.073,0,0,1-.909.866,5.38,5.38,0,0,1-1.15.653l-.341.1-5.51,31.4h.909v1.179H412.26l-2.017,11.489h.383a4.262,4.262,0,0,1,2.258.568,4.579,4.579,0,0,1,1.534,1.52,6.864,6.864,0,0,1,.852,2.187,12.508,12.508,0,0,1,0,5.127,6.914,6.914,0,0,1-.838,2.173,4.537,4.537,0,0,1-1.52,1.52,4.843,4.843,0,0,1-4.573,0c-.128-.085-.227-.185-.355-.27l-1.846,10.168,2.84,4.26a5.651,5.651,0,0,0,.483-.767,3.318,3.318,0,0,0,.383-1.505h1.42V422.9l3.536,5.254,6.078,1.136v-8.975a3.731,3.731,0,0,1-.554.88,5.073,5.073,0,0,1-.909.866,5.356,5.356,0,0,1-1.15.653,3.3,3.3,0,0,1-1.292.27v-1.42a2.665,2.665,0,0,0,1.292-.383,5.568,5.568,0,0,0,2.23-2.343,3.318,3.318,0,0,0,.383-1.505h1.42V429.36h2.059v.6l11.617,2.173,4.161-2.968A5.569,5.569,0,0,1,439.772,428.706Zm77.314-156.794a5.568,5.568,0,0,0,2.23-2.343,3.318,3.318,0,0,0,.383-1.505h1.42v12.028h2.059v1.179h-5.5v-1.179h2.073v-9.018a3.729,3.729,0,0,1-.554.88,5.072,5.072,0,0,1-.909.866,5.379,5.379,0,0,1-1.15.653,3.3,3.3,0,0,1-1.292.27l-.057-1.449A2.638,2.638,0,0,0,517.086,271.912Zm-1.321,25.093h.028a7.122,7.122,0,0,1,.852-2.187,4.483,4.483,0,0,1,1.52-1.52,4.758,4.758,0,0,1,4.53,0,4.579,4.579,0,0,1,1.534,1.52,6.875,6.875,0,0,1,.852,2.187,12.508,12.508,0,0,1,0,5.127,6.914,6.914,0,0,1-.838,2.173,4.528,4.528,0,0,1-1.52,1.52,4.843,4.843,0,0,1-4.573,0,4.583,4.583,0,0,1-1.52-1.52,6.715,6.715,0,0,1-.838-2.173,12.475,12.475,0,0,1-.256-2.556A11.8,11.8,0,0,1,515.765,297.005Zm-9.614-25.093a5.568,5.568,0,0,0,2.23-2.343,3.318,3.318,0,0,0,.383-1.505h1.42v12.028h2.059v1.179h-5.5v-1.179h2.073v-9.018a3.731,3.731,0,0,1-.554.88,5.073,5.073,0,0,1-.909.866,5.38,5.38,0,0,1-1.15.653,3.3,3.3,0,0,1-1.292.27l-.057-1.449A2.638,2.638,0,0,0,506.151,271.912Zm-1.364,25.093h.071a7.123,7.123,0,0,1,.852-2.187,4.484,4.484,0,0,1,1.52-1.52,4.758,4.758,0,0,1,4.53,0,4.579,4.579,0,0,1,1.534,1.52,6.875,6.875,0,0,1,.852,2.187,12.508,12.508,0,0,1,0,5.127,6.914,6.914,0,0,1-.838,2.173,4.537,4.537,0,0,1-1.52,1.52,4.843,4.843,0,0,1-4.573,0,4.583,4.583,0,0,1-1.52-1.52,6.715,6.715,0,0,1-.838-2.173,12.473,12.473,0,0,1-.256-2.556A11.791,11.791,0,0,1,504.787,297.005Zm-10.978-24.823a7.123,7.123,0,0,1,.852-2.187,4.484,4.484,0,0,1,1.52-1.52,4.758,4.758,0,0,1,4.53,0,4.579,4.579,0,0,1,1.534,1.52,6.864,6.864,0,0,1,.852,2.187,12.508,12.508,0,0,1,0,5.127,6.914,6.914,0,0,1-.838,2.173,4.537,4.537,0,0,1-1.52,1.52,4.843,4.843,0,0,1-4.573,0,4.583,4.583,0,0,1-1.52-1.52,6.715,6.715,0,0,1-.838-2.173,12.473,12.473,0,0,1-.256-2.556A11.817,11.817,0,0,1,493.809,272.182Zm0,24.823v.057a7.123,7.123,0,0,1,.852-2.187,4.472,4.472,0,0,1,1.52-1.519,4.758,4.758,0,0,1,4.53,0,4.585,4.585,0,0,1,1.534,1.519,6.874,6.874,0,0,1,.852,2.187,12.508,12.508,0,0,1,0,5.127,6.914,6.914,0,0,1-.838,2.173,4.537,4.537,0,0,1-1.52,1.52,4.843,4.843,0,0,1-4.573,0,4.583,4.583,0,0,1-1.52-1.52,6.715,6.715,0,0,1-.838-2.173,12.473,12.473,0,0,1-.256-2.556A11.784,11.784,0,0,1,493.809,297.005Zm-9.643-25.036a5.568,5.568,0,0,0,2.23-2.343,3.318,3.318,0,0,0,.383-1.505h1.42v12.028h2.059v1.179h-5.5v-1.179h2.073v-9.018a3.731,3.731,0,0,1-.554.88,5.073,5.073,0,0,1-.909.866,5.38,5.38,0,0,1-1.15.653,3.3,3.3,0,0,1-1.292.27l-.057-1.449A2.632,2.632,0,0,0,484.166,271.969Zm-12.313.213v-.043a7.123,7.123,0,0,1,.852-2.187,4.484,4.484,0,0,1,1.52-1.52,4.758,4.758,0,0,1,4.53,0,4.579,4.579,0,0,1,1.534,1.52,6.874,6.874,0,0,1,.852,2.187,12.508,12.508,0,0,1,0,5.127,6.914,6.914,0,0,1-.838,2.173,4.537,4.537,0,0,1-1.52,1.52,4.843,4.843,0,0,1-4.573,0,4.583,4.583,0,0,1-1.52-1.52,6.715,6.715,0,0,1-.838-2.173,12.4,12.4,0,0,1-.256-2.556A11.864,11.864,0,0,1,471.853,272.182ZM446.29,405.672h-5.5v-1.179h2.073v-9.018a3.731,3.731,0,0,1-.554.88,5.073,5.073,0,0,1-.909.866,5.38,5.38,0,0,1-1.15.653,3.3,3.3,0,0,1-1.292.27v-1.42a2.665,2.665,0,0,0,1.292-.383,5.568,5.568,0,0,0,2.23-2.343,3.321,3.321,0,0,0,.383-1.505h1.42v12.028h2.059Zm.057-26.03-.057,1.15h-5.5v-1.179h2.073V370.6a3.731,3.731,0,0,1-.554.88,5.073,5.073,0,0,1-.909.866,5.38,5.38,0,0,1-1.15.653,3.3,3.3,0,0,1-1.292.27v-1.42a2.665,2.665,0,0,0,1.292-.383,5.568,5.568,0,0,0,2.23-2.343,3.318,3.318,0,0,0,.383-1.505h1.42v12.028h2.06Zm0-49.761-.057,1.15h-5.5v-1.179h2.073v-9.018a3.731,3.731,0,0,1-.554.88,5.073,5.073,0,0,1-.909.866,5.38,5.38,0,0,1-1.15.653,3.3,3.3,0,0,1-1.292.27v-1.42a2.665,2.665,0,0,0,1.292-.383,5.568,5.568,0,0,0,2.23-2.343,3.318,3.318,0,0,0,.383-1.505h1.42V329.88h2.06Zm-6.092,16.7a5.568,5.568,0,0,0,2.23-2.343,3.318,3.318,0,0,0,.383-1.505h1.42v12.028h2.059l-.057,1.15h-5.5v-1.179h2.073v-9.018a3.731,3.731,0,0,1-.554.88,5.073,5.073,0,0,1-.909.866,5.38,5.38,0,0,1-1.15.653,3.3,3.3,0,0,1-1.292.27v-1.42A2.638,2.638,0,0,0,440.255,346.581Zm27.991-40.416h-5.5v-1.179h2.073v-9.018a3.731,3.731,0,0,1-.554.88,5.073,5.073,0,0,1-.909.866,5.38,5.38,0,0,1-1.15.653,3.3,3.3,0,0,1-1.292.27v-1.42a2.665,2.665,0,0,0,1.292-.383,5.568,5.568,0,0,0,2.23-2.343,3.321,3.321,0,0,0,.383-1.505h1.42v12.028H468.3Zm-7.371-34.012a7.123,7.123,0,0,1,.852-2.187,4.484,4.484,0,0,1,1.52-1.52,4.758,4.758,0,0,1,4.53,0,4.579,4.579,0,0,1,1.534,1.52,6.864,6.864,0,0,1,.852,2.187,12.508,12.508,0,0,1,0,5.127l-.014-.014a6.914,6.914,0,0,1-.838,2.173,4.537,4.537,0,0,1-1.52,1.52,4.843,4.843,0,0,1-4.573,0,4.583,4.583,0,0,1-1.52-1.52,6.715,6.715,0,0,1-.838-2.173,12.473,12.473,0,0,1-.256-2.556A11.82,11.82,0,0,1,460.875,272.153Zm-10.935.157a2.654,2.654,0,0,0,1.292-.383,5.568,5.568,0,0,0,2.23-2.343,3.318,3.318,0,0,0,.383-1.505h1.42v12.028h2v1.179h-5.5v-1.179h2.073v-9.018a3.731,3.731,0,0,1-.554.88,5.073,5.073,0,0,1-.909.866,5.356,5.356,0,0,1-1.15.653,3.3,3.3,0,0,1-1.292.27V272.31Zm0,24.88a2.665,2.665,0,0,0,1.292-.383,5.568,5.568,0,0,0,2.23-2.343,3.318,3.318,0,0,0,.383-1.505h1.42v12.028h2v1.179h-5.5v-1.179h2.073v-9.018a3.731,3.731,0,0,1-.554.88,5.073,5.073,0,0,1-.909.866,5.356,5.356,0,0,1-1.15.653,3.3,3.3,0,0,1-1.292.27V297.19ZM449.9,321.9a7.123,7.123,0,0,1,.852-2.187,4.484,4.484,0,0,1,1.52-1.52,4.758,4.758,0,0,1,4.53,0,4.579,4.579,0,0,1,1.534,1.52,6.874,6.874,0,0,1,.852,2.187,12.508,12.508,0,0,1,0,5.127l-.014-.014a6.914,6.914,0,0,1-.838,2.173,4.537,4.537,0,0,1-1.52,1.52,4.843,4.843,0,0,1-4.573,0,4.583,4.583,0,0,1-1.52-1.52,6.715,6.715,0,0,1-.838-2.173,12.4,12.4,0,0,1-.256-2.556A11.687,11.687,0,0,1,449.9,321.9Zm0,24.88a7.123,7.123,0,0,1,.852-2.187,4.484,4.484,0,0,1,1.52-1.52,4.758,4.758,0,0,1,4.53,0,4.579,4.579,0,0,1,1.534,1.52,6.874,6.874,0,0,1,.852,2.187,12.508,12.508,0,0,1,0,5.127l-.014-.014a6.914,6.914,0,0,1-.838,2.173,4.537,4.537,0,0,1-1.52,1.52,4.843,4.843,0,0,1-4.573,0,4.574,4.574,0,0,1-1.52-1.52,6.715,6.715,0,0,1-.838-2.173,12.4,12.4,0,0,1-.256-2.556A11.693,11.693,0,0,1,449.9,346.78Zm-10.936-74.442a2.665,2.665,0,0,0,1.292-.383,5.568,5.568,0,0,0,2.23-2.343,3.318,3.318,0,0,0,.383-1.505h1.42v12.028h2.059v1.179h-5.553v-1.179h2.073v-9.018a3.731,3.731,0,0,1-.554.88,5.073,5.073,0,0,1-.909.866,5.38,5.38,0,0,1-1.15.653,3.3,3.3,0,0,1-1.292.27Zm-.042,24.682a7.123,7.123,0,0,1,.852-2.187,4.472,4.472,0,0,1,1.52-1.519,4.758,4.758,0,0,1,4.53,0,4.585,4.585,0,0,1,1.534,1.519,6.874,6.874,0,0,1,.852,2.187,12.508,12.508,0,0,1,0,5.127l-.014-.014a6.914,6.914,0,0,1-.838,2.173,4.537,4.537,0,0,1-1.52,1.52,4.843,4.843,0,0,1-4.573,0,4.583,4.583,0,0,1-1.52-1.52,6.715,6.715,0,0,1-.838-2.173,12.473,12.473,0,0,1-.256-2.556A11.681,11.681,0,0,1,438.92,297.02Zm-9.643-.185a5.568,5.568,0,0,0,2.23-2.343,3.318,3.318,0,0,0,.383-1.505h1.42v12.028h2.059v1.179h-5.5v-1.179h2.073V296a3.731,3.731,0,0,1-.554.88,5.073,5.073,0,0,1-.909.866,5.356,5.356,0,0,1-1.15.653,3.3,3.3,0,0,1-1.292.27l-.057-1.449A2.639,2.639,0,0,0,429.277,296.835Zm-1.335,25.093a7.123,7.123,0,0,1,.852-2.187,4.484,4.484,0,0,1,1.52-1.52,4.758,4.758,0,0,1,4.53,0,4.579,4.579,0,0,1,1.534,1.52,6.874,6.874,0,0,1,.852,2.187,12.508,12.508,0,0,1,0,5.127l-.014-.014a6.914,6.914,0,0,1-.838,2.173,4.537,4.537,0,0,1-1.52,1.52,4.843,4.843,0,0,1-4.573,0,4.574,4.574,0,0,1-1.52-1.52,6.715,6.715,0,0,1-.838-2.173,12.473,12.473,0,0,1-.256-2.556A11.759,11.759,0,0,1,427.942,321.928Zm0,24.881a7.123,7.123,0,0,1,.852-2.187,4.484,4.484,0,0,1,1.52-1.52,4.758,4.758,0,0,1,4.53,0,4.579,4.579,0,0,1,1.534,1.52,6.864,6.864,0,0,1,.852,2.187,12.508,12.508,0,0,1,0,5.127l-.014-.014a6.914,6.914,0,0,1-.838,2.173,4.537,4.537,0,0,1-1.52,1.52,4.843,4.843,0,0,1-4.573,0,4.583,4.583,0,0,1-1.52-1.52,6.715,6.715,0,0,1-.838-2.173,12.473,12.473,0,0,1-.256-2.556A11.746,11.746,0,0,1,427.942,346.809ZM418.3,371.476a5.568,5.568,0,0,0,2.23-2.343,3.318,3.318,0,0,0,.383-1.505h1.42v12.028h2.059v1.179h-5.5v-1.179h2.073v-9.018a3.731,3.731,0,0,1-.554.88,5.073,5.073,0,0,1-.909.866,5.38,5.38,0,0,1-1.15.653,3.3,3.3,0,0,1-1.292.27l-.057-1.449A2.639,2.639,0,0,0,418.3,371.476Zm7.953,30.22-.014-.014a6.914,6.914,0,0,1-.838,2.173,4.537,4.537,0,0,1-1.52,1.52,4.843,4.843,0,0,1-4.573,0,4.583,4.583,0,0,1-1.52-1.52,6.715,6.715,0,0,1-.838-2.173,12.4,12.4,0,0,1-.256-2.556,11.683,11.683,0,0,1,.27-2.556,7.123,7.123,0,0,1,.852-2.187,4.484,4.484,0,0,1,1.52-1.52,4.758,4.758,0,0,1,4.53,0,4.579,4.579,0,0,1,1.534,1.52,6.874,6.874,0,0,1,.852,2.187A12.486,12.486,0,0,1,426.252,401.7Zm9.06,28.885h-5.5V429.4h2.073v-9.018a3.731,3.731,0,0,1-.554.88,5.073,5.073,0,0,1-.909.866,5.38,5.38,0,0,1-1.15.653,3.3,3.3,0,0,1-1.292.27v-1.42a2.654,2.654,0,0,0,1.292-.383,5.568,5.568,0,0,0,2.23-2.343,3.318,3.318,0,0,0,.383-1.505h1.42V429.43h2.059ZM437.23,401.7l-.014-.014a6.914,6.914,0,0,1-.838,2.173,4.537,4.537,0,0,1-1.52,1.52,4.843,4.843,0,0,1-4.573,0,4.583,4.583,0,0,1-1.52-1.52,6.715,6.715,0,0,1-.838-2.173,12.473,12.473,0,0,1-.256-2.556,11.683,11.683,0,0,1,.27-2.556,7.123,7.123,0,0,1,.852-2.187,4.484,4.484,0,0,1,1.52-1.52,4.758,4.758,0,0,1,4.53,0,4.579,4.579,0,0,1,1.534,1.52,6.874,6.874,0,0,1,.852,2.187A12.485,12.485,0,0,1,437.23,401.7Zm0-24.881-.014-.014a6.914,6.914,0,0,1-.838,2.173,4.537,4.537,0,0,1-1.52,1.52,4.843,4.843,0,0,1-4.573,0,4.583,4.583,0,0,1-1.52-1.52,6.715,6.715,0,0,1-.838-2.173,12.473,12.473,0,0,1-.256-2.556,11.683,11.683,0,0,1,.27-2.556,7.123,7.123,0,0,1,.852-2.187,4.484,4.484,0,0,1,1.52-1.52,4.758,4.758,0,0,1,4.53,0,4.579,4.579,0,0,1,1.534,1.52,6.864,6.864,0,0,1,.852,2.187A12.485,12.485,0,0,1,437.23,376.815Z" fill="#fff"/>
    <path id="Path_115" data-name="Path 115" d="M476.483,280.347a2.91,2.91,0,0,0,2.613-1.52,7.912,7.912,0,0,0,.923-4.147,10.528,10.528,0,0,0-.327-2.627l-5.979,6.5A3.025,3.025,0,0,0,476.483,280.347Z" fill="#fff"/>
    <path id="Path_116" data-name="Path 116" d="M446.333,295.8a3.8,3.8,0,0,0-1.165-1.406,2.747,2.747,0,0,0-1.619-.483,2.924,2.924,0,0,0-2.641,1.52,7.972,7.972,0,0,0-.923,4.147,10.623,10.623,0,0,0,.341,2.755Z" fill="#fff"/>
    <path id="Path_117" data-name="Path 117" d="M446.759,296.906c0,.012,0,.024.007.036l.007-.008Z" fill="#fff"/>
    <path id="Path_118" data-name="Path 118" d="M443.549,305.2a2.91,2.91,0,0,0,2.613-1.52,7.912,7.912,0,0,0,.923-4.147,10.524,10.524,0,0,0-.32-2.591l-5.972,6.482A3.026,3.026,0,0,0,443.549,305.2Z" fill="#fff"/>
    <path id="Path_119" data-name="Path 119" d="M423.213,319.244l-.156-.071-.625,3.593,1.946-2.1A3.816,3.816,0,0,0,423.213,319.244Z" fill="#fff"/>
    <path id="Path_120" data-name="Path 120" d="M523.178,295.8a3.789,3.789,0,0,0-1.165-1.42,2.747,2.747,0,0,0-1.619-.483,2.924,2.924,0,0,0-2.641,1.52,7.972,7.972,0,0,0-.923,4.147,10.627,10.627,0,0,0,.341,2.755Z" fill="#fff"/>
    <path id="Path_121" data-name="Path 121" d="M434.191,269.526a2.732,2.732,0,0,0-1.534-.469l-1.165,2.059-.866,4.956,4.729-5.141A3.811,3.811,0,0,0,434.191,269.526Z" fill="#fff"/>
    <path id="Path_122" data-name="Path 122" d="M450.963,349.336a10.628,10.628,0,0,0,.341,2.755l6.007-6.533a3.8,3.8,0,0,0-1.165-1.406,2.747,2.747,0,0,0-1.619-.483,2.926,2.926,0,0,0-2.642,1.52A7.986,7.986,0,0,0,450.963,349.336Z" fill="#fff"/>
    <path id="Path_123" data-name="Path 123" d="M457.311,320.679a3.8,3.8,0,0,0-1.165-1.406,2.747,2.747,0,0,0-1.619-.483,2.926,2.926,0,0,0-2.642,1.52,7.972,7.972,0,0,0-.923,4.147,10.623,10.623,0,0,0,.341,2.755Z" fill="#fff"/>
    <path id="Path_124" data-name="Path 124" d="M457.14,353.455a7.912,7.912,0,0,0,.923-4.147,10.527,10.527,0,0,0-.322-2.6l-5.969,6.494a3.025,3.025,0,0,0,2.755,1.775A2.91,2.91,0,0,0,457.14,353.455Z" fill="#fff"/>
    <path id="Path_125" data-name="Path 125" d="M457.737,346.681c0,.008,0,.016.005.025l.01-.01Z" fill="#fff"/>
    <path id="Path_126" data-name="Path 126" d="M520.4,305.228a2.91,2.91,0,0,0,2.613-1.52,7.911,7.911,0,0,0,.923-4.147,10.525,10.525,0,0,0-.327-2.627l-5.965,6.49A3.028,3.028,0,0,0,520.4,305.228Z" fill="#fff"/>
    <path id="Path_127" data-name="Path 127" d="M432.572,280.347a2.91,2.91,0,0,0,2.613-1.52,7.912,7.912,0,0,0,.923-4.147,10.528,10.528,0,0,0-.327-2.627l-5.5,6.007-.17.937A2.836,2.836,0,0,0,432.572,280.347Z" fill="#fff"/>
    <path id="Path_128" data-name="Path 128" d="M658.892,483.1A13.973,13.973,0,0,0,673.3,469.577v-6.461a13.975,13.975,0,0,0-27.935,0v6.461A13.976,13.976,0,0,0,658.892,483.1Zm-8.126-19.983a8.571,8.571,0,0,1,17.142,0v6.461a8.571,8.571,0,0,1-17.142,0Z" fill="#fff"/>
    <path id="Path_129" data-name="Path 129" d="M703.043,455.447c1.434,0,1.591-.185,1.591-1.605V451.57c0-.824-.085-1.605-1.321-1.605H684.766a1.307,1.307,0,0,0-1.278,1.321l.085,30.319h0a1.278,1.278,0,0,0,1.236,1.319h2.713c1.321,0,1.321-.824,1.321-1.647V468.667h13.35a1.165,1.165,0,0,0,1.278-1.321v-2.84a1.164,1.164,0,0,0-1.278-1.321h-13.35v-7.74h14.2Z" fill="#fff"/>
    <path id="Path_130" data-name="Path 130" d="M274.194,469.577v-6.461a13.975,13.975,0,0,0-27.935,0v6.461a13.975,13.975,0,0,0,27.935,0Zm-22.538,0v-6.461a8.571,8.571,0,0,1,17.142,0v6.461a8.571,8.571,0,0,1-17.142,0Z" fill="#fff"/>
    <path id="Path_131" data-name="Path 131" d="M303.634,481.889c.2.54.44,1.037,1.278,1.037h3.039c1.079,0,1.676-.582,1.236-1.69-1.392-3.678-2.712-7.342-3.991-10.963-.809-2.315-1.605-4.459-2.443-6.76,2.286-1.605,3.92-3.422,3.92-6.547a7.1,7.1,0,0,0-6.76-7l-14.216-.014a1.42,1.42,0,0,0-1.321,1.321l.085,30.319h0a1.278,1.278,0,0,0,1.236,1.319h2.84c1.278,0,1.278-.781,1.278-1.605V470.6c2.869-1.562,5.311-2.982,8.067-4.4ZM289.8,464.422v-8.975l9.785-.043q.043,0,.087,0a1.52,1.52,0,0,1,1.476,1.562,1.568,1.568,0,0,1-.241.866C300.07,459.2,292.955,462.817,289.8,464.422Z" fill="#fff"/>
    <path id="Path_132" data-name="Path 132" d="M341.382,478.439a13.581,13.581,0,0,0,2.315-4.53,20.8,20.8,0,0,0,.44-2.84,15.081,15.081,0,0,0,.156-2.144v-3.21c0-.866-.4-1.321-1.236-1.321H332.434a1.165,1.165,0,0,0-1.278,1.321v2.556a1.42,1.42,0,0,0,1.278,1.321h6.874c0,.043-.085.568-.2,1.605a8.477,8.477,0,0,1-.6,2.386,7.824,7.824,0,0,1-7.356,4.4,7.7,7.7,0,0,1-5.553-2.343,8.235,8.235,0,0,1-2.315-6.178V462.79a8,8,0,0,1,7.868-8.08,7.654,7.654,0,0,1,6.987,4.53,1.237,1.237,0,0,0,1.165.781h2.84c1.079,0,1.591-.781,1.236-1.647-2.23-5.354-6.7-8.975-12.313-9.074a13.293,13.293,0,0,0-13.066,13.434v6.675c-.008.175-.013.351-.014.526a13.179,13.179,0,0,0,13.08,13.277A11.863,11.863,0,0,0,341.382,478.439Z" fill="#fff"/>
    <path id="Path_133" data-name="Path 133" d="M375.111,482.926h2.84a1.181,1.181,0,0,0,.259-.013,1.164,1.164,0,0,0,.963-1.336,2.581,2.581,0,0,0,0-.5l-10.225-30.064c-.27-.525-.44-1.065-1.236-1.065H364.19c-.8,0-.994.44-1.278,1.065-1.037,2.585-10.183,30.39-10.183,30.561a1.336,1.336,0,0,0,1.321,1.321H356.8c.966,0,1.037-.412,1.321-1.065l2.2-6.348L370.155,471l3.678,10.864C374.117,482.472,374.274,482.926,375.111,482.926Zm-12.4-14.883,3.238-9.344c.44,1.278.682,2.144.966,2.968.114.454.27.824.4,1.278s.44,1.278.923,2.6Z" fill="#fff"/>
    <path id="Path_134" data-name="Path 134" d="M388.021,451.286l.085,30.319c0,.015,0,.031,0,.046a1.236,1.236,0,0,0,1.2,1.275h2.755a1.42,1.42,0,0,0,1.321-1.321V461.084c4.914,7.5,9.061,13.846,13.861,21.216a1.192,1.192,0,0,0,1.122.625h2.712a1.42,1.42,0,0,0,1.321-1.321V451.285a1.421,1.421,0,0,0-1.321-1.321h-2.713a1.42,1.42,0,0,0-1.321,1.321v20.634l-13.7-21.3a1.135,1.135,0,0,0-1.079-.653H389.3A1.308,1.308,0,0,0,388.021,451.286Z" fill="#fff"/>
    <path id="Path_135" data-name="Path 135" d="M427.175,449.965h-2.713a1.307,1.307,0,0,0-1.278,1.321l.043,30.319c0,.015,0,.031,0,.046a1.236,1.236,0,0,0,1.2,1.275h2.712a1.42,1.42,0,0,0,1.321-1.321l.043-30.319A1.421,1.421,0,0,0,427.175,449.965Z" fill="#fff"/>
    <path id="Path_136" data-name="Path 136" d="M461.912,481.364v-2.272c0-1.434-.142-1.647-1.562-1.647H445.211l15.863-22.58a1.219,1.219,0,0,0,.312-.909V451.3a1.307,1.307,0,0,0-1.278-1.321H439.942c-1.42,0-1.42.781-1.42,1.605v2.3c0,1.434.185,1.647,1.605,1.647h14.2l-16.346,22.949a1.678,1.678,0,0,0-.355,1.037v1.761c0,.824.085,1.647,1.321,1.647l21.643.085C461.827,483.011,461.912,482.188,461.912,481.364Z" fill="#fff"/>
    <path id="Path_137" data-name="Path 137" d="M494.747,482.912a1.165,1.165,0,0,0,.965-1.335,2.581,2.581,0,0,0,0-.5l-10.225-30.064c-.27-.525-.44-1.065-1.236-1.065h-3.465c-.8,0-.994.44-1.278,1.065-1.051,2.585-10.2,30.39-10.2,30.561a1.336,1.336,0,0,0,1.321,1.321h2.755c.966,0,1.037-.412,1.321-1.065l2.2-6.348L486.737,471l3.678,10.864c.284.611.44,1.065,1.278,1.065h2.84A1.172,1.172,0,0,0,494.747,482.912ZM479.3,468.043l3.238-9.344c.44,1.278.682,2.144.966,2.968.114.454.27.824.4,1.278s.44,1.278.923,2.6Z" fill="#fff"/>
    <path id="Path_138" data-name="Path 138" d="M525.607,449.98H504.3c-1.278,0-1.278.781-1.278,1.605v2.1c0,1.321.185,1.605,1.605,1.605h7.754v26.031c0,.824.043,1.605,1.278,1.605h2.755c1.278,0,1.278-.781,1.278-1.605V455.292h7.669c1.406,0,1.562-.284,1.562-1.605v-2.1C526.928,450.761,526.842,449.98,525.607,449.98Z" fill="#fff"/>
    <path id="Path_139" data-name="Path 139" d="M540.036,449.965h-2.712a1.307,1.307,0,0,0-1.278,1.321l.085,30.319c0,.015,0,.031,0,.046a1.236,1.236,0,0,0,1.2,1.275h2.712a1.42,1.42,0,0,0,1.321-1.321V451.286A1.422,1.422,0,0,0,540.036,449.965Z" fill="#fff"/>
    <path id="Path_140" data-name="Path 140" d="M579.5,469.577v-6.461a13.974,13.974,0,0,0-27.934,0v6.461a13.974,13.974,0,0,0,27.934,0Zm-22.538,0v-6.461a8.571,8.571,0,0,1,17.142,0v6.461a8.571,8.571,0,0,1-17.142,0Z" fill="#fff"/>
    <path id="Path_141" data-name="Path 141" d="M610.079,482.926h2.713a1.42,1.42,0,0,0,1.321-1.321V451.286a1.421,1.421,0,0,0-1.321-1.321h-2.713a1.42,1.42,0,0,0-1.321,1.321V471.92l-13.705-21.3a1.135,1.135,0,0,0-1.079-.653H591.02a1.307,1.307,0,0,0-1.278,1.321l.085,30.319c0,.015,0,.031,0,.046a1.236,1.236,0,0,0,1.2,1.275h2.755A1.42,1.42,0,0,0,595.1,481.6V461.084c4.914,7.5,9.061,13.846,13.861,21.216A1.191,1.191,0,0,0,610.079,482.926Z" fill="#fff"/>
    <path id="Path_142" data-name="Path 142" d="M98.76,504.7H95.238c-.795,0-.994.44-1.278,1.065-1.051,2.585-10.2,30.39-10.2,30.561a1.336,1.336,0,0,0,1.335,1.264h2.8c.966,0,1.037-.412,1.321-1.065l2.2-6.348,9.828-4.488,3.636,10.835c.284.611.44,1.065,1.278,1.065H109a1.1,1.1,0,0,0,.162,0,1.164,1.164,0,0,0,1.059-1.261,2.579,2.579,0,0,0,0-.5L100,505.76C99.726,505.236,99.556,504.7,98.76,504.7Zm-5.055,18.022L97,513.36c.44,1.278.682,2.144.966,2.968.114.454.27.824.4,1.278s.44,1.278.923,2.6Z" fill="#fff"/>
    <path id="Path_143" data-name="Path 143" d="M140.371,504.625H137.73c-1.236,0-1.321.781-1.321,1.605v20.89a5.071,5.071,0,0,1-5.042,5.07h-3.082a4.543,4.543,0,0,1-4.473-4.53V506.23c0-.824-.043-1.605-1.278-1.605H119.85a1.165,1.165,0,0,0-1.278,1.321v21.7c0,.019,0,.039,0,.058a9.8,9.8,0,0,0,9.715,9.883h3.082a10.451,10.451,0,0,0,10.31-10.466l.014-21.174a1.189,1.189,0,0,0,0-.337A1.165,1.165,0,0,0,140.371,504.625Z" fill="#fff"/>
    <path id="Path_144" data-name="Path 144" d="M172.908,504.625h-21.3c-1.278,0-1.278.781-1.278,1.605v2.1c0,1.321.185,1.605,1.6,1.605h7.811v26.031c0,.824.043,1.6,1.278,1.6h2.755c1.278,0,1.278-.781,1.278-1.6V509.937h7.612c1.406,0,1.562-.284,1.562-1.605v-2.1C174.228,505.406,174.143,504.625,172.908,504.625Z" fill="#fff"/>
    <path id="Path_145" data-name="Path 145" d="M196.793,504.339A13.974,13.974,0,0,0,182.38,517.86v6.419a13.975,13.975,0,0,0,27.935,0V517.86A13.975,13.975,0,0,0,196.793,504.339Zm8.125,19.941a8.571,8.571,0,0,1-17.142,0v-6.461a8.571,8.571,0,0,1,17.142,0Z" fill="#fff"/>
    <path id="Path_146" data-name="Path 146" d="M243.178,504.625h-2.713a1.42,1.42,0,0,0-1.321,1.321V526.58l-13.705-21.3a1.135,1.135,0,0,0-1.079-.653h-2.982a1.307,1.307,0,0,0-1.278,1.321v30.376c0,.034,0,.068,0,.1a1.235,1.235,0,0,0,1.253,1.218h2.755a1.42,1.42,0,0,0,1.321-1.321V515.8c4.914,7.5,9.061,13.846,13.861,21.216a1.192,1.192,0,0,0,1.122.625h2.713a1.42,1.42,0,0,0,1.321-1.321l.057-30.376A1.424,1.424,0,0,0,243.178,504.625Z" fill="#fff"/>
    <path id="Path_147" data-name="Path 147" d="M268.6,504.339a13.974,13.974,0,0,0-14.413,13.521v6.419a13.975,13.975,0,0,0,27.935,0V517.86A13.975,13.975,0,0,0,268.6,504.339Zm8.125,19.941a8.571,8.571,0,0,1-17.142,0v-6.461a8.571,8.571,0,0,1,17.142,0Z" fill="#fff"/>
    <path id="Path_148" data-name="Path 148" d="M320.833,504.625h-1.562a1.846,1.846,0,0,0-1.562.625l-10.225,13.306L297.3,505.378a1.7,1.7,0,0,0-1.676-.738H294.2c-.682,0-2.315,0-2.315,1.69l.085,30.149c0,1.108.568,1.108,1.321,1.108h2.358c1.406,0,1.605-.227,1.605-1.647V514.312l8.194,10.509c.44.525.525.653,1.278.653h1.463c.6,0,.838,0,1.193-.625v.085c2.869-3.522,5.51-7,8.265-10.622v21.557c0,1.434.185,1.647,1.605,1.647h2.357c.781,0,1.42,0,1.42-1.193V506.359C323.034,504.54,321.585,504.625,320.833,504.625Z" fill="#fff"/>
    <path id="Path_149" data-name="Path 149" d="M347.174,504.339a13.975,13.975,0,0,0-14.413,13.522v6.419a13.975,13.975,0,0,0,27.935,0v-6.419A13.973,13.973,0,0,0,347.174,504.339Zm8.126,19.983a8.571,8.571,0,0,1-17.142,0v-6.461a8.571,8.571,0,0,1,17.142,0Z" fill="#fff"/>
    <path id="Path_150" data-name="Path 150" d="M393.531,505.609a1.165,1.165,0,0,0-1.321-.984h-2.642c-1.236,0-1.321.781-1.321,1.605v20.89a5.071,5.071,0,0,1-5.027,5.07h-3.082a4.545,4.545,0,0,1-4.474-4.53V506.23c0-.824-.043-1.605-1.278-1.605h-2.67a1.165,1.165,0,0,0-1.278,1.321v21.7c0,.019,0,.039,0,.058a9.8,9.8,0,0,0,9.715,9.883h3.082a10.451,10.451,0,0,0,10.31-10.466l-.014-21.174A1.151,1.151,0,0,0,393.531,505.609Z" fill="#fff"/>
    <path id="Path_151" data-name="Path 151" d="M403.316,527.347c0-.022,0-.043,0-.065s0-.014,0-.021Z" fill="#fff"/>
    <path id="Path_152" data-name="Path 152" d="M423.639,521.439a12,12,0,0,0-2.84-1.42c-.994-.369-2.713-.824-5.113-1.52l-4.6-1.321a3.886,3.886,0,0,1-1.718-1.065,3.138,3.138,0,0,1-.639-2.968,4.558,4.558,0,0,1,4.36-3.621h3.039c2.556,0,3.962,1.306,4.076,4.814a1.336,1.336,0,0,0,1.278,1.321h2.641c1.278,0,1.278-.781,1.278-1.6a9.33,9.33,0,0,0-2.84-7.5,10.225,10.225,0,0,0-6.476-2.386h-2.968a9.756,9.756,0,0,0-9.515,7.91,10.506,10.506,0,0,0-.241,2.84v.582c0,5.482,5.51,7.129,10.623,8.322,2.883.682,5.311,1.108,6.433,2.1a3.091,3.091,0,0,1,.6,2.386,5.7,5.7,0,0,1-.085.824,4.587,4.587,0,0,1-4.843,3.536H412.96a4.444,4.444,0,0,1-4.26-3.508,6.463,6.463,0,0,1-.085-1.108,3.447,3.447,0,0,0-.114-1.321,1.135,1.135,0,0,0-1.193-.994H404.6c-1.244,0-1.277.741-1.278,1.54a14.207,14.207,0,0,0,.284,3.317,7.225,7.225,0,0,0,1.122,2.684,9.687,9.687,0,0,0,8.308,4.658h3.039A10.468,10.468,0,0,0,423.3,535.6a12.04,12.04,0,0,0,3.181-8.222A6.921,6.921,0,0,0,423.639,521.439Z" fill="#fff"/>
    <path id="Path_153" data-name="Path 153" d="M480.616,524.933c-.81-2.315-1.605-4.459-2.443-6.76,2.287-1.6,3.92-3.422,3.92-6.547a7.1,7.1,0,0,0-6.746-7l-14.23-.014a1.42,1.42,0,0,0-1.321,1.321l.085,30.319h0a1.278,1.278,0,0,0,1.236,1.319h2.84c1.278,0,1.278-.781,1.278-1.6V525.26c2.869-1.562,5.311-2.982,8.067-4.4l5.752,15.692c.2.54.44,1.037,1.278,1.037h3.039c1.079,0,1.676-.582,1.236-1.69C483.215,532.218,481.894,528.554,480.616,524.933Zm-4.275-12.44c-.838,1.363-7.953,4.985-11.106,6.589v-8.975l9.785-.043q.043,0,.087,0a1.52,1.52,0,0,1,1.476,1.562A1.546,1.546,0,0,1,476.341,512.493Z" fill="#fff"/>
    <path id="Path_154" data-name="Path 154" d="M507.057,504.339a13.975,13.975,0,0,0-14.413,13.522v6.419a13.975,13.975,0,0,0,27.935,0v-6.419A13.973,13.973,0,0,0,507.057,504.339Zm8.126,19.941a8.571,8.571,0,0,1-17.142,0v-6.461a8.571,8.571,0,0,1,17.142,0Z" fill="#fff"/>
    <path id="Path_155" data-name="Path 155" d="M547.506,517.719a8.069,8.069,0,0,0,3.2-2.684,6.956,6.956,0,0,0,.724-3.422v0a6.859,6.859,0,0,0-6.717-7H531.6a1.115,1.115,0,0,0-.116,0,1.264,1.264,0,0,0-1.205,1.321l.085,30.319h0a1.278,1.278,0,0,0,1.236,1.319h13.423a8.8,8.8,0,0,0,8.675-8.932v-3.422C553.7,520.772,551.866,518.542,547.506,517.719Zm-2.869-7.6.1,0a1.42,1.42,0,0,1,1.317,1.516,2.017,2.017,0,0,1-.242,1.065c-.753,1.236-7.143,4.814-10.225,6.461l-.071-9.046h9.118Zm3.778,17.24V528.6a3.023,3.023,0,0,1-.6,1.931l-.4.5a3.214,3.214,0,0,1-2.4,1.037h-9.43V525.1l4.871-2.812h5.113c1.42,0,2.84.952,2.84,3.919C548.415,526.58,548.415,526.907,548.415,527.361Z" fill="#fff"/>
    <path id="Path_156" data-name="Path 156" d="M577.739,504.339a13.973,13.973,0,0,0-14.412,13.522v6.419a13.974,13.974,0,0,0,27.934,0v-6.419A13.974,13.974,0,0,0,577.739,504.339Zm8.126,19.941a8.571,8.571,0,0,1-17.142,0v-6.461a8.571,8.571,0,0,1,17.142,0Z" fill="#fff"/>
    <path id="Path_157" data-name="Path 157" d="M622.036,504.625h-21.3c-1.278,0-1.278.781-1.278,1.605v2.1c0,1.321.17,1.605,1.591,1.605H608.8v26.031c0,.824.043,1.6,1.278,1.6h2.755c1.278,0,1.278-.781,1.278-1.6V509.937h7.683c1.406,0,1.562-.284,1.562-1.605v-2.1C623.357,505.406,623.272,504.625,622.036,504.625Z" fill="#fff"/>
    <path id="Path_158" data-name="Path 158" d="M635.94,504.625h-2.713a1.307,1.307,0,0,0-1.278,1.321l.1,30.376c0,.015,0,.031,0,.046a1.234,1.234,0,0,0,1.2,1.274h2.713a1.42,1.42,0,0,0,1.321-1.321l-.014-30.376A1.421,1.421,0,0,0,635.94,504.625Z" fill="#fff"/>
    <path id="Path_159" data-name="Path 159" d="M672.126,524.862h-2.684l-.046,0a1.15,1.15,0,0,0-1.189,1.11v-.085a9.188,9.188,0,0,1-1.42,3.536,7.785,7.785,0,0,1-6.348,3.295,7.967,7.967,0,0,1-7.8-8.08v-7.1a7.967,7.967,0,0,1,7.8-8.08,7.612,7.612,0,0,1,6.277,3.209,11.684,11.684,0,0,1,1.42,3.209c.27.54.554.909,1.236.909h2.67c.753,0,1.079-.653,1.236-1.193v-.412l.057.043a13.009,13.009,0,0,0-25.861,2.344v7.1a13.179,13.179,0,0,0,12.98,13.349,13.718,13.718,0,0,0,12.426-9.273,8.052,8.052,0,0,0,.525-2.556A1.307,1.307,0,0,0,672.126,524.862Z" fill="#fff"/>
    <path id="Path_160" data-name="Path 160" d="M702.915,521.439a12,12,0,0,0-2.84-1.42c-.994-.369-2.712-.824-5.113-1.52l-4.6-1.321a3.872,3.872,0,0,1-1.718-1.065,3.138,3.138,0,0,1-.639-2.968,4.558,4.558,0,0,1,4.36-3.621H695.4c2.556,0,3.962,1.306,4.076,4.814a1.335,1.335,0,0,0,1.278,1.321H703.4c1.278,0,1.278-.781,1.278-1.6a9.33,9.33,0,0,0-2.84-7.5,10.226,10.226,0,0,0-6.476-2.386h-3.039a9.756,9.756,0,0,0-9.515,7.91,10.468,10.468,0,0,0-.241,2.84v.582c0,5.482,5.51,7.129,10.623,8.322,2.883.682,5.312,1.108,6.433,2.1a3.091,3.091,0,0,1,.6,2.386,5.691,5.691,0,0,1-.085.824,4.587,4.587,0,0,1-4.829,3.536h-3.039a4.444,4.444,0,0,1-4.26-3.508,6.461,6.461,0,0,1-.085-1.108,3.448,3.448,0,0,0-.114-1.321,1.15,1.15,0,0,0-1.193-.994H683.9c-1.244,0-1.277.741-1.278,1.54a14.211,14.211,0,0,0,.284,3.317,7.266,7.266,0,0,0,1.122,2.684,9.687,9.687,0,0,0,8.308,4.658h3.039A10.468,10.468,0,0,0,702.6,535.6a12.047,12.047,0,0,0,3.153-8.222A6.933,6.933,0,0,0,702.915,521.439Z" fill="#fff"/>
    <path id="Path_161" data-name="Path 161" d="M682.621,527.347c0-.022,0-.043,0-.065s0-.014,0-.021Z" fill="#fff"/>
  </g>
</svg>
