<svg xmlns="http://www.w3.org/2000/svg" width="988.763" height="723.016" viewBox="0 0 988.763 723.016">
  <g id="DECOR_the_team" data-name="DECOR the team" opacity="0.6">
    <circle id="Ellipse_34" data-name="Ellipse 34" cx="355.784" cy="355.784" r="355.784" transform="translate(196.116)" fill="#f2f2f2"/>
    <circle id="Ellipse_35" data-name="Ellipse 35" cx="92.523" cy="92.523" r="92.523" transform="translate(568.116 37.201)" fill="#ff6584"/>
    <path id="Path_760" data-name="Path 760" d="M367.617,143.459l2.529,52.725c10.484,13.982,21.793,29.983,32.955,47.422l1.594-80.438.879.562c-12.911-9.223-26.036-16.28-38.837-20.76Z" transform="translate(-94.852 -74.321)" fill="#980031"/>
    <path id="Path_761" data-name="Path 761" d="M366.178,193.465l-2.449-51.073c-14.376-4.9-28.324-6.529-41.074-4.255-.663.118-1.315.254-1.966.393C323.927,142,342.807,162.531,366.178,193.465Z" transform="translate(-92.727 -74.051)" fill="#980031"/>
    <path id="Path_762" data-name="Path 762" d="M488.407,261.252l.848.81q-5.226-9.829-11.08-19.113L454.4,336.495l-.4-.355q2.578,6.156,4.9,12.227Z" transform="translate(-98.88 -78.936)" fill="#980031"/>
    <path id="Path_763" data-name="Path 763" d="M450.006,204.491l.875.7a246.813,246.813,0,0,0-42.568-39.776l-1.625,81.97q15.581,24.588,27.9,48.438Z" transform="translate(-96.696 -75.357)" fill="#980031"/>
    <path id="Path_764" data-name="Path 764" d="M271.3,233.212a206.064,206.064,0,0,0,8.143,40.73l141.772,14.623c-7.4-13.648-15.041-26.453-22.458-38.123l-127.1-16.115Z" transform="translate(-90.447 -78.486)" fill="#980031"/>
    <path id="Path_765" data-name="Path 765" d="M285.009,291.266l-.382-1.112,143.486,12.754q-2.6-5.086-5.258-10.037L280.56,278.194l-.374-1.114Q282.337,284.095,285.009,291.266Z" transform="translate(-90.857 -80.511)" fill="#980031"/>
    <path id="Path_766" data-name="Path 766" d="M475.8,239.392l.863.76a294.757,294.757,0,0,0-23.529-32.014l-15.626,92.568q8.124,15.95,14.716,31.451Z" transform="translate(-98.119 -77.329)" fill="#980031"/>
    <path id="Path_767" data-name="Path 767" d="M474.471,398.944c5.7,24.677,7.863,48.009,6.437,69.739,8.024-17.1,38.538-87.923,27.132-153.93Z" transform="translate(-99.825 -82.25)" fill="#980031"/>
    <path id="Path_768" data-name="Path 768" d="M312.838,344.256a285.121,285.121,0,0,0,24.751,29.055l-.346-1.236,127.635,26.258a354.438,354.438,0,0,0-12.41-40.63Z" transform="translate(-92.364 -83.612)" fill="#980031"/>
    <path id="Path_769" data-name="Path 769" d="M363.091,194.4c-25.294-33.462-45.253-54.612-45.54-54.915l.329-.7c-19.195,4.358-32.747,17.417-40.2,36.32Z" transform="translate(-90.742 -74.128)" fill="#980031"/>
    <path id="Path_770" data-name="Path 770" d="M460.379,352.494c.471,1.259.951,2.52,1.406,3.774a352.184,352.184,0,0,1,11.163,36.661l33.25-83.394.812.815a139.623,139.623,0,0,0-10.615-33.6q-2.942-6.3-6.16-12.405Z" transform="translate(-99.174 -79.923)" fill="#980031"/>
    <path id="Path_771" data-name="Path 771" d="M397.237,245.562c-11.047-17.233-22.229-33.041-32.593-46.859l-87.375-19.743-.3-1.1c-5.455,14.364-7.449,32.011-5.8,51.721Z" transform="translate(-90.416 -75.931)" fill="#980031"/>
    <path id="Path_772" data-name="Path 772" d="M466.646,401.984l-126.7-26.066c53.293,54.708,127.853,96.665,132.612,99.316C474.778,451.131,472.259,426.373,466.646,401.984Z" transform="translate(-93.616 -85.073)" fill="#980031"/>
    <path id="Path_773" data-name="Path 773" d="M450.317,353.1l.028-.083a478.4,478.4,0,0,0-20.828-47.1L285.679,293.132q3.663,9.7,8.28,19.608a171.42,171.42,0,0,0,15.93,26.834Z" transform="translate(-91.111 -81.252)" fill="#980031"/>
    <path id="Path_774" data-name="Path 774" d="M648.339,329.625l-31.681,42.221c-.844,17.456-2.339,36.993-4.865,57.543l52.532-60.936.319.994c-4.061-15.339-9.669-29.145-16.671-40.76Z" transform="translate(-106.163 -82.893)" fill="#980031"/>
    <path id="Path_775" data-name="Path 775" d="M617.042,367.273l30.689-40.9c-7.945-12.945-17.651-23.095-28.921-29.475-.586-.332-1.175-.643-1.765-.951C617.324,300.69,618.772,328.541,617.042,367.273Z" transform="translate(-106.405 -81.382)" fill="#980031"/>
    <path id="Path_776" data-name="Path 776" d="M664.919,498.135l.137,1.165q2.244-10.9,3.657-21.788L590.738,534.4l-.084-.53q-1.94,6.386-4.022,12.545Z" transform="translate(-105.002 -89.762)" fill="#980031"/>
    <path id="Path_777" data-name="Path 777" d="M671.631,429.23l.228,1.1a246.809,246.809,0,0,0-7.416-57.786l-53.533,62.1q-3.683,28.875-9.407,55.1Z" transform="translate(-105.688 -84.917)" fill="#980031"/>
    <path id="Path_778" data-name="Path 778" d="M517.705,337.317A206.082,206.082,0,0,0,498,373.881l99.865,101.687c3-15.232,5.287-29.967,7.018-43.686l-87.609-93.476Z" transform="translate(-100.911 -83.291)" fill="#980031"/>
    <path id="Path_779" data-name="Path 779" d="M491.933,390.776l.416-1.1L594.725,491.016q1.241-5.575,2.352-11.084L496.844,377.87l.423-1.1Q494.449,383.548,491.933,390.776Z" transform="translate(-100.631 -85.113)" fill="#980031"/>
    <path id="Path_780" data-name="Path 780" d="M668.943,472.993l.179,1.136a294.747,294.747,0,0,0,2.3-39.664l-71.077,61.328q-3.916,17.466-8.726,33.609Z" transform="translate(-105.232 -87.775)" fill="#980031"/>
    <path id="Path_781" data-name="Path 781" d="M564.923,595.584c-11.347,22.643-24.564,41.991-39.523,57.818,17.084-8.05,85.76-43.137,119.076-101.251Z" transform="translate(-102.176 -93.207)" fill="#980031"/>
    <path id="Path_782" data-name="Path 782" d="M479.808,449.337a285.1,285.1,0,0,0,.532,38.165l.522-1.173,81.556,101.631a354.511,354.511,0,0,0,16.357-39.208Z" transform="translate(-100.053 -88.462)" fill="#980031"/>
    <path id="Path_783" data-name="Path 783" d="M612.989,366.929c1.862-41.906-.021-70.925-.049-71.341l.7-.333c-17.563-8.886-36.331-7.472-54.13,2.331Z" transform="translate(-103.75 -81.077)" fill="#980031"/>
    <path id="Path_784" data-name="Path 784" d="M584.707,550.707c-.44,1.27-.875,2.548-1.324,3.8A352.176,352.176,0,0,1,568.6,589.865l78.8-43.022.106,1.145a139.63,139.63,0,0,0,13.256-32.651q1.75-6.727,3.168-13.483Z" transform="translate(-104.169 -90.886)" fill="#980031"/>
    <path id="Path_785" data-name="Path 785" d="M606.2,427.351c2.483-20.319,3.953-39.626,4.785-56.878l-54.7-70.935.475-1.038c-13.363,7.584-26.154,19.9-37.453,36.137Z" transform="translate(-101.894 -81.5)" fill="#980031"/>
    <path id="Path_786" data-name="Path 786" d="M561.47,591.9,480.511,491.012c6.152,76.126,36.818,156,38.791,161.074C536.385,634.938,550.237,614.264,561.47,591.9Z" transform="translate(-100.104 -90.385)" fill="#980031"/>
    <path id="Path_787" data-name="Path 787" d="M579.543,543.832l.075-.046a478.394,478.394,0,0,0,14-49.557L490.987,392.639q-3.366,9.807-6.129,20.383a171.422,171.422,0,0,0-4.846,30.827Z" transform="translate(-100.08 -85.845)" fill="#980031"/>
    <path id="Path_788" data-name="Path 788" d="M318.887,388.758l18.7,49.362c14.292,10.057,29.994,21.779,46,34.913l-23.348-76.991,1.01.263c-15.13-4.781-29.794-7.435-43.352-7.739Z" transform="translate(-92.598 -85.657)" fill="#980031"/>
    <path id="Path_789" data-name="Path 789" d="M333,436.358,314.88,388.542c-15.187-.219-28.955,2.545-40.378,8.649-.594.318-1.172.649-1.748.981C276.908,400.477,301.207,414.163,333,436.358Z" transform="translate(-90.514 -85.655)" fill="#980031"/>
    <path id="Path_790" data-name="Path 790" d="M471.283,463.086l1.057.508q-8.008-7.733-16.445-14.753l6.3,96.314-.492-.213q4.355,5.057,8.443,10.113Z" transform="translate(-98.968 -88.439)" fill="#980031"/>
    <path id="Path_791" data-name="Path 791" d="M416.181,421.311l1.049.4a246.805,246.805,0,0,0-52.778-24.67L388.243,475.5q22.418,18.568,41.505,37.442Z" transform="translate(-94.747 -86.048)" fill="#980031"/>
    <path id="Path_792" data-name="Path 792" d="M255.027,502.775a206.077,206.077,0,0,0,20.334,36.218l139.348-29.914c-11.257-10.692-22.481-20.508-33.142-29.314L255.715,503.723Z" transform="translate(-89.696 -89.866)" fill="#980031"/>
    <path id="Path_793" data-name="Path 793" d="M286.011,553.454l-.707-.94,140.4-32.222q-4.045-4.033-8.1-7.92L277.739,542.4l-.7-.944Q281.253,547.459,286.011,553.454Z" transform="translate(-90.712 -91.371)" fill="#980031"/>
    <path id="Path_794" data-name="Path 794" d="M452.142,446.321l1.056.457A294.757,294.757,0,0,0,420.926,423.6l13.751,92.865q12.656,12.658,23.717,25.362Z" transform="translate(-97.353 -87.274)" fill="#980031"/>
    <path id="Path_795" data-name="Path 795" d="M500.737,598.2c13.051,21.705,22.317,43.227,27.678,64.334,2.346-18.739,9.475-95.529-21.776-154.779Z" transform="translate(-101.037 -91.158)" fill="#980031"/>
    <path id="Path_796" data-name="Path 796" d="M328.856,595.184a285.172,285.172,0,0,0,32.52,19.981l-.711-1.069,129.5-14.48a354.4,354.4,0,0,0-24.361-34.8Z" transform="translate(-93.104 -93.792)" fill="#980031"/>
    <path id="Path_797" data-name="Path 797" d="M330.872,438c-34.4-24.005-59.917-37.95-60.284-38.15l.095-.772c-16.908,10.077-25.76,26.686-27.009,46.968Z" transform="translate(-89.172 -86.142)" fill="#980031"/>
    <path id="Path_798" data-name="Path 798" d="M473.037,558.439c.837,1.051,1.683,2.1,2.5,3.154a352.158,352.158,0,0,1,21.948,31.415l5.845-89.588,1.024.524a139.628,139.628,0,0,0-20.482-28.676q-4.745-5.08-9.692-9.894Z" transform="translate(-99.759 -89.202)" fill="#980031"/>
    <path id="Path_799" data-name="Path 799" d="M378.9,476.258c-15.833-12.974-31.353-24.552-45.481-34.49L244.225,450l-.623-.957c-.747,15.347,2.81,32.746,10.474,50.98Z" transform="translate(-89.164 -88.112)" fill="#980031"/>
    <path id="Path_800" data-name="Path 800" d="M492.975,603.318,364.423,617.692c67.593,35.556,151.47,52.411,156.816,53.462C515.9,647.545,505.852,624.777,492.975,603.318Z" transform="translate(-94.745 -95.569)" fill="#980031"/>
    <path id="Path_801" data-name="Path 801" d="M462.335,561v-.088a478.392,478.392,0,0,0-34.365-38.352l-140.747,32.3q6.482,8.093,13.935,16.089a171.416,171.416,0,0,0,23.444,20.6Z" transform="translate(-91.182 -91.842)" fill="#980031"/>
    <path id="Path_802" data-name="Path 802" d="M1070.852,703.231c0,42.67-219.5,118.277-490.276,118.277S90.3,745.9,90.3,703.231s219.5-36.246,490.276-36.246S1070.852,660.56,1070.852,703.231Z" transform="translate(-82.093 -98.492)" fill="#3f3d56"/>
    <path id="Path_803" data-name="Path 803" d="M1070.852,703.231c0,42.67-219.5,118.277-490.276,118.277S90.3,745.9,90.3,703.231s219.5-36.246,490.276-36.246S1070.852,660.56,1070.852,703.231Z" transform="translate(-82.093 -98.492)" opacity="0.1"/>
    <ellipse id="Ellipse_36" data-name="Ellipse 36" cx="490.276" cy="77.261" rx="490.276" ry="77.261" transform="translate(8.211 527.477)" fill="#3f3d56"/>
    <path id="Path_804" data-name="Path 804" d="M679.514,617.6c0,46.488-64.8,32.109-144.138,32.109S392.2,664.087,392.2,617.6,456.99,561,536.33,561,679.514,571.112,679.514,617.6Z" transform="translate(-96.028 -93.616)" opacity="0.1"/>
    <path id="Path_805" data-name="Path 805" d="M679.514,605.6c0,46.488-64.8,32.109-144.138,32.109S392.2,652.087,392.2,605.6,456.99,549,536.33,549,679.514,559.112,679.514,605.6Z" transform="translate(-96.028 -93.062)" fill="#3f3d56"/>
    <path id="Path_806" data-name="Path 806" d="M425.692,473.657a20.859,20.859,0,0,1,5.71-2.864,145.611,145.611,0,0,1,40.235-8.759c11.964-.848,24.93.16,34.275,7.678a11.784,11.784,0,0,1,3.477,4.05c1.176,2.537.819,5.486.439,8.256a9.33,9.33,0,0,1-.8,3.108c-1.257,2.394-4.353,3.233-7.042,2.946s-5.212-1.425-7.864-1.952a35.139,35.139,0,0,0-4.967-.506l-16.635-.9c-10.344-.56-20.824-1.111-30.971.977a30.845,30.845,0,0,0-8.948,3.083c-2.318,1.3-3.878,3.168-6.029.765C422.792,485.318,420.7,477.558,425.692,473.657Z" transform="translate(-97.438 -89.036)" fill="#2f2e41"/>
    <path id="Path_807" data-name="Path 807" d="M452.635,481.749s22.374-10.03,30.861,1.543-4.63,6.944-4.63,6.944l-14.659,4.629-16.2-3.086Z" transform="translate(-98.603 -89.772)" fill="#f2f2f2"/>
    <path id="Path_808" data-name="Path 808" d="M454.072,473.924s3.086,14.659.771,18.517S467.96,501.7,467.96,501.7l14.659-6.172s-3.858-23.917,0-28.547Z" transform="translate(-98.883 -89.276)" fill="#ffb9b9"/>
    <path id="Path_809" data-name="Path 809" d="M454.072,473.924s3.086,14.659.771,18.517S467.96,501.7,467.96,501.7l14.659-6.172s-3.858-23.917,0-28.547Z" transform="translate(-98.883 -89.276)" opacity="0.1"/>
    <path id="Path_810" data-name="Path 810" d="M438.516,658.3a84.407,84.407,0,0,1,5.1,13.361,1.087,1.087,0,0,0,1.35.9l13.724-.015c1.693,0,3.966-.546,3.948-2.239-.012-1.19-1.229-1.932-2.134-2.7-2.512-2.144-3.166-5.678-4.207-8.812a29.9,29.9,0,0,0-11.124-14.941,6.512,6.512,0,0,0-2.378-1.176,6.632,6.632,0,0,0-2.607.141c-2.409.486-11.405,2.149-9.706,5.653.732,1.509,3.444,3.079,4.581,4.489a32.244,32.244,0,0,1,3.455,5.345Z" transform="translate(-97.785 -97.382)" fill="#575a89"/>
    <path id="Path_811" data-name="Path 811" d="M488.458,641.989a31.162,31.162,0,0,1-1.613,2.966c-1.988,3.279-4.334,6.338-6.186,9.7A16,16,0,0,0,478.4,661.4a7.5,7.5,0,0,0,2.619,6.377c1.992,1.512,4.723,1.582,7.2,1.229s4.938-1.062,7.431-.875c-.841-4.758,3.172-8.946,4.175-13.672.282-1.328.324-2.7.7-4.007a19.637,19.637,0,0,1,1.553-3.435,44.4,44.4,0,0,0,4.191-12.361c.095-.522-12.2-.607-13.352-.358C489.324,635.076,489.851,639.006,488.458,641.989Z" transform="translate(-100.005 -96.993)" fill="#575a89"/>
    <path id="Path_812" data-name="Path 812" d="M389.495,563.274c-3.509,5.492-2.7,12.77-.236,18.8s6.388,11.367,9.073,17.306c1.712,3.786,2.912,7.8,4.84,11.481,2.387,4.558,5.872,8.576,7.474,13.465,1.021,3.117,1.255,6.533,2.909,9.365a28.7,28.7,0,0,0,3.408,4.227,39.067,39.067,0,0,1,7.854,14.029c1.512-4.5,6.038-7.455,10.687-8.429s9.466-.312,14.169.352c-2.624-4.064-5.273-8.18-6.836-12.758-1.512-4.427-1.959-9.138-2.978-13.7-2.089-9.364-6.553-18-10.971-26.518l22.711-1.8a88.551,88.551,0,0,1,11.158-.414c5.862.276,11.6,1.713,17.436,2.378s12,.49,17.2-2.237A82.4,82.4,0,0,0,482.6,637.484a18.841,18.841,0,0,1,28.521,6.731c8.9-12.163,7.842-29.095,14.895-42.414,1.45-2.739,3.228-5.29,4.793-7.965a117.378,117.378,0,0,0,7.573-16.734c1.973-5.046,3.96-10.66,2.068-15.737a16.43,16.43,0,0,0-3.372-5.185c-4.069-4.486-9.733-7.8-15.788-7.943-9.3-.212-16.974,6.678-25.128,11.146a57.826,57.826,0,0,1-31.733,6.581c-11.2-.793-21.9-4.459-32.569-7.688a154.971,154.971,0,0,0-16.254-4.193c-4.576-.858-8.934.093-13.444,1.263C397.255,556.619,392.32,558.852,389.495,563.274Z" transform="translate(-95.794 -93.026)" fill="#2f2e41"/>
    <path id="Path_813" data-name="Path 813" d="M489.04,457.772a23.165,23.165,0,0,1-23.146,23.146,22.6,22.6,0,0,1-4.112-.37,23.145,23.145,0,1,1,27.258-22.776Z" transform="translate(-98.361 -87.783)" fill="#ffb9b9"/>
    <path id="Path_814" data-name="Path 814" d="M451.646,481.925s4.244,1.929,5.787,3.472,6.172,10.03,13.888,4.629,8.487-8.487,10.8-8.487,5.4,4.629,5.4,4.629l21.217,63.651a88.866,88.866,0,0,1-19.674,16.588c-12.344,7.715-27,11.573-33.947,8.487s-20.06-5.4-22.374-11.573-6.172-24.689-6.172-24.689l10.8-47.063Z" transform="translate(-97.614 -89.948)" fill="#f2f2f2"/>
    <path id="Path_815" data-name="Path 815" d="M448.089,546.067c1.682-3.633,1.927-7.746,2.069-11.747a71.209,71.209,0,0,0-.314-11.883c-.684-5.161-2.364-10.133-3.426-15.229a64.372,64.372,0,0,1-1.349-13.592,11.078,11.078,0,0,1,1.3-6.024c.792-1.219,2.031-2.163,2.526-3.529.97-2.68-1.427-5.485-4.055-6.589a15.955,15.955,0,0,0-9.988-.4,47.512,47.512,0,0,0-9.395,3.843,21.5,21.5,0,0,0-6.138,3.968c-2.395,2.478-3.448,5.93-4.3,9.27-.681,2.673-1.286,5.461-.768,8.17.841,4.4,4.428,7.709,6.34,11.76,2.22,4.7,2.071,10.185,1.188,15.311s-2.451,10.138-2.934,15.317.259,10.746,3.5,14.811c1.322,1.657,4.909,5.583,7.33,5.139,1.9-.349,4.659-4.535,6.19-5.862C440.3,554.965,445.547,551.555,448.089,546.067Z" transform="translate(-97.036 -89.713)" fill="#2f2e41"/>
    <path id="Path_816" data-name="Path 816" d="M491.511,478.917c.068,4.3-1.829,8.393-4.06,12.074s-4.851,7.161-6.495,11.138a25.528,25.528,0,0,0-1.191,15.706,50.657,50.657,0,0,0,1.7,5.255l4.227,11.6a20.126,20.126,0,0,0,2.451,5.146,16.621,16.621,0,0,0,3.332,3.205,31.094,31.094,0,0,0,10.869,5.67,18.382,18.382,0,0,0,12.087-.69,174.9,174.9,0,0,1,7.508-46.355c.845-2.777,1.769-5.7,1.117-8.53-.73-3.168-3.275-5.547-5.695-7.72-7.4-6.644-15.535-13.623-25.439-14.519C486.193,470.375,491.462,475.806,491.511,478.917Z" transform="translate(-100.036 -89.455)" fill="#2f2e41"/>
    <path id="Path_817" data-name="Path 817" d="M438.614,572.746c.587,1.149.952,2.4,1.532,3.552a19.843,19.843,0,0,0,3.148,4.233c5.159,5.72,11.464,11.418,19.159,11.763a5.253,5.253,0,0,0,2.258-.284,4.476,4.476,0,0,0,2.4-3.436c.546-2.988-.773-5.969-2.094-8.7-2.862-5.928-6.082-12.007-11.441-15.83a21.468,21.468,0,0,0-18.521-2.786c-2.791.86-7.42,2.362-3.724,4.908C434.139,568.093,436.989,569.564,438.614,572.746Z" transform="translate(-97.77 -93.582)" fill="#ffb9b9"/>
    <path id="Path_818" data-name="Path 818" d="M472.637,493.75a17.246,17.246,0,0,0-3.621-5.838,13.432,13.432,0,0,0-5.531-2.8,30.245,30.245,0,0,0-8.114-1.163c-3.268-.02-7.056.856-8.444,3.814-1.1,2.349-.248,5.131.862,7.477a7.331,7.331,0,0,0,2.287,3.09c1.409.952,3.232.922,4.9,1.241a22.609,22.609,0,0,1,7.245,3.283l5.723,3.459,9.83,5.942c-.259-.156-.167-6.9-.469-8C476.335,500.692,474.146,497.121,472.637,493.75Z" transform="translate(-98.53 -90.059)" fill="#ffb9b9"/>
    <path id="Path_819" data-name="Path 819" d="M443.127,671.1c-2.3,3.126-1.839,7.594-3.877,10.9-1.766,2.863-5.094,4.364-7.3,6.9a18.512,18.512,0,0,0-1.878,2.7c-2.049,3.432-3.715,7.832-1.7,11.283,1.623,2.776,5.036,3.861,8.166,4.6,3.956.935,8.066,1.682,12.068.969s7.912-3.165,9.339-6.971a26.927,26.927,0,0,1,1-2.818c2.169-4.27,8.972-4.316,11.191-8.56,1.553-2.97.125-6.559-1.3-9.592l-4.359-9.261c-1.447-3.073-7.311-1.306-10.369-2.042C450.118,668.243,446,667.184,443.127,671.1Z" transform="translate(-97.655 -98.569)" fill="#2f2e41"/>
    <path id="Path_820" data-name="Path 820" d="M478.854,662.812a12.4,12.4,0,0,0-3.944,5.4c-2.158,4.977-2.9,10.434-3.618,15.811a19.153,19.153,0,0,0-.125,6.485c.93,4.391,4.909,7.625,9.192,8.968s8.877,1.136,13.36.916a9.566,9.566,0,0,0,4.2-.853c2.253-1.242,3.134-4.163,2.747-6.706s-1.776-4.807-3.136-6.991-2.751-4.446-3.141-6.989c-.655-4.278,1.194-10.558-1.434-14.428S482.368,660.348,478.854,662.812Z" transform="translate(-99.662 -98.24)" fill="#2f2e41"/>
    <path id="Path_821" data-name="Path 821" d="M488.094,445.127a5.876,5.876,0,0,0-2.548-3.326,13.482,13.482,0,0,0-.538-4.389c-1.4-4.144-4.722-3.906-7.855-5.738-1.359-.795-1.275-1.5-1.983-2.8a10.4,10.4,0,0,0-4.009-4.09c-2.01-1.281-4.132-2.6-6.51-2.762-5-.341-8.828,4.36-13.6,5.868-2.105.665-4.367.692-6.484,1.321s-4.228,2.13-4.543,4.314c-.146,1.009.111,2.044-.036,3.052-.294,2-2.052,3.408-3.229,5.057-2.6,3.646-2.305,8.8-.224,12.763a17.933,17.933,0,0,0,1.5,2.349,14.451,14.451,0,0,0,1.585,5.366c2.082,3.967,5.664,6.931,9.406,9.393a22.211,22.211,0,0,1-.555-4.006,2.763,2.763,0,0,1,.17-1.327c.417-.871,1.518-1.1,2.357-1.58,1.739-.988,2.421-3.175,2.471-5.175s-.373-4-.164-5.992a3.274,3.274,0,0,1,1.121-2.408,3.871,3.871,0,0,1,2.113-.5c3.563-.146,7.286-.211,10.429-1.9a15.457,15.457,0,0,1,3.246-1.642c2.671-.7,5.4,1.176,6.94,3.467s2.307,5.018,3.727,7.385,3.874,4.478,6.62,4.2a1.1,1.1,0,0,0,.82-.365,1.23,1.23,0,0,0,.151-.7l.153-10.5A15.866,15.866,0,0,0,488.094,445.127Z" transform="translate(-97.998 -87.2)" fill="#2f2e41"/>
    <path id="Path_822" data-name="Path 822" d="M413.165,503.338c-2.208,3.258-4.755,6.391-5.969,10.134-.714,2.2-.935,4.527-1.452,6.782-1.72,7.511-6.691,14.182-7.191,21.871a10.4,10.4,0,0,0,.73,5.022c1.426,3.1,4.838,4.736,8.093,5.764s6.751,1.769,9.349,3.983A28.65,28.65,0,0,1,420.27,561a34.316,34.316,0,0,0,16.391,11.215c-.509-3.511-.749-7.742,2.058-9.912,1.519-1.175,3.549-1.384,5.462-1.549l9.04-.781A116.153,116.153,0,0,0,433.4,544.537c-2.5-1.544-5.22-3.173-6.362-5.881a14.2,14.2,0,0,1-.721-5.425,133.673,133.673,0,0,0-1.7-20.07c-.744-4.609-1.729-9.176-2.857-13.707-.316-1.272-2.186-6.977-4.488-5.642-.542.315-1.05,3.933-1.366,4.684a28.4,28.4,0,0,1-2.742,4.84Z" transform="translate(-96.318 -90.505)" fill="#2f2e41"/>
    <path id="Path_823" data-name="Path 823" d="M520.539,490.816l3.692,7.677a18.449,18.449,0,0,1,2.327,10.382l.219,23.03a33.531,33.531,0,0,1-.757,9.171,7.346,7.346,0,0,1-1.273,2.738,8.564,8.564,0,0,1-2.183,1.759c-6.987,4.365-16.047,6.846-23.428,3.188a32.415,32.415,0,0,1-4.8-3.135c-2.942-2.179-5.927-4.4-8.128-7.325-2.3-3.062-3.623-6.727-5.173-10.231a78.624,78.624,0,0,0-10.689-17.531,4.622,4.622,0,0,1-1.323-2.624c-.046-2.019,2.349-3.012,4.217-3.78,3.19-1.312,6.2-3.844,6.733-7.252,6.784,8.9,14.271,18.3,24.976,21.548a1.1,1.1,0,0,0,1.7-.944c.608-2.543.822-5.161,1.267-7.737a44.073,44.073,0,0,1,4.649-13.408C513.827,493.993,517.933,485.4,520.539,490.816Z" transform="translate(-99.573 -90.295)" fill="#2f2e41"/>
    <path id="Path_824" data-name="Path 824" d="M426.759,514.178a35.41,35.41,0,0,1-3.383,15.779,13.039,13.039,0,0,0-1.325,3.476c-.405,2.594,1.071,5.1,2.758,7.116a29.259,29.259,0,0,0,12.511,8.7" transform="translate(-97.402 -91.455)" opacity="0.1"/>
    <path id="Path_825" data-name="Path 825" d="M510.862,509.362c-.544,1.463-.05,3.08.369,4.583a46.183,46.183,0,0,1,1.683,13.4.488.488,0,0,1-.57.585c-1.781.109-3.82.12-5.028-1.192" transform="translate(-101.341 -91.232)" opacity="0.1"/>
    <ellipse id="Ellipse_37" data-name="Ellipse 37" cx="120.184" cy="25.754" rx="120.184" ry="25.754" transform="translate(591.963 584.708)" opacity="0.1"/>
    <path id="Path_826" data-name="Path 826" d="M809.193,399l-8.585,8.584,8.585,8.585L817.777,399Z" transform="translate(-36.953 -18.416)" fill="#a0616a"/>
    <path id="Path_827" data-name="Path 827" d="M892.825,391.936c2.409.986,3.555,3.681,4.463,6.121l11.136,29.923,2.167,5.825c1.063,2.856,2.127,5.714,3.026,8.627q.853,2.763,1.506,5.583a14.684,14.684,0,0,1,.513,4.949,13.761,13.761,0,0,1-1.968,5.156,46.162,46.162,0,0,1-16.04,16.451,14.972,14.972,0,0,0-8.705-11.385l5.759-3.167a10.413,10.413,0,0,0,3.227-2.363,7.087,7.087,0,0,0,1.232-5.4,23.2,23.2,0,0,0-1.709-5.419,148.025,148.025,0,0,1-5.022-14.741c-.836-2.957-1.6-6-3.262-8.582-1.5-2.347-3.681-4.224-5.047-6.654-2.082-3.7-2.029-8.262-1.109-12.409.776-3.5,2.078-6.871,3.173-10.28C887.024,391.49,890.245,390.88,892.825,391.936Z" transform="translate(-118.652 -85.79)" fill="#d0cde1"/>
    <path id="Path_828" data-name="Path 828" d="M836.107,308.027c-4.428,1.5-8.439,4.993-9.346,9.578-.42,2.125-.163,4.335-.516,6.472-.82,4.957-4.711,8.743-8.3,12.259s-7.3,7.6-7.557,12.62c-.287,5.494,3.7,10.642,3.008,16.1-.8,6.342-7.5,10.451-9.155,16.625-1.106,4.123.249,8.563,2.478,12.2,4.248,6.937,11.508,11.646,19.24,14.17s15.967,3.056,24.1,3.141c9.9.1,20.656-.746,28.1-7.282a22.509,22.509,0,0,0,7.472-14.654c.707-7.571-2.453-15.394-.273-22.679,1.371-4.585,4.812-8.772,4.3-13.53-.5-4.652-4.565-7.949-7.352-11.708-2.6-3.509-4.182-7.653-5.729-11.738l-5.3-13.978c-1.041-2.748-2.184-5.638-4.5-7.441-4.343-3.376-11.327-2.713-16.405-2.017C845.654,306.815,840.638,306.5,836.107,308.027Z" transform="translate(-115.027 -81.828)" fill="#2f2e41"/>
    <path id="Path_829" data-name="Path 829" d="M841.9,356.29s.518,15.55-1.037,17.105,6.22,11.922,6.22,11.922l13.995-.518,7.257-5.7-6.22-8.293s-2.592-13.477-.518-16.587S841.9,356.29,841.9,356.29Z" transform="translate(-116.726 -84.026)" fill="#a0616a"/>
    <path id="Path_830" data-name="Path 830" d="M841.9,356.29s.518,15.55-1.037,17.105,6.22,11.922,6.22,11.922l13.995-.518,7.257-5.7-6.22-8.293s-2.592-13.477-.518-16.587S841.9,356.29,841.9,356.29Z" transform="translate(-116.726 -84.026)" opacity="0.1"/>
    <path id="Path_831" data-name="Path 831" d="M726.3,410.939l8.812,19.7,6.739-8.294-13.477-17.623Z" transform="translate(-33.523 -18.68)" fill="#a0616a"/>
    <path id="Path_832" data-name="Path 832" d="M701.1,618.009l-3.628,20.216-6.22,8.812,3.628,2.073,6.22-1.037,7.257-2.592,3.109-11.921,5.7-15.551Z" transform="translate(-31.905 -28.525)" fill="#a0616a"/>
    <path id="Path_833" data-name="Path 833" d="M771.035,604.967l-2.073,29.027,5.183,4.146,8.294-7.257V609.632Z" transform="translate(-35.492 -27.923)" fill="#a0616a"/>
    <circle id="Ellipse_38" data-name="Ellipse 38" cx="18.66" cy="18.66" r="18.66" transform="translate(715.069 240.906)" fill="#a0616a"/>
    <path id="Path_834" data-name="Path 834" d="M862.809,369.417a4.32,4.32,0,0,0-3.6-.069,29.223,29.223,0,0,0-3.29,1.715,15.242,15.242,0,0,1-8.859,1.611,3.047,3.047,0,0,1-1.035-.266,4.979,4.979,0,0,1-.949-.766,5.491,5.491,0,0,0-7.6.655c-.548.683-.923,1.5-1.521,2.138-1.549,1.656-4.1,1.723-6.373,1.719a59.093,59.093,0,0,0-14,1.283,25.646,25.646,0,0,0-12.3,6.515,9.361,9.361,0,0,0-2.184,3.114c-.625,1.613-.543,3.424-1.105,5.06-.626,1.822-2.013,3.317-2.574,5.159-.423,1.388-.364,2.933-1.071,4.2,3.029,2.622,5.6,6.118,8.624,8.74,2.006,1.736,4.106,3.614,4.859,6.157a20.169,20.169,0,0,1,.449,4.775c.375,7.667,4.533,14.622,9.183,20.73A23.38,23.38,0,0,0,824,446.7a19.667,19.667,0,0,0,7.823,3.141c5.3,1.083,10.746,1.078,16.151,1.024,5.585-.056,11.269-.174,16.579-1.91a14.74,14.74,0,0,0,7.007-4.351c2.184-2.682,3.036-6.562,6.016-8.319a10.947,10.947,0,0,0,2.038-1.217,5.283,5.283,0,0,0,1.248-2.33,36.082,36.082,0,0,0,1.706-10.06,29.293,29.293,0,0,1,.415-6.125,20.829,20.829,0,0,1,2.233-5.069l6.174-11.2a7.9,7.9,0,0,0,.417-3.287,8.111,8.111,0,0,0-1.328-4.2,35.87,35.87,0,0,0-17.841-15.618,7.345,7.345,0,0,1-1.685-.826,6.938,6.938,0,0,1-1.543-1.841C867.769,372.044,865.768,369.263,862.809,369.417Z" transform="translate(-114.681 -84.753)" fill="#d0cde1"/>
    <path id="Path_835" data-name="Path 835" d="M785.21,431.817a44.43,44.43,0,0,0-2.667,9.2,22.343,22.343,0,0,0,2.019,12.748c3.327,6.849,9.878,11.494,14.5,17.545,4.3,5.621,6.854,12.359,10.574,18.377-.649-1.532.139-3.305,1.2-4.586s2.419-2.343,3.2-3.814a11.117,11.117,0,0,0,.985-3.608c.555-3.732.855-7.786-1.048-11.044-1.432-2.452-3.906-4.081-5.864-6.138a18.3,18.3,0,0,1-4.632-15.837c.377-1.94,1.07-3.8,1.59-5.709a65.3,65.3,0,0,0,1.457-7.784l2.334-16.032c.621-4.264,1.146-8.983-1.269-12.552a5.255,5.255,0,0,0-1.894-1.793,6.811,6.811,0,0,0-2.016-.568c-2.54-.415-5.981-1.528-7.221,1.194-1.5,3.285-2.54,6.867-3.793,10.254Z" transform="translate(-114.035 -86.168)" fill="#d0cde1"/>
    <path id="Path_836" data-name="Path 836" d="M873.857,442.57s-30.813,5.961-38.07,5.961H822.829s-4.665,8.293-4.665,16.587-30.582,124.4-30.582,124.4-29.026,95.373,3.11,95.892,52.351,2.073,52.87-8.812,3.629-151.353,3.629-151.353l4.838,72.228a179.315,179.315,0,0,1-4.12,53.325c-2.321,9.794-1.961,20.53,9.648,22.69,22.288,4.147,50.278.518,50.278-7.257s-14.513-180.38-14.513-180.38-7.257-25.4-11.4-27.472S873.857,442.57,873.857,442.57Z" transform="translate(-113.722 -88.149)" fill="#2f2e41"/>
    <path id="Path_837" data-name="Path 837" d="M776.74,717.149l11.4-4.147,7.775-19.7,8.293-1.037s-4.665,9.848-7.257,11.4-6.738,14.513-6.738,14.513,2.073,5.183-7.775,7.257-17.1,3.628-17.1,3.628-1.037-2.073,3.628-7.256a123.622,123.622,0,0,0,10.112-13.91Z" transform="translate(-113.245 -99.674)" fill="#2f2e41"/>
    <path id="Path_838" data-name="Path 838" d="M850.557,693.08l-2.073,15.55s5.7,8.293,7.257,8.293,9.848-7.256,9.848-7.256-.518-7.775,0-9.849,1.555-11.922,0-12.44-1.555,11.552-1.555,11.552l-6.738,7.108-6.5-3.9Z" transform="translate(-117.087 -99.448)" fill="#2f2e41"/>
    <ellipse id="Ellipse_39" data-name="Ellipse 39" cx="20.215" cy="10.885" rx="20.215" ry="10.885" transform="translate(715.068 237.796)" fill="#2f2e41"/>
    <path id="Path_839" data-name="Path 839" d="M81.7,555.659C81.7,616.72,120,666.13,167.342,666.13" transform="translate(-81.696 -93.369)" fill="#3f3d56"/>
    <path id="Path_840" data-name="Path 840" d="M171.487,666.071c0-61.747,42.748-111.712,95.576-111.712" transform="translate(-85.84 -93.309)" fill="#980031"/>
    <path id="Path_841" data-name="Path 841" d="M114.229,561.463c0,58,24.427,104.936,54.615,104.936" transform="translate(-83.198 -93.637)" fill="#980031"/>
    <path id="Path_842" data-name="Path 842" d="M171.487,664.57c0-78.9,49.41-142.744,110.471-142.744" transform="translate(-85.84 -91.808)" fill="#3f3d56"/>
    <path id="Path_843" data-name="Path 843" d="M152.6,671.976s12.146-.374,15.807-2.981,18.684-5.719,19.592-1.539,18.253,20.792,4.54,20.9S160.673,686.222,157.02,684,152.6,671.976,152.6,671.976Z" transform="translate(-84.969 -98.435)" fill="#a8a8a8"/>
    <path id="Path_844" data-name="Path 844" d="M192.781,687.22c-13.713.111-31.863-2.136-35.516-4.361-2.782-1.695-3.891-7.776-4.262-10.582-.257.011-.405.016-.405.016s.769,9.8,4.423,12.021,21.8,4.472,35.516,4.362c3.958-.032,5.326-1.44,5.251-3.526C197.237,686.409,195.727,687.2,192.781,687.22Z" transform="translate(-84.968 -98.752)" opacity="0.2"/>
  </g>
</svg>
